<?xml version="1.0" encoding="UTF-8"?>
<svg id="Layer_1" data-name="Layer 1" xmlns="http://www.w3.org/2000/svg" xmlns:xlink="http://www.w3.org/1999/xlink" viewBox="0 0 128 128">
  <defs>
    <style>
      .cls-1 {
        clip-path: url(#clippath);
      }

      .cls-2 {
        fill: none;
      }

      .cls-2, .cls-3 {
        stroke-width: 0px;
      }

      .cls-3 {
        fill: #225b55;
      }
    </style>
    <clipPath id="clippath">
      <rect class="cls-2" x="10.19" y="6.5" width="111.81" height="115"/>
    </clipPath>
  </defs>
  <g class="cls-1">
    <path class="cls-3" d="M120.11,65.49c-3.22-6.77-6.85-13.32-10.87-19.65-1.8-2.87-3.5-5.58-6.03-10.29l-.48-.89c-.69-1.6-1.59-3.07-2.71-4.41-1.12-1.34-2.41-2.48-3.87-3.44l-.38-.3c-7.3-6.13-15.02-11.67-23.17-16.62-2.18-1.34-4.24-2.61-6.6-4.22-.31-.21-.66-.32-1.04-.32s-.73.11-1.04.32c-2.37,1.61-4.43,2.88-6.61,4.22-8.14,4.95-15.86,10.49-23.17,16.62l-.38.31c-1.46.96-2.74,2.1-3.86,3.44-1.12,1.34-2.02,2.81-2.71,4.41l-.47.89c-2.51,4.69-4.28,7.53-6.15,10.55-4.12,6.55-7.85,13.31-11.19,20.29-.11.22-.17.45-.19.69-.02.24.01.48.09.71s.2.44.36.62c.16.18.35.33.57.44.27.14,1.25.53,2.43.99,1.06.42,2.77,1.09,3.78,1.52-.54,7.78-.98,40.52.14,45.24.09.39.28.71.58.97,1.9,1.66,12.05,2.39,37.23,2.39,3.27,0,6.82-.01,10.62-.04,3.8.02,7.34.04,10.62.04,25.15,0,35.3-.73,37.19-2.39l.44-.39.14-.57c1.13-4.74.68-37.83.13-45.37,1.63-.98,5.09-2.93,5.78-3.28h0c.22-.11.41-.26.57-.44s.28-.39.35-.62.11-.47.09-.71c-.02-.24-.08-.47-.19-.69ZM19.44,72.09c2.03-3.91,3.85-7.49,5.53-10.82,2.07-4.09,3.94-7.78,5.8-11.27-.31,38.04.02,58.49,1.09,65.85-.99,0-1.85-.02-2.51-.02v.06c-3.34-.02-6.65-.33-9.93-.94-.8-6.4-.43-36,0-42.87ZM49.77,116.09c2.47-2.17,4.59-4.64,6.36-7.42,2.89-4.44,6.12-8.62,9.69-12.54,6.86,7.79,13.84,15.43,18.79,19.9-5.36.07-12.2.15-19.43.2-5.51-.03-10.81-.09-15.41-.14ZM86.12,72.41c-2.05,1.99-4.27,3.77-6.68,5.32-2.8,1.38-8.31,6.86-13.62,12.79-1.3-1.49-2.42-2.78-3.28-3.78-.86-.99-1.53-1.77-1.98-2.28-2.32-2.64-7.85-7.7-11.89-11.4-.39-.36-.79-.72-1.17-1.07.26,0,.52-.02.8-.02,20.8-.58,33.49-.43,37.82.44ZM87.1,76.55c.11,5.39.36,10.86.61,16.19.34,7.15.68,14.52.66,21.72-7.09-6.66-13.79-13.7-20.09-21.12,5.17-5.78,10.5-11.15,12.79-12.28,2.13-1.33,4.14-2.83,6.02-4.5ZM57.79,86.9c.44.5,1.11,1.28,1.96,2.26,1.18,1.37,2.39,2.76,3.61,4.16-3.89,4.27-7.39,8.83-10.52,13.68-2.1,3.13-4.65,5.84-7.65,8.11-.3-7.55-.41-30.73-.06-40.27.32.29.66.61,1.05.96,3.75,3.43,9.42,8.62,11.61,11.11ZM97.06,47.22c.14,1.35.11,7.64.07,14.3-.08,14.88-.2,37.07.89,54.34-1.57.01-3.6.04-5.98.07.07-7.77-.28-15.68-.64-23.37-.32-6.85-.65-13.94-.66-20.74,0-.67-.25-1.23-.74-1.69-.87-.85-2.91-1.49-7.93-1.86-.01-3.14-.04-7.09-.08-11.33-.08-9.17-.17-20.16-.04-26.28,3.52,2.29,6.8,4.86,9.87,7.73,1.87,2.89,3.57,5.8,5.24,8.83ZM78.3,56.97c.04,4.14.07,8,.08,11.1-5.62-.21-13.88-.2-25.98.1-.41-6.41-.43-15.06-.44-22.78-.01-7.44-.02-14-.37-17.61,1.53-1.06,3.17-2.18,5.05-3.46,2.29-1.56,4.85-3.31,7.78-5.33,4.71,3.24,8.55,5.75,11.96,7.98.68.44,1.32.87,1.96,1.28-.23,5.36-.13,17.72-.03,28.72ZM48.06,29.38c.18,3.69.19,9.29.2,15.14.01,7.72.03,16.35.44,22.87-.17,0-.33,0-.5.01-2.2.06-3.8.11-4.48.11-.31,0-.6.08-.87.22-.27.14-.5.34-.68.59-1.57,2.21-.79,37.11-.47,46.79h-.65c-1.78-.03-3.41-.06-4.87-.07-1.05-5.82-1.42-28.18-1.11-66.63.03-3.06.04-4.83,0-5.91.98-1.68,1.99-3.33,3.05-4.98,3.11-2.97,6.42-5.68,9.95-8.14ZM109.92,114.91c-2.71.53-5.45.82-8.21.87-1.09-17.16-.97-39.37-.89-54.25.02-2.93.03-5.27.03-7.17,1.13,2.19,2.29,4.48,3.52,6.92,1.68,3.32,3.49,6.89,5.52,10.79.44,6.93.82,36.34.02,42.84ZM111.9,67.9c-1.51-2.94-2.91-5.69-4.22-8.29-3.87-8.03-8.16-15.84-12.87-23.41-.08-.12-.17-.23-.27-.32-4.98-4.54-10.36-8.54-16.14-12.01-3.64-2.38-7.77-5.08-12.93-8.66-.16-.11-.32-.19-.5-.24-.18-.06-.36-.08-.55-.08s-.37.03-.55.08-.35.14-.5.24c-3.36,2.33-6.26,4.3-8.81,6.04-8.85,6.03-13.72,9.36-19.17,14.62-.1.1-.19.2-.27.32-4.71,7.57-9,15.37-12.86,23.4-1.33,2.64-2.75,5.43-4.29,8.42-.83-.36-2.06-.86-3.98-1.62-.14-.06-.28-.11-.41-.16,3.05-6.25,6.43-12.32,10.14-18.2,1.82-2.93,3.71-5.97,6.27-10.76l.48-.89c.58-1.38,1.35-2.64,2.32-3.78.96-1.15,2.07-2.12,3.33-2.93l.38-.31c7.17-6.03,14.76-11.48,22.77-16.34,1.9-1.17,3.7-2.28,5.71-3.61,2.01,1.33,3.81,2.45,5.7,3.61,8.01,4.86,15.6,10.31,22.78,16.34l.38.31c1.26.81,2.37,1.79,3.33,2.93s1.73,2.41,2.31,3.79l.48.9c2.59,4.83,4.4,7.72,6.16,10.51,3.64,5.72,6.94,11.64,9.89,17.74-1.22.68-2.89,1.62-4.11,2.36Z"/>
  </g>
  <path class="cls-3" d="M74.76,42.55c.14-1.66-.03-3.28-.52-4.87-.09-.24-.2-.46-.33-.68s-.27-.42-.44-.62-.34-.37-.53-.54c-.19-.16-.4-.31-.61-.44-.22-.13-.45-.24-.68-.33s-.48-.16-.73-.21c-.25-.05-.5-.08-.75-.09-.25,0-.5,0-.76.04-2.19.02-5.07.17-7.39.28-1.74.09-3.22.17-3.99.17-.15,0-.29.02-.43.05-.14.03-.28.08-.4.15-.13.06-.25.14-.36.24-.11.09-.21.2-.29.31-.09.11-.16.24-.21.37-.06.13-.1.27-.12.41-.02.14-.03.28-.02.43,0,.14.04.28.08.42.05.64-.02,2.87-.07,4.53-.16,5.02-.16,6.84.15,7.74.57,1.64,2.91,2.47,7.01,2.47,2.58-.04,5.15-.26,7.7-.66.63-.03,1.23-.19,1.79-.47.56-.29,1.04-.67,1.44-1.16.4-.65.65-1.35.75-2.1.1-.76.05-1.5-.15-2.23-.14-1.07-.19-2.14-.14-3.22ZM71.32,47.91c-.29.1-.58.16-.88.18-3.53.64-7.07.74-10.62.29-.08-1.21.02-4.2.07-6.08.05-1.49.08-2.58.09-3.4.66-.03,1.42-.07,2.24-.11,2.28-.12,5.11-.26,7.23-.28,1.12,0,1.2.14,1.36.54.26,1.13.35,2.28.25,3.44-.06,1.32,0,2.64.2,3.95.13.48.15.98.06,1.47Z"/>
</svg>