<?xml version="1.0" encoding="UTF-8"?>
<svg id="Layer_1" data-name="Layer 1" xmlns="http://www.w3.org/2000/svg" xmlns:xlink="http://www.w3.org/1999/xlink" viewBox="0 0 128 128">
  <defs>
    <style>
      .cls-1 {
        clip-path: url(#clippath);
      }

      .cls-2 {
        fill: none;
      }

      .cls-2, .cls-3 {
        stroke-width: 0px;
      }

      .cls-4 {
        clip-path: url(#clippath-1);
      }

      .cls-5 {
        clip-path: url(#clippath-4);
      }

      .cls-6 {
        clip-path: url(#clippath-3);
      }

      .cls-7 {
        clip-path: url(#clippath-2);
      }

      .cls-8 {
        clip-path: url(#clippath-7);
      }

      .cls-9 {
        clip-path: url(#clippath-8);
      }

      .cls-10 {
        clip-path: url(#clippath-6);
      }

      .cls-11 {
        clip-path: url(#clippath-5);
      }

      .cls-12 {
        clip-path: url(#clippath-9);
      }

      .cls-13 {
        clip-path: url(#clippath-10);
      }

      .cls-3 {
        fill: #225b55;
      }
    </style>
    <clipPath id="clippath">
      <rect class="cls-2" x="107.56" y="62.76" width="14.94" height="27.38"/>
    </clipPath>
    <clipPath id="clippath-1">
      <rect class="cls-2" x="107.56" y="35.37" width="14.94" height="27.38"/>
    </clipPath>
    <clipPath id="clippath-2">
      <rect class="cls-2" x="107.56" y="87.65" width="14.94" height="27.38"/>
    </clipPath>
    <clipPath id="clippath-3">
      <rect class="cls-2" x="5.5" y="35.37" width="117" height="79.66"/>
    </clipPath>
    <clipPath id="clippath-4">
      <rect class="cls-2" x="107.56" y="47.82" width="14.94" height="2.49"/>
    </clipPath>
    <clipPath id="clippath-5">
      <rect class="cls-2" x="107.56" y="60.27" width="14.94" height="2.49"/>
    </clipPath>
    <clipPath id="clippath-6">
      <rect class="cls-2" x="107.56" y="75.2" width="14.94" height="2.49"/>
    </clipPath>
    <clipPath id="clippath-7">
      <rect class="cls-2" x="107.56" y="87.65" width="14.94" height="2.49"/>
    </clipPath>
    <clipPath id="clippath-8">
      <rect class="cls-2" x="107.56" y="100.1" width="14.94" height="2.49"/>
    </clipPath>
    <clipPath id="clippath-9">
      <rect class="cls-2" x="5.5" y="10.48" width="117" height="27.38"/>
    </clipPath>
    <clipPath id="clippath-10">
      <rect class="cls-2" x="35.37" y="107.56" width="57.26" height="9.96"/>
    </clipPath>
  </defs>
  <g class="cls-1">
    <path class="cls-3" d="M122.53,89.24c-.28,0-.55-.1-.75-.32l-12.79-12.8c-.42-.42-.42-1.08,0-1.5l12.79-12.79c.42-.42,1.08-.42,1.5,0,.42.42.42,1.08,0,1.5l-12.03,12.05,12.03,12.04c.42.42.42,1.08,0,1.5-.2.22-.47.32-.75.32"/>
  </g>
  <path class="cls-3" d="M7.38,89.24c-.28,0-.55-.1-.76-.32-.42-.42-.42-1.08,0-1.5l12.05-12.04-12.05-12.05c-.42-.42-.42-1.08,0-1.5.42-.42,1.09-.42,1.52,0l12.79,12.79c.42.42.42,1.08,0,1.5l-12.79,12.8c-.21.22-.48.32-.76.32"/>
  <g class="cls-4">
    <path class="cls-3" d="M122.53,63.65c-.28,0-.55-.1-.75-.32l-12.79-12.8c-.42-.42-.42-1.08,0-1.5l12.79-12.79c.42-.42,1.08-.42,1.5,0,.42.42.42,1.08,0,1.5l-12.03,12.05,12.03,12.05c.42.42.42,1.08,0,1.5-.2.22-.47.32-.75.32"/>
  </g>
  <path class="cls-3" d="M7.38,63.65c-.28,0-.55-.1-.76-.32-.42-.42-.42-1.08,0-1.5l12.05-12.05-12.05-12.05c-.42-.42-.42-1.08,0-1.5.42-.42,1.09-.42,1.52,0l12.79,12.79c.42.42.42,1.08,0,1.5l-12.79,12.8c-.21.22-.48.32-.76.32"/>
  <g class="cls-7">
    <path class="cls-3" d="M122.53,114.83c-.28,0-.55-.11-.75-.31l-12.79-12.8c-.42-.42-.42-1.08,0-1.5l12.79-12.8c.42-.42,1.08-.42,1.5,0s.42,1.08,0,1.5l-12.03,12.04,12.03,12.04c.42.42.42,1.09,0,1.52-.2.2-.47.31-.75.31"/>
  </g>
  <path class="cls-3" d="M7.38,114.83c-.28,0-.55-.11-.76-.31-.42-.42-.42-1.09,0-1.52l12.05-12.04-12.05-12.04c-.42-.42-.42-1.08,0-1.5.42-.42,1.09-.42,1.52,0l12.79,12.8c.42.42.42,1.08,0,1.5l-12.79,12.8c-.21.2-.48.31-.76.31"/>
  <path class="cls-3" d="M109.73,114.83c-.59,0-1.07-.48-2.17-1.07V37c1.1-.59,1.58-1.07,2.17-1.07s1.07.48.32,1.07v76.77c.75.59.27,1.07-.32,1.07"/>
  <path class="cls-3" d="M20.17,114.83c-.59,0-1.07-.48-2.22-1.07V37c1.16-.59,1.63-1.07,2.22-1.07s1.07.48.27,1.07v76.77c.8.59.33,1.07-.27,1.07"/>
  <g class="cls-6">
    <path class="cls-3" d="M122.5,115.03h-23.43s-1.07-.68-1.07-1.27,1.07-1.22,1.07-1.22h20.94V37.86H7.99v74.68h22.84c.59.15,1.07.63,1.07,1.22s-1.07,1.27-1.07,1.27H6.57c-.59,0-1.07-.48-1.07-1.07V36.44c0-.59.48-1.07,1.07-1.07h114.87c.59,0,1.07.48,1.07,1.07v77.32c0,.59-.48,1.07-1.07,1.07"/>
  </g>
  <g class="cls-5">
    <path class="cls-3" d="M122.5,50.31h-12.77c-.59.55-1.07.07-1.07-.52s.48-1.07,1.07-1.97h12.79c.59.91,1.07,1.38,1.07,1.97s-.48,1.07-1.07,1.07"/>
  </g>
  <path class="cls-3" d="M20.44,50.31H7.38c-.59.55-1.07.07-1.07-.52s.48-1.07,1.07-1.97h12.79c.59.91,1.07,1.38,1.07,1.97s-.48,1.07-1.07,1.07"/>
  <g class="cls-11">
    <path class="cls-3" d="M122.5,60.27h-12.77c-.59,3.38-1.07,2.91-1.07,2.32s.48-1.07,1.07.17h12.79c.59-1.24,1.07-.76,1.07-.17s-.48,1.07-1.07,1.07"/>
  </g>
  <path class="cls-3" d="M20.44,60.27H7.38c-.59,3.38-1.07,2.91-1.07,2.32s.48-1.07,1.07.17h12.79c.59-1.24,1.07-.76,1.07-.17s-.48,1.07-1.07,1.07"/>
  <g class="cls-10">
    <path class="cls-3" d="M122.5,77.69h-12.77c-.59-1.24-1.07-1.72-1.07-2.31s.48-1.07,1.07-.18h12.79c.59-.89,1.07-.42,1.07.18s-.48,1.07-1.07,1.07"/>
  </g>
  <path class="cls-3" d="M20.44,77.69H7.38c-.59-1.24-1.07-1.72-1.07-2.31s.48-1.07,1.07-.18h12.79c.59-.89,1.07-.42,1.07.18s-.48,1.07-1.07,1.07"/>
  <g class="cls-8">
    <path class="cls-3" d="M122.5,90.14h-12.77c-.59-.9-1.07-1.37-1.07-1.96s.48-1.07,1.07-.52h12.79c.59-.54,1.07-.07,1.07.52s-.48,1.07-1.07,1.07"/>
  </g>
  <path class="cls-3" d="M20.44,90.14H7.38c-.59-.9-1.07-1.37-1.07-1.96s.48-1.07,1.07-.52h12.79c.59-.54,1.07-.07,1.07.52s-.48,1.07-1.07,1.07"/>
  <g class="cls-9">
    <path class="cls-3" d="M122.5,102.59h-12.77c-.59-.55-1.07-1.03-1.07-1.62s.48-1.07,1.07-.87h12.79c.59-.19,1.07.28,1.07.87s-.48,1.07-1.07,1.07"/>
  </g>
  <path class="cls-3" d="M20.44,102.59H7.38c-.59-.55-1.07-1.03-1.07-1.62s.48-1.07,1.07-.87h12.79c.59-.19,1.07.28,1.07.87s-.48,1.07-1.07,1.07"/>
  <path class="cls-3" d="M110.05,92.63H20.17c-.59.88-1.07.4-1.07-.19s.48-1.07,1.07-2.3h89.56c.59,1.23,1.07,1.71,1.07,2.3s-.48,1.07-1.07,1.07"/>
  <g class="cls-12">
    <path class="cls-3" d="M121.08,38.06c-.59,0-1.07-.48-1.07-1.07v-9.9l-56.01-14.52L7.99,27.09v9.9s-.02,1.07-.61,1.07-1.88-1.07-1.88-1.07v-10.68c0-.48.33-.9.8-1.03l57.43-14.89h.53s57.44,14.89,57.44,14.89c.47.13.8.55.8,1.03v10.68c0,.59-.48,1.07-1.07,1.07"/>
  </g>
  <path class="cls-3" d="M86.23,110.56c-.59,0-1.07-.47-1.07-1.07v-6.91h-39.83v6.91c-.64.59-1.11,1.07-1.7,1.07s-.79-1.07-.79-1.07v-8.34c0-.59.48-1.07,1.07-1.07h42.68c.59,0,1.07.48,1.07,1.07v8.34c0,.59-.48,1.07-1.07,1.07"/>
  <g class="cls-13">
    <path class="cls-3" d="M37.86,117.52h52.28v-7.47h-52.28v7.47ZM92.63,117.52h-56.19c-.59,0-1.07-.48-1.07-1.07v-7.83c0-.59.48-1.07,1.07-1.07h55.12c.59,0,1.07.48,1.07,1.07v7.9c0,.55-.47,1-1.06,1"/>
  </g>
  <path class="cls-3" d="M64.95,48.72c-.59,0-1.07-.48-2.2-1.07v-6.4c1.13-.59,1.6-1.07,2.2-1.07s1.07.48.29,1.07v6.4c.77.59.3,1.07-.29,1.07"/>
  <path class="cls-3" d="M70.22,45.33h-11.67c-.59,3.39-1.07,2.92-1.07,2.33s.48-1.07,1.07.16h12.79c.59-1.23,1.07-.75,1.07-.16s-.48,1.07-1.07,1.07"/>
  <path class="cls-3" d="M92.67,48.72c-.59,0-1.07-.48-.05-1.07v-6.4c-1.02-.59-.55-1.07.05-1.07s1.07.48,2.44,1.07v6.4c-1.38.59-1.85,1.07-2.44,1.07"/>
  <path class="cls-3" d="M100.1,45.33h-13.82c-.59,3.39-1.07,2.92-1.07,2.33s.48-1.07,1.07.16h12.79c.59-1.23,1.07-.75,1.07-.16s-.47,1.07-1.07,1.07"/>
  <path class="cls-3" d="M37.23,48.72c-.59,0-1.07-.48-1.86-1.07v-6.4c.79-.59,1.27-1.07,1.86-1.07s1.07.48.63,1.07v6.4c.43.59-.04,1.07-.63,1.07"/>
  <path class="cls-3" d="M42.84,45.33h-12.01c-.59,3.39-1.07,2.92-1.07,2.33s.48-1.07,1.07.16h12.79c.59-1.23,1.07-.75,1.07-.16s-.48,1.07-1.07,1.07"/>
</svg>