<?xml version="1.0" encoding="UTF-8"?>
<svg id="Layer_1" data-name="Layer 1" xmlns="http://www.w3.org/2000/svg" viewBox="0 0 128 128">
  <defs>
    <style>
      .cls-1 {
        fill: #225b55;
        stroke-width: 0px;
      }
    </style>
  </defs>
  <path class="cls-1" d="M56.34,37.67h2.22c.51,0,.93-.42.93-.93v-3.69c0-.51-.42-.93-.93-.93s-.93.42-.93.93v2.76h-1.29c-.51,0-.93.42-.93.93s.42.93.93.93Z"/>
  <path class="cls-1" d="M54.36,39.31c.87.87,2.07,1.39,3.3,1.39.53,0,.97-.44.97-.97s-.44-.97-.97-.97c-.72,0-1.42-.28-1.94-.82l-.44-.44c-.38-.38-.99-.38-1.37,0-.38.38-.38.99,0,1.37,0,0,.44.44.44.44Z"/>
  <path class="cls-1" d="M123.46,41.58l-3.29-6.59c-.21-.43-.71-.64-1.17-.49l-2.78.89-1.03-2.08c-.25-.47-.82-.66-1.3-.43-.48.23-.67.81-.44,1.27l.92,1.83-1.72.55-.8-1.61c-.23-.47-.82-.66-1.3-.43s-.67.81-.44,1.28h0l.69,1.36-1.72.55-.57-1.13c-.23-.47-.8-.68-1.3-.45s-.69.79-.46,1.28v.16l.44.89-.72.23c-.36.11-.61.42-.66.8l-.36,2.79-11.29,5.56c-.89-1.06-2.47-1.2-3.53-.3-.3.25-.55.57-.7.95-1.14-.17-2.24.44-2.69,1.5-1.14-.17-2.24.44-2.69,1.5-1.37-.21-2.64.72-2.87,2.09-.02.15-.04.3-.04.46l-.46.23-.34-2.18c-.53-3.47-3.51-6.02-7.02-6.02h-17.08v-1.14c3.96,0,7.4-2.75,8.36-6.66l.15-.63c.46-1.86.69-3.78.69-5.69,0-7.12-5.65-12.88-12.62-12.88-1.04,0-2.06.17-3.05.51l-3.77,1.29c-1.6.53-3.31.53-4.91,0l-1.51-.51c-2.55-.87-5.33-.61-7.7.7-1.84,1.02-4,1.25-6,.63l-8.27-2.58c-.5-.15-1.02.13-1.17.65-.02.09-.04.19-.04.28v22.4c0,.43.3.83.72.93l6.97,1.74c2.59.64,5.29.55,7.82-.3l.26-.09c2.48-.81,5.16-.81,7.63,0,2.7.91,5.61.96,8.33.15l.68-.19v.93c-19.97.02-20.22.06-20.32.08-2.58.36-4.76,2.07-5.72,4.46l-4.33,10.89c-.96.3-1.91.68-2.83,1.12-10.24,4.97-14.46,17.17-9.42,27.27v.02l4.12,8.22c5.05,10.1,17.47,14.25,27.71,9.26,2.87-1.4,5.39-3.43,7.32-5.96l7.16-9.3,13.34-5.26c2.48-.99,4.47-2.9,5.51-5.31l3.14,27.14c.06.49.48.85.96.85.04,0-1.05,0-1.01,0,.54-.06.92-.53.86-1.06h0l-2.05-17.75c2.85,2.72,7.39,2.66,10.15-.15.67-.68,1.19-1.47,1.53-2.36v-.04l10.32-30.31.36-.21h.02c1.03-.6,1.59-1.78,1.38-2.95l11.16-5.42,2.46,1.4c.32.18.72.17,1.02-.04l.63-.43.44.89c.23.47.82.66,1.3.43s.67-.81.44-1.28h0l-.57-1.13,1.49-1,.69,1.36c.25.47.82.66,1.3.42.48-.23.67-.79.44-1.27l-.8-1.61,1.49-1,.92,1.83c.23.47.82.66,1.3.43s.67-.81.44-1.28l-1.03-2.08,2.41-1.62c.4-.26.54-.79.33-1.21l.1.02ZM83.56,53.08c.28-.15.63-.06.78.23h0l2.2,4c.27.46.85.63,1.31.38.46-.27.63-.83.38-1.29l-2.2-4c-.15-.28-.06-.63.23-.78.28-.15.63-.06.78.23l2.2,4.02c.25.47.83.65,1.31.38s.65-.83.38-1.31h0l-2.2-4.04c-.15-.28-.06-.63.23-.78.28-.15.63-.06.78.23h0l2.18,4c.27.46.83.63,1.31.38.46-.25.63-.83.38-1.29l-2.2-4.02c-.15-.28-.06-.63.23-.78s.63-.06.78.23l2.94,5.29c.25.44.09.99-.32,1.25l-6.51,3.57c-1.01.55-2.26.19-2.81-.8l-2.37-4.27c-.15-.28-.06-.63.23-.78h0v-.06ZM76.15,72.2l-2.83.44.13-2.33c.04-.54-.37-1-.9-1.04-.54-.04-1,.37-1.04.9v.02l-.19,3.44c-.1-.21-.17-.42-.29-.63l-2.27-4.61,10.42-5.13-3.04,8.96v-.02ZM57.62,71.64c-.28-1.18-.83-2.3-1.59-3.24l26.24-12.92,1.76,3.17-26.41,13.02v-.02ZM60.57,75.49c-.08.12-.21.21-.34.25h0l-7.42,1.85c-.51.12-.83.61-.7,1.1.13.48.65.78,1.18.66h.02l7.42-1.85c.3-.07.63.09.7.39.08.29-.09.59-.42.66h0l-7.27,1.82c-.51.12-.83.61-.7,1.1.13.48.65.78,1.18.66h.02l7.27-1.82c.3-.07.63.09.7.37s-.09.59-.4.66l-7.02,1.76c-.51.14-.82.64-.66,1.1.13.46.66.75,1.16.62l7.02-1.76c.3-.07.63.11.7.39,0,.04.02.09.02.14,0,.25-.17.46-.44.52l-38.07,9.51c-5.16,1.3-10.47-1.59-11.84-6.43-.53-1.87-.42-3.85.34-5.65l4.99-11.99,9.58,3.76-3.7,8.89c-.19.46.06.98.55,1.18.19.07.4.09.61.04l21.88-5.49c.27-.07.49-.25.63-.48l2.5-4.88c.17-.34.59-.46.95-.32.25.11.4.34.4.61,0,.07,0,.14-.04.21l-.93,2.49c-.21.46.04,1,.51,1.18.21.09.44.09.65.04l8.31-2.07c.3-.07.63.09.7.37.04.14.02.29-.06.41h0l.02-.02ZM52.99,74.45l.34-.99c.15-.45.2-.9.09-1.42-.16-.75-.65-1.41-1.32-1.77-1.41-.75-3.01-.11-3.63,1.18l-2.3,4.8-1.94.51h0c-1.83-3.25-.54-7.31,2.73-8.94,3.19-1.58,7.04-.27,8.62,2.9.44.87.66,1.84.66,2.83l-3.26.85v.04ZM29.5,80.67l-1.56-3.17,1.78-4.55,3.34,6.77-3.57.95ZM79.6,52.49l.46,2.93-14.84,7.32-2.37-4.81c-.94-1.92-2.47-3.51-4.35-4.55,1.5-1.48,2.45-3.43,2.67-5.51h13.03c2.71,0,5.01,1.97,5.41,4.63h-.02ZM49.96,47.86c.53-.24,1.18-1.21,1.18-1.21v-9.86c0-.54-.45-.93-.99-.93-1.18,0-2.11-.96-2.13-2.13s.96-2.13,2.13-2.15c.77,0,1.48.42,1.86,1.09.27.46.86.63,1.32.36h.02c1.4-.82,2.42-2.19,2.82-3.76l.73-2.72h.46s2.32.97,2.12,2.24v9.43c.2,2.16-1.4,4-3.52,4.33h0c-.49.08-.99.08-1.46-.02-.51-.09-1.02.25-1.12.76s.25,1.02.76.86h.02c.32.32,1.62.35,1.62.35v2.13s-.2.97.33.3h3.55c-.25,2.41-1.18,3.99-2.56,5.07-2.39-.7-4.95-.47-7.19.65-1.94-1.01-3.26-2.87-3.57-4.79h3.62ZM25.14,50.62c.68-1.73,2.24-2.96,4.08-3.24.66-.02,8.16-.04,15.2-.06.27,2.47,1.59,4.69,3.61,6.11l-10.93,6.47h-2.35l.19-.51c.19-.49-.06-1.04-.55-1.25-.49-.19-1.04.06-1.25.55l-4.82,12.32-9.58-4s6.41-16.38,6.41-16.38ZM72.9,78.95l.25-4.38,2.2-.34-2.24,6.6s-.21-1.88-.21-1.88ZM83.98,87.07c-1.04,2.68-4.06,3.98-6.74,2.94s-3.98-4.06-2.94-6.74v-.04l7.15-21.12,3.89-1.92c.72.61,1.63.93,2.56.93.66,0,1.33-.17,1.92-.49l3.68-2.01-9.54,28.46.02-.02ZM119.75,42.3l-.55-1.14c-.23-.47-.82-.66-1.29-.44s-.66.82-.44,1.29l.68,1.39-1.48,1.01-.8-1.61c-.23-.47-.8-.68-1.29-.46s-.68.8-.46,1.29v.02l.91,1.86-1.48,1.01-1.02-2.09c-.23-.47-.82-.66-1.29-.44s-.66.82-.44,1.29l1.14,2.33-.36.25-2.35-1.37c-.28-.15-.63-.17-.91-.04l-11.46,5.65-1.76-3.17,11.63-5.73c.28-.13.49-.42.53-.74l.36-2.69.4-.13,1.14,2.33c.23.47.82.66,1.29.44s.66-.82.44-1.29h0l-1.02-2.09,1.71-.55.91,1.86c.23.47.82.66,1.29.44s.66-.82.44-1.29l-.8-1.61,1.71-.55.68,1.39c.23.47.82.68,1.29.44.47-.23.68-.82.44-1.29h0l-.55-1.14,1.71-.55,2.52,5.12-1.48,1.01h.02Z"/>
  <path class="cls-1" d="M76.18,39.34c1.59,0,2.88-1.29,2.88-2.88,0-.27-.04-.53-.11-.78h0l-2.07-7.4,2.77-.78c.51-.13.83-.65.7-1.18-.13-.51-.65-.83-1.18-.7h-.06l-3.7,1.04c-.51.15-.82.68-.66,1.18h0l1.59,5.71c-1.59-.11-2.96,1.1-3.07,2.68-.02.32,0,.66.09.97.34,1.25,1.48,2.11,2.77,2.11l.04.04Z"/>
  <path class="cls-1" d="M89.39,30.56c1.35.85,3.13.46,3.98-.89h0l3.09-4.88,4.88,3.09-1.63,2.58c-.99-1.25-2.79-1.48-4.04-.49s-1.48,2.79-.49,4.04,2.79,1.48,4.04.49c.23-.17.42-.38.59-.63.08-.11,5.73-9.03,5.73-9.03.28-.46.15-1.04-.3-1.33l-6.49-4.12c-.46-.28-1.04-.15-1.33.3h0l-4.21,6.64c-.99-1.25-2.79-1.48-4.04-.49s-1.48,2.79-.49,4.04c.21.27.46.47.72.66h0Z"/>
</svg>