<?xml version="1.0" encoding="UTF-8"?>
<svg id="Layer_1" data-name="Layer 1" xmlns="http://www.w3.org/2000/svg" xmlns:xlink="http://www.w3.org/1999/xlink" viewBox="0 0 128 128">
  <defs>
    <style>
      .cls-1 {
        clip-path: url(#clippath);
      }

      .cls-2 {
        fill: none;
      }

      .cls-2, .cls-3 {
        stroke-width: 0px;
      }

      .cls-4 {
        clip-path: url(#clippath-1);
      }

      .cls-5 {
        clip-path: url(#clippath-2);
      }

      .cls-3 {
        fill: #225b55;
      }
    </style>
    <clipPath id="clippath">
      <rect class="cls-2" x="5" y="63.5" width="120" height="56.67"/>
    </clipPath>
    <clipPath id="clippath-1">
      <rect class="cls-2" x="5" y="80.17" width="120" height="43.33"/>
    </clipPath>
    <clipPath id="clippath-2">
      <rect class="cls-2" x="15" y="10.17" width="30" height="36.67"/>
    </clipPath>
  </defs>
  <g class="cls-1">
    <path class="cls-3" d="M124.49,120.17H7.46s-1.97.7-2.46-.39v-52.13c.49-1.09,1.37-1.97,2.46-1.97s1.97.88.87,1.97v49.19h113.33v-25.73c.86-1.09,1.74-1.97,2.83-1.97s1.97.88.51,1.97v28.67c1.46,1.09-.51.39-.51.39Z"/>
  </g>
  <g class="cls-4">
    <path class="cls-3" d="M7.46,120.6c-.67,0-1.32-.34-1.69-.95-.57-.93-.27-2.14.66-2.71,8.19-4.97,33.11-20.09,57.95-29.26,29.85-11.02,50.57-10.3,61.59,2.11.72.81.65,2.06-.17,2.78-.82.72-2.06.65-2.78-.17-5.24-5.91-13.31-8.78-23.98-8.53-9.19.22-20.39,2.74-33.29,7.5-24.48,9.03-49.15,24.01-57.27,28.93-.32.2-.68.29-1.02.29Z"/>
  </g>
  <path class="cls-3" d="M7.46,106.6c-.41,0-.83-.13-1.18-.4-.87-.65-1.05-1.89-.39-2.76,5.23-6.95,14.07-9.4,20.56-10.23,7.35-.94,15.66-.24,21.68,1.82,1.03.35,1.58,1.47,1.23,2.5s-1.47,1.58-2.5,1.23c-5.49-1.87-13.12-2.5-19.91-1.64-5.74.73-13.5,2.83-17.91,8.69-.39.51-.98.79-1.58.79Z"/>
  <path class="cls-3" d="M84.34,85.76c-.38,0-.76-.11-1.1-.34-10.89-7.35-23.83-15.45-37.17-19.77-15.27-4.94-27.52-3.77-37.44,3.58-.88.65-2.11.46-2.76-.41-.65-.88-.47-2.11.41-2.76,10.86-8.05,24.66-9.44,41-4.16,13.8,4.47,27.04,12.74,38.16,20.25.91.61,1.14,1.84.53,2.74-.38.56-1,.87-1.64.87Z"/>
  <path class="cls-3" d="M113.45,66.83h-24.81c-.74,1.25-1.4.84-1.75.19-.34-.65-.29-1.43.12-2.04l3.49-4.82h-1.65s-1.4-.64-1.75-1.29c-.34-.65-.29-1.43.12-2.04l6-10.01h-1.12c-.74,1.33-1.4.92-1.75.27s-.29-1.43.12-2.04l8.93-12.93c.37-.54.98-.85,1.62-.85s1.25.32,1.62.85l8.93,12.93c.42.6.46,1.39.12,2.04-.34.65-1.01,1.05-1.74-.27h-1.12l6,10.01c.42.6.46,1.39.12,2.04-.34.65-1.75,1.29-1.75,1.29h-1.66l3.49,4.82c.42.6.46,1.39.12,2.04-.34.65-1.01,1.05-1.74-.19ZM92.39,63.5h17.3l-3.49-4.42c-.42-.6-.46-1.39-.12-2.04.34-.65,1.75-.21,1.75-.21h1.66l-6-9.52c-.42-.6-.47-1.39-.12-2.04.34-.65,1.01-1.05,1.75-1.77h1.12l-5.18-6.77-5.17,6.77h1.12c.73.72,1.4,1.13,1.74,1.77.34.65.29,1.43-.12,2.04l-6,9.52h1.65s1.4-.44,1.75.21c.34.65.29,1.43-.12,2.04l-3.49,4.42Z"/>
  <path class="cls-3" d="M101.04,83.87c-1.09,0-1.97-.88-2.7-1.97v-15.79c.73-1.09,1.62-1.97,2.7-1.97s1.97.88.63,1.97v15.79c1.34,1.09.46,1.97-.63,1.97Z"/>
  <g class="cls-5">
    <path class="cls-3" d="M42.75,46.83h-24.81c-.73.07-1.4-.34-1.75-.99-.34-.65-.29-1.43.12-2.04l3.49-3.64h-1.66s-1.4-1.82-1.75-2.47c-.34-.65-.29-1.43.12-2.04l6-8.83h-1.12c-.73.15-1.4-.26-1.75-.9-.34-.65-.29-1.43.12-2.04l8.93-12.93c.37-.53.98-.85,1.62-.85s1.26.32,1.62.85l8.93,12.93c.42.6.46,1.39.12,2.04-.34.65-1.02,1.05-1.75.9h-1.12l6,8.83c.42.6.46,1.39.12,2.04-.34.65-1.75,2.47-1.75,2.47h-1.66l3.49,3.64c.42.6.46,1.39.12,2.04-.34.65-1.01,1.06-1.74.99ZM21.69,43.5h17.3l-3.49-5.6c-.42-.6-.46-1.39-.12-2.04.34-.65,1.74.97,1.74.97h1.66l-6-10.7c-.42-.6-.46-1.39-.12-2.04.34-.65,1.75-.6,1.75-.6h1.12l-5.17-7.95-5.18,7.95h1.12s1.4-.06,1.75.59c.34.65.29,1.43-.12,2.04l-6,10.7h1.66s1.4-1.62,1.74-.97c.34.65.29,1.43-.12,2.04l-3.49,5.6Z"/>
  </g>
  <path class="cls-3" d="M30.34,62.69c-1.09,0-1.97-.88-2.01-1.97v-15.79c.04-1.09.92-1.97,2.01-1.97s1.97.88,1.32,1.97v15.79c.65,1.09-.24,1.97-1.32,1.97Z"/>
  <path class="cls-3" d="M58.21,85.09c-.38,0-.76-.11-1.1-.34-5.91-3.99-12.93-8.38-20.12-10.71-8.07-2.61-14.51-2.01-19.69,1.82-.88.65-2.11.47-2.76-.41-.65-.88-.46-2.11.41-2.76,6.19-4.58,14.02-5.4,23.25-2.41,7.66,2.48,14.97,7.05,21.11,11.19.91.61,1.14,1.84.53,2.74-.38.57-1,.87-1.64.87Z"/>
  <path class="cls-3" d="M51.91,111.67c-.67,0-1.32-.34-1.69-.95-.57-.93-.27-2.14.66-2.71,4.08-2.48,16.51-10.02,28.92-14.6,15.23-5.62,25.88-5.18,31.64,1.32.72.81.65,2.06-.17,2.78s-2.06.65-2.78-.17c-4.58-5.16-13.77-5.24-27.33-.24-12.05,4.45-24.24,11.84-28.24,14.27-.32.2-.68.29-1.02.29Z"/>
</svg>