<?xml version="1.0" encoding="UTF-8"?>
<svg id="Layer_1" data-name="Layer 1" xmlns="http://www.w3.org/2000/svg" xmlns:xlink="http://www.w3.org/1999/xlink" viewBox="0 0 128 128">
  <defs>
    <style>
      .cls-1 {
        clip-path: url(#clippath);
      }

      .cls-2 {
        fill: none;
      }

      .cls-2, .cls-3 {
        stroke-width: 0px;
      }

      .cls-3 {
        fill: #225b55;
      }
    </style>
    <clipPath id="clippath">
      <rect class="cls-2" x="8" y="9.22" width="112" height="109.57"/>
    </clipPath>
  </defs>
  <g class="cls-1">
    <path class="cls-3" d="M120,101.62v-7.81c0-1-.81-1.81-1.81-1.81h-3.06s0-71.29,0-71.29c0-.2-.03-.4-.09-.58.84-.28,1.6-.76,2.21-1.38.99-1.02,1.61-2.42,1.61-3.96s-.62-2.94-1.61-3.96c-1-1.03-2.38-1.66-3.91-1.66s-2.91.63-3.91,1.66c-.99,1.02-1.61,2.42-1.61,3.96,0,1.01.26,1.95.72,2.77-14.84,2.32-29.69,3.48-44.54,3.48s-29.7-1.16-44.54-3.48c.46-.82.73-1.76.73-2.77,0-1.54-.62-2.94-1.61-3.96-1-1.02-2.38-1.66-3.91-1.66s-2.91.64-3.91,1.66c-.99,1.02-1.61,2.42-1.61,3.96s.61,2.94,1.61,3.96c.61.63,1.37,1.1,2.21,1.38-.06.18-.09.38-.09.58v71.29h-3.06c-1,0-1.81.81-1.81,1.81v7.82h0v15.35c0,1,.81,1.81,1.81,1.81h108.39c1,0,1.8-.81,1.8-1.8v-15.36s0,0,0,0ZM111.12,14.61c.35-.35.83-.57,1.36-.57s1.02.22,1.36.57c.35.36.57.87.57,1.44s-.22,1.07-.58,1.43c-.35.35-.83.57-1.36.57s-1.02-.22-1.36-.57c-.35-.36-.58-.87-.58-1.43,0-.57.22-1.07.57-1.44ZM110.26,22.02v10.99c-15.82,2.62-31.64,3.94-47.48,3.94s-31.66-1.32-47.48-3.94v-10.99c15.83,2.6,31.66,3.9,47.48,3.9s31.64-1.3,47.48-3.9ZM12.01,14.61c.35-.35.83-.57,1.36-.57s1.02.22,1.36.57c.35.36.57.87.57,1.44s-.22,1.07-.58,1.43c-.35.35-.83.57-1.36.57s-1.02-.22-1.36-.57c-.35-.36-.58-.87-.58-1.43,0-.57.22-1.07.57-1.44ZM15.3,35.44c15.83,2.61,31.66,3.92,47.48,3.92s31.64-1.31,47.48-3.92v56.56h-2.43v-22.54c0-1-.81-1.81-1.81-1.81h-18.3c-1,0-1.8.81-1.8,1.8v22.54h-16.53s-1.55-2.39-2.96-4.87h0c-1.37-.09-3.06-.98-4.86-1.33v-16.71l1.83-1.55c.85.55,1.85.87,2.92.87,1.5,0,2.86-.62,3.85-1.62.98-1,1.58-2.37,1.58-3.88s-.61-2.88-1.58-3.88c-.99-1-2.35-1.62-3.85-1.62s-2.86.62-3.85,1.62c-.98,1-1.58,2.37-1.58,3.88,0,.63.11,1.23.3,1.79l-2.53,2.06c-.07.05-.14.11-.2.16l-3.67,2.99c-.77.63-.89,1.76-.26,2.53.63.77,1.76.89,2.53.26l2.08-.67v13.77c-3.08.34-4.74,1.19-6.08,2.4l-.12.1c-1.4,1.3-2.96,3.7-2.96,3.7h-10.32v-22.54c0-1-.81-1.81-1.81-1.81h-18.3c-1,0-1.81.81-1.81,1.81v22.54h-2.43v-56.56ZM105.39,79.2c-.37-.59-.81-1.13-1.32-1.61-1.53-1.45-3.65-2.34-5.99-2.34s-4.45.89-5.99,2.34c-.51.48-.95,1.02-1.32,1.61v-6.68h14.61v6.68ZM101.85,82.58c0,1.2-.48,2.29-1.24,3.07-.76.77-1.81,1.25-2.97,1.25s-2.21-.48-2.97-1.25c-.77-.78-1.24-1.87-1.24-3.07s.47-2.29,1.24-3.07c.76-.77,1.81-1.25,2.97-1.25s2.21.48,2.97,1.25c.76.78,1.24,1.87,1.24,3.07ZM90.78,87.75c.37.59.81,1.13,1.32,1.61,1.53,1.45,3.65,2.34,5.99,2.34s4.46-.89,5.99-2.34c.51-.48.95-1.02,1.32-1.61v6.68h-14.61v-6.69ZM65.04,64.27c-.34-.34-.54-.82-.54-1.35s.21-1.01.54-1.35c.32-.33.78-.54,1.28-.54s.95.21,1.28.54c.34.34.54.82.54,1.35s-.21,1.01-.54,1.35c-.32.34-.78.54-1.28.54s-.96-.2-1.28-.54ZM59.68,90.43c1.66,0,3.16.64,4.29,1.69.68.64,1.24,1.43,1.62,2.31h-11.82c.38-.89.93-1.67,1.62-2.31l.08-.08c1.12-1.01,2.6-1.61,4.21-1.61ZM34.78,79.21c-.37-.59-.81-1.13-1.32-1.61-1.53-1.45-3.65-2.34-5.99-2.34s-4.45.89-5.99,2.34c-.51.48-.95,1.02-1.32,1.61v-6.68h14.61v6.69ZM32.43,82.58c0,1.2-.48,2.29-1.24,3.07-.76.77-1.81,1.25-2.97,1.25s-2.21-.48-2.97-1.25c-.77-.78-1.24-1.87-1.24-3.07s.48-2.29,1.24-3.07c.76-.77,1.81-1.25,2.97-1.25s2.21.48,2.97,1.25c.76.78,1.24,1.87,1.24,3.07ZM20.17,94.44v-6.68c.37.59.81,1.13,1.32,1.6,1.53,1.45,3.65,2.34,5.99,2.34s4.45-.89,5.99-2.34c.51-.48.95-1.02,1.32-1.61v6.68h-14.61ZM10.43,96.87h104.7v4.87H10.43v-4.87ZM115.13,116.35H10.43v-12.17h104.7v12.17ZM25.87,29.08c.12-.99,1.01-1.69,2-1.58,11.68,1.42,23.36,2.13,35.06,2.13s23.38-.71,35.06-2.13c.99-.12,1.89.59,2,1.58.12.99-.59,1.89-1.58,2-11.83,1.44-23.66,2.16-35.48,2.16s-23.65-.72-35.48-2.16c-.99-.12-1.69-1.01-1.58-2Z"/>
  </g>
</svg>