<?xml version="1.0" encoding="UTF-8"?>
<svg id="Layer_1" data-name="Layer 1" xmlns="http://www.w3.org/2000/svg" xmlns:xlink="http://www.w3.org/1999/xlink" viewBox="0 0 128 128">
  <defs>
    <style>
      .cls-1 {
        clip-path: url(#clippath);
      }

      .cls-2 {
        fill: none;
      }

      .cls-2, .cls-3 {
        stroke-width: 0px;
      }

      .cls-3 {
        fill: #225b55;
      }
    </style>
    <clipPath id="clippath">
      <rect class="cls-2" x="3.5" y="12.14" width="121" height="103.71"/>
    </clipPath>
  </defs>
  <g class="cls-1">
    <path class="cls-3" d="M33.13,98.57h9.88v14.82h-9.88v-14.82ZM35.22,80c.33-.48.37-1.11.1-1.63-.27-.52-1.39.44-1.39.44h-6.95l8.49-14.88c.29-.5.28-1.11,0-1.6-.29-.49-.82-.8-1.39-.8h-3.92l11.73-22.39c.11-.14.19-.3.25-.47l1.46-2.8,13.44,25.66h-3.92c-.57,0-1.1.3-1.39.8-.29.5-.29,1.11,0,1.6l8.49,14.88h-6.95s-1.12-.96-1.4-.44c-.27.52-.23,1.15.1,1.63l10.16,13.63H25.05l10.17-13.63ZM9.49,88.69l9.86-14.88c.32-.48.34-1.09.07-1.59-.27-.5-.79-.82-1.36-.82h-6.01l9.91-17.37c.28-.49.28-1.1,0-1.59-.28-.49-.81-.79-1.38-.79h-4.87l15.57-28.43,7.57,14.46-12.44,23.75c-.25.49-.24,1.07.05,1.55s1.35,1.01,1.35,1.01h3.82l-8.49,14.88c-.29.5-.28,1.11,0,1.6.29.49.82.8,1.39.8h6.38l-6.46,7.41h-14.97ZM72.53,21.17l9.61,18.64-6.34,12.11c-.24.47-.23,1.02.05,1.48.27.45.76.73,1.29.73h5.26l-9.97,17.48c-.27.47-.27,1.05,0,1.52s.77.76,1.32.76h8.02l-11.93,17.29h-6.46l-6.82-9.88h6.08c.57,0,1.1-.3,1.39-.8.29-.5.29-1.11,0-1.6l-8.49-14.88h4.26c.52,0,1.01-.27,1.29-.73s.29-1.01.05-1.48l-4.92-9.39,16.33-31.23ZM107.4,51.65c-.54,0-1.04.29-1.31.76-.27.47-.27,1.05,0,1.52l9.98,17.48h-8.43c-.56,0-1.07.31-1.33.8-.26.49-.22,1.09.09,1.55l12.01,17.4h-43.76l12.01-17.4c.32-.46.35-1.05.09-1.55-.26-.49-.77-.8-1.33-.8h-8.43l9.98-17.48c.27-.47.27-1.05,0-1.52-.27-.47-.77-.76-1.32-.76h-5l5.6-10.7h0s10.28-19.62,10.28-19.62l15.88,30.32h-5ZM75.11,93.63h19.76v19.76h-19.76v-19.76ZM45.48,98.57h19.64s1.12-1.02,1.4-1.53c.27-.52.23-1.15-.1-1.63l-.57.69h6.8v17.29h-27.16v-14.82ZM122.03,113.39h-24.69v-19.76h23.23c.56,0,1.07-.31,1.33-.8.26-.49.22-1.09-.09-1.55l-12.01-17.4h9.52c.54,0,1.04-.29,1.32-.76s.28-1.05,0-1.52l-9.97-17.48h4.9c.55,0,1.06-.29,1.35-.76.29-.47.3-1.06.05-1.55l-19.04-36.36s0,0,0,0c-.02-.03-.04-.06-.06-.1,0-.01-.01-.03-.02-.04-.02-.04-.05-.07-.08-.1,0,0-.01-.01-.02-.02-.02-.03-.05-.05-.08-.08-.01-.01-.02-.02-.03-.03s-.02-.02-.03-.03c-.03-.03-.05-.05-.08-.08h-.01s-.07-.06-.11-.09c0,0-.01,0-.01-.01-.04-.03-.08-.05-.12-.07,0,0,0,0,0,0,0,0-.02,0-.03-.01-.04-.02-.08-.04-.11-.05,0,0-.02,0-.03-.01-.04-.01-.08-.03-.12-.04,0,0-.02,0-.02,0-.04-.01-.09-.02-.13-.03,0,0,0,0-.01,0-.33-.06-.68-.01-1,.15,0,0-.01,0-.02.01,0,0-.01,0-.02,0-.18.1-.33.23-.46.38,0,0,0,0,0,0-.03.04-.06.08-.09.12,0,.01-.02.03-.03.04-.02.03-.04.06-.05.1,0,0,0,0,0,0l-10.61,20.27-10.44-20.26s0,0,0-.01c-.02-.03-.04-.06-.06-.09,0-.01-.01-.03-.02-.04-.02-.03-.04-.06-.06-.09-.01-.01-.02-.03-.03-.04-.02-.03-.04-.05-.06-.07-.01-.01-.03-.03-.04-.04l-.06-.06s-.04-.03-.05-.05c-.02-.02-.04-.03-.06-.05-.02-.02-.04-.03-.06-.05s-.05-.03-.07-.04c-.02-.01-.04-.03-.06-.04,0,0-.01,0-.02-.01-.02-.01-.04-.02-.07-.03-.02,0-.03-.02-.05-.02-.03-.01-.07-.03-.1-.04-.01,0-.03-.01-.04-.01-.04-.01-.08-.02-.11-.03-.01,0-.02,0-.03,0-.04,0-.08-.01-.12-.02-.01,0-.02,0-.04,0-.04,0-.07,0-.11,0-.01,0-.03,0-.05,0-.03,0-.19,0-.22,0-.02,0-.04,0-.06,0-.03,0-.05,0-.08.01-.03,0-.05,0-.08.01-.02,0-.04,0-.06.01-.03,0-.06.01-.09.02-.02,0-.03.01-.05.02-.03.01-.07.02-.1.04-.01,0-.02,0-.03.01-.03.01-.06.02-.09.04,0,0-.02.01-.03.01,0,0,0,0,0,0-.18.1-.34.23-.47.38,0,0,0,.01-.01.01-.03.04-.05.07-.08.11,0,.01-.01.02-.02.04-.02.03-.04.06-.06.1,0,0,0,0,0,.01l-17.4,33.29-8.8-16.8h0s-.04-.07-.05-.1c0-.01-.02-.03-.02-.04-.02-.03-.05-.07-.07-.1l-.02-.02s-.05-.05-.07-.08c-.01-.01-.02-.02-.03-.04s-.02-.02-.04-.03c-.03-.03-.05-.05-.08-.07,0,0-.01-.01-.02-.01-.04-.03-.07-.05-.11-.08,0,0-.02-.01-.02-.01-.04-.02-.07-.05-.11-.06,0,0,0,0,0,0-.01,0-.02-.01-.04-.02-.03-.02-.06-.03-.1-.05-.02,0-.04-.01-.05-.02-.03-.01-.06-.02-.09-.03-.02,0-.04-.01-.06-.02-.03,0-.06-.01-.09-.02-.02,0-.04,0-.06-.01-.03,0-.06,0-.09-.01-.02,0-.04,0-.06,0-.03,0-.07,0-.1,0-.01,0-.03,0-.05,0-.04,0-.07,0-.11,0-.01,0-.03,0-.04,0-.04,0-.07.01-.11.02-.01,0-.03,0-.04,0-.04,0-.07.02-.1.03l-.06.02s-.06.02-.08.03c-.03.01-.06.02-.09.04-.01,0-.03.01-.05.02,0,0,0,0,0,0-.04.02-.07.04-.11.07,0,0-.01,0-.02.01-.12.08-.23.18-.33.29,0,0,0,.01-.01.01-.02.02-.03.04-.05.06-.02.02-.03.04-.05.06-.01.02-.02.03-.03.05-.02.03-.03.05-.05.08h0s-1.54,2.95-1.54,2.95l-7.92-15.12s0,0,0-.01c-.02-.03-.04-.06-.05-.09,0-.01-.02-.03-.02-.04-.02-.04-.05-.07-.08-.11,0,0-.01-.01-.01-.02-.03-.04-.06-.07-.09-.1,0,0-.01-.01-.02-.02-.02-.02-.04-.03-.06-.05-.02-.02-.04-.04-.06-.05-.01-.01-.03-.02-.04-.03-.03-.02-.06-.04-.09-.06-.01,0-.03-.02-.04-.02-.03-.02-.06-.04-.09-.05,0,0,0,0,0,0l-.04-.02s-.06-.03-.09-.04c-.02,0-.03-.01-.05-.02-.03-.01-.06-.02-.1-.04-.01,0-.03,0-.05-.01-.04,0-.07-.02-.11-.02-.01,0-.02,0-.04,0-.04,0-.08-.01-.12-.01,0,0-.01,0-.02,0-.28-.02-.58.03-.85.17-.24.13-.44.31-.58.52,0,0-.01.02-.01.02-.02.04-.04.07-.06.11,0,0,0,0,0,0L11.86,54.3c-.25.49-.23,1.07.05,1.54.28.47.79.76,1.34.76h4.64l-9.91,17.37c-.28.49-.28,1.1,0,1.59.28.49.81.79,1.38.79h5.74l-9.86,14.88c-.32.48-.34,1.09-.08,1.59.27.5.8.82,1.36.82h16.31l-1.61,2.34c-.35.51-.39,1.17-.11,1.71.29.54.85.89,1.47.89h8.07v14.82H5.68c-.87-.16-1.57.54-1.57,1.41s1.57,1.06,1.57,1.06h116.82c.87,0,1.57-.7,1.57-1.57s-.7-1.57-1.57-1.57"/>
  </g>
</svg>