<?xml version="1.0" encoding="UTF-8"?>
<svg id="Layer_1" data-name="Layer 1" xmlns="http://www.w3.org/2000/svg" viewBox="0 0 110 92">
  <defs>
    <style>
      .cls-1 {
        fill: #fff;
        stroke-width: 0px;
      }
    </style>
  </defs>
  <path class="cls-1" d="M102.28,40.29L69.61,7.61c-3.46-3.64-9.53-3.31-12.51,1.13-1.07,1.59-1.53,3.56-1.24,5.45s1.15,3.5,2.43,4.72l19.32,19.29H13.68c-4.28,0-8.04,3.23-8.3,7.51-.28,4.64,3.4,8.49,7.99,8.49h64.06l-19.14,19.17c-3.04,3.2-2.91,8.27.29,11.31,3.09,2.94,7.94,2.93,11.03,0l32.67-32.67c1.51-1.5,2.35-3.53,2.34-5.66,0-.07,0-.13,0-.2,0-.07,0-.13,0-.2,0-2.12-.84-4.16-2.34-5.66Z"/>
</svg>