<?xml version="1.0" encoding="UTF-8"?>
<svg id="Layer_1" data-name="Layer 1" xmlns="http://www.w3.org/2000/svg" viewBox="0 0 64 64">
  <defs>
    <style>
      .cls-1 {
        fill: #225b55;
        stroke-width: 0px;
      }
    </style>
  </defs>
  <path class="cls-1" d="m60.67,8.61c-3.94-5.52-10.97-7.76-17.34-5.67-.57-.37-1.2-.64-1.89-.75-1.3-.22-2.6.09-3.8.94-1.71,1.22-2.39,3.34-1.89,5.26-2.04,2.7-3.09,5.92-3.1,9.17L4.88,40.69l1.1,1.54-4.1,2.93,2.13,2.99c-.88,1.65-3.08,6.34-1.88,10.2.59,1.88,1.88,3.28,3.83,4.16,1.11.5,2.31.74,3.58.74,2,0,4.16-.61,6.32-1.82,9.11-5.09,16.36-7.22,19.88-5.84,1.11.43,1.84,1.23,2.24,2.43l2.43-.8c-.64-1.95-1.9-3.3-3.74-4.02-5.49-2.15-15.03,2.07-22.06,5.99-2.81,1.57-5.51,1.91-7.6.98-1.27-.57-2.07-1.42-2.43-2.58-.72-2.29.3-5.24,1.12-7.06l1.32,1.84,4.1-2.93,1.09,1.53,30.88-18.74c1.59.54,3.25.84,4.94.84,1.59,0,3.18-.3,4.74-.81.57.38,1.22.66,1.92.77.27.05.54.07.81.07,1.03,0,2.04-.33,3-1.01,1.7-1.21,2.38-3.32,1.9-5.23,4.04-5.34,4.21-12.72.27-18.24ZM7.62,48.78l-2.16-3.03,2.01-1.44,1.64,2.3.52.73-2.01,1.44Zm5.3-1.24l-.08-.11-4.49-6.3,24.61-20.51c.42,2.09,1.23,4.13,2.53,5.96,1.3,1.82,2.95,3.27,4.79,4.34l-27.36,16.61Zm24.66-22.44c-3.05-4.27-3.16-9.88-.46-14.21l13.76,19.26c-4.97,1.14-10.24-.78-13.29-5.05Zm19.3,4.99c-.51.36-1.13.51-1.76.41-.62-.1-1.17-.44-1.53-.96l-15.01-21.02c-.76-1.06-.51-2.54.68-3.39.4-.29.88-.44,1.37-.44.13,0,.26.01.39.03.62.1,1.17.44,1.53.96l15.01,21.02c.76,1.06.51,2.54-.68,3.39Zm2.15-5.74l-13.78-19.3c4.99-1.15,10.27.77,13.33,5.05,3.06,4.28,3.16,9.9.46,14.25Z"/>
  <path class="cls-1" d="m23.21,31.07l4.04,5.66,8.32-5.94-4.04-5.66-8.32,5.94Zm4.64,2.08l-1.06-1.49,4.15-2.96,1.06,1.49-4.15,2.96Z"/>
  <path class="cls-1" d="m4.83,14.89c-.51.86-.66,1.87-.42,2.85.25.97.86,1.79,1.72,2.31.6.36,1.26.53,1.92.53,1.28,0,2.53-.65,3.23-1.83h0c.43-.73.58-1.54.49-2.33v-4.56s8.04-2.19,8.04-2.19l.04,1.96c-1.78-.64-3.82.04-4.83,1.72-1.13,1.91-.51,4.38,1.4,5.52.64.38,1.35.57,2.05.57,1.37,0,2.71-.7,3.46-1.96h0c.45-.75.61-1.59.54-2.4h0s-.25-13.06-.25-13.06l-13.02,3.58v7.66c-.67-.22-1.38-.25-2.07-.07-.97.25-1.79.86-2.3,1.72Zm14.9,1.26c-.41.69-1.31.92-2,.51-.69-.41-.92-1.31-.51-2,.27-.46.76-.71,1.26-.71.25,0,.51.07.75.2.69.41.92,1.31.5,2Zm0-10.8l.03,1.67-7.99,2.17v-1.65s7.96-2.19,7.96-2.19Zm-12.7,10.85c.22-.37.62-.58,1.03-.58.21,0,.42.05.61.17.56.34.75,1.07.41,1.63-.34.56-1.07.75-1.64.41-.27-.16-.47-.42-.54-.73-.08-.31-.03-.63.13-.9Z"/>
  <polygon class="cls-1" points="10.56 31.19 11.21 30.09 12.31 30.75 13.62 28.54 12.53 27.89 13.18 26.8 10.98 25.48 10.33 26.58 9.23 25.92 7.92 28.13 9.01 28.78 8.36 29.88 10.56 31.19"/>
  <rect class="cls-1" x="3.18" y="8.49" width="2.72" height="2.57" transform="translate(-2.33 1.47) rotate(-14.7)"/>
  <rect class="cls-1" x="15.27" y="20.35" width="2.72" height="2.57" transform="translate(-4.94 4.92) rotate(-14.69)"/>
  <rect class="cls-1" x="26.7" y="15" width="2.72" height="2.57" transform="translate(-3.21 7.65) rotate(-14.69)"/>
  <rect class="cls-1" x="24.87" y="2.39" width="2.72" height="2.57" transform="translate(-.07 6.78) rotate(-14.7)"/>
  <path class="cls-1" d="m54.45,43.24l-.71-7.29-8.64,2.09.85,9.83c-.8-.28-1.66-.33-2.51-.11-1.13.29-2.08.99-2.68,2-1.23,2.06-.55,4.74,1.51,5.97.7.42,1.47.61,2.22.61,1.49,0,2.94-.76,3.75-2.13.46-.77.66-1.65.6-2.53h0s-.6-6.93-.6-6.93l6.2-1.51Zm-8.4,9.66h0c-.5.85-1.61,1.13-2.46.62-.85-.51-1.13-1.61-.62-2.46.25-.41.64-.7,1.1-.82.15-.04.3-.06.44-.06.32,0,.63.09.92.26.41.25.7.64.82,1.1.12.46.05.95-.2,1.36Zm1.98-10.74l-.19-2.15,3.63-.87.21,2.14-3.65.89Z"/>
  <polygon class="cls-1" points="59.08 57.59 56.87 56.28 56.22 57.38 55.12 56.72 53.81 58.93 54.91 59.58 54.25 60.68 56.46 61.99 57.11 60.89 58.2 61.55 59.52 59.34 58.42 58.69 59.08 57.59"/>
  <polygon class="cls-1" points="35.71 41.7 38.34 41.02 37.7 38.54 35.06 39.22 35.71 41.7"/>
  <rect class="cls-1" x="55.3" y="48.79" width="2.72" height="2.56" transform="translate(-10.86 16.03) rotate(-14.71)"/>
  <rect class="cls-1" x="40.79" y="59.16" width="2.72" height="2.56" transform="translate(-13.97 12.69) rotate(-14.71)"/>
</svg>