<?xml version="1.0" encoding="UTF-8"?>
<svg id="Layer_1" data-name="Layer 1" xmlns="http://www.w3.org/2000/svg" viewBox="0 0 64 64">
  <defs>
    <style>
      .cls-1 {
        fill: #225b55;
        stroke-width: 0px;
      }
    </style>
  </defs>
  <path class="cls-1" d="m7.06,13.66h26.85c.26,0,.48-.21.48-.48,0-.18-.1-.35-.27-.43l-2.52-1.26c-.76-.38-1.37-1-1.75-1.75-.62-1.24-2.13-1.75-3.37-1.12-.24.12-.46.28-.65.47-.21.21-.55.21-.77,0-.03-.03-.05-.05-.07-.08l-.09-.14c-.8-1.2-2.14-1.92-3.58-1.92-1.28,0-2.48.6-3.25,1.62l-.61.81c-.41.55-1.2.66-1.75.25-.05-.04-.09-.07-.13-.12-.41-.42-.98-.65-1.56-.65h-.23c-.41,0-.81.11-1.16.33l-5.82,3.58c-.23.14-.3.43-.16.66.09.14.24.23.41.23Z"/>
  <path class="cls-1" d="m42.45,13.31c.06.21.25.35.46.35h14.51c.26,0,.48-.21.48-.48,0-.18-.1-.35-.27-.43l-1.36-.68c-.37-.18-.66-.48-.85-.85-.39-.78-1.34-1.1-2.12-.71-.15.08-.29.18-.41.3-.02.02-.04.02-.06.02-.02,0-.04-.01-.05-.03l-.05-.07c-.47-.71-1.27-1.13-2.12-1.13-.76,0-1.48.36-1.93.97l-.33.44c-.15.2-.44.24-.64.09-.02-.01-.03-.03-.05-.04-.26-.27-.63-.42-1-.41h-.13c-.26,0-.52.07-.74.21l-3.14,1.93c-.18.11-.27.33-.21.54Z"/>
  <path class="cls-1" d="m38.05,34.42c-.08-.16-.25-.26-.42-.26H14.6c-.18,0-.34.1-.42.26L3.63,54.56c-.12.23-.03.52.2.65.07.04.14.05.22.05h35.67l.26,2.05c.03.24.23.42.48.42.05,0,.1,0,.15-.02l7.72-2.47c.25-.08.39-.35.31-.6,0-.03-.02-.05-.03-.08l-10.55-20.14Zm-.9,19.88h-9.28l9.28-17.71v17.71Zm3.72,2.31l-2.43-19.4,9.05,17.29-6.62,2.12Z"/>
  <path class="cls-1" d="m56.53,23.78c.14,0,.28-.06.38-.16.15-.18.16-.44,0-.62l-6.33-7.69c-.17-.2-.47-.23-.67-.07-.02.02-.05.04-.07.07l-6.33,7.69c-.15.18-.15.44,0,.62.1.11.24.17.38.16h2.81l-5.31,6.22c-.15.18-.15.44,0,.62.1.11.24.17.38.17h3.03l-3.72,4.65-3.72-4.65h3.03c.15,0,.29-.06.38-.17.15-.18.15-.44,0-.62l-5.31-6.22h2.81c.14,0,.28-.06.38-.16.15-.18.16-.44,0-.62l-6.33-7.69c-.17-.2-.47-.23-.67-.07-.02.02-.05.04-.07.07l-6.33,7.69c-.15.18-.15.44,0,.62.1.11.24.17.38.16h2.81l-5.31,6.22c-.15.18-.15.44,0,.62.1.11.24.17.38.17h3.03l-1.31,1.64c-.17.21-.13.51.07.67.09.07.19.11.3.11h5.85v-16.3c0-.26.21-.48.48-.48s.48.21.48.48v16.3h5.72c.18,0,.34.1.42.26l2.49,4.76c.08.16.25.26.42.26h8.2v6.21c0,.25.18.47.43.5.26.03.5-.17.52-.43,0-.02,0-.03,0-.05v-6.23h10.07c.21,0,.4-.14.46-.34.05-.16.01-.33-.1-.46l-5.52-6.9h3.03c.15,0,.29-.06.38-.17.15-.18.15-.44,0-.62l-5.31-6.22h2.81Zm-5.83,13.74h-.96v-20.62c0-.26.21-.48.48-.48s.48.21.48.48v20.62Z"/>
  <path class="cls-1" d="m11.11,38.22l2.19-4.19v-17.14c0-.26.21-.48.48-.48s.48.21.48.48v16.3h5.85c.26,0,.48-.21.48-.48,0-.11-.04-.21-.11-.3l-1.31-1.64h3.03c.15,0,.29-.06.38-.17.15-.18.15-.44,0-.62l-5.31-6.22h2.81c.14,0,.28-.06.38-.16.15-.18.16-.44,0-.62l-6.33-7.69c-.17-.2-.47-.23-.67-.07-.02.02-.05.04-.07.07l-6.33,7.69c-.15.18-.15.44,0,.62.1.11.24.17.38.16h2.81l-5.31,6.22c-.15.18-.15.44,0,.62.1.11.24.17.38.17h3.03l-5.52,6.9c-.11.13-.14.3-.1.46.06.2.25.34.46.34h7.45c.18,0,.34-.1.42-.26Z"/>
  <path class="cls-1" d="m58.76,54.5c1.57-1.18,2.49-3.03,2.49-4.99v-.13c0-.7-.45-1.32-1.11-1.54l-.84-.28c-.35-.12-.54-.49-.42-.84,0-.03.02-.06.04-.09.31-.62.19-1.38-.3-1.87-.77-.76-1.2-1.8-1.19-2.88v-.99c0-.26-.21-.48-.48-.48-.13,0-.25.05-.34.14l-2.33,2.33c-.44.44-.69,1.03-.68,1.65,0,.52-.29,1-.76,1.23-.71.35-1.16,1.08-1.16,1.87,0,.03-.02.06-.04.08-.03.02-.06.02-.09,0l-1.09-.55c-.24-.12-.53-.02-.64.22-.03.07-.05.14-.05.21v2.76c0,2.02,1.13,3.87,2.92,4.79l-1.81,1.69c-.2.17-.22.48-.05.68.17.2.48.22.68.05,0,0,.02-.02.03-.02l2.14-2c.1.03.2.05.3.08l-.36,1.73c-.05.26.11.51.37.57.03,0,.06.01.1.01.23,0,.42-.16.47-.38l.37-1.8c.08,0,.16,0,.23,0,.52,0,1.03-.07,1.53-.21l1.83,1.97c.09.1.22.15.35.15.12,0,.24-.05.33-.13.19-.18.21-.48.03-.68l-1.56-1.68c.36-.17.7-.37,1.02-.61l.09-.07Zm-1.17-2.07l-.46.21c-.2.09-.41.16-.62.22l.75-.7c.2-.17.22-.48.05-.68-.17-.2-.48-.22-.68-.05,0,0-.02.02-.03.02l-1.02.95.38-1.85c.05-.26-.11-.51-.37-.57-.26-.05-.51.11-.57.37l-.34,1.63-.84-.9c-.18-.19-.48-.2-.68-.02-.19.18-.2.48-.02.68l1.03,1.11s0,0,0,0c-.57-.16-1.05-.56-1.32-1.09-.15-.3-.23-.64-.23-.98v-.69c1.28.11,2.41-.85,2.52-2.13.01-.16,0-.32-.01-.48-.06-.46.07-.93.35-1.31l.29-.38.32,1.24c.27,1.02.76,1.97,1.44,2.78,0,.01.02.02.03.03l.43.43c.52.52.52,1.36,0,1.88-.11.11-.25.21-.4.27h0Z"/>
  <path class="cls-1" d="m38.71,13.54c1.71,0,3.32-.83,4.31-2.24.15-.22.1-.52-.12-.67-.11-.08-.25-.11-.38-.08-2.33.52-4.63-.95-5.15-3.28-.07-.31-.1-.62-.1-.93,0-.89.27-1.76.79-2.49.15-.22.1-.52-.12-.67-.11-.08-.25-.11-.38-.08-2.84.63-4.64,3.45-4.01,6.29.54,2.42,2.68,4.13,5.15,4.13Z"/>
</svg>