<?xml version="1.0" encoding="UTF-8"?>
<svg id="Layer_1" data-name="Layer 1" xmlns="http://www.w3.org/2000/svg" xmlns:xlink="http://www.w3.org/1999/xlink" viewBox="0 0 400 900">
  <defs>
    <style>
      .cls-1 {
        clip-path: url(#clippath);
      }

      .cls-2 {
        fill: none;
      }

      .cls-2, .cls-3 {
        stroke-width: 0px;
      }

      .cls-4 {
        clip-path: url(#clippath-1);
      }

      .cls-5 {
        clip-path: url(#clippath-4);
      }

      .cls-6 {
        clip-path: url(#clippath-3);
      }

      .cls-7 {
        clip-path: url(#clippath-2);
      }

      .cls-8 {
        clip-path: url(#clippath-7);
      }

      .cls-9 {
        clip-path: url(#clippath-8);
      }

      .cls-10 {
        clip-path: url(#clippath-6);
      }

      .cls-11 {
        clip-path: url(#clippath-5);
      }

      .cls-3 {
        fill: #00ffbe;
      }
    </style>
    <clipPath id="clippath">
      <rect class="cls-2" x="15.66" y="500.21" width="384" height="407" transform="translate(-496.34 910.4) rotate(-89.92)"/>
    </clipPath>
    <clipPath id="clippath-1">
      <rect class="cls-2" x="-10.84" y="521.69" width="396" height="360" transform="translate(-514.79 887.89) rotate(-89.92)"/>
    </clipPath>
    <clipPath id="clippath-2">
      <rect class="cls-2" x="-5.88" y="574.67" width="346" height="308" transform="translate(-561.77 894.79) rotate(-89.92)"/>
    </clipPath>
    <clipPath id="clippath-3">
      <rect class="cls-2" x="-17.47" y="262.47" width="407.01" height="411.45" transform="translate(-66.25 32.11) rotate(-8.38)"/>
    </clipPath>
    <clipPath id="clippath-4">
      <rect class="cls-2" x="-19.76" y="266.99" width="410.34" height="401.47" transform="translate(-66.19 32.01) rotate(-8.38)"/>
    </clipPath>
    <clipPath id="clippath-5">
      <rect class="cls-2" x="-13.03" y="262.47" width="398.14" height="411.45" transform="translate(-66.25 32.11) rotate(-8.38)"/>
    </clipPath>
    <clipPath id="clippath-6">
      <rect class="cls-2" x="5.66" y="3.32" width="384" height="407"/>
    </clipPath>
    <clipPath id="clippath-7">
      <rect class="cls-2" x="1.67" y="6.32" width="396" height="360"/>
    </clipPath>
    <clipPath id="clippath-8">
      <rect class="cls-2" x="-.33" y="12.31" width="346" height="308"/>
    </clipPath>
  </defs>
  <g>
    <g class="cls-1">
      <path class="cls-3" d="m55.22,796.87c1.91,0,3.46-1.54,3.46-3.45s-1.54-3.46-3.45-3.46-3.46,1.54-3.47,3.44,1.54,3.46,3.45,3.46h0Zm-39.83-.66c0-1.43-1.15-2.59-2.58-2.59s-2.59,1.15-2.59,2.58,1.15,2.59,2.58,2.59,2.59-1.15,2.59-2.58Zm162.95-8.63c0-1.39-1.12-2.52-2.51-2.52s-2.52,1.12-2.52,2.51,1.12,2.52,2.51,2.52,2.52-1.12,2.52-2.51Zm-87.33,33.23c0-1.91-1.54-3.45-3.44-3.46s-3.45,1.54-3.46,3.44,1.54,3.45,3.44,3.46,3.45-1.53,3.46-3.44Zm188.51-2.55c2.02,0,3.67-1.63,3.67-3.65s-1.63-3.66-3.65-3.67-3.67,1.63-3.67,3.65,1.63,3.66,3.65,3.67Zm-260.65.84c0-1.97-1.59-3.57-3.56-3.57s-3.57,1.59-3.57,3.55,1.59,3.56,3.55,3.57,3.57-1.58,3.57-3.55h.01Zm60.55-18.77c0-1.84-1.49-3.35-3.33-3.35s-3.35,1.49-3.35,3.34,1.49,3.35,3.33,3.35,3.34-1.49,3.35-3.33h0Zm-49.19-39.26c0-1.96-1.58-3.56-3.55-3.56s-3.56,1.58-3.56,3.54,1.58,3.56,3.54,3.56,3.56-1.58,3.56-3.55h.01Zm-20.43-6.15c0-1.7-1.37-3.08-3.07-3.08s-3.08,1.37-3.08,3.07,1.37,3.08,3.07,3.08,3.08-1.37,3.08-3.07Zm60.74-11.94c0-.93-.75-1.68-1.67-1.68s-1.68.75-1.68,1.67.75,1.68,1.67,1.69,1.68-.75,1.68-1.68h0Zm117.17-9.44c0-1.5-1.21-2.73-2.72-2.73s-2.73,1.21-2.73,2.72,1.21,2.72,2.72,2.73,2.73-1.21,2.73-2.71h0Zm-119.42,40.69c0-1.23-.99-2.23-2.23-2.23s-2.23.99-2.24,2.22.99,2.24,2.23,2.24,2.23-1,2.24-2.23h0Zm1.53-12.44c0-1.86-1.5-3.36-3.35-3.37s-3.36,1.49-3.37,3.35,1.5,3.37,3.35,3.37,3.37-1.5,3.37-3.35Zm71.45,12.58c1.52,0,2.76-1.23,2.76-2.74s-1.23-2.76-2.75-2.76-2.76,1.23-2.76,2.75,1.23,2.75,2.75,2.76h0Zm-110.06,53.54c0-1-.81-1.81-1.81-1.82s-1.81.81-1.81,1.81.81,1.81,1.81,1.82,1.81-.81,1.82-1.81h-.01Zm-17.09-94.03c0-.92-.74-1.67-1.66-1.67s-1.67.74-1.67,1.66.75,1.67,1.67,1.67,1.67-.74,1.67-1.66h-.01Zm43.75,145.77c0-1.9-1.54-3.45-3.44-3.45s-3.45,1.53-3.45,3.43,1.53,3.45,3.43,3.46,3.45-1.54,3.46-3.44h0Zm20.81-11.87c0-2.04-1.64-3.7-3.68-3.71s-3.7,1.64-3.71,3.69,1.65,3.7,3.69,3.7,3.7-1.64,3.7-3.68h0Zm147.71,7.72c1.93,0,3.51-1.56,3.51-3.49s-1.56-3.51-3.49-3.51-3.5,1.56-3.51,3.49,1.56,3.5,3.49,3.51Zm-178.67-12.34c0-1.22-.99-2.21-2.2-2.21s-2.21.98-2.21,2.2.98,2.21,2.2,2.22,2.21-.98,2.22-2.2h0Zm152.14,29.75c0-1.53-1.23-2.77-2.76-2.77s-2.77,1.23-2.77,2.76,1.23,2.77,2.76,2.78,2.77-1.23,2.78-2.76h-.01Zm-36.03-3.99c0-1.19-.96-2.16-2.15-2.16s-2.16.96-2.16,2.15.96,2.16,2.15,2.16,2.16-.96,2.16-2.15Zm47.61,2.7c2.07,0,3.75-1.67,3.75-3.73s-1.67-3.75-3.73-3.75-3.75,1.66-3.75,3.73,1.67,3.75,3.73,3.75Zm147.98-5.95c.93,0,1.69-.75,1.69-1.69s-.75-1.7-1.69-1.7-1.7.76-1.7,1.69.75,1.69,1.69,1.7h.01Zm-323.28-8.37c0-1.86-1.49-3.36-3.35-3.37s-3.36,1.49-3.37,3.35,1.49,3.36,3.35,3.37,3.36-1.49,3.37-3.35Zm78.05-36.94c.9,0,1.62-.72,1.63-1.62s-.72-1.63-1.62-1.63-1.62.72-1.63,1.62.72,1.62,1.62,1.63Zm61.54-5.28c0-1.56-1.26-2.83-2.81-2.83s-2.83,1.25-2.83,2.81,1.26,2.83,2.82,2.83,2.83-1.26,2.83-2.82h0Zm-140.23,6.8c0-1.78-1.43-3.22-3.21-3.23s-3.22,1.43-3.23,3.21,1.43,3.22,3.21,3.23,3.22-1.43,3.23-3.21Zm141.49,6.42c0-1.75-1.41-3.17-3.16-3.18s-3.18,1.41-3.18,3.16,1.41,3.18,3.17,3.18,3.17-1.41,3.18-3.17h0Zm57.79,3.96c0-1.82-1.47-3.3-3.29-3.3s-3.3,1.47-3.3,3.28,1.47,3.3,3.28,3.3,3.3-1.47,3.3-3.28h0Zm-169.82-5.01c0-1.33-1.08-2.42-2.41-2.42s-2.41,1.08-2.41,2.41,1.07,2.41,2.4,2.42,2.42-1.08,2.42-2.41h0Zm16.22,5.47c0-.97-.78-1.76-1.75-1.77s-1.76.79-1.77,1.76.79,1.76,1.76,1.76,1.76-.78,1.76-1.75h0Zm44.49,11.62c1.16,0,2.09-.93,2.1-2.09s-.93-2.09-2.09-2.1-2.1.93-2.1,2.09.93,2.09,2.09,2.1Zm107.74-102.31c0-1.98-1.6-3.59-3.58-3.6s-3.59,1.6-3.6,3.58,1.6,3.59,3.58,3.6,3.6-1.6,3.6-3.58Zm66.65,62.34c0,1.75,1.41,3.17,3.15,3.18s3.17-1.41,3.18-3.16-1.41-3.17-3.16-3.17-3.17,1.41-3.17,3.15h0Zm-159,41.07c-1.33,0-2.42,1.07-2.42,2.41s1.07,2.42,2.41,2.42,2.42-1.08,2.42-2.41-1.08-2.42-2.41-2.42Zm21.17-141.21c0-1.57-1.26-2.84-2.83-2.85s-2.84,1.27-2.85,2.83,1.27,2.84,2.83,2.84,2.84-1.26,2.84-2.83h0Zm69.42,73.82c0,1.8,1.45,3.26,3.25,3.27s3.26-1.45,3.26-3.25-1.45-3.26-3.24-3.26-3.26,1.45-3.26,3.24h-.01Zm19.45,66.16c0,2.03,1.64,3.68,3.67,3.69s3.68-1.64,3.69-3.67-1.64-3.69-3.67-3.7-3.69,1.64-3.69,3.68h0Zm-176.94-206.64c0,1.09.88,1.97,1.96,1.97s1.97-.87,1.97-1.96-.88-1.97-1.96-1.97-1.97.87-1.97,1.96Zm-38.6-58.21c0,1.06.86,1.93,1.92,1.93s1.93-.86,1.93-1.92-.86-1.93-1.92-1.93-1.93.86-1.93,1.92Zm102.42,94.81c0,.97.78,1.75,1.75,1.76s1.75-.78,1.76-1.75-.78-1.76-1.75-1.76-1.76.78-1.76,1.75Zm-22.8-1.43c-1.22,0-2.21.98-2.21,2.2s.98,2.21,2.2,2.21,2.21-.98,2.21-2.2-.98-2.21-2.2-2.21Zm-24.82,184.68c-1.2,0-2.17.97-2.17,2.16s.96,2.17,2.16,2.17,2.17-.96,2.17-2.16-.96-2.17-2.16-2.17Zm244.63,12.45c0,1.99,1.6,3.6,3.59,3.61s3.6-1.6,3.61-3.59-1.6-3.6-3.59-3.61-3.6,1.6-3.61,3.59Zm71.89.97c0,1.04.84,1.89,1.88,1.89s1.89-.84,1.9-1.88-.84-1.89-1.89-1.89-1.89.84-1.89,1.88h0Zm-217.24-12.82c0-1.48-1.19-2.69-2.67-2.69s-2.69,1.19-2.69,2.68,1.19,2.68,2.68,2.69,2.68-1.19,2.69-2.67h-.01Zm97.69-3.76c0,1.38,1.11,2.5,2.49,2.5s2.5-1.11,2.5-2.49-1.11-2.5-2.49-2.5-2.5,1.11-2.5,2.49Zm32.89-10.41c0,1.27,1.03,2.31,2.3,2.31s2.31-1.02,2.31-2.3-1.03-2.31-2.3-2.31-2.31,1.03-2.31,2.3Zm-23.35,12.19c0,1.25,1.01,2.27,2.26,2.27s2.26-1,2.27-2.26-1.01-2.26-2.26-2.27-2.27,1-2.27,2.26Zm-195.12-59.09c-1.48,0-2.68,1.19-2.69,2.67s1.19,2.69,2.67,2.69,2.68-1.2,2.69-2.68-1.19-2.68-2.67-2.69h0Zm-4.81-119.07c0-.86-.69-1.56-1.56-1.56s-1.56.69-1.57,1.56.7,1.56,1.56,1.56,1.56-.69,1.56-1.55h0Zm-55.63-183.27c0-1.63-1.32-2.95-2.94-2.96s-2.95,1.31-2.96,2.94,1.31,2.95,2.94,2.96,2.95-1.32,2.96-2.94Zm-2.84,172.55c0-1.45-1.17-2.62-2.61-2.63s-2.62,1.17-2.63,2.61,1.16,2.62,2.61,2.63,2.62-1.16,2.63-2.61Zm42.16-7.68c0-.99-.8-1.8-1.79-1.8s-1.8.8-1.8,1.79.8,1.8,1.79,1.8,1.79-.8,1.8-1.79Zm-16.24,16.03c0-1.83-1.48-3.33-3.32-3.33s-3.33,1.48-3.33,3.32,1.48,3.33,3.31,3.33,3.33-1.48,3.33-3.31h0Zm-49.86,28.18c0-1.34-1.08-2.44-2.43-2.44s-2.44,1.08-2.44,2.43,1.08,2.44,2.43,2.44,2.44-1.09,2.44-2.43Zm26.88-14.59c0-1.67-1.34-3.02-3-3.02s-3.02,1.34-3.02,3,1.34,3.02,3,3.02,3.01-1.35,3.02-3Zm52.86,5.39c0-1.75-1.41-3.17-3.15-3.17s-3.17,1.4-3.17,3.15,1.41,3.16,3.15,3.17,3.17-1.41,3.17-3.15Zm-31.66-56.46c0-1.64-1.32-2.97-2.96-2.98s-2.97,1.32-2.98,2.96,1.32,2.97,2.96,2.97,2.97-1.32,2.97-2.96h.01Zm3.54-113.02c0-2.07-1.67-3.76-3.74-3.76s-3.76,1.67-3.76,3.74,1.67,3.76,3.74,3.76,3.76-1.67,3.76-3.74Zm-37.1,24.93c0-1.77-1.42-3.2-3.19-3.21s-3.2,1.42-3.2,3.19,1.42,3.2,3.19,3.21,3.2-1.42,3.21-3.19h-.01Zm-13,29.62c0-1.51-1.21-2.73-2.72-2.74s-2.73,1.21-2.74,2.72,1.21,2.73,2.72,2.73,2.73-1.21,2.73-2.72h.01Zm45.95,21.14c0-1.28-1.03-2.32-2.31-2.33s-2.33,1.03-2.33,2.31,1.03,2.33,2.32,2.33,2.32-1.03,2.33-2.32h0Zm34.57,49.76c0-2.03-1.64-3.68-3.67-3.68s-3.68,1.63-3.68,3.67,1.63,3.68,3.66,3.68,3.68-1.64,3.68-3.66h0Zm28.83,53.37c0-1.51-1.21-2.73-2.72-2.74s-2.73,1.22-2.74,2.72,1.21,2.74,2.72,2.74,2.73-1.22,2.74-2.73h0Zm-105.58-79.33c-1.67,0-3.03-1.36-3.02-3.04s1.36-3.03,3.04-3.02,3.03,1.36,3.03,3.04-1.37,3.03-3.04,3.03"/>
    </g>
    <path class="cls-3" d="m112.47,796.69c0-1.59-1.28-2.89-2.88-2.89s-2.89,1.29-2.89,2.88,1.29,2.89,2.88,2.89,2.89-1.28,2.89-2.88Zm1.38-2.23c1.13,0,2.05-.91,2.05-2.04s-.91-2.05-2.04-2.05-2.05.91-2.05,2.04.91,2.05,2.04,2.05Zm-29.4-9.69c0-2.03-1.64-3.69-3.68-3.69s-3.69,1.64-3.69,3.67,1.64,3.69,3.67,3.69,3.69-1.64,3.7-3.67Zm108.03,27.94c0,1.19.96,2.16,2.16,2.17s2.16-.96,2.16-2.16-.96-2.16-2.15-2.16-2.16.96-2.17,2.15h0Zm-61.03-21.48c1.01,0,1.83-.81,1.83-1.82s-.81-1.83-1.82-1.83-1.82.82-1.83,1.82.81,1.83,1.82,1.83Zm18.91,33.39c0-1.35-1.09-2.45-2.44-2.46s-2.45,1.09-2.46,2.44,1.09,2.45,2.44,2.45,2.45-1.09,2.45-2.44h.01Zm51.09.91c0-1.46-1.18-2.65-2.64-2.65s-2.65,1.17-2.65,2.64,1.18,2.65,2.64,2.65,2.65-1.18,2.65-2.64Zm-21.76-1.83c1.21,0,2.19-.97,2.19-2.19s-.97-2.19-2.18-2.19-2.19.97-2.2,2.18.97,2.19,2.19,2.2Zm-19.06-6.27c0-1.25-1.01-2.27-2.26-2.27s-2.27,1.01-2.27,2.26,1.01,2.27,2.26,2.27,2.27-1.01,2.27-2.26Zm-6.54-4.6c0-1.24-1-2.25-2.24-2.25s-2.25,1-2.25,2.24,1,2.25,2.24,2.26,2.25-1,2.26-2.24h-.01Zm-70.21-64.92c0-2.07-1.68-3.77-3.75-3.77s-3.77,1.68-3.77,3.75,1.67,3.77,3.75,3.77,3.77-1.67,3.77-3.75Zm29.93-24.52c0-1.83-1.47-3.31-3.3-3.32s-3.31,1.47-3.32,3.3,1.48,3.31,3.3,3.32,3.31-1.47,3.32-3.3Zm-12.14,61.07c1.85,0,3.35-1.49,3.35-3.33s-1.49-3.34-3.33-3.35-3.34,1.49-3.35,3.33,1.49,3.34,3.33,3.35Zm39.15-26.13c0,1.6,1.29,2.9,2.88,2.9s2.9-1.29,2.9-2.89-1.29-2.9-2.89-2.9-2.9,1.29-2.9,2.89h.01Zm-27.49-17.8c0-2.03-1.63-3.68-3.66-3.68s-3.68,1.64-3.68,3.66,1.64,3.68,3.66,3.68,3.68-1.64,3.68-3.66Zm-23.28,33.05c0-1.99-1.6-3.6-3.59-3.61s-3.6,1.6-3.61,3.59,1.6,3.6,3.59,3.61,3.6-1.6,3.61-3.59Zm5.61-11.75c0-1.73-1.4-3.14-3.13-3.15s-3.14,1.4-3.14,3.13,1.4,3.14,3.13,3.14,3.15-1.4,3.15-3.13h0Zm-53.64,8.58c0-1.12-.9-2.02-2.01-2.02s-2.02.9-2.03,2.01.9,2.02,2.02,2.02,2.02-.9,2.02-2.01Zm82.4-9.94c1.19,0,2.16-.96,2.16-2.15s-.96-2.16-2.15-2.16-2.16.96-2.16,2.15.96,2.16,2.15,2.16Zm187.7,125.32c0-1.34-1.09-2.44-2.43-2.44s-2.44,1.08-2.44,2.43,1.08,2.44,2.43,2.44,2.44-1.08,2.44-2.43Zm35.81-10.11c0-1.61-1.3-2.92-2.91-2.92s-2.92,1.3-2.93,2.91,1.3,2.92,2.91,2.93,2.92-1.3,2.92-2.91h0Zm-92.17-.48c.89,0,1.61-.72,1.62-1.61s-.72-1.61-1.61-1.61-1.61.72-1.62,1.6.72,1.61,1.61,1.62h0Zm-84.09.15c0-.88-.71-1.6-1.6-1.6s-1.6.71-1.61,1.59.71,1.6,1.6,1.61,1.6-.71,1.61-1.6h0Zm-128.59-152.6c0-1.87-1.51-3.4-3.38-3.4s-3.4,1.51-3.4,3.38,1.51,3.4,3.39,3.4,3.4-1.51,3.4-3.38h-.01Zm328.17,172.3c0-1.46-1.18-2.66-2.64-2.66s-2.66,1.18-2.66,2.65,1.18,2.65,2.65,2.66,2.65-1.18,2.66-2.64h-.01Zm-118.61-.21c1.73,0,3.14-1.4,3.15-3.13s-1.4-3.14-3.13-3.15-3.14,1.4-3.14,3.13,1.4,3.14,3.13,3.15h-.01Zm17.22-20.38c1.49,0,2.7-1.2,2.71-2.69s-1.2-2.7-2.69-2.71-2.7,1.2-2.71,2.69,1.2,2.7,2.69,2.71Zm-197.69,17.81c0-1.49-1.2-2.71-2.69-2.71s-2.7,1.2-2.71,2.7,1.2,2.71,2.69,2.71,2.7-1.2,2.71-2.7Zm124.6-52.75c0-1.01-.82-1.84-1.83-1.84s-1.84.81-1.84,1.83.82,1.84,1.83,1.84,1.84-.82,1.84-1.83Zm-72.68,8.18c0-1.62-1.31-2.94-2.92-2.94s-2.93,1.31-2.94,2.92,1.3,2.93,2.92,2.94,2.93-1.31,2.94-2.92Zm68.38-.99c0,1.35,1.09,2.45,2.45,2.46s2.46-1.09,2.46-2.45-1.09-2.46-2.45-2.46-2.45,1.09-2.46,2.45Zm-71.23-10.26c0-1.83-1.47-3.32-3.3-3.32s-3.31,1.48-3.32,3.3,1.48,3.32,3.3,3.32,3.32-1.48,3.32-3.31h0Zm63.64,24.98c0-1.88-1.52-3.42-3.41-3.42s-3.42,1.52-3.43,3.4,1.52,3.42,3.41,3.43,3.42-1.52,3.42-3.41h.01Zm-3.45-10.91c0-1.45-1.17-2.63-2.62-2.64s-2.63,1.17-2.63,2.62,1.17,2.63,2.62,2.63,2.63-1.17,2.63-2.62h0Zm-14.44,7.78c0-1.72-1.39-3.12-3.1-3.12s-3.11,1.39-3.12,3.1,1.39,3.11,3.1,3.12,3.12-1.38,3.12-3.1Zm71.78,4.75c0-2.09-1.68-3.78-3.77-3.79s-3.78,1.68-3.79,3.77,1.68,3.78,3.77,3.79,3.78-1.68,3.79-3.77Zm-23.35-11.49c0-1.56-1.26-2.83-2.81-2.83s-2.83,1.26-2.83,2.82,1.26,2.83,2.82,2.83,2.83-1.26,2.83-2.81h-.01Zm6.6,6.96c0,2.08,1.68,3.78,3.77,3.78s3.77-1.68,3.78-3.76-1.68-3.78-3.76-3.78-3.78,1.68-3.78,3.76h-.01Zm-18.17-42.98c0,1.18.95,2.14,2.13,2.14s2.14-.95,2.14-2.13-.95-2.14-2.13-2.14-2.14.95-2.14,2.13Zm-70.77-36.86c0,1.74,1.4,3.15,3.13,3.15s3.14-1.4,3.15-3.14-1.4-3.14-3.13-3.15-3.15,1.4-3.15,3.13h0Zm-16.98,1.37c-1.37,0-2.48,1.1-2.49,2.47s1.11,2.48,2.47,2.48,2.48-1.1,2.48-2.47-1.1-2.48-2.47-2.48h.01ZM14.16,537.81c0-1.4-1.13-2.53-2.52-2.54s-2.53,1.13-2.54,2.52,1.12,2.53,2.52,2.54,2.53-1.13,2.53-2.52h0Zm130.75,249.82c0,1.9,1.53,3.44,3.43,3.44s3.44-1.53,3.45-3.43-1.53-3.44-3.43-3.45-3.44,1.53-3.45,3.43h0Zm-2.33,7.51c0,1.45,1.17,2.63,2.63,2.64s2.64-1.17,2.64-2.62-1.17-2.64-2.63-2.64-2.64,1.17-2.64,2.63h0Zm-84-270.24c0-1.07-.87-1.95-1.94-1.95s-1.95.87-1.95,1.94.86,1.95,1.94,1.95,1.95-.87,1.95-1.94Zm16.73,184.31c0,.94.76,1.71,1.7,1.71s1.71-.76,1.71-1.7-.76-1.71-1.7-1.71-1.71.76-1.71,1.7Zm13.51,39.07c0,1.42,1.15,2.58,2.57,2.58s2.58-1.15,2.58-2.57-1.15-2.58-2.57-2.59-2.58,1.15-2.59,2.57h.01Zm1.22,33.88c-1.6,0-2.9,1.29-2.9,2.88s1.29,2.9,2.88,2.9,2.9-1.29,2.9-2.88-1.29-2.9-2.89-2.9h.01Zm254.97,110.27c0,1.45,1.16,2.62,2.61,2.63s2.62-1.17,2.63-2.61-1.17-2.62-2.61-2.63-2.62,1.17-2.62,2.61h-.01Zm47.91,2.57c0,1.19.96,2.16,2.16,2.16s2.17-.96,2.17-2.15-.96-2.16-2.16-2.17-2.16.96-2.17,2.16Zm-123.11-4.33c-1.17,0-2.12.94-2.12,2.11s.94,2.12,2.11,2.12,2.12-.95,2.12-2.11-.94-2.12-2.11-2.12Zm-183.19-164.87c1.63,0,2.96-1.32,2.96-2.95s-1.32-2.96-2.95-2.97-2.96,1.32-2.96,2.95,1.32,2.96,2.95,2.96h0Zm282.56,146.05c0,1.16.93,2.09,2.09,2.1s2.09-.93,2.1-2.09-.93-2.09-2.09-2.1-2.09.93-2.1,2.09Zm-197.44-56.03c-1.02,0-1.84.82-1.84,1.84s.82,1.85,1.83,1.85,1.85-.82,1.85-1.84-.82-1.84-1.84-1.85h0Zm-128.65-124.5c0-1.74-1.41-3.16-3.15-3.16s-3.16,1.4-3.16,3.15,1.4,3.16,3.15,3.16,3.16-1.4,3.16-3.14h0Zm9.86-8.7c0-1.24-1.01-2.26-2.25-2.26s-2.26,1-2.26,2.25,1,2.26,2.25,2.26,2.26-1.01,2.26-2.25Zm-27.9,8.16c0-.85-.69-1.54-1.54-1.55s-1.54.69-1.54,1.54.68,1.54,1.53,1.54,1.55-.68,1.55-1.54h0Zm16.25,12.66c1.29,0,2.34-1.04,2.34-2.33s-1.04-2.34-2.33-2.34-2.34,1.04-2.35,2.33,1.04,2.34,2.33,2.34h0Zm23.96,18.92c1.48,0,2.69-1.19,2.69-2.67s-1.19-2.68-2.68-2.68-2.68,1.19-2.68,2.67,1.19,2.68,2.67,2.69h0Zm-42.88-18.48c0-1.31-1.06-2.38-2.38-2.39s-2.38,1.06-2.39,2.38,1.06,2.38,2.38,2.39,2.38-1.06,2.39-2.38Zm-4.85-33.7c0-1.13-.92-2.06-2.05-2.06s-2.06.92-2.06,2.05.92,2.06,2.05,2.06,2.06-.92,2.06-2.05Zm4.4-118.9c.95,0,1.73-.77,1.73-1.73s-.77-1.73-1.73-1.73-1.73.77-1.74,1.73.77,1.73,1.73,1.74h0Zm41.57,157.76c0-1.16-.93-2.09-2.08-2.09s-2.09.93-2.09,2.08.93,2.09,2.08,2.09,2.09-.93,2.09-2.08Zm25.5,5.64c0-.86-.69-1.56-1.55-1.56s-1.56.69-1.56,1.55.69,1.56,1.55,1.56,1.56-.69,1.56-1.55Zm-50.47-129.65c1.15,0,2.09-.93,2.09-2.09s-.93-2.09-2.08-2.1-2.09.93-2.09,2.09.93,2.09,2.08,2.1Zm-23.13-32.82c0-1.82-1.47-3.3-3.29-3.31s-3.3,1.47-3.31,3.29,1.47,3.3,3.29,3.3,3.3-1.47,3.31-3.29h0Zm9.87,32.81c0-.89-.72-1.61-1.61-1.62s-1.61.72-1.62,1.61.72,1.62,1.61,1.62,1.62-.72,1.62-1.61Zm22.98,35.6c1.42,0,2.56-1.14,2.57-2.56s-1.14-2.56-2.56-2.56-2.56,1.14-2.56,2.55,1.14,2.56,2.55,2.57Zm-12.49-9.91c0-.99-.8-1.79-1.79-1.79s-1.79.8-1.79,1.78.8,1.79,1.78,1.79,1.8-.8,1.8-1.78h0Zm-5.16,51.62c0-1.57-1.26-2.84-2.83-2.84s-2.84,1.26-2.84,2.83,1.26,2.84,2.83,2.84,2.84-1.26,2.84-2.83Zm-16.75-23.16c0-.99-.79-1.79-1.78-1.79s-1.79.8-1.79,1.78.79,1.79,1.78,1.79,1.79-.79,1.79-1.78Zm6.24-15.6c-1.65,0-2.98-1.34-2.97-2.98s1.34-2.98,2.99-2.97,2.98,1.34,2.97,2.99-1.34,2.97-2.99,2.97"/>
    <g class="cls-4">
      <path class="cls-3" d="m14.32,723.39c0-.91-.73-1.64-1.64-1.64s-1.64.73-1.65,1.64.73,1.64,1.64,1.64,1.64-.73,1.64-1.64h.01Zm-3.19,10.47c0-1.08-.87-1.95-1.94-1.95s-1.95.86-1.95,1.94.87,1.95,1.94,1.95,1.95-.87,1.95-1.94Zm13.66,11.74c0-1.22-.99-2.21-2.21-2.22s-2.22.99-2.22,2.21.99,2.21,2.21,2.22,2.21-.99,2.22-2.21Zm25.46,10.01c0-1.95-1.57-3.54-3.53-3.55s-3.54,1.57-3.54,3.53,1.57,3.54,3.53,3.54,3.54-1.57,3.55-3.53h0Zm24.67,6.17c0-.93-.75-1.68-1.67-1.68s-1.67.75-1.68,1.67.75,1.68,1.67,1.68,1.67-.75,1.68-1.67Zm-45.52,21.08c0-1.53-1.23-2.77-2.76-2.77s-2.76,1.23-2.77,2.76,1.23,2.77,2.75,2.77,2.77-1.23,2.77-2.76h.01Zm61.65,10.59c0-.98-.79-1.79-1.78-1.79s-1.79.8-1.79,1.78.8,1.79,1.78,1.79,1.79-.79,1.79-1.78Zm-64.42,14.24c0-1.35-1.09-2.45-2.45-2.46s-2.45,1.09-2.45,2.45,1.09,2.45,2.44,2.46,2.46-1.09,2.46-2.45Zm22.16,8.5c0-1.29-1.04-2.33-2.32-2.33s-2.33,1.04-2.33,2.32,1.04,2.33,2.32,2.33,2.33-1.03,2.34-2.32h-.01Zm-33.12,20.07c0-1.55-1.25-2.81-2.8-2.82s-2.81,1.25-2.82,2.8,1.25,2.81,2.8,2.82,2.81-1.25,2.82-2.8Zm21.87-10.38c0-1.81-1.47-3.29-3.28-3.3s-3.29,1.47-3.3,3.28,1.46,3.29,3.28,3.3,3.29-1.47,3.3-3.28Zm27.34,37.87c0-1.76-1.42-3.19-3.18-3.19s-3.19,1.42-3.19,3.18,1.42,3.19,3.18,3.2,3.19-1.42,3.2-3.18h-.01Zm-6.1-36.44c0-1.69-1.36-3.07-3.06-3.07s-3.07,1.37-3.07,3.06,1.36,3.07,3.06,3.07,3.07-1.36,3.07-3.06Zm15.09-9.84c0-1.84-1.48-3.34-3.33-3.34s-3.34,1.48-3.34,3.33,1.48,3.34,3.33,3.35,3.34-1.49,3.34-3.33h0Zm-.48,32.46c0-1.08-.87-1.96-1.95-1.96s-1.95.87-1.95,1.95.87,1.95,1.94,1.95,1.95-.87,1.96-1.94h0Zm21.27-33.07c1.39,0,2.53-1.12,2.53-2.52s-1.13-2.53-2.52-2.53-2.53,1.12-2.54,2.52,1.13,2.53,2.52,2.53h0Zm11.3,9.03c1.41,0,2.55-1.13,2.56-2.54s-1.13-2.56-2.54-2.56-2.56,1.14-2.56,2.55,1.14,2.55,2.55,2.56h-.01Zm3.1,40.76c0-1.38-1.11-2.5-2.49-2.51s-2.5,1.11-2.51,2.49,1.11,2.5,2.49,2.51,2.5-1.11,2.51-2.49Zm17-9.88c0-1.51-1.22-2.74-2.73-2.75s-2.74,1.22-2.74,2.73,1.22,2.74,2.73,2.74,2.74-1.22,2.74-2.73h0Zm5.16,21.48c0-1.84-1.49-3.34-3.33-3.35s-3.34,1.49-3.35,3.33,1.49,3.34,3.33,3.35,3.34-1.49,3.35-3.33Zm25.34-37.02c0-1.96-1.58-3.55-3.54-3.56s-3.55,1.58-3.56,3.54,1.58,3.55,3.54,3.56,3.55-1.58,3.56-3.54Zm6.43.87c0-.85-.68-1.54-1.53-1.54s-1.54.68-1.54,1.53.68,1.54,1.53,1.54,1.54-.68,1.54-1.53Zm-29.18,48.91c0-1.91-1.53-3.45-3.44-3.46s-3.46,1.53-3.46,3.44,1.54,3.45,3.44,3.46,3.45-1.54,3.46-3.44Zm52.94-40.79c0-1.7-1.37-3.09-3.08-3.09s-3.09,1.37-3.09,3.07,1.37,3.09,3.07,3.09,3.09-1.37,3.09-3.08h.01Zm3.43-18.69c0-.87-.7-1.58-1.57-1.58s-1.57.7-1.58,1.57.7,1.58,1.57,1.58,1.58-.7,1.58-1.57Zm7.94,39.81c0-.97-.78-1.76-1.75-1.77s-1.76.79-1.77,1.76.79,1.76,1.76,1.76,1.76-.79,1.76-1.75h0Zm7.78,12.2c0-1.51-1.22-2.74-2.73-2.74s-2.74,1.22-2.74,2.73,1.22,2.74,2.73,2.75,2.74-1.22,2.75-2.73h-.01Zm154.14-36.7c0,1.88,1.51,3.4,3.38,3.4s3.4-1.51,3.4-3.39-1.51-3.4-3.39-3.4-3.4,1.51-3.4,3.38h.01Zm-55.84,10.24c0,1.2.97,2.17,2.16,2.18s2.17-.97,2.17-2.16-.97-2.17-2.16-2.17-2.17.97-2.17,2.16h0Zm20.47,22.23c0,1.32,1.07,2.4,2.39,2.4s2.4-1.07,2.4-2.39-1.07-2.4-2.39-2.41-2.4,1.07-2.4,2.39h0Zm-13.08,8.66c-1.14,0-2.06.92-2.07,2.05s.92,2.06,2.06,2.07,2.06-.92,2.07-2.06-.92-2.06-2.05-2.07h0Zm-7.59-3.59c0-1.31-1.06-2.38-2.37-2.39s-2.38,1.06-2.38,2.37,1.06,2.38,2.37,2.38,2.38-1.06,2.39-2.37h0Zm22.15-46.21c0,1.46,1.18,2.65,2.64,2.66s2.65-1.18,2.65-2.64-1.18-2.65-2.64-2.65-2.65,1.18-2.66,2.64h0Zm-46.68,8.95c-1.91,0-3.46,1.54-3.46,3.45s1.54,3.46,3.45,3.46,3.46-1.53,3.46-3.44-1.54-3.46-3.45-3.46h0Zm-36.98,30.99c-1.93,0-3.49,1.56-3.5,3.48s1.55,3.49,3.48,3.49,3.49-1.55,3.5-3.48-1.55-3.49-3.48-3.5h0Zm-7.18,17.3c0-2.05-1.65-3.72-3.7-3.72s-3.72,1.65-3.72,3.7,1.65,3.72,3.7,3.72,3.72-1.65,3.72-3.7Zm14.01-56.63c-1.55,0-2.82,1.26-2.82,2.81s1.25,2.82,2.81,2.82,2.82-1.25,2.83-2.81-1.25-2.82-2.81-2.82h-.01Zm-23.03-1.48c0,2.06,1.66,3.74,3.73,3.75s3.74-1.67,3.75-3.73-1.67-3.74-3.73-3.75-3.74,1.66-3.75,3.73Zm-3.27,11.82c1.37,0,2.48-1.1,2.48-2.47s-1.1-2.48-2.47-2.48-2.48,1.1-2.48,2.47,1.1,2.48,2.47,2.48Zm-20.08,3.54c-.91,0-1.66.73-1.66,1.65s.74,1.66,1.65,1.66,1.66-.74,1.66-1.65-.74-1.66-1.65-1.66Zm-.59-18.24c-1.16,0-2.11.94-2.12,2.1s.94,2.11,2.11,2.12,2.11-.94,2.12-2.11-.94-2.11-2.11-2.11h0Zm-29.29-11.73c0,1.18.95,2.14,2.14,2.15s2.14-.96,2.15-2.14-.95-2.15-2.14-2.15-2.14.96-2.15,2.14Zm-33.66-15.39c0-1.92-1.55-3.49-3.48-3.5s-3.49,1.56-3.5,3.48,1.55,3.49,3.48,3.5,3.49-1.55,3.49-3.48h.01Zm36.44-32.66c0-.98-.79-1.77-1.77-1.78s-1.78.79-1.78,1.77.79,1.78,1.77,1.78,1.78-.79,1.78-1.77Zm-2.82-9.71c0-1.26-1.01-2.28-2.27-2.28s-2.28,1.01-2.28,2.27,1.01,2.28,2.27,2.28,2.28-1.01,2.28-2.27Zm-38.7,24.15c0-1.54-1.24-2.79-2.79-2.8s-2.79,1.24-2.8,2.78,1.24,2.8,2.78,2.8,2.8-1.24,2.8-2.79h0Zm-12.16-1.18c0-1.65-1.33-3-2.99-3s-3,1.33-3,2.99,1.33,3,2.99,3.01,3-1.33,3-2.99h0Zm26.84-43.27c1.47,0,2.67-1.19,2.67-2.66s-1.19-2.67-2.66-2.67-2.67,1.19-2.67,2.66,1.19,2.67,2.66,2.67Zm-10.7-10.06c1.84,0,3.33-1.48,3.33-3.32s-1.48-3.33-3.32-3.33-3.33,1.48-3.33,3.32,1.48,3.33,3.32,3.33Zm-13.43-9.86c1.2,0,2.18-.97,2.18-2.17s-.97-2.17-2.17-2.18-2.18.97-2.18,2.17.97,2.18,2.17,2.18Zm-30.31,7.85c.91,0,1.66-.74,1.66-1.65s-.74-1.65-1.65-1.65-1.66.73-1.66,1.64.74,1.66,1.65,1.66h0Zm-22.35,3c1.39,0,2.52-1.12,2.52-2.51s-1.12-2.52-2.51-2.52-2.52,1.12-2.52,2.51,1.12,2.52,2.51,2.52Zm-17.52-1.8c0-1.21-.98-2.2-2.19-2.2s-2.2.98-2.2,2.19.98,2.2,2.19,2.2,2.2-.98,2.2-2.19Zm2.41-21.88c0-2.06-1.66-3.73-3.71-3.73s-3.73,1.66-3.73,3.71,1.66,3.73,3.71,3.73,3.73-1.66,3.73-3.71Zm12.17-21.14c1.79,0,3.25-1.44,3.26-3.24s-1.45-3.25-3.24-3.25-3.25,1.45-3.26,3.24,1.45,3.25,3.24,3.25Zm4.49-14.68c0-1.04-.84-1.88-1.88-1.88s-1.88.83-1.88,1.87.84,1.88,1.88,1.88,1.88-.84,1.89-1.88h0Zm-15.77-5.08c0-1.06-.86-1.93-1.93-1.94s-1.93.86-1.94,1.93.86,1.94,1.93,1.94,1.94-.86,1.94-1.93Zm9.43-16.89c0-1.1-.88-1.99-1.98-1.99s-1.99.89-1.99,1.98.89,1.99,1.98,1.99,1.99-.89,1.99-1.98Zm-12.04-7.09c0-1.42-1.14-2.57-2.56-2.57s-2.57,1.14-2.57,2.56,1.14,2.57,2.56,2.57,2.57-1.14,2.57-2.56Zm-5.14-8.48c0-1.38-1.11-2.5-2.49-2.5s-2.5,1.11-2.5,2.49,1.11,2.5,2.49,2.5,2.5-1.11,2.5-2.49Zm-15.37-17.24c0-1.38-1.12-2.5-2.5-2.51s-2.5,1.11-2.51,2.49,1.11,2.5,2.49,2.51,2.51-1.11,2.51-2.49h.01Zm1.4-13.96c0-1.27-1.02-2.3-2.29-2.3s-2.29,1.02-2.3,2.29,1.02,2.29,2.28,2.3,2.3-1.02,2.3-2.28h0Zm-4.43-58.52c0-1.88-1.51-3.4-3.38-3.4s-3.4,1.51-3.4,3.38,1.51,3.4,3.38,3.4,3.4-1.51,3.4-3.38Zm-18.65,143.25c0-1.5-1.21-2.71-2.71-2.72s-2.72,1.21-2.72,2.7,1.21,2.72,2.71,2.72,2.72-1.21,2.72-2.71h0Zm.66-182.06c-1.82,0-3.29-1.48-3.29-3.3s1.48-3.29,3.3-3.29,3.29,1.48,3.29,3.3-1.49,3.29-3.3,3.29"/>
    </g>
    <g class="cls-7">
      <path class="cls-3" d="m42.98,746.05c0-1.35-1.09-2.45-2.45-2.46s-2.45,1.09-2.46,2.45,1.09,2.45,2.44,2.45,2.45-1.09,2.46-2.44h.01Zm16.87-18.96c1.17,0,2.12-.94,2.12-2.11s-.94-2.12-2.11-2.12-2.12.94-2.12,2.11.95,2.12,2.11,2.12Zm-4.47,17.56c0,.79.64,1.43,1.43,1.43s1.43-.64,1.43-1.43-.63-1.43-1.43-1.44-1.43.64-1.44,1.43h.01Zm-26.82-15.42c0-1.61-1.3-2.92-2.91-2.92s-2.92,1.3-2.92,2.91,1.3,2.91,2.91,2.92,2.92-1.29,2.92-2.9h0Zm32.05,28.97c0-1.3-1.05-2.36-2.35-2.36s-2.36,1.05-2.36,2.35,1.05,2.36,2.35,2.36,2.36-1.05,2.36-2.35h0Zm-41.29,14.19c0-1.81-1.46-3.28-3.26-3.28s-3.28,1.46-3.28,3.27,1.45,3.28,3.27,3.28,3.28-1.46,3.28-3.26h-.01Zm29.8,10.04c0-1.43-1.15-2.59-2.58-2.59s-2.59,1.15-2.59,2.58,1.15,2.59,2.58,2.59,2.59-1.15,2.59-2.58Zm22.98,7.76c0-1.72-1.39-3.12-3.11-3.13s-3.12,1.39-3.12,3.11,1.39,3.12,3.11,3.13,3.12-1.39,3.13-3.11h-.01Zm-28.88,9.4c0-1.25-1.01-2.27-2.26-2.27s-2.26,1.01-2.27,2.26,1.01,2.26,2.26,2.27,2.27-1.01,2.27-2.26Zm38.52,9.38c0-.94-.76-1.7-1.7-1.7s-1.7.76-1.7,1.69.75,1.7,1.69,1.71,1.7-.76,1.7-1.7h.01Zm-36.16,8.09c0-1.86-1.5-3.37-3.36-3.38s-3.38,1.5-3.38,3.36,1.5,3.38,3.36,3.38,3.38-1.5,3.38-3.36Zm-26.45,55.84c0-1.78-1.43-3.23-3.21-3.23s-3.23,1.43-3.23,3.21,1.43,3.23,3.22,3.23,3.22-1.44,3.23-3.22h0Zm39.16-38.27c.26.08.52.14.81.14,1.46,0,2.64-1.18,2.64-2.63s-1.17-2.65-2.63-2.65-2.65,1.17-2.65,2.64v.06c-.07,0-.14-.02-.22-.02-1.15,0-2.09.93-2.09,2.08s.93,2.09,2.08,2.09c1.02,0,1.87-.73,2.05-1.7h0Zm30.26,2.54c0-1.27-1.02-2.31-2.3-2.31s-2.31,1.03-2.31,2.3,1.02,2.31,2.3,2.31,2.31-1.03,2.31-2.3Zm14.63,12.55c0-1.92-1.55-3.48-3.47-3.48s-3.48,1.55-3.48,3.47,1.55,3.48,3.46,3.48,3.48-1.55,3.48-3.46h0Zm-14.42-17.09c1.13,0,2.05-.84,2.19-1.93.21-.27.34-.62.35-.99,0-.9-.73-1.63-1.63-1.64-.24,0-.46.05-.67.15-.08,0-.15-.03-.23-.03-1.23,0-2.22.99-2.23,2.22s.99,2.21,2.22,2.22Zm-38.99,12.51c0-.98-.79-1.78-1.78-1.79s-1.78.79-1.78,1.78.79,1.78,1.78,1.78,1.78-.79,1.79-1.78h0Zm27.37-13.76c-1.13,0-2.04.91-2.04,2.03s.91,2.04,2.03,2.04,2.04-.91,2.05-2.03-.91-2.04-2.04-2.04h0Zm22.69,58.68c0-1.23-.99-2.23-2.22-2.23s-2.23.99-2.23,2.22.99,2.23,2.22,2.23,2.23-.99,2.23-2.22Zm4.36-118.71c1.73,0,3.14-1.4,3.15-3.13s-1.4-3.14-3.13-3.15-3.14,1.4-3.15,3.13,1.4,3.15,3.13,3.15Zm4.84,66.25c0-1.81-1.45-3.27-3.26-3.28s-3.27,1.45-3.28,3.26,1.45,3.28,3.26,3.28,3.28-1.45,3.28-3.26Zm8.34-.01c0,.97.79,1.77,1.76,1.77s1.77-.79,1.77-1.76-.78-1.77-1.76-1.77-1.77.78-1.77,1.76Zm19.32-14.51c0-1.47-1.18-2.66-2.65-2.66s-2.66,1.18-2.66,2.65,1.18,2.66,2.65,2.67,2.66-1.18,2.66-2.65h0Zm6.55,18.78c-1.26,0-2.29,1.02-2.29,2.28s1.02,2.29,2.28,2.3,2.29-1.02,2.3-2.28-1.02-2.29-2.28-2.29h-.01Zm4.11,6.99c0,.83.67,1.5,1.5,1.5s1.5-.67,1.5-1.5-.67-1.5-1.5-1.51-1.5.67-1.5,1.5h0Zm10.78,31.18c0-1.78-1.43-3.22-3.21-3.23s-3.22,1.43-3.23,3.21,1.43,3.23,3.21,3.23,3.23-1.43,3.23-3.21Zm-24.59-39.66c0-1.72-1.39-3.12-3.11-3.12s-3.12,1.39-3.13,3.11,1.39,3.12,3.11,3.12,3.12-1.39,3.12-3.11h.01Zm-5.4,29.22c0,.87.7,1.58,1.57,1.58s1.57-.7,1.58-1.57-.7-1.58-1.57-1.58-1.57.7-1.58,1.57Zm12.63,7.98c0-1.16-.94-2.11-2.11-2.12s-2.11.94-2.12,2.11.94,2.11,2.11,2.12,2.11-.94,2.12-2.11Zm14.42-11.69c1.34,0,2.43-1.08,2.43-2.42s-1.08-2.43-2.42-2.43-2.43,1.08-2.44,2.42,1.08,2.43,2.42,2.44h0Zm-33.37,5.04c0,1.07.86,1.94,1.93,1.94s1.94-.86,1.94-1.93-.86-1.94-1.93-1.94-1.94.86-1.94,1.93Zm-4.27-3.67c0-1.87-1.51-3.39-3.38-3.39s-3.39,1.51-3.39,3.38,1.51,3.39,3.38,3.39,3.39-1.51,3.39-3.38Zm16.64-32.83c0,.93.75,1.68,1.68,1.69s1.68-.75,1.69-1.68-.75-1.68-1.68-1.69-1.69.75-1.69,1.68Zm-38.36,26.42c0-1.07-.87-1.94-1.94-1.95s-1.94.87-1.95,1.94.86,1.95,1.94,1.95,1.95-.87,1.95-1.94Zm-3.3-26.04c0,1.42,1.15,2.58,2.57,2.58s2.58-1.15,2.58-2.57-1.15-2.58-2.57-2.58-2.58,1.15-2.58,2.57Zm34.32-63.4c0-1.19-.96-2.17-2.15-2.17s-2.16.96-2.17,2.16.96,2.16,2.16,2.16,2.16-.96,2.16-2.15h0Zm-8.06,35.95c0,1.71,1.38,3.1,3.09,3.11s3.11-1.38,3.11-3.09-1.38-3.11-3.1-3.11-3.1,1.38-3.11,3.1h0Zm-61.92-1.31c0-.92-.75-1.67-1.67-1.68s-1.68.75-1.68,1.67.75,1.67,1.67,1.68,1.67-.75,1.68-1.67Zm238.17,88.98c0-1.7-1.37-3.08-3.07-3.08s-3.08,1.37-3.08,3.07,1.37,3.08,3.07,3.09,3.08-1.37,3.08-3.07h0Zm25.18,5.17c0-.93-.76-1.7-1.69-1.7s-1.69.76-1.7,1.69.75,1.69,1.69,1.7,1.7-.75,1.7-1.69Zm-54.51-110.58c0,1.12.91,2.03,2.03,2.04s2.03-.9,2.04-2.03-.9-2.03-2.03-2.04-2.03.91-2.04,2.03Zm11.06,99.21c1.32,0,2.39-1.06,2.4-2.38s-1.07-2.39-2.38-2.4-2.39,1.06-2.4,2.38,1.07,2.39,2.39,2.39h0Zm1.07-20.82c0,1.37,1.11,2.49,2.48,2.49s2.49-1.11,2.49-2.48-1.11-2.49-2.48-2.49-2.49,1.11-2.49,2.48Zm-2.11-10.98c0-.82-.66-1.48-1.48-1.48s-1.49.66-1.49,1.48.66,1.49,1.48,1.49,1.49-.66,1.49-1.48h0Zm-18.14-2.4c0-1.37-1.1-2.47-2.46-2.47s-2.47,1.1-2.48,2.46,1.1,2.47,2.46,2.48,2.47-1.1,2.48-2.46h0Zm-35.55,14.96c-1.23,0-2.22.99-2.23,2.22s.99,2.22,2.22,2.22,2.22-.99,2.22-2.21-.99-2.22-2.21-2.23h0Zm-9.84,2.79c1.88,0,3.41-1.51,3.41-3.39s-1.51-3.41-3.39-3.41-3.41,1.51-3.41,3.4,1.52,3.41,3.4,3.41h-.01Zm-.96-30.78c0,1.01.82,1.84,1.83,1.84s1.84-.82,1.84-1.83-.82-1.84-1.83-1.84-1.84.82-1.84,1.83Zm14.56-24.26c0-1.67-1.35-3.03-3.02-3.03s-3.03,1.35-3.03,3.02,1.35,3.03,3.02,3.04,3.03-1.35,3.04-3.02h0Zm-55.23-16.08c0-1.5-1.21-2.72-2.71-2.73s-2.72,1.21-2.72,2.71,1.21,2.72,2.71,2.72,2.72-1.21,2.73-2.71h0Zm32.16-40.69c0-1.73-1.39-3.13-3.11-3.13s-3.12,1.39-3.13,3.11,1.39,3.12,3.11,3.12,3.12-1.39,3.13-3.11h0Zm-52.43,21.01c1.51,0,2.73-1.22,2.74-2.73s-1.22-2.73-2.72-2.74-2.74,1.21-2.74,2.72,1.22,2.74,2.73,2.74h0Zm-15.27-41.17c0-1.84-1.48-3.33-3.32-3.33s-3.33,1.48-3.33,3.32,1.48,3.33,3.31,3.33,3.33-1.48,3.33-3.31h0Zm39.98-34.86c0,.78.63,1.42,1.41,1.42s1.42-.63,1.42-1.41-.63-1.42-1.41-1.42-1.42.63-1.42,1.41Zm-10.92-1.44c0-1.3-1.05-2.37-2.36-2.37s-2.36,1.05-2.37,2.36,1.05,2.37,2.35,2.37,2.37-1.05,2.37-2.36h.01Zm-9.51-37.34c0-1.52-1.23-2.76-2.75-2.76s-2.76,1.23-2.76,2.75,1.23,2.76,2.75,2.76,2.76-1.23,2.76-2.75Zm-63.16-30.35c1.51,0,2.74-1.21,2.74-2.73s-1.22-2.74-2.73-2.74-2.74,1.22-2.74,2.73,1.21,2.74,2.73,2.74Zm-2.81-15.65c0-.97-.78-1.75-1.75-1.76s-1.75.78-1.76,1.75.78,1.75,1.75,1.76,1.76-.78,1.76-1.75Zm8.51-39.9c0-1.22-.98-2.21-2.2-2.21s-2.21.98-2.21,2.2.98,2.2,2.2,2.21,2.21-.98,2.21-2.19h0Zm-9.82-6.45c0-.79-.63-1.43-1.42-1.43s-1.43.63-1.43,1.42.64,1.43,1.43,1.43,1.43-.64,1.43-1.43h0Zm-28.75,6.18c0-1.27-1.03-2.31-2.3-2.31s-2.31,1.03-2.31,2.3,1.03,2.31,2.3,2.31,2.31-1.03,2.31-2.3Zm5.27-22.72c0-1.04-.84-1.89-1.89-1.89s-1.89.84-1.9,1.88.84,1.89,1.89,1.9,1.89-.84,1.9-1.89Zm26.39,2.67c0-1.26-1.02-2.29-2.28-2.29s-2.29,1.02-2.29,2.28,1.02,2.29,2.28,2.29,2.29-1.02,2.29-2.28Zm-33.75,42.15c0-1.24-1.01-2.26-2.25-2.26s-2.26,1-2.26,2.25,1,2.26,2.25,2.26,2.26-1,2.26-2.25Zm.25,33.06c0-1.81-1.46-3.29-3.27-3.29s-3.29,1.46-3.29,3.28,1.46,3.29,3.28,3.29,3.29-1.46,3.29-3.27h-.01Zm58.58-19.27c0-1.68-1.36-3.05-3.04-3.05s-3.05,1.36-3.05,3.04,1.36,3.05,3.04,3.05,3.05-1.36,3.06-3.04h-.01Zm-41.91,36.81c0-1.53-1.24-2.77-2.77-2.78s-2.78,1.23-2.78,2.76,1.24,2.78,2.77,2.78,2.78-1.24,2.78-2.77h0Zm29.77,2.6c-1.03,0-1.87.83-1.87,1.86s.83,1.87,1.86,1.87,1.87-.83,1.87-1.86-.83-1.87-1.86-1.87Zm-11.36,35.43c0-1.86-1.5-3.38-3.36-3.38s-3.38,1.5-3.38,3.36,1.5,3.37,3.36,3.38,3.37-1.5,3.38-3.36Zm39.23-9.76c0-.8-.65-1.45-1.45-1.45s-1.45.64-1.45,1.44.65,1.45,1.44,1.45,1.45-.65,1.45-1.45h.01Zm10.29,2.87c0-.91-.73-1.65-1.65-1.66s-1.65.74-1.66,1.65.74,1.65,1.65,1.66,1.65-.74,1.66-1.65Zm-30.3,31.02c0-1.09-.88-1.98-1.97-1.98s-1.98.88-1.98,1.97.88,1.98,1.97,1.98,1.98-.88,1.98-1.97Zm15.75,2.74c0-.95-.76-1.72-1.71-1.72s-1.72.77-1.72,1.71.77,1.72,1.71,1.72,1.72-.77,1.72-1.71Zm42.26-11.43c0-1.01-.82-1.84-1.83-1.84s-1.84.81-1.84,1.83.82,1.84,1.83,1.84,1.84-.81,1.84-1.83Zm-47.44,43.51c0-.84-.68-1.52-1.51-1.52s-1.52.67-1.52,1.51.68,1.52,1.52,1.52,1.52-.68,1.52-1.51h-.01Zm59.83-19.78c0,1.01.82,1.84,1.83,1.84s1.83-.82,1.84-1.83-.81-1.83-1.83-1.84-1.84.81-1.84,1.83Zm-17.55,26.95c1.68,0,3.04-1.35,3.05-3.03s-1.35-3.04-3.03-3.05-3.04,1.35-3.04,3.03,1.35,3.04,3.03,3.04h0Zm-3.32,10.01c-1.66,0-3.01,1.34-3.01,2.99s1.34,3.01,2.99,3.01,3.01-1.34,3.01-2.99-1.34-3.01-2.99-3.01Zm-1.87,22.87c1.88,0,3.41-1.52,3.42-3.4s-1.52-3.41-3.4-3.42-3.41,1.52-3.42,3.4,1.52,3.41,3.4,3.42Zm32.83-7.76c0-1.42-1.15-2.57-2.56-2.58s-2.58,1.15-2.58,2.56,1.15,2.58,2.57,2.58,2.57-1.15,2.58-2.57h0Zm20.81-2.42c.8,0,1.46-.65,1.46-1.46s-.65-1.46-1.45-1.46-1.46.65-1.46,1.45.65,1.46,1.46,1.46h0Zm-7.09,11.85c0-1.45-1.16-2.62-2.61-2.63s-2.62,1.16-2.63,2.61,1.16,2.62,2.61,2.63,2.62-1.16,2.62-2.61h.01Zm-7.87,11.76c-1.88,0-3.4,1.51-3.41,3.39s1.51,3.4,3.39,3.41,3.4-1.51,3.41-3.39-1.51-3.4-3.39-3.41Zm-11-2.63c1.57,0,2.85-1.27,2.85-2.84s-1.27-2.85-2.84-2.85-2.84,1.27-2.85,2.84,1.27,2.85,2.83,2.85h.01Zm5.49,6.99c0-1.83-1.48-3.33-3.32-3.33s-3.33,1.48-3.33,3.32,1.48,3.33,3.32,3.34,3.33-1.48,3.34-3.32h-.01Zm6.7,7.04c.98,0,1.78-.79,1.78-1.77s-.79-1.77-1.77-1.78-1.77.79-1.78,1.77.79,1.78,1.77,1.78Zm48.42-36.21c0,.97.78,1.76,1.75,1.76s1.76-.78,1.76-1.75-.78-1.75-1.75-1.76-1.75.78-1.76,1.75Zm12.81,31.38c1.85,0,3.35,1.51,3.34,3.36s-1.51,3.35-3.36,3.34-3.35-1.51-3.34-3.36,1.51-3.35,3.36-3.34"/>
    </g>
  </g>
  <g>
    <g class="cls-6">
      <g>
        <path class="cls-3" d="m19.18,540.65c.25,1.7,1.83,2.88,3.54,2.63,1.7-.25,2.88-1.83,2.63-3.54-.25-1.7-1.83-2.88-3.54-2.63-1.7.25-2.88,1.83-2.63,3.54Z"/>
        <path class="cls-3" d="m12.02,555.87c1.28-.19,2.16-1.37,1.97-2.65-.19-1.27-1.37-2.15-2.65-1.97-1.28.19-2.15,1.37-1.97,2.65.19,1.28,1.37,2.16,2.65,1.97Z"/>
        <path class="cls-3" d="m7.3,610.57c-1.86.27-3.14,2-2.86,3.85.27,1.86,2,3.14,3.85,2.86,1.85-.27,3.14-2,2.86-3.85s-2-3.14-3.85-2.86Z"/>
        <path class="cls-3" d="m-1.74,535.2c-1.32.19-2.22,1.41-2.03,2.73s1.41,2.22,2.73,2.03c1.31-.19,2.22-1.41,2.03-2.73-.19-1.31-1.41-2.22-2.73-2.03Z"/>
        <path class="cls-3" d="m28.62,689.67c-1.27.19-2.15,1.37-1.96,2.64.19,1.27,1.37,2.15,2.64,1.96,1.27-.19,2.15-1.37,1.96-2.64s-1.37-2.15-2.64-1.96Z"/>
        <path class="cls-3" d="m24.85,657.51c-1.73.25-2.92,1.86-2.67,3.59.25,1.73,1.86,2.92,3.59,2.67s2.92-1.86,2.67-3.59c-.25-1.73-1.86-2.92-3.59-2.67Z"/>
        <path class="cls-3" d="m2.77,579.81c-.24-1.66-1.79-2.81-3.45-2.57s-2.81,1.79-2.57,3.45c.24,1.66,1.79,2.81,3.45,2.56,1.66-.24,2.81-1.79,2.56-3.45h0Z"/>
        <path class="cls-3" d="m7.85,299.37c1.34-.2,2.27-1.45,2.07-2.79s-1.44-2.26-2.78-2.06c-1.34.2-2.27,1.44-2.07,2.78.2,1.34,1.44,2.27,2.79,2.07h-.01Z"/>
        <circle class="cls-3" cx="47.05" cy="412.63" r="1.68"/>
        <path class="cls-3" d="m12.24,345.97c1.82-.27,3.07-1.96,2.8-3.77-.27-1.82-1.95-3.07-3.77-2.8-1.82.27-3.07,1.95-2.8,3.77.27,1.82,1.95,3.07,3.77,2.8Z"/>
        <path class="cls-3" d="m15.56,485.88c-1.43.21-2.42,1.54-2.21,2.97.21,1.42,1.54,2.42,2.97,2.2,1.43-.21,2.41-1.54,2.2-2.97s-1.54-2.42-2.97-2.21h.01Z"/>
        <path class="cls-3" d="m50.22,359.15c.97-.14,1.64-1.04,1.5-2.01s-1.04-1.64-2.01-1.49c-.96.14-1.64,1.04-1.49,2.01.14.97,1.05,1.64,2.01,1.5h0Z"/>
        <path class="cls-3" d="m33.45,592.04c.15,1,1.07,1.68,2.07,1.54.99-.15,1.68-1.07,1.53-2.07-.15-.99-1.07-1.68-2.06-1.53-1,.15-1.68,1.07-1.54,2.06h0Z"/>
        <path class="cls-3" d="m.84,386.35c.25,1.72,1.86,2.91,3.57,2.66,1.72-.25,2.91-1.86,2.66-3.58s-1.85-2.91-3.58-2.66c-1.72.25-2.91,1.85-2.66,3.58h.01Z"/>
        <path class="cls-3" d="m55.09,681.18c1-.15,1.7-1.08,1.55-2.09s-1.08-1.7-2.09-1.55-1.7,1.08-1.55,2.09c.15,1,1.08,1.7,2.09,1.55Z"/>
        <path class="cls-3" d="m42.82,401.98c-.14-.95-1.03-1.61-1.98-1.47s-1.61,1.03-1.47,1.98c.14.96,1.03,1.61,1.98,1.47.95-.14,1.61-1.02,1.47-1.98Z"/>
        <path class="cls-3" d="m61.36,479.88c-.23-1.58-1.7-2.67-3.28-2.44-1.58.23-2.67,1.7-2.44,3.28s1.7,2.66,3.28,2.43,2.67-1.7,2.44-3.27Z"/>
        <path class="cls-3" d="m35.65,420.07c-1.84.27-3.11,1.98-2.84,3.83.27,1.84,1.98,3.11,3.82,2.84s3.11-1.98,2.84-3.82-1.98-3.12-3.82-2.84h0Z"/>
        <path class="cls-3" d="m37.53,438.81c-1.53.23-2.58,1.65-2.36,3.18s1.64,2.58,3.17,2.36c1.53-.23,2.59-1.65,2.36-3.17-.23-1.53-1.65-2.59-3.18-2.36h.01Z"/>
        <path class="cls-3" d="m64.13,413.64c-1.52.22-2.57,1.64-2.35,3.16s1.64,2.57,3.16,2.35c1.52-.22,2.57-1.64,2.35-3.16s-1.64-2.57-3.16-2.35Z"/>
        <path class="cls-3" d="m53.23,381.73c-1.49.22-2.53,1.61-2.31,3.1.22,1.5,1.61,2.53,3.11,2.31s2.53-1.61,2.31-3.11c-.22-1.49-1.61-2.53-3.11-2.31h0Z"/>
        <path class="cls-3" d="m90.77,682.86c-1.89.28-3.2,2.04-2.92,3.93s2.04,3.2,3.93,2.92,3.2-2.04,2.92-3.93-2.04-3.2-3.93-2.92Z"/>
        <path class="cls-3" d="m45.54,502.94c-1.67.25-2.82,1.79-2.57,3.46.25,1.67,1.8,2.82,3.46,2.57,1.67-.25,2.82-1.8,2.57-3.46-.25-1.67-1.79-2.82-3.46-2.57Z"/>
        <path class="cls-3" d="m64.4,487.28c-1,.15-1.68,1.08-1.54,2.07.15.99,1.07,1.68,2.07,1.54,1-.15,1.69-1.08,1.54-2.07-.15-1-1.08-1.69-2.07-1.54Z"/>
        <path class="cls-3" d="m56.12,685.48c-1.19.18-2.01,1.28-1.84,2.47.18,1.19,1.28,2.02,2.48,1.84s2.02-1.29,1.84-2.48-1.29-2.01-2.48-1.84h0Z"/>
        <path class="cls-3" d="m43.4,650.17c-1.57.23-2.65,1.69-2.42,3.26.23,1.57,1.69,2.65,3.26,2.42,1.57-.23,2.65-1.69,2.42-3.26s-1.69-2.65-3.26-2.42Z"/>
        <path class="cls-3" d="m23.74,568.09c-1.93.28-3.27,2.08-2.98,4.01.28,1.93,2.08,3.27,4.01,2.98,1.93-.28,3.26-2.08,2.98-4.01s-2.08-3.26-4.01-2.98Z"/>
        <path class="cls-3" d="m26.59,602.14c.93-.14,1.58-1,1.44-1.94-.14-.93-1-1.58-1.94-1.44-.93.14-1.58,1-1.44,1.94.14.93,1,1.58,1.94,1.44Z"/>
        <path class="cls-3" d="m25.7,642.1c-1.74.26-2.94,1.87-2.68,3.61.26,1.73,1.87,2.94,3.61,2.68,1.73-.26,2.94-1.87,2.68-3.61s-1.87-2.94-3.61-2.68Z"/>
        <path class="cls-3" d="m57.02,664.03c-1.21.18-2.05,1.31-1.87,2.52s1.31,2.05,2.52,1.88c1.21-.18,2.05-1.31,1.88-2.52-.18-1.21-1.31-2.05-2.52-1.88h-.01Z"/>
        <path class="cls-3" d="m33.48,454.59c-.18-1.22-1.31-2.06-2.53-1.88-1.21.18-2.05,1.31-1.87,2.53.18,1.22,1.31,2.06,2.52,1.88,1.22-.18,2.06-1.31,1.88-2.53Z"/>
        <path class="cls-3" d="m12.36,435.99c-1.42.21-2.4,1.53-2.19,2.95.21,1.42,1.53,2.4,2.95,2.2,1.42-.21,2.4-1.53,2.19-2.95s-1.53-2.4-2.95-2.19h0Z"/>
        <path class="cls-3" d="m8.39,389.76c-1.31.19-2.2,1.4-2.01,2.71.19,1.3,1.4,2.21,2.71,2.01,1.3-.19,2.2-1.41,2.01-2.71s-1.4-2.2-2.71-2.01Z"/>
        <path class="cls-3" d="m43.32,530.99c-1.13.17-1.91,1.22-1.74,2.35s1.22,1.91,2.34,1.74c1.13-.17,1.91-1.22,1.75-2.34s-1.22-1.91-2.35-1.74h0Z"/>
      </g>
    </g>
    <g class="cls-5">
      <g>
        <path class="cls-3" d="m-1.76,555.72c1.67-.25,2.83-1.8,2.59-3.47-.25-1.68-1.8-2.83-3.48-2.58-1.67.25-2.83,1.8-2.58,3.48.25,1.67,1.8,2.83,3.47,2.58h0Z"/>
        <path class="cls-3" d="m9.71,652.88c-.18-1.24-1.33-2.09-2.56-1.91-1.23.18-2.09,1.33-1.91,2.57.18,1.23,1.33,2.09,2.56,1.9,1.23-.18,2.09-1.33,1.91-2.56h0Z"/>
        <path class="cls-3" d="m16.51,686.56c-1.57.23-2.65,1.69-2.42,3.25.23,1.57,1.69,2.65,3.25,2.41s2.65-1.68,2.42-3.25c-.23-1.56-1.69-2.65-3.25-2.42h0Z"/>
        <path class="cls-3" d="m8.48,558.51c-1.45.21-2.45,1.56-2.24,3.01s1.56,2.45,3.01,2.24c1.45-.21,2.45-1.56,2.24-3.01s-1.56-2.45-3.01-2.24Z"/>
        <path class="cls-3" d="m18.61,635.68c-1.96.29-3.31,2.1-3.02,4.06.29,1.95,2.11,3.31,4.06,3.02,1.95-.29,3.31-2.11,3.02-4.06-.29-1.96-2.11-3.31-4.06-3.02Z"/>
        <path class="cls-3" d="m18.19,674.39c-1.77.26-2.99,1.9-2.73,3.67.26,1.77,1.9,2.98,3.67,2.72s2.99-1.9,2.73-3.67c-.26-1.77-1.9-2.99-3.67-2.73h0Z"/>
        <path class="cls-3" d="m60.54,610.58c.15,1.05,1.13,1.77,2.17,1.61,1.05-.15,1.77-1.13,1.61-2.17-.15-1.05-1.13-1.77-2.17-1.62-1.05.15-1.77,1.13-1.61,2.18Z"/>
        <path class="cls-3" d="m15.02,542.48c-.99.15-1.67,1.06-1.53,2.05.15.99,1.06,1.67,2.05,1.52.98-.14,1.67-1.06,1.52-2.05s-1.06-1.67-2.05-1.52h0Z"/>
        <path class="cls-3" d="m55.24,561.49c1.1-.16,1.86-1.18,1.7-2.28-.16-1.1-1.18-1.86-2.28-1.7s-1.86,1.19-1.7,2.28c.16,1.1,1.19,1.86,2.28,1.7Z"/>
        <path class="cls-3" d="m24.14,307.62c.92-.14,1.56-.99,1.42-1.91s-.99-1.56-1.91-1.42c-.92.14-1.56.99-1.42,1.91s.99,1.56,1.91,1.42Z"/>
        <path class="cls-3" d="m70.98,590.01c1.56-.23,2.64-1.68,2.41-3.24-.23-1.56-1.68-2.64-3.24-2.41-1.56.23-2.64,1.68-2.41,3.24.23,1.56,1.68,2.63,3.24,2.4h0Z"/>
        <path class="cls-3" d="m65.31,596.16c.06-.27.08-.56.04-.85-.19-1.28-1.39-2.17-2.67-1.98s-2.17,1.39-1.98,2.67c.1.69.5,1.26,1.04,1.61-.2.46-.28.97-.21,1.5.22,1.51,1.63,2.55,3.14,2.33s2.55-1.63,2.33-3.14c-.15-1-.82-1.79-1.69-2.15h0Z"/>
        <path class="cls-3" d="m28.41,316.15c-.24-1.6-1.72-2.69-3.31-2.46-1.6.24-2.7,1.72-2.46,3.31.23,1.6,1.72,2.7,3.31,2.46,1.59-.23,2.69-1.72,2.46-3.31Z"/>
        <path class="cls-3" d="m76.23,639.46c-1.19.17-2.01,1.28-1.83,2.47.17,1.19,1.28,2.01,2.47,1.84s2.01-1.28,1.83-2.47c-.17-1.19-1.28-2.01-2.47-1.83h0Z"/>
        <path class="cls-3" d="m74.37,682.83c-1.17.17-1.98,1.26-1.81,2.43.17,1.17,1.26,1.98,2.43,1.81s1.98-1.26,1.81-2.44c-.17-1.17-1.26-1.98-2.43-1.81h0Z"/>
        <path class="cls-3" d="m76.39,628.48c-1.92.28-3.25,2.06-2.96,3.98.28,1.92,2.07,3.24,3.99,2.96,1.92-.28,3.25-2.07,2.96-3.98-.28-1.92-2.07-3.24-3.99-2.96Z"/>
        <path class="cls-3" d="m76.73,527.16c-1.01.15-1.71,1.08-1.56,2.09s1.09,1.7,2.09,1.55,1.7-1.08,1.55-2.09c-.15-1.01-1.09-1.7-2.09-1.55h0Z"/>
        <path class="cls-3" d="m71.18,568.2c-1.09.16-1.85,1.18-1.69,2.27.16,1.1,1.18,1.85,2.28,1.69,1.09-.16,1.85-1.18,1.69-2.28-.16-1.09-1.18-1.85-2.27-1.69h-.01Z"/>
        <path class="cls-3" d="m50.35,568.86c-1.33.2-2.24,1.43-2.05,2.76.2,1.32,1.43,2.24,2.75,2.05,1.32-.2,2.24-1.43,2.05-2.76-.2-1.33-1.43-2.25-2.76-2.05h0Z"/>
        <path class="cls-3" d="m87.31,567.53c-1.59.23-2.68,1.71-2.44,3.3.23,1.58,1.7,2.68,3.29,2.45s2.68-1.71,2.45-3.29c-.23-1.59-1.71-2.68-3.29-2.45h0Z"/>
        <path class="cls-3" d="m83.82,612.25c1.01-.15,1.7-1.09,1.56-2.09-.15-1.01-1.09-1.7-2.09-1.55s-1.7,1.08-1.55,2.09c.15,1,1.08,1.7,2.08,1.55Z"/>
        <path class="cls-3" d="m86.4,626.99c-1.17.17-1.98,1.26-1.81,2.43.17,1.17,1.26,1.98,2.43,1.8,1.17-.17,1.98-1.26,1.8-2.43-.17-1.17-1.26-1.98-2.43-1.81h0Z"/>
        <path class="cls-3" d="m19.47,516.84c-1.03.15-1.74,1.11-1.58,2.13.15,1.03,1.11,1.74,2.13,1.59,1.03-.15,1.74-1.11,1.58-2.13-.15-1.03-1.11-1.74-2.13-1.59Z"/>
        <path class="cls-3" d="m11.77,466.55c-1.74.26-2.94,1.87-2.68,3.61.26,1.73,1.87,2.94,3.61,2.68,1.73-.26,2.94-1.87,2.68-3.61-.26-1.74-1.87-2.94-3.61-2.68Z"/>
        <path class="cls-3" d="m3.01,461.62c-1.39.21-2.36,1.5-2.15,2.9.21,1.39,1.5,2.36,2.9,2.15,1.4-.21,2.36-1.5,2.15-2.9s-1.5-2.36-2.9-2.15Z"/>
        <path class="cls-3" d="m-.39,443.44c-1.81.27-3.06,1.95-2.79,3.75s1.94,3.05,3.75,2.79c1.8-.27,3.05-1.95,2.79-3.75-.27-1.8-1.95-3.05-3.75-2.79Z"/>
        <path class="cls-3" d="m44.47,511.96c-.28-1.87-2.01-3.16-3.88-2.89-1.87.28-3.16,2.02-2.89,3.88.28,1.87,2.01,3.16,3.89,2.88,1.87-.28,3.16-2.01,2.88-3.88h0Z"/>
        <path class="cls-3" d="m45.83,545.62c.95-.14,1.6-1.02,1.46-1.97-.14-.94-1.01-1.6-1.96-1.46-.94.14-1.6,1.02-1.46,1.96s1.02,1.6,1.96,1.46h0Z"/>
        <path class="cls-3" d="m8.65,317.38c-.22-1.47-1.58-2.49-3.05-2.27s-2.49,1.59-2.27,3.05c.22,1.47,1.59,2.49,3.06,2.27,1.47-.22,2.48-1.58,2.27-3.06h-.01Z"/>
        <path class="cls-3" d="m7.03,364.15c-1.2.18-2.04,1.3-1.86,2.5s1.3,2.04,2.5,1.86,2.03-1.3,1.86-2.5c-.18-1.2-1.3-2.04-2.5-1.86Z"/>
        <path class="cls-3" d="m22.13,492.26c-1.24.18-2.1,1.33-1.91,2.57.18,1.24,1.34,2.1,2.58,1.92s2.1-1.34,1.91-2.58c-.18-1.24-1.33-2.09-2.57-1.91h-.01Z"/>
      </g>
    </g>
    <g class="cls-11">
      <g>
        <path class="cls-3" d="m17.25,648.52c-.98.14-1.67,1.06-1.52,2.05s1.06,1.67,2.05,1.52c.99-.15,1.67-1.06,1.52-2.05-.14-.98-1.06-1.66-2.05-1.52Z"/>
        <path class="cls-3" d="m6.74,575.07c-1.41.21-2.38,1.52-2.18,2.93.21,1.41,1.52,2.38,2.93,2.17,1.41-.21,2.38-1.52,2.18-2.93s-1.52-2.38-2.93-2.18h0Z"/>
        <path class="cls-3" d="m24.67,615.58c.36.62,1.06,1,1.81.89.98-.14,1.65-1.05,1.51-2.03-.13-.85-.83-1.47-1.66-1.52.03-.27.03-.55-.01-.83-.19-1.29-1.08-2.3-2.22-2.74.2-.36.3-.78.24-1.22-.15-1.04-1.12-1.76-2.16-1.61-1.04.15-1.76,1.12-1.61,2.16.05.37.22.69.44.96-1.13.71-1.8,2.05-1.59,3.46.28,1.91,2.05,3.23,3.96,2.94.48-.07.91-.24,1.3-.47h-.01Z"/>
        <path class="cls-3" d="m26.98,556.76c-.19-1.27-1.37-2.15-2.64-1.96-1.27.19-2.15,1.37-1.96,2.64s1.37,2.15,2.64,1.96c1.27-.19,2.15-1.37,1.96-2.64Z"/>
        <path class="cls-3" d="m34.06,666.48c-1.39.21-2.36,1.51-2.15,2.9.21,1.4,1.51,2.36,2.9,2.15,1.4-.21,2.36-1.5,2.15-2.9-.21-1.39-1.5-2.36-2.9-2.16h0Z"/>
        <path class="cls-3" d="m35.24,606.3c-1.6.24-2.71,1.73-2.47,3.33.24,1.6,1.73,2.71,3.33,2.48,1.6-.24,2.71-1.73,2.48-3.33-.24-1.6-1.73-2.71-3.33-2.47h0Z"/>
        <path class="cls-3" d="m33.38,676.8c-1.28.19-2.16,1.37-1.97,2.65.19,1.27,1.37,2.16,2.65,1.97s2.16-1.38,1.97-2.65c-.19-1.28-1.37-2.16-2.65-1.97Z"/>
        <path class="cls-3" d="m1.58,503.47c-1.15.17-1.94,1.24-1.77,2.39.17,1.15,1.24,1.94,2.38,1.77,1.15-.17,1.94-1.24,1.77-2.39-.17-1.15-1.24-1.94-2.39-1.77h.01Z"/>
        <path class="cls-3" d="m29.86,409.01c-1.84.27-3.11,1.98-2.84,3.83.27,1.84,1.98,3.11,3.83,2.84,1.65-.24,2.84-1.64,2.87-3.26.64-.31,1.04-1,.94-1.74-.13-.91-.98-1.54-1.89-1.4-.23.03-.44.11-.62.23-.65-.41-1.45-.62-2.27-.49h-.02Z"/>
        <path class="cls-3" d="m40.81,600.87c-1.22.18-2.05,1.31-1.87,2.52s1.3,2.05,2.52,1.87c1.21-.18,2.05-1.3,1.87-2.52-.18-1.21-1.3-2.05-2.51-1.87h-.01Z"/>
        <path class="cls-3" d="m65.36,512.89c.25,1.68,1.81,2.84,3.49,2.6,1.68-.25,2.84-1.81,2.59-3.49s-1.81-2.84-3.49-2.59-2.84,1.81-2.59,3.49h0Z"/>
        <path class="cls-3" d="m49.98,396c1.31-.19,2.21-1.41,2.01-2.71-.19-1.3-1.4-2.21-2.71-2.01-1.3.19-2.2,1.4-2.01,2.71.19,1.31,1.41,2.21,2.71,2.02h0Z"/>
        <path class="cls-3" d="m21.35,302.03c.94-.14,1.59-1.01,1.45-1.94-.14-.94-1.01-1.58-1.95-1.44-.93.14-1.58,1.01-1.44,1.94.14.94,1.01,1.58,1.94,1.45h0Z"/>
        <path class="cls-3" d="m27.34,627.18c.26,1.77,1.91,3,3.68,2.74s3-1.91,2.74-3.68-1.91-3-3.68-2.74-2.99,1.91-2.73,3.68h-.01Z"/>
        <path class="cls-3" d="m5.8,489.58c1.83-.27,3.1-1.98,2.83-3.81s-1.98-3.1-3.81-2.83c-1.84.27-3.1,1.98-2.83,3.81s1.98,3.11,3.81,2.84h0Z"/>
        <path class="cls-3" d="m16.83,362.1c1.55-.23,2.61-1.66,2.38-3.21-.23-1.55-1.66-2.61-3.21-2.38-1.54.23-2.61,1.66-2.38,3.2s1.66,2.61,3.21,2.38h0Z"/>
        <path class="cls-3" d="m15.11,368.8c.17,1.12,1.21,1.9,2.34,1.74,1.13-.17,1.9-1.21,1.74-2.34-.17-1.13-1.21-1.9-2.34-1.74-1.12.17-1.9,1.21-1.74,2.34Z"/>
        <path class="cls-3" d="m15.72,507.34c.19,1.27,1.37,2.15,2.64,1.96s2.15-1.37,1.96-2.64c-.19-1.27-1.37-2.15-2.64-1.96-1.27.19-2.15,1.37-1.96,2.64Z"/>
        <path class="cls-3" d="m33.76,637.67c-1.39.2-2.34,1.5-2.14,2.88.2,1.39,1.49,2.34,2.88,2.14,1.38-.2,2.34-1.49,2.14-2.88-.2-1.38-1.5-2.34-2.88-2.14Z"/>
        <path class="cls-3" d="m45.35,303.31c-.27-1.84-1.98-3.12-3.83-2.85-1.84.27-3.12,1.99-2.85,3.83s1.99,3.12,3.83,2.85,3.12-1.99,2.85-3.83Z"/>
        <path class="cls-3" d="m73.36,544.77c-1.78.26-3,1.91-2.74,3.68.08.53.29,1.01.58,1.42-.74.24-1.22.98-1.1,1.78.13.89.96,1.5,1.84,1.37s1.5-.95,1.37-1.84c.32.05.65.07.99.02,1.78-.26,3-1.91,2.74-3.69s-1.91-3-3.68-2.74Z"/>
        <path class="cls-3" d="m58.34,371.15c-.22-1.52-1.64-2.57-3.16-2.34-1.52.22-2.57,1.64-2.34,3.15.22,1.52,1.64,2.57,3.15,2.35,1.52-.22,2.57-1.64,2.35-3.16Z"/>
        <path class="cls-3" d="m34.69,379.25c-1.38.2-2.34,1.49-2.13,2.87.15,1.02.89,1.81,1.83,2.07-.11,0-.22,0-.33.02-1.5.22-2.54,1.62-2.32,3.12.22,1.5,1.62,2.54,3.12,2.32s2.54-1.62,2.32-3.12c-.17-1.12-.98-1.98-2.01-2.26.09,0,.18,0,.27-.01,1.38-.2,2.34-1.49,2.14-2.87s-1.49-2.34-2.87-2.14h-.02Z"/>
        <path class="cls-3" d="m37.45,581.53c-1.64.24-2.77,1.76-2.53,3.4s1.76,2.77,3.4,2.53c1.64-.24,2.77-1.77,2.53-3.4-.24-1.64-1.76-2.77-3.4-2.53Z"/>
        <path class="cls-3" d="m58.6,485.82c-1.15.17-1.94,1.24-1.77,2.38.17,1.15,1.24,1.94,2.39,1.77,1.15-.17,1.94-1.24,1.77-2.39-.17-1.15-1.24-1.94-2.39-1.77h0Z"/>
        <path class="cls-3" d="m80.12,599.35c-1.37.2-2.31,1.47-2.11,2.84.2,1.36,1.47,2.31,2.84,2.11,1.36-.2,2.31-1.47,2.11-2.83-.2-1.37-1.47-2.31-2.83-2.11h0Z"/>
        <path class="cls-3" d="m60.02,391.52c1.69-.25,2.85-1.81,2.6-3.5s-1.81-2.85-3.5-2.6-2.85,1.82-2.6,3.5c.25,1.69,1.81,2.85,3.5,2.6Z"/>
        <path class="cls-3" d="m81.24,331.84c-.15-1.05-1.13-1.77-2.18-1.62s-1.77,1.13-1.62,2.18c.15,1.05,1.13,1.77,2.18,1.62s1.78-1.13,1.62-2.18Z"/>
        <path class="cls-3" d="m83.86,351.99c-1.05.15-1.77,1.13-1.62,2.18.16,1.05,1.13,1.78,2.18,1.62,1.05-.15,1.78-1.13,1.62-2.18-.15-1.05-1.13-1.77-2.18-1.62Z"/>
        <path class="cls-3" d="m71.28,360.72c-1.67.25-2.82,1.8-2.57,3.47s1.8,2.82,3.46,2.58c1.67-.25,2.82-1.8,2.58-3.47-.25-1.67-1.8-2.82-3.47-2.58Z"/>
        <path class="cls-3" d="m60.11,330.75c-1.1.16-1.87,1.19-1.7,2.29.16,1.1,1.19,1.87,2.29,1.7,1.1-.16,1.87-1.19,1.7-2.29-.16-1.1-1.19-1.87-2.29-1.7Z"/>
        <path class="cls-3" d="m65.21,403.05c-1.2.18-2.03,1.3-1.86,2.5.18,1.2,1.3,2.03,2.5,1.86,1.21-.18,2.04-1.3,1.86-2.5-.18-1.21-1.3-2.04-2.5-1.86Z"/>
        <path class="cls-3" d="m72.47,472.15c-1.87.28-3.16,2.01-2.89,3.88.28,1.87,2.02,3.16,3.89,2.89,1.87-.28,3.16-2.02,2.88-3.89-.28-1.87-2.01-3.16-3.88-2.89h0Z"/>
        <path class="cls-3" d="m42.11,429.75c-.97.14-1.65,1.05-1.51,2.02.14.97,1.05,1.65,2.03,1.51.98-.14,1.65-1.05,1.51-2.03-.14-.97-1.05-1.65-2.03-1.5Z"/>
        <path class="cls-3" d="m41.29,555.22c-1.23.18-2.08,1.33-1.9,2.55.18,1.23,1.33,2.08,2.55,1.9,1.23-.18,2.08-1.33,1.9-2.55-.18-1.23-1.33-2.08-2.56-1.9h.01Z"/>
        <path class="cls-3" d="m18.72,400.7c-1.3.19-2.21,1.4-2.02,2.71s1.41,2.2,2.71,2.01c1.3-.19,2.21-1.4,2.01-2.71-.19-1.31-1.4-2.2-2.71-2.01h.01Z"/>
        <path class="cls-3" d="m44.64,454.5c-1.09.16-1.84,1.17-1.68,2.26s1.17,1.84,2.26,1.68,1.84-1.17,1.68-2.26-1.17-1.84-2.27-1.68h.01Z"/>
        <path class="cls-3" d="m13.87,420.66c-1.73.25-2.93,1.87-2.68,3.6.26,1.73,1.87,2.93,3.6,2.68,1.73-.26,2.93-1.87,2.68-3.6-.26-1.73-1.87-2.93-3.6-2.68Z"/>
        <path class="cls-3" d="m16.84,386.27c1.59-.23,2.69-1.71,2.46-3.31s-1.71-2.69-3.3-2.46c-1.59.23-2.69,1.71-2.46,3.31.23,1.59,1.71,2.69,3.31,2.46h0Z"/>
        <path class="cls-3" d="m1.33,290.9c-.27-1.82-1.96-3.08-3.78-2.81-1.82.27-3.08,1.96-2.81,3.78s1.96,3.07,3.78,2.81c1.82-.27,3.08-1.96,2.81-3.78Z"/>
        <path class="cls-3" d="m50.26,616.15c-1.16.17-1.97,1.25-1.8,2.42.17,1.16,1.25,1.97,2.42,1.8s1.97-1.25,1.8-2.42c-.17-1.17-1.25-1.97-2.42-1.8Z"/>
        <path class="cls-3" d="m67.02,641.45c-1.62.24-2.74,1.74-2.5,3.36s1.74,2.74,3.36,2.5,2.74-1.75,2.5-3.36c-.24-1.62-1.74-2.74-3.36-2.5Z"/>
        <path class="cls-3" d="m40.18,466.94c1.07-.16,1.8-1.15,1.65-2.22-.16-1.06-1.15-1.8-2.22-1.64-1.07.16-1.8,1.15-1.65,2.21.16,1.07,1.15,1.8,2.21,1.65h.01Z"/>
        <path class="cls-3" d="m44.53,472.46c-1.17.17-1.98,1.26-1.81,2.42.17,1.17,1.26,1.98,2.43,1.8,1.17-.17,1.97-1.26,1.8-2.43-.17-1.17-1.26-1.97-2.42-1.8h0Z"/>
        <path class="cls-3" d="m51.22,589.98c-1,.15-1.7,1.08-1.55,2.09s1.09,1.7,2.09,1.55,1.7-1.08,1.55-2.09c-.15-1-1.08-1.7-2.08-1.55h-.01Z"/>
        <path class="cls-3" d="m34.96,467.89c-1.4.21-2.36,1.5-2.15,2.9.21,1.39,1.5,2.36,2.9,2.15,1.39-.21,2.36-1.5,2.15-2.9-.21-1.39-1.5-2.36-2.9-2.15Z"/>
        <path class="cls-3" d="m23.04,396c1.37-.2,2.31-1.47,2.11-2.84-.2-1.37-1.47-2.32-2.84-2.11-1.37.2-2.31,1.47-2.11,2.84.2,1.37,1.47,2.31,2.84,2.11Z"/>
      </g>
    </g>
    <path class="cls-3" d="m-.62,402.37c.97-.14,1.64-1.04,1.49-2.01-.14-.97-1.04-1.64-2.01-1.5-.97.14-1.63,1.04-1.49,2.01.14.96,1.04,1.64,2.01,1.49h0Z"/>
    <path class="cls-3" d="m3.82,412.47c.23,1.53,1.65,2.6,3.19,2.37,1.53-.23,2.6-1.66,2.37-3.19-.23-1.54-1.66-2.6-3.19-2.37-1.54.23-2.6,1.65-2.37,3.19Z"/>
    <path class="cls-3" d="m45.81,681.8c-1.04.15-1.75,1.12-1.6,2.16s1.12,1.76,2.15,1.6c1.04-.15,1.76-1.12,1.61-2.16-.15-1.04-1.12-1.76-2.16-1.6Z"/>
    <path class="cls-3" d="m39.61,671.33c-1.8.27-3.04,1.94-2.78,3.74.27,1.8,1.94,3.04,3.74,2.78,1.8-.26,3.04-1.94,2.78-3.74-.26-1.8-1.94-3.04-3.74-2.78Z"/>
    <path class="cls-3" d="m17.37,529.67c-.19-1.3-1.4-2.2-2.7-2-1.3.19-2.19,1.4-2,2.7s1.4,2.19,2.69,2c1.3-.19,2.2-1.4,2.01-2.69h0Z"/>
    <path class="cls-3" d="m41.62,577.89c.28,1.92,2.07,3.25,3.99,2.97,1.93-.28,3.26-2.07,2.97-4-.28-1.92-2.07-3.26-4-2.97-1.92.28-3.25,2.07-2.97,4h0Z"/>
    <path class="cls-3" d="m49.68,349.81c1.07-.16,1.8-1.15,1.65-2.22-.16-1.07-1.15-1.81-2.22-1.65s-1.81,1.15-1.65,2.22c.16,1.06,1.15,1.8,2.22,1.65Z"/>
    <path class="cls-3" d="m30.91,344.57c1.85-.27,3.12-1.99,2.85-3.83-.27-1.85-1.99-3.12-3.84-2.85s-3.12,1.99-2.85,3.84c.27,1.85,1.99,3.12,3.83,2.85h.01Z"/>
    <path class="cls-3" d="m62.13,374.26c1.22-.18,2.06-1.31,1.88-2.53s-1.31-2.06-2.53-1.88c-1.22.18-2.06,1.31-1.88,2.53s1.31,2.06,2.53,1.88Z"/>
    <path class="cls-3" d="m28.67,372.65c1.58-.23,2.66-1.7,2.43-3.27-.23-1.58-1.69-2.66-3.27-2.43-1.57.23-2.67,1.7-2.43,3.27.23,1.58,1.7,2.67,3.27,2.43Z"/>
    <path class="cls-3" d="m45.9,568.29c-.17-1.16-1.25-1.97-2.42-1.8-1.16.17-1.96,1.26-1.79,2.42s1.25,1.97,2.41,1.8,1.97-1.25,1.8-2.42Z"/>
    <path class="cls-3" d="m28.1,489.38c.26,1.8,1.93,3.04,3.73,2.77,1.79-.26,3.04-1.93,2.77-3.73-.26-1.79-1.93-3.03-3.73-2.77s-3.04,1.93-2.77,3.73Z"/>
    <path class="cls-3" d="m33.17,496.71c.14.98,1.06,1.66,2.04,1.51.98-.14,1.66-1.06,1.51-2.03-.14-.98-1.06-1.66-2.03-1.52-.98.14-1.66,1.06-1.52,2.04h0Z"/>
    <path class="cls-3" d="m14.86,589.73c-1.73.26-2.93,1.87-2.68,3.6s1.87,2.93,3.6,2.68c1.73-.26,2.93-1.87,2.68-3.6-.26-1.73-1.87-2.93-3.6-2.68Z"/>
    <path class="cls-3" d="m93.58,614.74c-1.19.18-2.02,1.29-1.84,2.48s1.29,2.02,2.48,1.84,2.01-1.29,1.84-2.48c-.18-1.19-1.28-2.02-2.48-1.84Z"/>
    <path class="cls-3" d="m96.74,660.34c-1.62.24-2.74,1.74-2.5,3.36s1.74,2.74,3.36,2.5,2.74-1.75,2.5-3.37-1.75-2.74-3.37-2.5h.01Z"/>
    <path class="cls-3" d="m66.1,430.84c-1.92.28-3.25,2.07-2.97,4,.28,1.92,2.07,3.26,4,2.97,1.93-.28,3.26-2.08,2.98-4-.28-1.93-2.07-3.26-4-2.97h-.01Z"/>
    <path class="cls-3" d="m89.63,583.14c-.97.14-1.65,1.05-1.5,2.02.14.97,1.05,1.65,2.02,1.5s1.65-1.05,1.5-2.02c-.14-.97-1.05-1.65-2.02-1.5Z"/>
    <path class="cls-3" d="m43.88,326.16c-.16-1.07-1.16-1.82-2.23-1.66s-1.81,1.16-1.65,2.23,1.16,1.81,2.23,1.66c1.08-.16,1.82-1.16,1.66-2.23h0Z"/>
    <path class="cls-3" d="m30.26,532.91c-.14-.92-.99-1.56-1.91-1.42s-1.56.99-1.42,1.91.99,1.56,1.91,1.43c.92-.14,1.56-.99,1.42-1.92Z"/>
    <path class="cls-3" d="m83.92,343.98c-.92.14-1.56.99-1.42,1.92.14.92.99,1.56,1.92,1.42.92-.14,1.56-.99,1.42-1.92-.14-.92-.99-1.56-1.91-1.43h0Z"/>
    <path class="cls-3" d="m47.35,384.92c-.99.15-1.67,1.06-1.53,2.05s1.06,1.67,2.05,1.53c.99-.15,1.67-1.06,1.52-2.05s-1.06-1.67-2.05-1.52h0Z"/>
    <path class="cls-3" d="m66.01,345.88c-1.45.21-2.46,1.56-2.24,3.02.21,1.45,1.56,2.45,3.02,2.24,1.45-.21,2.45-1.56,2.24-3.01s-1.56-2.46-3.01-2.24h0Z"/>
    <path class="cls-3" d="m68.29,409.47c-.96.14-1.62,1.04-1.48,2s1.03,1.62,2,1.48c.96-.14,1.62-1.03,1.48-1.99s-1.03-1.63-1.99-1.49h-.01Z"/>
    <path class="cls-3" d="m71.49,394.1c-1,.15-1.7,1.09-1.55,2.09.15,1.01,1.09,1.7,2.09,1.56,1-.15,1.7-1.09,1.55-2.09-.15-1-1.09-1.7-2.09-1.55h0Z"/>
    <path class="cls-3" d="m59.92,317.76c-.18-1.2-1.29-2.02-2.48-1.85-1.2.18-2.02,1.29-1.85,2.49.18,1.19,1.29,2.02,2.49,1.84,1.19-.18,2.02-1.29,1.85-2.48h-.01Z"/>
    <path class="cls-3" d="m53.99,600.01c-1.84.27-3.11,1.98-2.84,3.82s1.98,3.11,3.82,2.84c1.84-.27,3.11-1.98,2.84-3.82s-1.98-3.11-3.82-2.84Z"/>
    <path class="cls-3" d="m52.89,637.67c-1.11.16-1.87,1.2-1.71,2.3.16,1.11,1.19,1.87,2.3,1.71s1.87-1.19,1.71-2.3-1.19-1.88-2.3-1.71Z"/>
    <path class="cls-3" d="m51.33,630.14c-.23-1.56-1.68-2.64-3.24-2.41-1.56.23-2.64,1.68-2.41,3.24s1.68,2.64,3.24,2.41c1.56-.23,2.64-1.68,2.41-3.24Z"/>
    <path class="cls-3" d="m68.25,665.75c-.96.14-1.63,1.04-1.49,2,.14.97,1.04,1.63,2,1.49.97-.14,1.63-1.04,1.49-2s-1.04-1.63-2.01-1.49h.01Z"/>
    <path class="cls-3" d="m41.78,369.38c-1,.15-1.7,1.08-1.55,2.08s1.08,1.69,2.08,1.55c1-.15,1.69-1.08,1.55-2.08-.15-1-1.08-1.7-2.08-1.55Z"/>
    <path class="cls-3" d="m35.43,545.4c-.16-1.06-1.15-1.8-2.21-1.64-1.07.16-1.8,1.15-1.65,2.21s1.14,1.8,2.21,1.65c1.06-.16,1.8-1.15,1.64-2.21h0Z"/>
    <path class="cls-3" d="m47,481.94c-.14-.98-1.06-1.66-2.04-1.51-.98.14-1.66,1.06-1.52,2.04s1.06,1.66,2.04,1.52,1.66-1.06,1.52-2.04h0Z"/>
    <path class="cls-3" d="m78.83,654.44c-1.93.28-3.26,2.08-2.97,4,.28,1.93,2.07,3.26,4,2.98s3.26-2.08,2.97-4-2.07-3.26-4-2.97h0Z"/>
    <path class="cls-3" d="m60.24,536.41c-.2-1.36-1.46-2.3-2.82-2.1s-2.3,1.46-2.1,2.82,1.46,2.3,2.82,2.1,2.3-1.46,2.1-2.82Z"/>
    <path class="cls-3" d="m55.71,519.27c-.24-1.63-1.76-2.76-3.39-2.52s-2.76,1.76-2.52,3.39c.24,1.63,1.76,2.76,3.39,2.52s2.76-1.75,2.52-3.39Z"/>
    <path class="cls-3" d="m67.54,616.71c-1.01.15-1.71,1.09-1.56,2.1.15,1.01,1.09,1.71,2.1,1.56s1.71-1.09,1.56-2.1c-.15-1.01-1.09-1.71-2.1-1.56Z"/>
  </g>
  <g>
    <g class="cls-10">
      <path class="cls-3" d="m104.33,54.42c0,1.91,1.55,3.46,3.45,3.46s3.45-1.55,3.45-3.45-1.54-3.46-3.45-3.46-3.46,1.55-3.46,3.46h.01Zm.62-39.84c1.43,0,2.59-1.16,2.59-2.59s-1.16-2.59-2.59-2.59-2.59,1.16-2.59,2.59,1.16,2.59,2.59,2.59Zm8.8,162.94c1.39,0,2.52-1.13,2.52-2.52s-1.13-2.52-2.52-2.52-2.52,1.13-2.52,2.51,1.13,2.52,2.52,2.52h0Zm-33.32-87.29c1.91,0,3.45-1.54,3.45-3.45s-1.54-3.45-3.45-3.45-3.45,1.54-3.45,3.45,1.54,3.45,3.45,3.45Zm2.75,188.5c0,2.02,1.64,3.66,3.66,3.66s3.66-1.64,3.66-3.66-1.64-3.66-3.66-3.66-3.66,1.64-3.66,3.66Zm-1.11-260.64c1.97,0,3.56-1.6,3.56-3.56s-1.6-3.56-3.56-3.56-3.56,1.6-3.56,3.56,1.59,3.57,3.56,3.57h0Zm18.83,60.52c1.84,0,3.35-1.5,3.35-3.34s-1.5-3.34-3.34-3.34-3.34,1.5-3.34,3.34,1.5,3.34,3.34,3.34h-.01Zm39.21-49.23c1.96,0,3.55-1.59,3.55-3.55s-1.59-3.55-3.55-3.55-3.55,1.59-3.56,3.55,1.59,3.55,3.55,3.56h0Zm6.13-20.43c1.7,0,3.08-1.38,3.08-3.08s-1.38-3.08-3.08-3.08-3.08,1.38-3.08,3.08,1.38,3.08,3.08,3.08Zm12,60.72c.93,0,1.68-.75,1.68-1.68s-.75-1.68-1.68-1.68-1.68.75-1.68,1.68.75,1.68,1.68,1.68Zm9.56,117.16c1.5,0,2.72-1.22,2.72-2.72s-1.22-2.72-2.72-2.72-2.72,1.22-2.72,2.72,1.22,2.72,2.72,2.72Zm-40.81-119.37c1.23,0,2.23-1,2.23-2.23s-1-2.23-2.23-2.23-2.23,1-2.23,2.23,1,2.23,2.23,2.23Zm12.44,1.52c1.86,0,3.36-1.5,3.36-3.36s-1.5-3.36-3.36-3.36-3.36,1.5-3.36,3.36,1.5,3.36,3.36,3.36Zm-12.5,71.46c0,1.52,1.23,2.76,2.75,2.76s2.76-1.23,2.76-2.76-1.23-2.75-2.76-2.75-2.75,1.23-2.75,2.75ZM73.27,30.44c1,0,1.81-.81,1.81-1.81s-.81-1.81-1.81-1.81-1.81.81-1.81,1.81.81,1.81,1.81,1.81Zm94.01-17.19c.92,0,1.66-.75,1.66-1.66s-.74-1.67-1.66-1.67-1.67.75-1.67,1.67.74,1.66,1.67,1.66ZM21.56,57.15c1.9,0,3.44-1.54,3.44-3.45s-1.54-3.44-3.44-3.44-3.45,1.54-3.45,3.44,1.54,3.45,3.45,3.45Zm11.89,20.79c2.04,0,3.7-1.65,3.7-3.69s-1.65-3.7-3.7-3.7-3.69,1.65-3.7,3.7c0,2.04,1.65,3.69,3.69,3.69h.01Zm-7.56,147.72c0,1.93,1.57,3.5,3.5,3.5s3.5-1.57,3.5-3.5-1.57-3.5-3.5-3.5-3.5,1.57-3.5,3.5Zm12.15-178.67c1.22,0,2.21-.99,2.21-2.21s-.99-2.21-2.21-2.21-2.21.99-2.21,2.21.99,2.21,2.21,2.21ZM8.45,199.16c1.53,0,2.77-1.24,2.77-2.77s-1.24-2.77-2.77-2.77-2.77,1.24-2.77,2.77,1.24,2.77,2.77,2.77Zm3.95-36.03c1.19,0,2.15-.96,2.15-2.15s-.96-2.15-2.15-2.15-2.16.96-2.16,2.15.96,2.16,2.15,2.16h.01Zm-2.65,47.61c0,2.07,1.67,3.74,3.74,3.74s3.74-1.67,3.74-3.74-1.67-3.74-3.74-3.74-3.74,1.68-3.74,3.74Zm6.11,147.97c0,.93.76,1.69,1.69,1.69s1.69-.76,1.69-1.69-.76-1.69-1.69-1.69-1.69.76-1.69,1.69ZM23.88,35.43c1.86,0,3.36-1.5,3.36-3.36s-1.5-3.36-3.36-3.36-3.36,1.5-3.36,3.36,1.5,3.36,3.36,3.36Zm37.02,78.02c0,.9.73,1.62,1.62,1.62s1.62-.73,1.62-1.62-.73-1.62-1.62-1.62-1.62.73-1.62,1.62Zm5.34,61.54c1.56,0,2.82-1.27,2.82-2.82s-1.26-2.83-2.82-2.83-2.82,1.27-2.82,2.83,1.26,2.82,2.82,2.82Zm-6.95-140.22c1.78,0,3.22-1.44,3.22-3.22s-1.44-3.22-3.22-3.22-3.22,1.44-3.22,3.22,1.44,3.22,3.22,3.22Zm-6.28,141.49c1.75,0,3.17-1.42,3.17-3.17s-1.42-3.17-3.17-3.17-3.17,1.42-3.17,3.17,1.42,3.17,3.17,3.17Zm-3.89,57.8c1.82,0,3.29-1.48,3.29-3.3s-1.47-3.29-3.29-3.29-3.29,1.47-3.29,3.29,1.47,3.3,3.29,3.3Zm4.83-169.82c1.33,0,2.41-1.08,2.41-2.41s-1.08-2.41-2.41-2.41-2.41,1.08-2.41,2.41,1.08,2.41,2.41,2.41Zm-5.45,16.23c.97,0,1.76-.79,1.76-1.76s-.79-1.76-1.76-1.76-1.76.79-1.76,1.76.78,1.76,1.76,1.76Zm-11.58,44.51c0,1.16.94,2.09,2.09,2.09s2.09-.94,2.09-2.09-.94-2.09-2.09-2.09-2.09.94-2.09,2.09Zm102.43,107.64c1.98,0,3.59-1.61,3.59-3.59s-1.61-3.59-3.59-3.59-3.59,1.61-3.59,3.59,1.6,3.59,3.59,3.59Zm-62.27,66.71c-1.75,0-3.17,1.42-3.17,3.16s1.42,3.17,3.17,3.17,3.16-1.42,3.16-3.17-1.42-3.16-3.16-3.16Zm-41.24-158.95c0-1.33-1.08-2.41-2.41-2.41s-2.41,1.08-2.41,2.41,1.08,2.41,2.41,2.41,2.42-1.08,2.42-2.41h0Zm141.23,21.03c1.57,0,2.84-1.27,2.84-2.84s-1.27-2.84-2.84-2.84-2.84,1.27-2.84,2.84,1.27,2.84,2.84,2.84Zm-73.75,69.5c-1.8,0-3.26,1.46-3.26,3.25s1.46,3.25,3.26,3.25,3.25-1.45,3.25-3.25-1.46-3.25-3.25-3.25Zm-66.14,19.52c-2.03,0-3.68,1.65-3.68,3.68s1.65,3.68,3.68,3.68,3.69-1.65,3.69-3.68-1.65-3.68-3.68-3.68h0ZM243.64,73.26c-1.09,0-1.96.88-1.97,1.96s.88,1.97,1.96,1.97,1.96-.88,1.97-1.97-.88-1.96-1.96-1.97h0Zm58.17-38.66c-1.06,0-1.92.86-1.92,1.93s.86,1.93,1.92,1.93,1.93-.86,1.93-1.93-.86-1.93-1.93-1.93Zm-94.71,102.52c-.97,0-1.75.78-1.75,1.75s.78,1.75,1.75,1.75,1.76-.78,1.76-1.75-.78-1.76-1.75-1.76h0Zm1.4-22.8c0-1.22-.99-2.2-2.2-2.2s-2.2.99-2.2,2.2.99,2.2,2.2,2.2,2.2-.99,2.2-2.2ZM23.81,89.68c0-1.2-.97-2.17-2.16-2.17s-2.17.97-2.17,2.17.97,2.17,2.17,2.17,2.16-.97,2.16-2.17Zm-12.19,244.63c-1.99,0-3.6,1.61-3.6,3.6s1.61,3.6,3.6,3.6,3.6-1.61,3.6-3.6-1.61-3.6-3.6-3.6Zm-.9,71.89c-1.04,0-1.89.85-1.89,1.89s.85,1.89,1.89,1.89,1.89-.85,1.89-1.89-.84-1.89-1.89-1.89Zm12.59-217.25c1.48,0,2.68-1.2,2.69-2.68s-1.2-2.68-2.68-2.68-2.68,1.2-2.68,2.68,1.2,2.68,2.68,2.68h-.01Zm3.87,97.68c-1.38,0-2.5,1.12-2.5,2.49s1.12,2.49,2.5,2.49,2.49-1.12,2.49-2.49-1.12-2.49-2.49-2.49Zm10.45,32.87c-1.27,0-2.3,1.03-2.3,2.3s1.03,2.31,2.3,2.31,2.31-1.03,2.31-2.3-1.03-2.31-2.31-2.31Zm-12.21-23.34c-1.25,0-2.26,1.01-2.26,2.26s1.01,2.26,2.26,2.26,2.26-1.01,2.26-2.26-1.01-2.26-2.26-2.26Zm58.89-195.19c0-1.48-1.2-2.68-2.68-2.68s-2.68,1.2-2.69,2.68,1.2,2.68,2.68,2.68,2.68-1.2,2.68-2.68h.01Zm119.07-4.93c.86,0,1.56-.7,1.56-1.56s-.7-1.56-1.56-1.56-1.56.7-1.56,1.56.7,1.56,1.56,1.56Zm183.22-55.81c1.63,0,2.95-1.32,2.95-2.95s-1.32-2.95-2.95-2.95-2.95,1.32-2.95,2.95,1.32,2.95,2.95,2.95Zm-172.55-2.66c1.45,0,2.62-1.17,2.62-2.62s-1.17-2.62-2.62-2.62-2.62,1.17-2.62,2.62,1.17,2.62,2.62,2.62Zm7.72,42.16c.99,0,1.79-.8,1.79-1.79s-.8-1.8-1.79-1.8-1.79.8-1.79,1.79.8,1.79,1.79,1.79h0Zm-16.04-16.22c1.83,0,3.32-1.49,3.32-3.32s-1.49-3.32-3.32-3.32-3.32,1.49-3.32,3.32,1.49,3.32,3.32,3.32Zm-28.24-49.84c1.34,0,2.43-1.09,2.43-2.43s-1.09-2.43-2.43-2.43-2.44,1.09-2.44,2.43,1.09,2.43,2.44,2.43Zm14.62,26.86c1.67,0,3.01-1.35,3.01-3.01s-1.35-3.01-3.01-3.01-3.01,1.35-3.01,3.01,1.35,3.01,3.01,3.01Zm-5.34,52.86c1.75,0,3.16-1.41,3.16-3.16s-1.41-3.16-3.16-3.16-3.16,1.42-3.16,3.16,1.42,3.16,3.16,3.16Zm56.43-31.72c1.64,0,2.97-1.33,2.97-2.97s-1.33-2.97-2.97-2.97-2.97,1.33-2.97,2.97,1.33,2.97,2.97,2.97Zm113.03,3.42c2.07,0,3.75-1.68,3.75-3.75s-1.68-3.75-3.75-3.75-3.75,1.68-3.75,3.75,1.68,3.75,3.75,3.75Zm-24.96-37.08c1.77,0,3.2-1.43,3.2-3.2s-1.43-3.2-3.2-3.2-3.2,1.43-3.2,3.2,1.43,3.2,3.2,3.2Zm-29.63-12.97c1.51,0,2.73-1.22,2.73-2.73s-1.22-2.73-2.73-2.73-2.72,1.22-2.73,2.73,1.22,2.73,2.72,2.73h.01Zm-21.1,45.97c1.28,0,2.32-1.04,2.32-2.32s-1.04-2.32-2.32-2.32-2.32,1.04-2.32,2.32,1.04,2.32,2.32,2.32Zm-49.72,34.62c2.03,0,3.68-1.64,3.68-3.67s-1.64-3.67-3.67-3.67-3.67,1.64-3.67,3.67,1.65,3.68,3.67,3.68h0Zm-53.34,28.88c1.51,0,2.73-1.22,2.73-2.73s-1.22-2.73-2.73-2.73-2.73,1.22-2.73,2.73,1.22,2.73,2.73,2.73Zm79.22-105.66c0-1.67,1.36-3.03,3.03-3.03s3.03,1.36,3.03,3.03-1.36,3.03-3.03,3.03-3.03-1.36-3.03-3.03"/>
    </g>
    <path class="cls-3" d="m104.58,111.67c1.59,0,2.89-1.29,2.89-2.88s-1.29-2.89-2.88-2.89-2.88,1.29-2.88,2.88,1.29,2.88,2.88,2.88h-.01Zm2.23,1.37c0,1.13.91,2.05,2.04,2.05s2.04-.92,2.04-2.05-.91-2.04-2.04-2.04-2.04.91-2.04,2.04Zm9.66-29.41c2.03,0,3.68-1.65,3.68-3.68s-1.65-3.68-3.68-3.68-3.68,1.65-3.68,3.68,1.65,3.69,3.68,3.69h0Zm-27.83,108.07c-1.19,0-2.16.97-2.16,2.16s.97,2.16,2.16,2.16,2.16-.96,2.16-2.16-.96-2.16-2.16-2.16Zm21.42-61.05c0,1.01.82,1.83,1.83,1.83s1.83-.82,1.83-1.83-.82-1.82-1.83-1.82-1.83.82-1.83,1.82Zm-33.37,18.95c1.35,0,2.45-1.09,2.45-2.44s-1.1-2.45-2.45-2.45-2.45,1.1-2.45,2.45,1.1,2.45,2.45,2.45h0Zm-.85,51.09c1.46,0,2.64-1.18,2.64-2.65s-1.18-2.64-2.64-2.64-2.64,1.18-2.64,2.64,1.18,2.65,2.64,2.65Zm1.81-21.76c0,1.21.98,2.19,2.19,2.19s2.19-.98,2.19-2.19-.98-2.19-2.19-2.19-2.19.98-2.19,2.19Zm6.25-19.06c1.25,0,2.27-1.01,2.27-2.26s-1.01-2.27-2.26-2.27-2.27,1.02-2.27,2.27,1.02,2.27,2.27,2.27h0Zm4.59-6.54c1.24,0,2.25-1.01,2.25-2.25s-1.01-2.25-2.25-2.25-2.25,1.01-2.25,2.25,1.01,2.25,2.25,2.25Zm64.85-70.28c2.07,0,3.76-1.69,3.76-3.76s-1.69-3.76-3.76-3.76-3.76,1.68-3.76,3.76,1.68,3.76,3.76,3.76Zm24.55,29.9c1.83,0,3.31-1.48,3.31-3.31s-1.48-3.31-3.31-3.31-3.31,1.48-3.31,3.31,1.48,3.31,3.31,3.31Zm-61.08-12.08c0,1.85,1.5,3.34,3.34,3.34s3.34-1.5,3.34-3.34-1.5-3.34-3.34-3.34-3.34,1.5-3.34,3.34Zm26.17,39.13c-1.6,0-2.89,1.29-2.89,2.89s1.3,2.9,2.89,2.9,2.9-1.3,2.9-2.9-1.3-2.89-2.9-2.89Zm17.77-27.51c2.03,0,3.67-1.64,3.67-3.67s-1.64-3.67-3.67-3.67-3.67,1.64-3.67,3.67,1.64,3.67,3.67,3.67Zm-33.07-23.25c1.99,0,3.6-1.61,3.6-3.6s-1.61-3.6-3.6-3.6-3.6,1.61-3.6,3.6,1.61,3.6,3.6,3.6Zm11.76,5.59c1.73,0,3.14-1.41,3.14-3.14s-1.4-3.13-3.14-3.13-3.14,1.4-3.14,3.13,1.4,3.14,3.13,3.14h0Zm-8.63-53.63c1.12,0,2.02-.9,2.02-2.02s-.9-2.02-2.02-2.02-2.02.91-2.02,2.02.9,2.02,2.02,2.02Zm10.03,82.39c0,1.19.96,2.16,2.16,2.16s2.16-.96,2.16-2.15-.96-2.16-2.16-2.16-2.16.96-2.16,2.16h0ZM15.71,311.39c1.34,0,2.43-1.09,2.43-2.44s-1.09-2.43-2.43-2.44-2.43,1.09-2.44,2.43,1.09,2.44,2.43,2.44h.01Zm10.16,35.8c1.61,0,2.92-1.31,2.92-2.92s-1.31-2.92-2.92-2.92-2.92,1.31-2.92,2.92,1.31,2.92,2.92,2.92Zm.38-92.17c0,.89.72,1.61,1.61,1.61s1.61-.72,1.61-1.61-.72-1.61-1.61-1.61-1.61.72-1.61,1.61Zm-.25-84.09c.88,0,1.6-.72,1.6-1.6s-.71-1.6-1.6-1.6-1.6.72-1.6,1.6.72,1.6,1.6,1.6ZM178.46,42.18c1.87,0,3.39-1.52,3.39-3.39s-1.52-3.4-3.39-3.4-3.39,1.52-3.39,3.39,1.52,3.39,3.39,3.39h0ZM6.5,370.53c1.46,0,2.65-1.19,2.65-2.65s-1.19-2.65-2.65-2.65-2.65,1.19-2.65,2.65,1.19,2.65,2.65,2.65Zm.09-118.61c0,1.73,1.4,3.14,3.14,3.14s3.14-1.4,3.14-3.14-1.41-3.14-3.14-3.14-3.14,1.4-3.14,3.13h0Zm20.4,17.21c0,1.49,1.21,2.7,2.7,2.7s2.7-1.21,2.7-2.7-1.21-2.7-2.7-2.7-2.7,1.21-2.7,2.7ZM8.98,71.46c1.49,0,2.7-1.21,2.7-2.7s-1.21-2.7-2.7-2.7-2.7,1.21-2.7,2.7,1.21,2.7,2.7,2.7Zm52.87,124.55c1.01,0,1.83-.82,1.83-1.84s-.82-1.84-1.83-1.84-1.84.82-1.84,1.84.82,1.84,1.84,1.84Zm-8.25-72.67c1.62,0,2.93-1.31,2.93-2.93s-1.31-2.93-2.93-2.93-2.93,1.31-2.93,2.93,1.31,2.93,2.93,2.93Zm1.05,68.38c-1.35,0-2.45,1.1-2.45,2.45s1.1,2.46,2.45,2.46,2.45-1.1,2.45-2.46-1.1-2.45-2.45-2.45Zm10.19-71.25c1.83,0,3.31-1.48,3.31-3.31s-1.49-3.31-3.31-3.31-3.32,1.48-3.32,3.31,1.48,3.31,3.31,3.31h.01Zm-24.91,63.67c1.88,0,3.41-1.53,3.41-3.41s-1.53-3.42-3.41-3.42-3.42,1.53-3.42,3.42,1.53,3.42,3.42,3.42h0Zm10.91-3.47c1.45,0,2.63-1.17,2.63-2.62s-1.18-2.63-2.63-2.63-2.63,1.17-2.63,2.62,1.17,2.63,2.62,2.63h.01Zm-7.79-14.43c1.72,0,3.11-1.39,3.11-3.11s-1.39-3.11-3.11-3.11-3.11,1.39-3.11,3.11,1.39,3.11,3.11,3.11Zm-4.68,71.78c2.09,0,3.78-1.69,3.78-3.78s-1.69-3.78-3.78-3.78-3.78,1.69-3.78,3.78,1.69,3.78,3.78,3.78Zm11.47-23.36c1.56,0,2.83-1.26,2.83-2.82s-1.27-2.82-2.83-2.82-2.82,1.26-2.82,2.82,1.26,2.82,2.82,2.82Zm-6.95,6.6c-2.08,0-3.77,1.69-3.77,3.77s1.69,3.77,3.77,3.77,3.77-1.69,3.77-3.77-1.69-3.78-3.77-3.78h0Zm42.96-18.22c-1.18,0-2.14.95-2.14,2.14s.96,2.14,2.14,2.14,2.14-.96,2.14-2.14-.96-2.14-2.14-2.14Zm36.79-70.81c-1.74,0-3.14,1.4-3.14,3.14s1.41,3.14,3.14,3.14,3.14-1.4,3.14-3.14-1.4-3.14-3.14-3.14Zm-1.39-16.97c0-1.37-1.11-2.48-2.47-2.48s-2.48,1.11-2.48,2.48,1.1,2.48,2.48,2.48,2.48-1.11,2.48-2.48h-.01ZM363.35,13.1c1.4,0,2.53-1.13,2.53-2.52s-1.13-2.53-2.53-2.53-2.53,1.13-2.53,2.53,1.13,2.53,2.53,2.53h0ZM113.67,144.1c-1.9,0-3.44,1.54-3.44,3.44s1.54,3.44,3.44,3.44,3.44-1.54,3.44-3.44-1.54-3.44-3.44-3.44Zm-7.51-2.32c-1.45,0-2.63,1.18-2.63,2.63s1.18,2.63,2.63,2.63,2.64-1.18,2.64-2.63-1.18-2.63-2.64-2.63ZM376.3,57.51c1.07,0,1.94-.87,1.94-1.94s-.87-1.94-1.94-1.94-1.95.87-1.95,1.94.87,1.94,1.95,1.94Zm-184.29,16.92c-.94,0-1.71.76-1.71,1.71s.77,1.7,1.71,1.7,1.71-.76,1.71-1.7-.77-1.71-1.71-1.71Zm-39.06,13.55c-1.42,0-2.58,1.16-2.58,2.58s1.16,2.58,2.58,2.58,2.58-1.15,2.58-2.58-1.15-2.58-2.58-2.58Zm-33.87,1.25c0-1.6-1.29-2.89-2.89-2.89s-2.89,1.29-2.89,2.89,1.29,2.89,2.89,2.89,2.89-1.29,2.89-2.89ZM9.08,344.31c-1.45,0-2.62,1.17-2.62,2.62s1.17,2.62,2.62,2.62,2.62-1.17,2.62-2.62-1.17-2.62-2.62-2.62Zm-2.52,47.91c-1.19,0-2.16.97-2.16,2.16s.96,2.16,2.16,2.16,2.16-.97,2.16-2.16-.96-2.16-2.16-2.16Zm4.19-123.11c0-1.17-.95-2.12-2.12-2.12s-2.12.95-2.12,2.12.95,2.12,2.12,2.12,2.12-.95,2.12-2.12ZM175.43,85.76c0,1.63,1.32,2.96,2.95,2.96s2.96-1.32,2.96-2.96-1.32-2.95-2.96-2.95-2.95,1.32-2.95,2.95ZM29.67,368.48c-1.16,0-2.09.94-2.09,2.09s.94,2.09,2.09,2.09,2.09-.94,2.09-2.09-.94-2.09-2.09-2.09Zm55.83-197.49c0-1.02-.82-1.84-1.84-1.84s-1.84.82-1.84,1.84.83,1.84,1.84,1.84,1.84-.82,1.84-1.84ZM209.87,42.21c1.74,0,3.16-1.42,3.16-3.16s-1.41-3.16-3.16-3.16-3.15,1.41-3.15,3.16,1.41,3.16,3.15,3.16Zm8.71,9.85c1.24,0,2.25-1.01,2.26-2.25s-1.01-2.26-2.25-2.26-2.26,1.01-2.26,2.26,1.01,2.25,2.26,2.25h0Zm-8.19-27.89c.85,0,1.54-.69,1.54-1.54s-.69-1.54-1.54-1.54-1.54.69-1.54,1.54.69,1.54,1.54,1.54Zm-12.65,16.26c0,1.29,1.05,2.34,2.33,2.34s2.34-1.05,2.34-2.34-1.05-2.34-2.34-2.34-2.34,1.05-2.34,2.34h0Zm-18.9,23.98c0,1.48,1.2,2.68,2.68,2.68s2.68-1.2,2.68-2.68-1.2-2.68-2.68-2.68-2.68,1.2-2.68,2.68Zm18.43-42.9c1.31,0,2.38-1.07,2.38-2.38s-1.07-2.38-2.38-2.38-2.38,1.06-2.38,2.38,1.06,2.38,2.38,2.38Zm33.7-4.89c1.13,0,2.06-.92,2.06-2.06s-.92-2.05-2.06-2.05-2.05.92-2.05,2.05.92,2.06,2.05,2.06Zm118.9,4.28c0,.95.77,1.73,1.73,1.73s1.73-.77,1.73-1.73-.77-1.73-1.73-1.73-1.73.77-1.73,1.73Zm-157.72,41.73c1.16,0,2.09-.94,2.09-2.09s-.93-2.09-2.09-2.09-2.09.94-2.09,2.09.94,2.09,2.09,2.09Zm-5.61,25.5c.86,0,1.56-.7,1.56-1.56s-.69-1.56-1.56-1.56-1.56.7-1.56,1.56.7,1.56,1.56,1.56Zm129.59-50.6c0,1.15.94,2.09,2.09,2.09s2.09-.94,2.09-2.09-.94-2.09-2.09-2.09-2.09.94-2.09,2.09Zm32.8-23.16c1.82,0,3.3-1.48,3.3-3.3s-1.47-3.3-3.3-3.3-3.3,1.47-3.3,3.3,1.48,3.3,3.3,3.3Zm-32.8,9.9c.89,0,1.61-.72,1.61-1.61s-.72-1.61-1.61-1.61-1.61.72-1.61,1.61.72,1.61,1.61,1.61Zm-35.58,23.03c0,1.42,1.14,2.56,2.56,2.56s2.56-1.14,2.56-2.56-1.14-2.56-2.56-2.56-2.56,1.14-2.56,2.56Zm9.9-12.5c.99,0,1.79-.8,1.79-1.79s-.8-1.79-1.79-1.79-1.79.8-1.79,1.79.8,1.79,1.79,1.79Zm-51.62-5.1c1.57,0,2.84-1.27,2.84-2.83s-1.27-2.84-2.83-2.84-2.84,1.27-2.84,2.83,1.27,2.84,2.83,2.84Zm23.15-16.77c.99,0,1.79-.8,1.79-1.78s-.8-1.79-1.79-1.79-1.78.8-1.79,1.79.8,1.78,1.78,1.79h.01Zm15.61,6.22c0-1.65,1.33-2.98,2.98-2.98s2.98,1.33,2.98,2.98-1.33,2.98-2.98,2.98-2.98-1.34-2.98-2.98"/>
    <g class="cls-8">
      <path class="cls-3" d="m177.77,13.44c.91,0,1.64-.73,1.64-1.64s-.73-1.64-1.64-1.64-1.64.73-1.64,1.64.73,1.64,1.64,1.64Zm-10.48-3.18c1.08,0,1.95-.87,1.95-1.95s-.87-1.95-1.95-1.95-1.95.87-1.95,1.95.87,1.95,1.95,1.95Zm-11.73,13.68c1.22,0,2.21-.99,2.21-2.21s-.99-2.21-2.21-2.21-2.21.99-2.21,2.21.99,2.21,2.21,2.21Zm-9.98,25.47c1.95,0,3.54-1.58,3.54-3.54s-1.58-3.54-3.54-3.54-3.54,1.58-3.54,3.53,1.58,3.54,3.53,3.54h0Zm-6.15,24.68c.93,0,1.68-.75,1.68-1.67s-.75-1.67-1.68-1.67-1.67.75-1.67,1.67.75,1.67,1.67,1.67Zm-21.13-45.5c1.53,0,2.76-1.23,2.76-2.76s-1.24-2.76-2.76-2.76-2.76,1.24-2.76,2.76,1.24,2.76,2.76,2.76Zm-10.53,61.66c.98,0,1.78-.8,1.79-1.78s-.8-1.79-1.78-1.79-1.79.8-1.79,1.79.8,1.78,1.79,1.79h-.01Zm-14.31-64.4c1.35,0,2.45-1.1,2.45-2.45s-1.1-2.45-2.45-2.45-2.45,1.1-2.45,2.45,1.1,2.45,2.45,2.45Zm-8.48,22.17c1.29,0,2.33-1.04,2.33-2.33s-1.04-2.33-2.33-2.33-2.33,1.04-2.33,2.33,1.04,2.33,2.33,2.33Zm-20.11-33.09c1.55,0,2.81-1.26,2.81-2.81s-1.25-2.81-2.81-2.81-2.81,1.26-2.81,2.81,1.26,2.81,2.81,2.81Zm10.4,21.86c1.81,0,3.29-1.47,3.29-3.29s-1.47-3.29-3.29-3.29-3.29,1.47-3.29,3.29,1.47,3.29,3.29,3.29Zm-37.84,27.37c1.76,0,3.18-1.43,3.18-3.19s-1.42-3.18-3.18-3.18-3.19,1.42-3.19,3.18,1.43,3.19,3.19,3.19Zm36.44-6.13c1.69,0,3.07-1.37,3.07-3.06s-1.37-3.06-3.06-3.06-3.06,1.37-3.06,3.06,1.37,3.06,3.06,3.06h-.01Zm9.86,15.08c1.84,0,3.34-1.49,3.34-3.34s-1.49-3.34-3.34-3.34-3.34,1.49-3.34,3.34,1.49,3.34,3.34,3.34Zm-32.46-.45c1.08,0,1.95-.87,1.95-1.95s-.88-1.95-1.95-1.95-1.95.87-1.95,1.95.88,1.95,1.95,1.95Zm33.09,21.24c0,1.39,1.13,2.53,2.52,2.53s2.53-1.13,2.53-2.52-1.13-2.53-2.52-2.53-2.53,1.13-2.53,2.53h0Zm-9.01,11.31c0,1.41,1.14,2.55,2.55,2.55s2.56-1.14,2.56-2.55-1.14-2.56-2.55-2.56-2.55,1.14-2.55,2.55h0Zm-40.76,3.14c1.38,0,2.5-1.12,2.5-2.5s-1.12-2.5-2.5-2.5-2.5,1.12-2.5,2.5,1.12,2.5,2.5,2.5Zm9.89,16.99c1.51,0,2.74-1.23,2.74-2.73s-1.23-2.74-2.74-2.74-2.74,1.22-2.74,2.73,1.23,2.74,2.73,2.74h.01Zm-21.48,5.17c1.84,0,3.34-1.5,3.34-3.34s-1.5-3.34-3.34-3.34-3.34,1.49-3.34,3.34,1.49,3.34,3.34,3.34Zm37.05,25.3c1.96,0,3.55-1.59,3.55-3.55s-1.58-3.55-3.55-3.55-3.55,1.59-3.55,3.55,1.59,3.55,3.55,3.55Zm-.87,6.43c.85,0,1.54-.69,1.54-1.53s-.69-1.54-1.53-1.54-1.54.69-1.54,1.53.69,1.54,1.53,1.54Zm-48.94-29.13c1.91,0,3.45-1.54,3.45-3.45s-1.54-3.45-3.45-3.45-3.45,1.54-3.45,3.45,1.54,3.45,3.45,3.45Zm40.84,52.89c1.7,0,3.08-1.38,3.08-3.09s-1.38-3.08-3.08-3.08-3.09,1.38-3.09,3.08,1.38,3.09,3.09,3.09Zm18.7,3.41c.87,0,1.58-.71,1.58-1.58s-.71-1.57-1.57-1.57-1.58.7-1.58,1.57.7,1.58,1.57,1.58Zm-39.81,7.98c.97,0,1.76-.78,1.76-1.76s-.79-1.76-1.76-1.76-1.76.79-1.76,1.76.79,1.76,1.76,1.76Zm-12.2,7.78c1.51,0,2.74-1.23,2.74-2.74s-1.23-2.74-2.74-2.74-2.74,1.23-2.74,2.74,1.23,2.74,2.74,2.74Zm36.86,154.1c-1.88,0-3.4,1.52-3.4,3.39s1.52,3.4,3.39,3.4,3.39-1.52,3.39-3.39-1.52-3.39-3.39-3.39h.01Zm-10.3-55.83c-1.2,0-2.17.97-2.17,2.17s.97,2.17,2.17,2.17,2.17-.97,2.17-2.17-.97-2.17-2.17-2.17Zm-22.22,20.5c-1.32,0-2.4,1.07-2.4,2.4s1.07,2.4,2.4,2.4,2.4-1.07,2.4-2.4-1.07-2.4-2.4-2.4Zm-8.67-13.07c0-1.14-.92-2.06-2.06-2.06s-2.06.92-2.06,2.06.92,2.06,2.06,2.06,2.06-.92,2.06-2.06Zm3.58-7.6c1.31,0,2.38-1.07,2.38-2.38s-1.07-2.38-2.38-2.38-2.38,1.06-2.38,2.38,1.06,2.38,2.38,2.38Zm46.23,22.1c-1.46,0-2.65,1.19-2.65,2.65s1.19,2.64,2.65,2.64,2.65-1.18,2.65-2.64-1.18-2.65-2.65-2.65Zm-8.99-46.67c0-1.91-1.55-3.46-3.45-3.46s-3.45,1.55-3.45,3.45,1.54,3.46,3.45,3.46,3.46-1.55,3.46-3.45h0Zm-31.03-36.95c0-1.93-1.56-3.49-3.49-3.49s-3.49,1.56-3.49,3.49,1.56,3.49,3.48,3.49,3.49-1.56,3.49-3.49h.01Zm-17.31-7.16c2.05,0,3.71-1.66,3.71-3.71s-1.66-3.71-3.71-3.71-3.71,1.66-3.71,3.71,1.66,3.71,3.71,3.71Zm56.64,13.95c0-1.55-1.26-2.82-2.82-2.82s-2.82,1.26-2.82,2.81,1.26,2.82,2.82,2.82,2.82-1.26,2.82-2.82h0Zm1.46-23.03c-2.06,0-3.74,1.67-3.74,3.74s1.67,3.74,3.74,3.74,3.74-1.67,3.74-3.74-1.67-3.74-3.74-3.74Zm-11.82-3.25c0,1.37,1.11,2.48,2.47,2.48s2.47-1.11,2.47-2.47-1.1-2.48-2.47-2.48-2.48,1.11-2.48,2.47h0Zm-3.56-20.08c0-.91-.74-1.66-1.65-1.66s-1.66.74-1.66,1.66.74,1.66,1.66,1.66,1.65-.74,1.65-1.66Zm18.24-.62c0-1.16-.94-2.11-2.11-2.11s-2.11.95-2.11,2.11.95,2.11,2.11,2.11,2.11-.95,2.11-2.11Zm11.71-29.31c-1.18,0-2.14.96-2.14,2.14s.96,2.14,2.14,2.14,2.15-.96,2.15-2.14-.96-2.14-2.15-2.14Zm15.35-33.67c1.92,0,3.49-1.56,3.49-3.48s-1.56-3.49-3.49-3.49-3.49,1.56-3.49,3.49,1.56,3.49,3.49,3.49h0Zm32.69,36.4c.98,0,1.77-.79,1.77-1.78s-.79-1.78-1.77-1.78-1.78.8-1.78,1.78.79,1.78,1.78,1.78Zm9.7-2.83c1.26,0,2.28-1.02,2.28-2.28s-1.02-2.28-2.28-2.28-2.28,1.02-2.28,2.28,1.02,2.28,2.28,2.28Zm-24.19-38.67c1.54,0,2.79-1.25,2.79-2.79s-1.25-2.79-2.79-2.79-2.79,1.25-2.8,2.79,1.25,2.79,2.79,2.79h.01Zm1.17-12.16c1.65,0,3-1.34,3-2.99s-1.34-3-2.99-3-3,1.34-3,2.99,1.34,3,3,3h-.01Zm43.3,26.8c0,1.47,1.19,2.67,2.67,2.67s2.67-1.19,2.67-2.67-1.19-2.67-2.67-2.67-2.67,1.19-2.67,2.67Zm10.05-10.71c0,1.84,1.49,3.32,3.32,3.32s3.32-1.49,3.32-3.32-1.49-3.32-3.32-3.32-3.32,1.49-3.32,3.32Zm9.85-13.45c0,1.2.97,2.18,2.17,2.18s2.17-.98,2.17-2.18-.97-2.17-2.17-2.17-2.17.97-2.17,2.17Zm-7.88-30.3c0,.91.74,1.65,1.66,1.65s1.65-.74,1.65-1.65-.74-1.66-1.65-1.66-1.66.74-1.66,1.66Zm-3.02-22.34c0,1.39,1.13,2.51,2.51,2.51s2.52-1.13,2.52-2.51-1.13-2.52-2.51-2.52-2.51,1.13-2.51,2.52h-.01Zm1.78-17.53c1.21,0,2.2-.98,2.2-2.2s-.98-2.2-2.2-2.2-2.2.98-2.2,2.19.98,2.2,2.2,2.2h0Zm21.89,2.39c2.06,0,3.72-1.67,3.72-3.72s-1.67-3.72-3.72-3.72-3.72,1.67-3.72,3.72,1.67,3.72,3.72,3.72Zm21.15,12.16c0,1.79,1.45,3.25,3.24,3.25s3.25-1.45,3.25-3.25-1.45-3.25-3.24-3.25-3.25,1.45-3.25,3.25Zm14.68,4.48c1.04,0,1.88-.84,1.88-1.88s-.84-1.88-1.88-1.88-1.88.84-1.88,1.88.84,1.88,1.88,1.88Zm5.06-15.77c1.06,0,1.93-.87,1.93-1.93s-.87-1.93-1.93-1.93-1.93.87-1.93,1.93.86,1.93,1.93,1.93Zm16.9,9.41c1.1,0,1.99-.89,1.99-1.99s-.89-1.99-1.99-1.99-1.99.89-1.99,1.99.89,1.99,1.99,1.99Zm7.07-12.05c1.42,0,2.57-1.15,2.57-2.57s-1.15-2.57-2.57-2.57-2.57,1.15-2.57,2.57,1.15,2.57,2.57,2.57Zm8.48-5.15c1.38,0,2.5-1.12,2.5-2.5s-1.12-2.49-2.5-2.49-2.49,1.12-2.49,2.49,1.12,2.5,2.49,2.5Zm17.22-15.39c1.38,0,2.5-1.12,2.5-2.5s-1.12-2.5-2.5-2.5-2.5,1.12-2.5,2.5,1.12,2.5,2.5,2.51h0Zm13.97,1.38c1.27,0,2.3-1.03,2.3-2.29s-1.03-2.29-2.29-2.29-2.29,1.03-2.29,2.29,1.03,2.3,2.29,2.3h0Zm58.52-4.49c1.88,0,3.39-1.52,3.39-3.39s-1.52-3.39-3.39-3.39-3.39,1.52-3.39,3.39,1.52,3.39,3.39,3.39ZM209.05,12.29c1.5,0,2.71-1.21,2.71-2.71s-1.21-2.71-2.71-2.71-2.72,1.21-2.72,2.71,1.22,2.71,2.72,2.71Zm182.07.47c0-1.82,1.48-3.3,3.29-3.3s3.29,1.47,3.29,3.3-1.47,3.29-3.29,3.29-3.29-1.48-3.29-3.29"/>
    </g>
    <g class="cls-9">
      <path class="cls-3" d="m155.14,42.14c1.35,0,2.45-1.1,2.45-2.45s-1.1-2.45-2.45-2.45-2.45,1.1-2.45,2.45,1.1,2.45,2.45,2.45Zm18.98,16.85c0,1.17.95,2.12,2.12,2.12s2.12-.95,2.12-2.12-.95-2.12-2.12-2.12-2.12.95-2.12,2.12Zm-17.56-4.45c-.79,0-1.43.64-1.43,1.43s.64,1.43,1.43,1.43,1.43-.64,1.43-1.43-.64-1.43-1.43-1.43Zm15.39-26.83c1.61,0,2.92-1.3,2.92-2.91s-1.31-2.92-2.91-2.92-2.91,1.31-2.91,2.91,1.3,2.91,2.91,2.91h0Zm-28.94,32.08c1.3,0,2.35-1.06,2.35-2.36s-1.05-2.36-2.35-2.36-2.36,1.05-2.36,2.36,1.05,2.36,2.36,2.36Zm-14.23-41.28c1.81,0,3.28-1.47,3.28-3.27s-1.47-3.28-3.27-3.28-3.27,1.46-3.27,3.27,1.46,3.27,3.27,3.27h0Zm-10.01,29.82c1.43,0,2.59-1.16,2.59-2.59s-1.16-2.59-2.59-2.59-2.59,1.16-2.59,2.59,1.16,2.59,2.59,2.59Zm-7.74,22.99c1.72,0,3.12-1.39,3.12-3.12s-1.4-3.12-3.12-3.12-3.12,1.39-3.12,3.12,1.4,3.12,3.12,3.12Zm-9.43-28.87c1.25,0,2.26-1.01,2.26-2.26s-1.01-2.26-2.26-2.26-2.26,1.01-2.26,2.26,1.01,2.26,2.26,2.26Zm-9.34,38.53c.94,0,1.7-.76,1.7-1.7s-.76-1.7-1.7-1.7-1.7.76-1.7,1.7.76,1.7,1.7,1.7Zm-8.12-36.15c1.86,0,3.37-1.51,3.37-3.37s-1.51-3.37-3.37-3.37-3.37,1.51-3.37,3.37,1.51,3.37,3.37,3.37ZM28.27,18.41c1.78,0,3.22-1.44,3.22-3.22s-1.44-3.22-3.22-3.23-3.22,1.44-3.23,3.22,1.45,3.22,3.22,3.22h.01Zm38.31,39.12c-.08.26-.14.52-.14.81,0,1.46,1.18,2.64,2.64,2.64s2.64-1.18,2.64-2.64-1.18-2.64-2.64-2.64h-.06c0-.07.02-.14.02-.22,0-1.15-.93-2.09-2.08-2.09s-2.09.93-2.09,2.08c0,1.02.74,1.87,1.71,2.04v.02Zm-2.51,30.27c1.27,0,2.3-1.03,2.3-2.3s-1.03-2.3-2.3-2.3-2.31,1.03-2.31,2.3,1.03,2.3,2.3,2.3h.01Zm-12.54,14.64c1.92,0,3.48-1.55,3.48-3.48s-1.56-3.47-3.48-3.47-3.47,1.56-3.47,3.47,1.56,3.48,3.47,3.48Zm17.08-14.44c0,1.13.84,2.05,1.93,2.19.28.21.62.34.99.34.9,0,1.63-.73,1.63-1.63,0-.24-.05-.46-.15-.67,0-.08.03-.15.03-.23,0-1.23-.99-2.22-2.22-2.22s-2.21.99-2.21,2.22Zm-12.55-38.98c.98,0,1.78-.8,1.78-1.78s-.8-1.78-1.78-1.78-1.78.8-1.78,1.78.8,1.78,1.78,1.78Zm13.8,27.36c0-1.13-.91-2.04-2.04-2.04s-2.04.91-2.04,2.04.91,2.04,2.04,2.04,2.04-.91,2.04-2.04Zm-58.66,22.76c1.23,0,2.23-1,2.23-2.23s-1-2.23-2.23-2.23-2.23,1-2.23,2.23,1,2.23,2.23,2.23Zm118.71,4.24c0,1.73,1.41,3.14,3.14,3.14s3.14-1.4,3.14-3.14-1.4-3.14-3.14-3.14-3.14,1.4-3.14,3.14Zm-66.25,4.92c1.81,0,3.27-1.46,3.27-3.27s-1.46-3.27-3.27-3.27-3.27,1.46-3.27,3.27,1.46,3.27,3.27,3.27Zm.03,8.34c-.97,0-1.76.79-1.76,1.76s.79,1.76,1.76,1.76,1.76-.79,1.76-1.76-.79-1.76-1.76-1.76Zm14.54,19.31c1.47,0,2.66-1.19,2.66-2.66s-1.19-2.66-2.66-2.66-2.66,1.19-2.66,2.65,1.19,2.66,2.66,2.66h0Zm-18.77,6.57c0-1.26-1.02-2.29-2.29-2.29s-2.29,1.02-2.29,2.29,1.03,2.29,2.29,2.29,2.29-1.02,2.29-2.29Zm-6.99,4.11c-.83,0-1.5.67-1.5,1.5s.67,1.5,1.5,1.5,1.5-.67,1.5-1.5-.67-1.5-1.5-1.5Zm-31.17,10.81c1.78,0,3.22-1.44,3.22-3.22s-1.44-3.22-3.22-3.22-3.22,1.44-3.22,3.22,1.44,3.22,3.22,3.22Zm39.63-24.63c1.72,0,3.12-1.39,3.12-3.11s-1.39-3.12-3.12-3.12-3.12,1.4-3.12,3.12,1.39,3.11,3.12,3.11Zm-29.22-5.38c-.87,0-1.58.7-1.58,1.57s.7,1.57,1.57,1.57,1.58-.7,1.58-1.57-.7-1.57-1.57-1.57Zm-7.97,12.64c1.16,0,2.11-.95,2.11-2.11s-.95-2.11-2.11-2.11-2.11.95-2.11,2.11.94,2.11,2.11,2.11Zm11.71,14.4c0,1.34,1.09,2.43,2.43,2.43s2.43-1.08,2.43-2.43-1.09-2.43-2.43-2.43-2.43,1.09-2.43,2.43Zm-5.08-33.37c-1.07,0-1.94.87-1.94,1.93s.87,1.93,1.93,1.93,1.93-.86,1.93-1.93-.87-1.94-1.93-1.94h.01Zm3.67-4.28c1.87,0,3.39-1.51,3.39-3.38s-1.51-3.39-3.38-3.39-3.39,1.51-3.39,3.38,1.51,3.39,3.38,3.39Zm32.85,16.61c-.93,0-1.68.76-1.68,1.69s.75,1.68,1.68,1.68,1.68-.76,1.68-1.68-.76-1.69-1.68-1.69Zm-26.46-38.33c1.07,0,1.94-.87,1.94-1.94s-.87-1.94-1.94-1.94-1.94.87-1.94,1.94.87,1.94,1.94,1.94Zm26.03-3.33c-1.42,0-2.57,1.15-2.57,2.57s1.16,2.57,2.57,2.57,2.57-1.16,2.57-2.57-1.15-2.57-2.57-2.57Zm63.44,34.26c1.19,0,2.16-.97,2.16-2.16s-.97-2.16-2.16-2.16-2.16.97-2.16,2.16.97,2.16,2.16,2.16Zm-35.96-8.02c-1.71,0-3.1,1.39-3.1,3.1s1.39,3.1,3.1,3.1,3.1-1.39,3.1-3.1-1.39-3.1-3.1-3.1Zm1.25-61.92c.92,0,1.67-.75,1.67-1.67s-.75-1.67-1.67-1.67-1.67.75-1.67,1.67.75,1.67,1.67,1.67ZM6.47,294.36c1.7,0,3.08-1.38,3.08-3.08s-1.38-3.08-3.08-3.08-3.08,1.38-3.08,3.08,1.38,3.08,3.08,3.08Zm-5.15,25.18c.93,0,1.69-.76,1.69-1.69s-.76-1.69-1.69-1.69-1.69.76-1.69,1.69.76,1.69,1.69,1.69Zm110.52-54.62c-1.12,0-2.03.91-2.03,2.03s.91,2.03,2.03,2.03,2.03-.91,2.03-2.03-.91-2.03-2.03-2.03Zm-99.2,11.17c0,1.32,1.07,2.39,2.39,2.39s2.39-1.07,2.39-2.39-1.07-2.39-2.39-2.39-2.39,1.07-2.39,2.39Zm20.82,1.05c-1.37,0-2.49,1.11-2.49,2.49s1.11,2.49,2.48,2.49,2.48-1.11,2.48-2.48-1.11-2.49-2.48-2.49h0Zm10.98-2.13c.82,0,1.48-.67,1.48-1.48s-.66-1.48-1.48-1.48-1.48.66-1.48,1.48.66,1.48,1.48,1.48Zm2.38-18.14c1.37,0,2.47-1.11,2.47-2.47s-1.1-2.47-2.47-2.47-2.47,1.11-2.47,2.47,1.11,2.47,2.47,2.47Zm-15-35.53c0-1.23-.99-2.22-2.22-2.22s-2.22.99-2.22,2.22.99,2.22,2.22,2.22,2.22-.99,2.22-2.22Zm-2.81-9.83c0,1.88,1.52,3.4,3.4,3.4s3.4-1.52,3.41-3.4-1.52-3.4-3.4-3.41-3.4,1.53-3.4,3.4h0Zm30.78-.99c-1.01,0-1.84.82-1.84,1.83s.82,1.84,1.84,1.84,1.84-.82,1.84-1.84-.83-1.84-1.84-1.84h0Zm24.27,14.54c1.67,0,3.03-1.36,3.03-3.03s-1.35-3.03-3.02-3.03-3.03,1.35-3.03,3.02,1.35,3.03,3.03,3.03h-.01Zm16.02-55.25c1.5,0,2.72-1.22,2.72-2.72s-1.22-2.72-2.72-2.72-2.71,1.22-2.71,2.72,1.21,2.72,2.71,2.72Zm40.73,32.12c1.73,0,3.12-1.39,3.12-3.12s-1.4-3.12-3.12-3.12-3.12,1.39-3.12,3.12,1.39,3.12,3.12,3.12Zm-21.06-52.41c0,1.51,1.23,2.73,2.73,2.73s2.73-1.22,2.73-2.73-1.22-2.73-2.73-2.73-2.74,1.22-2.74,2.73h0Zm41.16-15.31c1.84,0,3.32-1.49,3.32-3.32s-1.49-3.32-3.32-3.32-3.32,1.49-3.32,3.32,1.49,3.32,3.32,3.32Zm34.9,39.94c-.78,0-1.42.63-1.42,1.42s.63,1.42,1.42,1.42,1.41-.63,1.41-1.42-.63-1.42-1.41-1.42Zm1.43-10.93c1.3,0,2.36-1.06,2.36-2.36s-1.06-2.36-2.36-2.36-2.36,1.06-2.37,2.36,1.06,2.36,2.36,2.37h0Zm37.33-9.55c1.52,0,2.75-1.23,2.75-2.75s-1.23-2.75-2.75-2.75-2.75,1.23-2.75,2.75,1.23,2.75,2.75,2.75Zm30.29-63.19c0,1.51,1.22,2.74,2.73,2.74s2.73-1.22,2.73-2.73-1.23-2.74-2.73-2.74-2.74,1.22-2.74,2.73h0Zm15.65-2.82c.97,0,1.75-.78,1.75-1.75s-.78-1.75-1.75-1.75-1.75.78-1.75,1.75.78,1.76,1.75,1.76h0Zm39.91,8.47c1.22,0,2.2-.99,2.2-2.2s-.99-2.2-2.2-2.2-2.2.99-2.2,2.2.98,2.2,2.2,2.2Zm6.44-9.83c.79,0,1.42-.64,1.43-1.42s-.64-1.43-1.42-1.43-1.43.64-1.43,1.43.64,1.42,1.43,1.43h0Zm-6.21-28.75c1.27,0,2.3-1.03,2.3-2.3s-1.03-2.31-2.3-2.31-2.31,1.03-2.31,2.31,1.03,2.31,2.31,2.31h0Zm22.72,5.25c1.04,0,1.89-.84,1.89-1.89s-.85-1.89-1.89-1.89-1.89.85-1.89,1.89.85,1.89,1.89,1.89Zm-2.64,26.4c1.26,0,2.29-1.02,2.29-2.29s-1.02-2.29-2.29-2.29-2.28,1.02-2.28,2.29,1.02,2.29,2.28,2.29Zm-42.19-33.7c1.24,0,2.25-1.01,2.25-2.25s-1.01-2.25-2.25-2.25-2.25,1.01-2.25,2.25,1.01,2.25,2.25,2.25Zm-33.06.29c1.81,0,3.29-1.47,3.29-3.28s-1.47-3.29-3.28-3.29-3.28,1.47-3.28,3.28,1.47,3.28,3.28,3.28h-.01Zm19.33,58.55c1.68,0,3.05-1.36,3.05-3.05s-1.36-3.05-3.05-3.05-3.05,1.36-3.05,3.05,1.36,3.05,3.05,3.05Zm-36.85-41.88c1.53,0,2.77-1.24,2.77-2.77s-1.24-2.77-2.77-2.77-2.78,1.24-2.78,2.77,1.24,2.77,2.77,2.77h0Zm-2.57,29.77c0-1.03-.84-1.87-1.87-1.87s-1.87.84-1.87,1.87.84,1.87,1.86,1.87,1.87-.84,1.87-1.86h0Zm-35.45-11.31c1.86,0,3.37-1.5,3.37-3.37s-1.51-3.37-3.37-3.37-3.37,1.51-3.37,3.37,1.51,3.37,3.37,3.37Zm9.8,39.22c.8,0,1.45-.65,1.45-1.45s-.65-1.45-1.45-1.45-1.45.65-1.45,1.45.65,1.45,1.45,1.45Zm-2.86,10.3c.91,0,1.65-.74,1.65-1.65s-.74-1.65-1.65-1.65-1.65.74-1.65,1.65.74,1.65,1.65,1.65Zm-31.05-30.27c1.09,0,1.98-.88,1.98-1.98s-.88-1.98-1.98-1.98-1.98.88-1.98,1.98.88,1.98,1.98,1.98Zm-2.73,15.75c.95,0,1.72-.77,1.72-1.71s-.77-1.71-1.72-1.72-1.71.77-1.72,1.71.77,1.71,1.71,1.72h0Zm11.48,42.24c1.01,0,1.83-.82,1.83-1.83s-.82-1.84-1.83-1.84-1.83.82-1.83,1.83.82,1.84,1.83,1.84Zm-43.56-47.39c.84,0,1.52-.68,1.52-1.52s-.68-1.52-1.52-1.52-1.52.68-1.52,1.52.68,1.52,1.52,1.52Zm19.85,59.81c-1.01,0-1.83.82-1.83,1.83s.82,1.83,1.83,1.83,1.83-.82,1.83-1.83-.82-1.83-1.83-1.83Zm-26.97-17.51c0,1.68,1.36,3.04,3.04,3.04s3.04-1.36,3.04-3.04-1.36-3.03-3.04-3.03-3.04,1.36-3.04,3.03Zm-10.02-3.31c0-1.66-1.34-3-3-3s-3,1.35-3,3,1.35,3,3,3,3-1.34,3-3Zm-22.87-1.85c0,1.88,1.52,3.41,3.41,3.41s3.41-1.53,3.41-3.41-1.53-3.41-3.41-3.41-3.41,1.52-3.41,3.41Zm7.79,32.82c1.42,0,2.57-1.15,2.57-2.57s-1.15-2.57-2.57-2.57-2.57,1.15-2.57,2.57,1.15,2.57,2.57,2.57Zm2.44,20.81c0,.8.65,1.46,1.46,1.46s1.46-.65,1.46-1.46-.65-1.46-1.46-1.46-1.46.65-1.46,1.46Zm-11.86-7.08c1.45,0,2.62-1.17,2.62-2.61s-1.17-2.62-2.62-2.62-2.62,1.17-2.62,2.62,1.17,2.61,2.62,2.62h0Zm-11.77-7.85c0-1.88-1.52-3.4-3.4-3.4s-3.4,1.52-3.4,3.4,1.52,3.4,3.4,3.4,3.4-1.52,3.4-3.4Zm2.62-11c0,1.57,1.27,2.85,2.84,2.85s2.84-1.27,2.84-2.84-1.27-2.84-2.84-2.84-2.84,1.27-2.84,2.84h0Zm-6.99,5.49c1.83,0,3.32-1.49,3.32-3.33s-1.49-3.32-3.32-3.32-3.33,1.49-3.33,3.32,1.49,3.33,3.33,3.33Zm-7.03,6.7c0,.98.79,1.77,1.78,1.77s1.77-.8,1.77-1.77-.79-1.77-1.77-1.77-1.78.79-1.78,1.77Zm36.26,48.39c-.97,0-1.76.78-1.76,1.75s.78,1.76,1.76,1.76,1.75-.79,1.75-1.76-.78-1.75-1.75-1.75Zm-31.37,12.84c0,1.85-1.5,3.35-3.35,3.35s-3.35-1.5-3.35-3.35,1.5-3.35,3.35-3.35,3.35,1.5,3.35,3.35"/>
    </g>
  </g>
</svg>