<?xml version="1.0" encoding="UTF-8"?>
<svg id="Layer_1" data-name="Layer 1" xmlns="http://www.w3.org/2000/svg" xmlns:xlink="http://www.w3.org/1999/xlink" viewBox="0 0 128 128">
  <defs>
    <style>
      .cls-1 {
        clip-path: url(#clippath);
      }

      .cls-2 {
        fill: none;
      }

      .cls-2, .cls-3 {
        stroke-width: 0px;
      }

      .cls-4 {
        clip-path: url(#clippath-1);
      }

      .cls-3 {
        fill: #0bafa5;
      }
    </style>
    <clipPath id="clippath">
      <rect class="cls-2" x="1.47" y="6.48" width="125.06" height="115.2"/>
    </clipPath>
    <clipPath id="clippath-1">
      <rect class="cls-2" x="90.41" y="6.33" width="6.6" height="5.98"/>
    </clipPath>
  </defs>
  <g class="cls-1">
    <path class="cls-3" d="m15.04,101.21c.81.37,1.28,1.23,1.13,2.09-.27,1.72-.59,3.45-1.01,5.15-.39,1.7-.89,3.4-1.43,5.05l-.2.62c-.1.27-.05.57.1.81.15.25.39.42.69.47l40.9,6.23h.15c.25,0,.47-.07.64-.25.22-.2.34-.47.34-.76v-1.01c0-3.57.27-7.19.81-10.74l6.7-44.05.62-.15,6.21,40.63c.59,3.87.86,7.83.81,11.75,0,.3.12.57.34.76.17.15.42.25.64.25h.15l40.9-6.26c.3-.05.54-.22.69-.47.15-.25.2-.54.1-.81l-.2-.62c-1.08-3.32-1.89-6.75-2.44-10.2-.03-.1-.03-.2-.03-.29,0-.76.47-1.48,1.16-1.8,4.58-2.14,8.25-5.61,10.66-10.07,2.44-4.51,3.3-9.55,2.54-14.63l-1.43-9.41c-.54-3.57-2.46-6.72-5.37-8.86-2.91-2.14-6.48-3.03-10.05-2.46l-3.67.57c-.22.02-.44,0-.64-.12-.02-1.11-.05-2.14-.07-3.05-.07-3.52-2.61-6.45-6.01-6.99-1.97-.32-4.04-.02-5.88.39,1.21-1.23,2.64-2.68,3.64-3.69,1.03-1.03,1.65-2.44,1.77-3.89.22-3.01-1.75-5.71-4.68-6.45-2.59-.64-5.29.47-6.7,2.73l-7.19,11.5c-.22.34-.54.57-.89.59-.34.05-.69-.1-.89-.37-.22-.27-.3-.64-.17-.98.34-1.06.17-2.24-.49-3.15-.66-.91-1.75-1.45-2.86-1.43h-.89c-1.3.02-2.49.76-3.08,1.92l-2.14,4.26c-.44.86-1.43,1.28-2.36.96-.54-.17-.96-.59-1.16-1.16-.22-.59-.15-1.23.2-1.77l7.81-12.48,11.01-12.14c1.38-1.53,1.97-3.65,1.57-5.66-.39-1.99-1.65-3.62-3.45-4.51-1.67-.79-3.6-.84-5.29-.12-1.7.74-3,2.14-3.57,3.92l-3.25,10.1c-.27.84-.94,1.48-1.75,1.65-.96.2-1.97-.22-2.51-1.06l-.05-.07c-3.01-4.7-7.59-8.27-12.85-10.05l-1.45-.49c-1.9-.64-3.96-.32-5.49.89-1.53,1.18-2.34,3.05-2.19,4.97.15,1.92,1.26,3.65,2.96,4.58l9.11,5.07c.76.42,1.03,1.4.64,2.22-.66,1.38-.37,3.03.71,4.11l1.35,1.35c.42.42.57,1.06.34,1.55-.17.39-.47.69-.89.81-.39.12-.84.05-1.18-.17l-1.5-1.01c-1.6-1.06-3.74-.91-5.1.37-.81.76-1.26,1.77-1.26,2.88s.39,2.14,1.18,2.91l1.58,1.58c.66.66.79,1.67.34,2.49-.3.52-.49,1.06-.66,1.57l-.05.12s-.07.17-.15.2c-.07.03-.32,0-.71-.25l-1.97-1.33c-2.27-1.5-5.12-1.9-7.83-1.03-1.3.42-3.5.52-4.83.27l-1.6-.32c-.25-.05-.49-.1-.76-.12-2.51-.27-5.05.57-6.94,2.27-1.94,1.85-3.05,4.38-3,7.02l.02,1.7c-.2.37-.59.59-1.01.52l-3.67-.57c-3.57-.54-7.14.34-10.05,2.49-2.91,2.14-4.8,5.29-5.37,8.87l-1.45,9.41c-.76,5.07.1,10.15,2.54,14.63,2.41,4.46,6.11,7.93,10.69,10.07Zm39.35,18.3l-38.61-5.89c.39-1.26.76-2.54,1.08-3.82l37.63,5.74c-.05,1.31-.1,2.64-.1,3.97Zm57.7-9.48l-38.61,5.91c0-1.35-.05-2.71-.12-4.04l37.63-5.74c.34,1.28.71,2.59,1.11,3.87Zm-6.75-36.62c-.02-.79-.02-1.62-.05-2.51l2.93,19.13c.15.99.79,1.82,1.7,2.24.39.17.81.27,1.23.27.54,0,1.08-.15,1.55-.44,6.26-3.89,9.6-11.13,8.47-18.45l-1.43-9.41c-.34-2.27-1.55-4.26-3.4-5.64-1.85-1.35-4.11-1.92-6.4-1.58l-3.67.57c-.47.07-.89.25-1.26.52-.02-1.18-.05-2.34-.07-3.42.3.05.59.05.89,0l3.67-.57c3.05-.47,6.11.3,8.59,2.12,2.49,1.82,4.11,4.51,4.58,7.56l1.43,9.41c1.43,9.33-3.55,18.64-12.09,22.61-1.4.64-2.32,2.07-2.32,3.6,0,.2.02.39.05.59.22,1.4.47,2.81.79,4.21l-37.31,5.69c-.15-1.65-.32-3.28-.57-4.9l-6.26-40.8,1.62-.39s.1-.02.15-.05c1.9-.84,4.01-.89,5.91-.25.05.15.07.27.1.42l5.66,37.01c.15,1.03-.1,2.07-.71,2.93-.61.84-1.55,1.4-2.59,1.55-.54.07-.91.59-.84,1.13.07.49.49.84.96.84h.15c1.55-.25,2.93-1.06,3.87-2.34.25-.32.44-.67.62-1.01,1.11,1.21,2.66,1.94,4.36,1.94.3,0,.59-.02.89-.07,2.04-.32,3.67-1.63,4.48-3.37,1.11,1.21,2.66,1.94,4.36,1.94.3,0,.59-.02.89-.07,1.55-.25,2.93-1.06,3.87-2.34.25-.32.44-.67.59-1.01.27.3.57.54.89.79,1.03.76,2.24,1.16,3.5,1.16.29,0,.61-.02.91-.07.54-.07.91-.59.81-1.13s-.59-.91-1.13-.81c-1.03.15-2.07-.1-2.93-.71-.84-.62-1.4-1.55-1.55-2.59l-2.59-16.97h.12c3.79-.39,6.65-3.6,6.58-7.31Zm1.21-13.84l3.67-.57c.34-.05.69-.07,1.01-.07,1.4,0,2.76.44,3.92,1.28,1.43,1.06,2.36,2.59,2.64,4.33l1.43,9.41c.98,6.53-1.97,13-7.56,16.47-.27.17-.62.2-.91.05-.32-.15-.52-.42-.57-.76l-4.43-29.06c-.07-.49.3-1.01.81-1.08Zm-16.94,39.87c.32,2.14-1.16,4.16-3.3,4.48s-4.16-1.16-4.48-3.3l-5.49-36c.2.15.39.3.57.44l.1.1c1.67,1.45,4.01,1.92,6.11,1.23l.12-.05c.39-.12.84-.2,1.28-.22l5.1,33.32Zm-3.05-33.07c.59.17,1.18.42,1.72.74,1.23.76,2,1.77,2.17,2.88l.71,4.78c.44,2.96,2.73,5.22,5.54,5.79l2.66,17.39c.15,1.03-.1,2.07-.71,2.93-.62.84-1.55,1.4-2.59,1.55-1.03.15-2.07-.1-2.93-.71-.84-.62-1.4-1.55-1.55-2.59l-5.02-32.75Zm-58.88-17.75c1.5-1.35,3.42-2,5.39-1.77.2.03.39.05.59.1l1.6.32c1.65.32,4.19.2,5.79-.32,2.14-.66,4.38-.39,6.13.79l1.97,1.33c.84.54,1.67.71,2.41.47.64-.22,1.13-.71,1.38-1.4l.05-.12c.17-.47.32-.91.54-1.28.89-1.58.59-3.55-.67-4.83l-1.57-1.58c-.39-.39-.62-.94-.62-1.5s.25-1.08.64-1.48c.69-.66,1.82-.74,2.66-.17l1.5,1.01c.84.57,1.87.71,2.83.42.96-.3,1.75-.99,2.14-1.92.52-1.26.22-2.71-.76-3.72l-1.35-1.35c-.49-.49-.62-1.23-.32-1.87.84-1.77.2-3.87-1.45-4.8l-9.14-5.05c-1.13-.62-1.85-1.72-1.94-3-.1-1.28.42-2.49,1.45-3.28,1.01-.79,2.36-.99,3.64-.57l1.45.49c4.87,1.62,9.06,4.9,11.82,9.23l.07.07c.99,1.53,2.81,2.29,4.58,1.92,1.48-.32,2.71-1.45,3.2-2.96l3.25-10.1c.39-1.21,1.28-2.19,2.46-2.71,1.18-.49,2.51-.47,3.67.07,1.23.59,2.12,1.72,2.36,3.1.27,1.43-.12,2.88-1.11,3.97l-11.03,12.19c-.05.05-.07.1-.1.15l-7.86,12.56c-.64,1.03-.79,2.31-.37,3.47.39,1.11,1.25,1.97,2.36,2.37,1.85.61,3.89-.22,4.75-1.95l2.12-4.26c.25-.52.76-.84,1.35-.84h.89c.49,0,.96.22,1.26.62s.37.91.22,1.38c-.32.98-.15,2.04.52,2.83.64.79,1.62,1.21,2.64,1.08.94-.1,1.82-.66,2.34-1.53l7.19-11.5c.96-1.55,2.81-2.29,4.55-1.85,2,.49,3.35,2.34,3.18,4.38-.07,1.01-.49,1.95-1.21,2.66-2.14,2.17-6.08,6.18-6.08,6.18-.32.32-.37.79-.15,1.18.22.39.67.57,1.08.47l2.31-.59c1.92-.47,4.14-.91,6.13-.59,2.46.39,4.31,2.54,4.36,5.1.15,5.98.42,17.04.54,23.81.05,2.71-2.02,5.02-4.75,5.27l-.15.02c-2.64.25-5-1.62-5.39-4.23l-.71-4.78c-.25-1.7-1.35-3.2-3.08-4.26-1.38-.84-2.98-1.28-4.51-1.28-.76,0-1.5.1-2.19.34l-.12.05c-1.45.47-3.05.15-4.21-.84l-.1-.1c-.86-.74-1.8-1.3-2.83-1.72-.05-.02-.1-.05-.15-.07-2.46-.96-5.24-.96-7.71.12l-6.08,1.5c-2.44.62-4.46,2.27-5.52,4.53-.29.62-.84,1.01-1.5,1.11-.66.1-1.3-.12-1.77-.62l-2.19-2.34c-1.75-1.85-4.58-2.09-6.62-.54-.74.57-1.67.74-2.56.52l-.71-.17c-1.48-.37-3.03-.12-4.31.69-1.28.81-2.17,2.12-2.46,3.62l-.47,2.44c-.32,1.62-1.62,2.91-3.28,3.13-1.11.17-2.24-.17-3.1-.89-.86-.74-1.35-1.8-1.38-2.93l-.27-17.9c.05-2.12.91-4.11,2.46-5.52Zm10.47,54.47l5.34-35.12c.54-.17,1.06-.44,1.53-.79,1.21-.94,2.93-.79,3.99.32l2.17,2.31-5.24,34.45c-.15,1.03-.71,1.94-1.55,2.59-.84.62-1.9.89-2.93.71-2.14-.32-3.62-2.34-3.3-4.48Zm-1.94-.3c-.15,1.03-.71,1.95-1.55,2.59-.84.61-1.9.89-2.93.71-2.14-.32-3.62-2.34-3.3-4.48l3.72-24.4c1.6-.81,2.78-2.32,3.15-4.16l.47-2.44c.17-.96.74-1.8,1.58-2.32s1.82-.69,2.78-.44l.71.17c.22.05.47.1.69.12l-5.32,34.65ZM3.76,76.8l1.43-9.41c.47-3.05,2.09-5.74,4.58-7.56,2.49-1.82,5.54-2.59,8.59-2.12l3.67.57c.47.07.93.02,1.35-.12l.05,4.11c-.47-.59-1.11-.96-1.85-1.08l-3.67-.57c-4.7-.71-9.09,2.51-9.8,7.22l-1.43,9.41c-1.11,7.31,2.22,14.55,8.5,18.45.47.29,1.01.44,1.55.44.42,0,.84-.1,1.23-.27.91-.42,1.55-1.26,1.7-2.24l3.87-25.54.05,3.94c.02,1.7.79,3.3,2.07,4.38,1.21,1.03,2.78,1.53,4.36,1.38l-3.57,23.52c-.15,1.03-.71,1.95-1.55,2.59-.84.62-1.89.89-2.93.71-.54-.07-1.03.3-1.13.81-.07.54.3,1.03.81,1.13.3.05.62.07.91.07,1.26,0,2.46-.39,3.5-1.16.32-.25.62-.49.89-.79.17.34.37.69.59,1.01.94,1.28,2.32,2.09,3.87,2.34.29.05.61.07.91.07,1.26,0,2.46-.39,3.5-1.16.32-.25.62-.49.89-.79.81,1.72,2.44,3.05,4.46,3.35.3.05.62.07.91.07,1.26,0,2.46-.39,3.5-1.16.32-.25.61-.49.89-.79.81,1.72,2.44,3.05,4.48,3.35h.15c.47,0,.89-.34.96-.84.07-.54-.3-1.03-.84-1.13-2.14-.32-3.62-2.34-3.3-4.48l5.12-33.64c.54.15,1.13.2,1.7.1,1.3-.2,2.41-1.03,2.96-2.21.81-1.72,2.31-2.96,4.16-3.45l-6.58,43.24c-.25,1.65-.44,3.3-.59,4.97l-37.33-5.66c.32-1.43.59-2.86.79-4.28.27-1.75-.64-3.42-2.27-4.19-8.52-3.97-13.49-13.27-12.09-22.61Zm18.37-12.53l-4.43,29.06c-.05.35-.25.62-.57.76-.29.15-.64.12-.91-.05-5.59-3.47-8.57-9.95-7.58-16.47l1.43-9.41c.54-3.62,3.94-6.11,7.56-5.57l3.67.57c.54.07.91.57.84,1.11Z"/>
  </g>
  <path class="cls-3" d="m27.72,33.91c0,2.17,1.77,3.94,3.94,3.94s3.94-1.77,3.94-3.94-1.77-3.94-3.94-3.94-3.94,1.77-3.94,3.94Zm5.91,0c0,1.08-.89,1.97-1.97,1.97s-1.97-.89-1.97-1.97.89-1.97,1.97-1.97,1.97.89,1.97,1.97Z"/>
  <g class="cls-4">
    <path class="cls-3" d="m96.67,9.28c0-1.62-1.33-2.96-2.96-2.96s-2.95,1.33-2.95,2.96,1.33,2.96,2.95,2.96,2.96-1.33,2.96-2.96Zm-2.96.98c-.54,0-.98-.44-.98-.98s.44-.98.98-.98.99.44.99.98-.44.98-.99.98Z"/>
  </g>
  <path class="cls-3" d="m97.66,28c1.62,0,2.95-1.33,2.95-2.96s-1.33-2.95-2.95-2.95-2.96,1.33-2.96,2.95,1.33,2.96,2.96,2.96Zm0-3.94c.54,0,.98.44.98.98s-.44.99-.98.99-.99-.44-.99-.99.44-.98.99-.98Z"/>
  <path class="cls-3" d="m39.54,13.22c0-1.62-1.33-2.96-2.96-2.96s-2.95,1.33-2.95,2.96,1.33,2.96,2.95,2.96,2.96-1.33,2.96-2.96Zm-3.94,0c0-.54.44-.98.98-.98s.99.44.99.98-.44.99-.99.99-.98-.44-.98-.99Z"/>
  <path class="cls-3" d="m58.26,51.64c1.62,0,2.96-1.33,2.96-2.95s-1.33-2.96-2.96-2.96-2.96,1.33-2.96,2.96,1.33,2.95,2.96,2.95Zm0-3.94c.54,0,.98.44.98.99s-.44.98-.98.98-.98-.44-.98-.98.44-.99.98-.99Z"/>
  <path class="cls-3" d="m64.17,31.94c1.62,0,2.95-1.33,2.95-2.96s-1.33-2.95-2.95-2.95-2.96,1.33-2.96,2.95,1.33,2.96,2.96,2.96Zm0-3.94c.54,0,.98.44.98.98s-.44.99-.98.99-.99-.44-.99-.99.44-.98.99-.98Z"/>
</svg>