<?xml version="1.0" encoding="UTF-8"?>
<svg id="Layer_1" data-name="Layer 1" xmlns="http://www.w3.org/2000/svg" viewBox="0 0 64 49.87">
  <defs>
    <style>
      .cls-1 {
        fill: #6b8b14;
        stroke-width: 0px;
      }
    </style>
  </defs>
  <path class="cls-1" d="m60.47,1.99c-.72.07-2.73.29-4.46.5-1.72.22-3.16.36-3.23.43,0,0-.07,1.51-.07,4.1v4.02h-.14c-1.08-.07-1.29-.07-1.58,0-.65.14-1.22.57-1.51,1.01-.22.29-.22.86-.07,1.29.14.57.86,1.15,1.58,1.29.29.07,1.22.07,1.51,0,.57-.14,1.22-.57,1.51-1.08l.14-.29v-3.81c0-2.08.07-3.81.07-3.88,0,0,2.66-.36,5.17-.65.79-.07,1.51-.14,1.58-.14s.07.29.07,2.66v2.59l-.29-.07c-1.22-.22-2.23,0-2.87.72-.36.36-.43.72-.43,1.22.07.65.43,1.15,1.15,1.51,1.22.57,2.87.14,3.45-.86l.14-.29V1.92h-.22c-.07-.07-.79,0-1.51.07Zm-35.65,1.51c-.14.07-.43.29-.5.5-.14.29-.07.65.22,1.51.14.43.29.79.22.79,0,.07-.36-.14-.86-.5-2.37-1.58-2.52-1.72-2.87-1.72-.14,0-.29.07-.43.14-.22.07-.29.14-.36.36-.22.57-.14.65,1.29,3.09.5.86.93,1.65.93,1.65,0,.07-.43.29-.93.5-1.65.86-2.8,1.65-4.17,3.02-1.44,1.51-2.3,2.66-3.31,4.67-.72,1.51-.86,1.65-1.37,2.08-1.51,1.44-3.74,1.94-5.82,1.37-.65-.22-1.58-.65-2.08-1.08-.93-.72-1.44-1.58-1.94-3.02-.29-.86-.43-1.08-.72-1.08s-.72.65-.93,1.37c-.36,1.37.29,4.82,1.44,7.62.36.86.86,1.94,1.44,3.02,3.52,6.4,8.27,11,13.87,13.37.86.36,2.66,1.01,3.59,1.22l.65.14v.36c0,.22,0,1.15-.14,2.08l-.14,1.72.22.07c.29.07,1.37,0,1.51-.07.07,0,.07-.07.07-.14-.07-.29.22-3.38.29-3.45,0,0,1.94.14,2.37.22h.14v.57c0,.29-.07,1.08-.14,1.65-.07.57-.14,1.15-.14,1.15,0,.07,1.72.14,1.8.14.07-.07.36-2.16.36-2.8v-.72h.93c1.22,0,2.59-.22,3.81-.57l.43-.14.36.29c.79.72,1.87,1.44,2.8,1.94.57.29,1.8.72,2.23.79.14,0,.22.07.29.14,0,.07.14.57.22,1.08.22,1.08.14,1.01.65.93.22-.07.29-.07.29-.14s-.07-.43-.14-.93c-.07-.43-.14-.86-.14-.86h1.15l.14.93c.14.86.14,1.01.22,1.01.14,0,.65-.07.72-.14,0,0-.07-.43-.14-.86-.07-.5-.14-.86-.14-.86h.57c1.44,0,2.8-.57,4.17-1.8.29-.22.65-.65.86-.86,1.15-1.58,1.65-4.24,1.15-6.32l.07-.29.65-.79c.36-.43.65-.86.72-.93.14-.22.14-.57,0-.79-.22-.29-.36-.29-1.65-.36h-1.15l-.5-.5c-.57-.65-1.22-1.08-2.01-1.51-.36-.14-.57-.29-.57-.29,0,0,0-.22.07-.43.14-.57.43-1.94.5-2.8.14-1.15.14-3.38-.07-4.6l-.14-.93.86-.79c2.23-2.01,3.09-2.87,3.23-3.16s.22-.65.07-.86c-.14-.29-1.08-.5-5.46-1.01l-.93-.14-.43-.65c-1.37-1.94-2.16-2.8-3.31-3.88-1.37-1.22-2.8-2.08-4.53-2.8l-.57-.29-1.37-1.58c-1.51-1.8-2.44-2.8-2.73-2.87-.5-.22-.79.29-.93,1.44v.36l-1.37-1.37c-1.01-1.08-1.37-1.37-1.58-1.44-.36-.14-.65-.14-.79-.14Zm11.93,12.36c.36.14.57.43.86.93.29.57.36,1.08.36,1.8-.07,1.08-.5,1.72-1.15,1.58-.29-.07-.65-.43-.86-.79-.57-1.15-.5-3.16.14-3.52.29-.14.36-.14.65,0Zm3.59,14.88c.22.14.57.43.79.57l.36.29v-.5c0-.43,0-.5.07-.43.07,0,.36.29.72.65.65.65.72.65,1.22.79,1.15.36,2.16,1.01,2.95,1.94l.5.5h.5c.29,0,.86.07,1.22.07h.72l-.22.29c-.14.14-.5.57-.72.86l-.5.57.07.36c.5,1.87.29,4.17-.57,5.68-.5.86-1.8,2.01-2.95,2.44-.72.29-.93.36-2.66.29-.86,0-1.72,0-1.94-.07-2.73-.43-5.32-2.16-7.26-4.96-.72-1.08-1.22-2.08-1.51-3.31q0-.14.14.07c.22.29.65.72.93.86,1.15.57,2.52.36,3.38-.5.29-.29.43-.5.72-1.29.43-1.37,1.29-2.52,2.44-3.23.72-.5.72-.57,0-1.44-.29-.36-.5-.65-.5-.65,0,0,.29.14.65.29.72.36,1.01.43,1.08.14s.07-.36-.07-.65c-.14-.22-.14-.29-.07-.22,0,.22.22.36.5.57Zm4.1,3.09c-.29.14-.36.36-.36.79-.07,1.15.72,2.08,1.44,1.65.57-.36.43-1.72-.22-2.3-.29-.22-.65-.29-.86-.14Zm.72.72c.22.22.29.57.29.86-.07.22-.22.36-.36.29-.43-.22-.65-.93-.36-1.22,0-.07.29-.07.43.07Zm9.27-5.61c-.65.07-1.22.14-1.22.14v2.3h-.29c-.5,0-.79.29-.72.65.14.5,1.08.5,1.29.07.07-.07.07-.5.07-1.15,0-1.01,0-1.08.14-1.08.14-.07,1.51-.22,1.65-.22h.14v1.44h-.29c-.29,0-.36,0-.5.14s-.14.14-.14.36c0,.36.14.5.65.5q.36,0,.5-.14l.22-.22v-1.51c0-1.37,0-1.44-.07-1.44-.22,0-.79.07-1.44.14Z"/>
</svg>