<?xml version="1.0" encoding="UTF-8"?>
<svg id="Layer_1" data-name="Layer 1" xmlns="http://www.w3.org/2000/svg" viewBox="0 0 64 64">
  <defs>
    <style>
      .cls-1 {
        fill: #168f5a;
        stroke-width: 0px;
      }
    </style>
  </defs>
  <path class="cls-1" d="m27.88,18.13h1.22c.28,0,.51-.23.51-.51v-2.03c0-.28-.23-.51-.51-.51s-.51.23-.51.51v1.52h-.71c-.28,0-.51.23-.51.51s.23.51.51.51Z"/>
  <path class="cls-1" d="m26.95,19.03c.46.46,1.09.73,1.74.73.28,0,.51-.23.51-.51s-.23-.51-.51-.51c-.38,0-.75-.15-1.02-.43l-.23-.23c-.2-.2-.52-.2-.72,0-.2.2-.2.52,0,.72l.23.23Z"/>
  <path class="cls-1" d="m63.33,20.14l-1.72-3.49c-.11-.23-.37-.34-.61-.26l-1.45.47-.54-1.1c-.13-.25-.43-.35-.68-.23-.25.12-.35.43-.23.67l.48.97-.9.29-.42-.85c-.12-.25-.43-.35-.68-.23-.25.12-.35.43-.23.68h0l.36.72-.9.29-.3-.6c-.12-.25-.42-.36-.68-.24s-.36.42-.24.68c0,0,0,0,0,.01l.23.47-.38.12c-.19.06-.32.22-.35.42l-.19,1.47-5.95,2.93c-.47-.56-1.3-.63-1.86-.16-.16.13-.29.3-.37.5-.6-.09-1.18.23-1.42.79-.6-.09-1.18.23-1.42.79-.72-.11-1.39.38-1.51,1.1-.01.08-.02.16-.02.24l-.24.12-.18-1.15c-.28-1.83-1.85-3.17-3.7-3.17h-8.88v-.6c2.13,0,3.98-1.45,4.5-3.51l.08-.33c.25-.98.37-1.99.37-3,0-3.75-3.04-6.79-6.79-6.79-.56,0-1.11.09-1.64.27l-2.03.68c-.86.28-1.78.28-2.64,0l-.81-.27c-1.37-.46-2.87-.32-4.14.37-.99.54-2.15.66-3.23.33l-4.45-1.36c-.27-.08-.55.07-.63.34-.01.05-.02.1-.02.15v11.97c0,.23.16.44.38.49l3.69.92c1.37.34,2.8.29,4.14-.16l.14-.05c1.31-.43,2.73-.43,4.04,0,1.43.48,2.97.51,4.41.08l.36-.1v.57c-10.37.01-10.5.03-10.55.04-1.34.19-2.47,1.09-2.97,2.35l-2.25,5.74c-.5.16-.99.36-1.47.59-5.32,2.62-7.51,9.05-4.89,14.37,0,0,0,0,0,.01l2.14,4.33c2.62,5.32,9.07,7.51,14.39,4.88,1.49-.74,2.8-1.81,3.8-3.14l3.72-4.9,6.93-2.77c1.29-.52,2.32-1.53,2.86-2.8l1.63,14.3c.03.26.25.45.5.45.02,0,.04,0,.06,0,.28-.03.48-.28.45-.56,0,0,0,0,0,0l-1.07-9.4c1.49,1.44,3.86,1.41,5.3-.08.35-.36.62-.78.8-1.25,0,0,0-.02,0-.02l5.39-16.05.19-.11s.01,0,.01,0c.54-.32.83-.94.72-1.56l5.83-2.87,1.28.74c.17.1.38.09.54-.02l.33-.23.23.47c.12.25.43.35.68.23.25-.12.35-.43.23-.68h0l-.3-.6.78-.53.36.72c.13.25.43.35.68.22.25-.12.35-.42.23-.67l-.42-.85.78-.53.48.97c.12.25.43.35.68.23.25-.12.35-.43.23-.68l-.54-1.1,1.26-.86c.21-.14.28-.42.17-.64Zm-20.77,6.15c.15-.08.33-.03.41.12h0s1.16,2.11,1.16,2.11c.14.24.45.33.69.2.24-.14.33-.44.2-.68l-1.16-2.11c-.08-.15-.03-.33.12-.41.15-.08.33-.03.41.12l1.16,2.12c.13.25.44.34.69.2s.34-.44.2-.69h0l-1.16-2.13c-.08-.15-.03-.33.12-.41.15-.08.33-.03.41.12h0l1.15,2.11c.14.24.44.33.69.2.24-.13.33-.44.2-.68l-1.16-2.12c-.08-.15-.03-.33.12-.41s.33-.03.41.12l1.55,2.79c.13.23.05.52-.17.66l-3.43,1.88c-.53.29-1.19.1-1.48-.42l-1.25-2.25c-.08-.15-.03-.33.12-.41,0,0,0,0,0,0Zm-4.18,10.05l-1.47.23.07-1.21c.02-.28-.19-.52-.47-.54-.28-.02-.52.19-.54.47,0,0,0,0,0,.01l-.1,1.79c-.05-.11-.09-.22-.15-.33l-1.18-2.4,5.42-2.67-1.58,4.66Zm-9.63-.27c-.15-.62-.44-1.21-.84-1.71l13.83-6.81.93,1.67-13.92,6.86Zm1.47,1.99c-.04.07-.11.12-.18.14h0l-3.91,1.04c-.27.07-.44.34-.37.62.07.27.34.44.62.37,0,0,0,0,.01,0l3.91-1.04c.16-.04.33.05.37.22.04.16-.05.33-.22.37h0l-3.83,1.02c-.27.07-.44.34-.37.62.07.27.34.44.62.37,0,0,0,0,.01,0l3.83-1.02c.16-.04.33.05.37.21.04.16-.05.33-.21.37l-3.7.99c-.27.08-.43.36-.35.62.07.26.35.42.61.35l3.7-.99c.16-.04.33.06.37.22,0,.02.01.05.01.08,0,.14-.09.26-.23.29l-20.06,5.34c-2.72.73-5.52-.89-6.24-3.61-.28-1.05-.22-2.16.18-3.17l2.63-6.73,5.05,2.11-1.95,4.99c-.1.26.03.55.29.66.1.04.21.05.32.02l11.53-3.08c.14-.04.26-.14.33-.27l1.32-2.74c.09-.19.31-.26.5-.18.13.06.21.19.21.34,0,.04,0,.08-.02.12l-.49,1.4c-.11.26.02.56.27.66.11.05.23.05.34.02l4.38-1.16c.16-.04.33.05.37.21.02.08.01.16-.03.23h0Zm-4.08-.51l.18-.52c.05-.15.08-.3.08-.46,0-.77-.62-1.39-1.39-1.39-.53,0-1.02.31-1.25.79l-1.21,2.53-1.02.27c-.03-.06-.06-.11-.09-.17-.83-1.68-.14-3.71,1.53-4.54,1.68-.83,3.71-.14,4.54,1.53.23.46.35.97.35,1.49l-1.72.45Zm-12.29,3.28l-.82-1.67.94-2.4,1.76,3.57-1.88.5Zm26.11-15.11l.23,1.46-7.4,3.65-1.18-2.4c-.47-.96-1.23-1.75-2.17-2.27.75-.74,1.22-1.71,1.33-2.75h6.5c1.35,0,2.5.98,2.7,2.31Zm-15.33-2.31c.28,0,.51-.23.51-.51v-5.27c0-.28-.23-.51-.51-.51-.62,0-1.11-.5-1.12-1.11s.5-1.11,1.11-1.12c.4,0,.77.22.97.57.14.24.45.33.69.19,0,0,0,0,.01,0,.73-.43,1.26-1.14,1.47-1.96l.38-1.42h.39c.68,0,1.22.55,1.22,1.22v4.97c0,1.14-.84,2.11-1.96,2.28h0c-.26.04-.52.04-.77-.01-.27-.05-.54.13-.59.4-.05.27.13.54.4.59,0,0,0,0,.01,0,.17.03.35.05.52.05v1.12c0,.28.23.51.51.51h1.87c-.13.92-.62,1.75-1.35,2.32-1.26-.37-2.61-.25-3.79.34-1.02-.53-1.72-1.51-1.88-2.65.66,0,1.3,0,1.9,0Zm-13.08,1.74c.36-.91,1.18-1.56,2.15-1.71.35-.01,4.3-.02,8.01-.03.14,1.3.84,2.47,1.9,3.22l-5.76,3.41h-1.24s.1-.27.1-.27c.1-.26-.03-.55-.29-.66-.26-.1-.55.03-.66.29l-2.54,6.49-5.05-2.11,3.38-8.63Zm25.17,14.77l.13-2.31,1.16-.18-1.18,3.48-.11-.99Zm5.84,4.28c-.55,1.41-2.14,2.1-3.55,1.55-1.41-.55-2.1-2.14-1.55-3.55,0,0,0-.01,0-.02l3.77-11.13,2.05-1.01c.38.32.86.49,1.35.49.35,0,.7-.09,1.01-.26l1.94-1.06-5.03,15Zm18.89-23.47l-.29-.6c-.12-.25-.43-.35-.68-.23-.25.12-.35.43-.23.68l.36.73-.78.53-.42-.85c-.12-.25-.42-.36-.68-.24s-.36.42-.24.68c0,0,0,0,0,.01l.48.98-.78.53-.54-1.1c-.12-.25-.43-.35-.68-.23-.25.12-.35.43-.23.68l.6,1.23-.19.13-1.24-.72c-.15-.08-.33-.09-.48-.02l-6.04,2.98-.93-1.67,6.13-3.02c.15-.07.26-.22.28-.39l.19-1.42.21-.07.6,1.23c.12.25.43.35.68.23.25-.12.35-.43.23-.68h0l-.54-1.1.9-.29.48.98c.12.25.43.35.68.23.25-.12.35-.43.23-.68l-.42-.85.9-.29.36.73c.12.25.43.36.68.23.25-.12.36-.43.23-.68,0,0,0,0,0,0l-.29-.6.9-.29,1.33,2.7-.78.53Z"/>
  <path class="cls-1" d="m38.45,18.85c.84,0,1.52-.68,1.52-1.52,0-.14-.02-.28-.06-.41h0l-1.09-3.9,1.46-.41c.27-.07.44-.34.37-.62-.07-.27-.34-.44-.62-.37,0,0-.02,0-.03,0l-1.95.55c-.27.08-.43.36-.35.62,0,0,0,0,0,0l.84,3.01c-.84-.06-1.56.58-1.62,1.41-.01.17,0,.35.05.51.18.66.78,1.11,1.46,1.11Z"/>
  <path class="cls-1" d="m45.41,14.42c.71.45,1.65.24,2.1-.47h0s1.63-2.57,1.63-2.57l2.57,1.63-.86,1.36c-.52-.66-1.47-.78-2.13-.26-.66.52-.78,1.47-.26,2.13s1.47.78,2.13.26c.12-.09.22-.2.31-.33.04-.06,3.02-4.76,3.02-4.76.15-.24.08-.55-.16-.7l-3.42-2.17c-.24-.15-.55-.08-.7.16h0s-2.22,3.5-2.22,3.5c-.52-.66-1.47-.78-2.13-.26s-.78,1.47-.26,2.13c.11.14.24.25.38.35h0Z"/>
</svg>