<?xml version="1.0" encoding="UTF-8"?>
<svg id="Layer_1" data-name="Layer 1" xmlns="http://www.w3.org/2000/svg" viewBox="0 0 806.99 771.91">
  <defs>
    <style>
      .cls-1 {
        fill: #d1ff17;
        stroke-width: 0px;
      }
    </style>
  </defs>
  <path class="cls-1" d="m651.75,571.3l-96.28-10.4c-4.51-.49-8.52,2.83-8.9,7.34l-7.98,96.51c-.52,6.27-7.7,9.55-12.78,5.84l-78.18-57.15c-3.66-2.67-8.8-1.81-11.38,1.91l-55.17,79.59c-3.58,5.17-11.44,4.42-13.99-1.33l-39.13-88.58c-1.83-4.14-6.71-5.96-10.81-4.03l-87.57,41.34c-5.69,2.69-12.12-1.9-11.45-8.15l10.4-96.28c.48-4.51-2.83-8.52-7.34-8.9l-96.51-7.98c-6.27-.52-9.55-7.7-5.84-12.78l57.15-78.18c2.67-3.66,1.81-8.8-1.92-11.38l-79.59-55.17c-5.17-3.58-4.42-11.44,1.33-13.99l88.58-39.13c4.15-1.83,5.96-6.71,4.03-10.81l-41.34-87.57c-2.69-5.69,1.9-12.12,8.15-11.45l96.28,10.4c4.5.49,8.52-2.83,8.89-7.34l7.98-96.51c.52-6.27,7.7-9.55,12.78-5.84l78.18,57.15c3.66,2.67,8.8,1.81,11.38-1.91l55.17-79.59c3.58-5.17,11.44-4.42,13.98,1.33l39.14,88.58c1.83,4.14,6.71,5.96,10.81,4.03l87.57-41.34c5.69-2.69,12.12,1.9,11.44,8.15l-10.4,96.28c-.49,4.5,2.83,8.52,7.34,8.9l96.51,7.98c6.27.52,9.55,7.7,5.84,12.78l-57.15,78.18c-2.67,3.66-1.81,8.8,1.91,11.38l79.59,55.17c5.17,3.58,4.42,11.44-1.33,13.98l-88.58,39.14c-4.14,1.83-5.96,6.71-4.03,10.81l41.34,87.57c2.69,5.69-1.9,12.12-8.15,11.44Z"/>
</svg>