<?xml version="1.0" encoding="UTF-8"?>
<svg id="Layer_1" data-name="Layer 1" xmlns="http://www.w3.org/2000/svg" viewBox="0 0 807 771.9">
  <defs>
    <style>
      .cls-1 {
        fill: #098979;
        stroke-width: 0px;
      }
    </style>
  </defs>
  <path class="cls-1" d="m651.8,571.3l-96.3-10.4c-4.5-.5-8.5,2.8-8.9,7.3l-8,96.5c-.5,6.3-7.7,9.5-12.8,5.8l-78.2-57.2c-3.7-2.7-8.8-1.8-11.4,1.9l-55.2,79.6c-3.6,5.2-11.4,4.4-14-1.3l-39-88.5c-1.8-4.1-6.7-6-10.8-4l-87.6,41.3c-5.7,2.7-12.1-1.9-11.4-8.2l10.4-96.3c.5-4.5-2.8-8.5-7.3-8.9l-96.5-8c-6.3-.5-9.6-7.7-5.8-12.8l57.2-78.2c2.7-3.7,1.8-8.8-1.9-11.4l-79.6-55.2c-5.2-3.6-4.4-11.4,1.3-14l88.6-39.1c4.1-1.8,6-6.7,4-10.8l-41.5-87.4c-2.7-5.7,1.9-12.1,8.1-11.4l96.3,10.4c4.5.5,8.5-2.8,8.9-7.3l8-96.5c.5-6.3,7.7-9.6,12.8-5.8l78.2,57.2c3.7,2.7,8.8,1.8,11.4-1.9l55.2-79.6c3.6-5.2,11.4-4.4,14,1.3l39.1,88.6c1.8,4.1,6.7,6,10.8,4l87.6-41.3c5.7-2.7,12.1,1.9,11.4,8.1l-10.5,96.2c-.5,4.5,2.8,8.5,7.3,8.9l96.5,8c6.3.5,9.5,7.7,5.8,12.8l-57,78.1c-2.7,3.7-1.8,8.8,1.9,11.4l79.6,55.2c5.2,3.6,4.4,11.4-1.3,14l-88.6,39.1c-4.1,1.8-6,6.7-4,10.8l41.3,87.6c2.7,5.6-1.9,12.1-8.1,11.4h0Z"/>
</svg>