<svg xmlns="http://www.w3.org/2000/svg" xmlns:xlink="http://www.w3.org/1999/xlink" width="1920" zoomAndPan="magnify" viewBox="0 0 1440 809.999993" height="1080" preserveAspectRatio="xMidYMid meet" version="1.0"><defs><clipPath id="312a9d556c"><path d="M 53.523438 0 L 607 0 L 607 522 L 53.523438 522 Z M 53.523438 0 " clip-rule="nonzero"/></clipPath></defs><g clip-path="url(#312a9d556c)"><path fill="#b5dd15" d="M 329.976562 -58.703125 L 339.9375 -27.078125 L 345.347656 6.191406 L 354.878906 38.398438 L 363.78125 70.777344 L 371.84375 102.71875 L 397.78125 82.394531 L 423.910156 61.316406 L 450.203125 40.417969 L 474.761719 17.441406 L 501.308594 -4.28125 L 488.730469 27.621094 L 477.6875 59.355469 L 464.71875 90.332031 L 452.285156 121.519531 L 438.246094 152.863281 L 472.375 148.964844 L 505.9375 147.785156 L 539.519531 146.859375 L 572.945312 143.5 L 606.617188 141.648438 L 578.621094 160.472656 L 550.03125 178.070312 L 520.851562 194.75 L 492.613281 212.917969 L 465.277344 231.527344 L 492.992188 249.523438 L 521.511719 267.230469 L 550.542969 284.144531 L 578.792969 302.285156 L 606.8125 321.464844 L 572.898438 320.027344 L 539.339844 318.773438 L 506.035156 313.585938 L 472.511719 311.699219 L 437.792969 309.859375 L 452.285156 341.507812 L 463.960938 372.988281 L 476.335938 404.195312 L 487.574219 435.855469 L 500.808594 466.675781 L 475.96875 444.125 L 448.097656 425.152344 L 422.230469 403.746094 L 396.597656 382.058594 L 371.832031 360.371094 L 362.199219 391.875 L 355.417969 424.789062 L 348.023438 457.554688 L 338.34375 489.738281 L 329.964844 521.875 L 322.320312 489.558594 L 312.066406 457.53125 L 303.957031 424.957031 L 295.773438 392.398438 L 288.34375 359.640625 L 263.1875 381.898438 L 235.65625 401.285156 L 209.777344 422.679688 L 184.28125 444.539062 L 158.390625 467.6875 L 171.800781 435.675781 L 184.765625 404.707031 L 194.984375 372.644531 L 209.476562 342.277344 L 220.238281 311.273438 L 187.554688 313.734375 L 153.933594 313.953125 L 120.4375 316.253906 L 87.011719 319.6875 L 54.59375 321.027344 L 81.46875 302.847656 L 109.914062 285.03125 L 138.566406 267.535156 L 167.441406 250.375 L 195.898438 231.5625 L 166.613281 214.078125 L 137.789062 196.859375 L 111.070312 176.289062 L 81.105469 160.851562 L 53.523438 141.707031 L 87.070312 142.574219 L 120.425781 147.125 L 154.007812 147.980469 L 187.410156 151.742188 L 220.261719 151.828125 L 208.28125 121.3125 L 197.722656 89.382812 L 184.890625 58.355469 L 170.433594 27.960938 L 159.339844 -3.332031 L 184.425781 18.378906 L 211.253906 38.628906 L 236.800781 60.414062 L 261.898438 82.757812 L 288.125 102.730469 L 295.285156 70.570312 L 303.382812 37.984375 L 314.5 6.179688 L 320.140625 -27.042969 Z M 329.976562 -58.703125 " fill-opacity="1" fill-rule="nonzero"/></g><path fill="#6b8b14" d="M 1418.425781 188.933594 L 1310.746094 161.472656 L 1420.421875 147.242188 C 1432.640625 143.910156 1439.84375 131.300781 1436.511719 119.082031 C 1433.175781 106.863281 1420.570312 99.660156 1408.351562 102.996094 L 1305.09375 144.070312 L 1385.460938 68.09375 C 1393.386719 58.214844 1391.800781 43.78125 1381.921875 35.851562 C 1372.042969 27.925781 1357.609375 29.511719 1349.683594 39.390625 L 1294.085938 127.3125 L 1310.652344 24.609375 C 1311.257812 11.957031 1301.492188 1.210938 1288.839844 0.605469 C 1276.1875 0 1265.441406 9.761719 1264.835938 22.414062 L 1275.027344 133.125 L 1224.570312 33.398438 C 1217.625 22.808594 1203.40625 19.855469 1192.816406 26.800781 C 1182.222656 33.746094 1179.269531 47.960938 1186.214844 58.554688 L 1259.535156 142.132812 L 1160.097656 91.109375 C 1148.25 86.625 1135.011719 92.589844 1130.527344 104.433594 C 1126.042969 116.28125 1132.007812 129.519531 1143.851562 134.003906 L 1252.292969 158.523438 L 1141.855469 175.695312 C 1129.636719 179.027344 1122.433594 191.636719 1125.769531 203.855469 C 1129.101562 216.074219 1141.707031 223.277344 1153.929688 219.945312 L 1256.070312 176.042969 L 1176.820312 254.847656 C 1168.890625 264.726562 1170.476562 279.160156 1180.355469 287.085938 C 1190.234375 295.011719 1204.667969 293.429688 1212.59375 283.550781 L 1273.613281 180.953125 L 1251.628906 298.332031 C 1251.023438 310.980469 1260.785156 321.726562 1273.4375 322.335938 C 1286.089844 322.941406 1296.835938 313.175781 1297.441406 300.523438 L 1290.285156 189.625 L 1337.707031 289.539062 C 1344.65625 300.128906 1358.871094 303.085938 1369.460938 296.136719 C 1380.054688 289.191406 1383.007812 274.976562 1376.0625 264.382812 L 1305.089844 178.875 L 1402.183594 231.828125 C 1414.027344 236.3125 1427.265625 230.347656 1431.75 218.503906 C 1436.234375 206.660156 1430.269531 193.421875 1418.425781 188.933594 Z M 1418.425781 188.933594 " fill-opacity="1" fill-rule="nonzero"/></svg>