<?xml version="1.0" encoding="UTF-8"?>
<svg id="Layer_1" data-name="Layer 1" xmlns="http://www.w3.org/2000/svg" xmlns:xlink="http://www.w3.org/1999/xlink" viewBox="0 0 128 90.53">
  <defs>
    <style>
      .cls-1 {
        clip-path: url(#clippath);
      }

      .cls-2 {
        fill: none;
      }

      .cls-2, .cls-3 {
        stroke-width: 0px;
      }

      .cls-4 {
        clip-path: url(#clippath-1);
      }

      .cls-5 {
        clip-path: url(#clippath-3);
      }

      .cls-6 {
        clip-path: url(#clippath-2);
      }

      .cls-3 {
        fill: #0bafa5;
      }
    </style>
    <clipPath id="clippath">
      <rect class="cls-2" x="40.2" y="9" width="9.21" height="8.98"/>
    </clipPath>
    <clipPath id="clippath-1">
      <rect class="cls-2" x="9.03" y="60.85" width="112.21" height="13.81"/>
    </clipPath>
    <clipPath id="clippath-2">
      <rect class="cls-2" x="107.15" y="67.93" width="14.1" height="2.83"/>
    </clipPath>
    <clipPath id="clippath-3">
      <rect class="cls-2" x="72.79" y="73.25" width="23.02" height="8.28"/>
    </clipPath>
  </defs>
  <g class="cls-1">
    <path class="cls-3" d="m44.75,17.86l-.55-1.17c-.7-1.5-1.21-2-2.71-2.71l-1.17-.55,1.17-.55c1.5-.7,2-1.21,2.71-2.71l.55-1.17.55,1.17c.7,1.5,1.21,2,2.71,2.71l1.17.55-1.17.55c-1.5.7-2,1.21-2.71,2.71l-.55,1.17Zm-1.71-4.43c.75.46,1.25.96,1.71,1.71.46-.74.96-1.25,1.71-1.71-.74-.46-1.25-.96-1.71-1.71-.46.75-.97,1.25-1.71,1.71Z"/>
  </g>
  <path class="cls-3" d="m107.81,38.39l-.55-1.17c-.7-1.5-1.21-2-2.71-2.71l-1.17-.55,1.17-.55c1.5-.7,2-1.21,2.71-2.71l.55-1.17.55,1.17c.7,1.5,1.21,2,2.71,2.71l1.17.55-1.17.55c-1.5.7-2,1.21-2.71,2.71l-.55,1.17Zm-1.71-4.42c.75.46,1.25.96,1.71,1.71.46-.74.96-1.25,1.71-1.71-.75-.46-1.25-.96-1.71-1.71-.46.74-.97,1.25-1.71,1.71Z"/>
  <path class="cls-3" d="m56.36,68.1c-.21,0-.42-.11-.53-.31l-19.35-34.3-16.47,28.54c-.17.29-.54.39-.83.22-.29-.17-.39-.54-.22-.83l17.54-30.38,20.4,36.15c.16.29.06.66-.23.83-.09.05-.19.08-.3.08Z"/>
  <path class="cls-3" d="m51.26,59.05c-.08,0-.17-.02-.25-.06l-13.09-6.06.9-5.6-4.11-3.32,1.18-11.79c.03-.33.33-.58.67-.54.33.03.58.33.54.66l-1.12,11.15,4.15,3.35-.87,5.39,12.26,5.68c.3.14.44.5.3.81-.11.22-.33.35-.56.35Z"/>
  <path class="cls-3" d="m39.48,38.18h-3.53c-.33,0-.61-.27-.61-.61s.27-.61.61-.61h3.53c.33,0,.61.27.61.61s-.27.61-.61.61Z"/>
  <path class="cls-3" d="m41.75,42.38h-5.8c-.33,0-.61-.27-.61-.61s.27-.61.61-.61h5.8c.33,0,.61.27.61.61s-.27.61-.61.61Z"/>
  <path class="cls-3" d="m44.04,46.58h-5.94c-.33,0-.61-.27-.61-.61s.27-.61.61-.61h5.94c.33,0,.61.27.61.61s-.27.61-.61.61Z"/>
  <path class="cls-3" d="m46.53,50.78h-7.5c-.33,0-.61-.27-.61-.61s.27-.61.61-.61h7.5c.33,0,.61.27.61.61s-.27.61-.61.61Z"/>
  <path class="cls-3" d="m48.96,54.98h-6.49c-.33,0-.61-.27-.61-.61s.27-.61.61-.61h6.49c.33,0,.61.27.61.61s-.27.61-.61.61Z"/>
  <path class="cls-3" d="m26.76,59.27c-.09,0-.19-.02-.28-.07-.3-.15-.41-.52-.26-.82l6.61-12.68c.15-.3.52-.41.82-.26.3.16.41.52.26.82l-6.61,12.68c-.11.21-.32.33-.54.33Z"/>
  <path class="cls-3" d="m68.35,69.45c-.11,0-.21-.03-.31-.09-.29-.17-.38-.54-.21-.83l22.29-37.46,18.21,31.54c.17.29.07.66-.22.83-.29.17-.66.07-.83-.22l-17.18-29.75-21.24,35.68c-.11.19-.31.3-.52.3Z"/>
  <path class="cls-3" d="m105.35,59.27c-.09,0-.17-.02-.26-.06l-13.56-6.28.9-5.6-4.11-3.32,1.18-11.79c.03-.33.33-.58.67-.54.33.03.58.33.54.66l-1.12,11.15,4.15,3.35-.87,5.39,12.73,5.89c.3.14.44.5.3.81-.11.22-.33.35-.55.35Z"/>
  <path class="cls-3" d="m93.18,38.18h-3.6c-.33,0-.61-.27-.61-.61s.27-.61.61-.61h3.6c.33,0,.61.27.61.61s-.27.61-.61.61Z"/>
  <path class="cls-3" d="m95.38,42.38h-5.8c-.33,0-.61-.27-.61-.61s.27-.61.61-.61h5.8c.33,0,.61.27.61.61s-.27.61-.61.61Z"/>
  <path class="cls-3" d="m97.67,46.58h-5.94c-.33,0-.61-.27-.61-.61s.27-.61.61-.61h5.94c.33,0,.61.27.61.61s-.27.61-.61.61Z"/>
  <path class="cls-3" d="m100.16,50.78h-7.5c-.33,0-.61-.27-.61-.61s.27-.61.61-.61h7.5c.33,0,.61.27.61.61s-.27.61-.61.61Z"/>
  <path class="cls-3" d="m102.87,54.98h-6.78c-.33,0-.61-.27-.61-.61s.27-.61.61-.61h6.78c.33,0,.61.27.61.61s-.27.61-.61.61Z"/>
  <path class="cls-3" d="m81.8,56.56c-.1,0-.19-.02-.28-.07-.3-.15-.41-.52-.26-.82l5.2-9.98c.15-.3.52-.41.82-.26.3.16.41.52.26.82l-5.2,9.98c-.11.21-.32.33-.54.33Z"/>
  <path class="cls-3" d="m75.86,56.56c-.21,0-.41-.11-.53-.3l-21.74-37.65-12.24,21.19c-.17.29-.54.39-.83.22-.29-.17-.39-.54-.22-.83l13.29-23.01,22.79,39.47c.17.29.07.66-.22.83-.09.05-.2.08-.3.08Z"/>
  <path class="cls-3" d="m68.83,44.39c-.09,0-.17-.02-.25-.06l-13.56-6.28.9-5.6-4.11-3.32,1.18-11.79c.03-.33.33-.58.67-.54.33.03.58.33.54.66l-1.12,11.15,4.15,3.35-.87,5.39,12.73,5.89c.3.14.44.5.3.81-.11.22-.32.35-.55.35Z"/>
  <path class="cls-3" d="m56.66,23.3h-3.6c-.33,0-.61-.27-.61-.61s.27-.61.61-.61h3.6c.33,0,.61.27.61.61s-.27.61-.6.61Z"/>
  <path class="cls-3" d="m58.86,27.51h-5.8c-.33,0-.61-.27-.61-.61s.27-.61.61-.61h5.8c.33,0,.61.27.61.61s-.27.61-.61.61Z"/>
  <path class="cls-3" d="m61.15,31.7h-5.94c-.33,0-.61-.27-.61-.61s.27-.61.61-.61h5.94c.33,0,.61.27.61.61s-.27.61-.61.61Z"/>
  <path class="cls-3" d="m63.64,35.9h-7.5c-.33,0-.61-.27-.61-.61s.27-.61.61-.61h7.5c.33,0,.61.27.61.61s-.27.61-.61.61Z"/>
  <path class="cls-3" d="m66.36,40.1h-6.78c-.33,0-.61-.27-.61-.61s.27-.61.61-.61h6.78c.33,0,.61.27.61.61s-.27.61-.61.61Z"/>
  <path class="cls-3" d="m43.52,45.06c-.09,0-.19-.02-.28-.07-.3-.15-.41-.52-.26-.82l6.96-13.35c.15-.3.52-.41.82-.26s.41.52.26.82l-6.96,13.35c-.11.21-.32.33-.54.33Z"/>
  <g class="cls-4">
    <path class="cls-3" d="m73.15,74.52h-.39c-4.41,0-8.78-.86-12.99-2.54-25.43-10.19-49.69-9.64-49.93-9.63-.33.01-.61-.25-.62-.59s.25-.61.59-.62c.24,0,24.75-.57,50.42,9.72,4.06,1.63,8.28,2.45,12.54,2.45h.39c5.83,0,11.58-1.54,16.63-4.45,6.11-3.52,16.4-7.72,30.77-7.72.33,0,.61.27.61.61s-.27.61-.61.61c-14.1,0-24.18,4.11-30.16,7.56-5.23,3.02-11.19,4.62-17.23,4.62Z"/>
  </g>
  <g class="cls-6">
    <path class="cls-3" d="m107.87,70.62c-.29,0-.54-.2-.59-.49-.06-.33.15-.65.48-.71,4.11-.78,8.41-1.18,12.79-1.18.33,0,.61.27.61.61s-.27.61-.61.61c-4.31,0-8.53.39-12.56,1.16-.04,0-.08,0-.11,0Z"/>
  </g>
  <g class="cls-5">
    <path class="cls-3" d="m73.68,81.62c-.33,0-.6-.26-.61-.6,0-.33.26-.61.6-.62,5.64-.09,11.21-1.63,16.1-4.45,1.64-.94,3.38-1.82,5.18-2.61.31-.13.67,0,.8.31.13.31,0,.67-.31.8-1.76.77-3.46,1.63-5.06,2.55-5.07,2.92-10.84,4.52-16.69,4.61h0Z"/>
  </g>
  <path class="cls-3" d="m62.45,80.01c-.06,0-.12,0-.18-.03-.84-.27-1.69-.57-2.5-.9-7.43-2.98-15.46-5.33-23.86-6.98-.33-.07-.54-.38-.48-.71s.38-.54.71-.48c8.48,1.67,16.58,4.04,24.08,7.04.79.32,1.61.61,2.42.87.32.1.5.44.4.76-.08.26-.33.42-.58.42Z"/>
  <path class="cls-3" d="m25.02,70.39s-.05,0-.07,0c-9.04-1.08-15.05-.93-15.11-.93-.33.01-.61-.25-.62-.59s.25-.61.59-.62c.06,0,6.15-.16,15.29.93.33.04.57.34.53.68-.04.31-.3.54-.6.54Z"/>
  <path class="cls-3" d="m76.05,56.42c-.33,0-.61-.27-.61-.61v-26.11c0-.33.27-.61.61-.61s.61.27.61.61v26.11c0,.33-.27.61-.61.61Z"/>
  <path class="cls-3" d="m71.32,36.78c-.15,0-.31-.06-.43-.18-.24-.24-.24-.62,0-.86l4.72-4.72c.24-.24.62-.24.86,0s.24.62,0,.86l-4.72,4.72c-.12.12-.27.18-.43.18Z"/>
  <path class="cls-3" d="m80.77,36.78c-.16,0-.31-.06-.43-.18l-4.72-4.72c-.24-.24-.24-.62,0-.86.24-.24.62-.24.86,0l4.72,4.72c.24.24.24.62,0,.86-.12.12-.27.18-.43.18Z"/>
  <path class="cls-3" d="m71.32,42.25c-.15,0-.31-.06-.43-.18-.24-.24-.24-.62,0-.86l4.72-4.72c.24-.24.62-.24.86,0,.24.24.24.62,0,.86l-4.72,4.72c-.12.12-.27.18-.43.18Z"/>
  <path class="cls-3" d="m80.77,42.25c-.16,0-.31-.06-.43-.18l-4.72-4.72c-.24-.24-.24-.62,0-.86s.62-.24.86,0l4.72,4.72c.24.24.24.62,0,.86-.12.12-.27.18-.43.18Z"/>
  <path class="cls-3" d="m71.32,47.72c-.15,0-.31-.06-.43-.18-.24-.24-.24-.62,0-.86l4.72-4.72c.24-.24.62-.24.86,0,.24.24.24.62,0,.86l-4.72,4.72c-.12.12-.27.18-.43.18Z"/>
  <path class="cls-3" d="m80.77,47.72c-.16,0-.31-.06-.43-.18l-4.72-4.72c-.24-.24-.24-.62,0-.86s.62-.24.86,0l4.72,4.72c.24.24.24.62,0,.86-.12.12-.27.18-.43.18Z"/>
  <path class="cls-3" d="m113.95,62.33c-.33,0-.61-.27-.61-.61v-20.6c0-.33.27-.61.61-.61s.61.27.61.61v20.6c0,.33-.27.61-.61.61Z"/>
  <path class="cls-3" d="m110.23,46.84c-.15,0-.31-.06-.43-.18-.24-.24-.24-.62,0-.86l3.72-3.73c.24-.24.62-.24.86,0s.24.62,0,.86l-3.72,3.72c-.12.12-.28.18-.43.18Z"/>
  <path class="cls-3" d="m117.67,46.84c-.15,0-.31-.06-.43-.18l-3.73-3.72c-.24-.24-.24-.62,0-.86s.62-.24.86,0l3.72,3.73c.24.24.24.62,0,.86-.12.12-.27.18-.43.18Z"/>
  <path class="cls-3" d="m110.23,51.15c-.15,0-.31-.06-.43-.18-.24-.24-.24-.62,0-.86l3.72-3.72c.24-.24.62-.24.86,0s.24.62,0,.86l-3.72,3.72c-.12.12-.28.18-.43.18Z"/>
  <path class="cls-3" d="m117.67,51.15c-.15,0-.31-.06-.43-.18l-3.73-3.72c-.24-.24-.24-.62,0-.86s.62-.24.86,0l3.72,3.72c.24.24.24.62,0,.86-.12.12-.27.18-.43.18Z"/>
  <path class="cls-3" d="m110.23,55.47c-.15,0-.31-.06-.43-.18-.24-.24-.24-.62,0-.86l3.72-3.72c.24-.24.62-.24.86,0s.24.62,0,.86l-3.72,3.72c-.12.12-.28.18-.43.18Z"/>
  <path class="cls-3" d="m117.67,55.47c-.15,0-.31-.06-.43-.18l-3.73-3.72c-.24-.24-.24-.62,0-.86s.62-.24.86,0l3.72,3.72c.24.24.24.62,0,.86-.12.12-.27.18-.43.18Z"/>
  <path class="cls-3" d="m13.82,62.01c-.33,0-.61-.27-.61-.61v-21.01c0-.33.27-.61.61-.61s.61.27.61.61v21.01c0,.33-.27.61-.61.61Z"/>
  <path class="cls-3" d="m10.03,46.21c-.15,0-.31-.06-.43-.18-.24-.24-.24-.62,0-.86l3.8-3.8c.24-.24.62-.24.86,0s.24.62,0,.86l-3.8,3.8c-.12.12-.27.18-.43.18Z"/>
  <path class="cls-3" d="m17.62,46.21c-.15,0-.31-.06-.43-.18l-3.8-3.8c-.24-.24-.24-.62,0-.86s.62-.24.86,0l3.8,3.8c.24.24.24.62,0,.86-.12.12-.27.18-.43.18Z"/>
  <path class="cls-3" d="m10.03,50.62c-.15,0-.31-.06-.43-.18-.24-.24-.24-.62,0-.86l3.8-3.8c.24-.24.62-.24.86,0s.24.62,0,.86l-3.8,3.8c-.12.12-.27.18-.43.18Z"/>
  <path class="cls-3" d="m17.62,50.62c-.15,0-.31-.06-.43-.18l-3.8-3.8c-.24-.24-.24-.62,0-.86s.62-.24.86,0l3.8,3.8c.24.24.24.62,0,.86-.12.12-.27.18-.43.18Z"/>
  <path class="cls-3" d="m10.03,55.02c-.15,0-.31-.06-.43-.18-.24-.24-.24-.62,0-.86l3.8-3.8c.24-.24.62-.24.86,0s.24.62,0,.86l-3.8,3.8c-.12.12-.27.18-.43.18Z"/>
  <path class="cls-3" d="m17.62,55.02c-.15,0-.31-.06-.43-.18l-3.8-3.8c-.24-.24-.24-.62,0-.86s.62-.24.86,0l3.8,3.8c.24.24.24.62,0,.86-.12.12-.27.18-.43.18Z"/>
  <path class="cls-3" d="m84.26,72.45c-.21,0-.41-.11-.53-.3l-6.88-11.92c-.17-.29-.07-.66.22-.83.29-.17.66-.07.83.22l6.88,11.92c.17.29.07.66-.22.83-.1.05-.2.08-.3.08Z"/>
  <path class="cls-3" d="m69.53,74.12c-.1,0-.21-.03-.3-.08-.29-.17-.39-.54-.22-.83l7.85-13.59c.17-.29.54-.39.83-.22.29.17.39.54.22.83l-7.85,13.59c-.11.2-.32.3-.53.3Z"/>
  <path class="cls-3" d="m77.37,74.12c-.33,0-.61-.27-.61-.61v-13.59c0-.33.27-.61.61-.61s.61.27.61.61v13.59c0,.33-.27.61-.61.61Z"/>
  <path class="cls-3" d="m98.4,65.77c-.21,0-.41-.11-.53-.3l-2.85-4.94h-17.55c-.33,0-.61-.27-.61-.61s.27-.61.61-.61h18.25l3.2,5.54c.17.29.07.66-.22.83-.09.05-.2.08-.3.08Z"/>
  <path class="cls-3" d="m95.86,67.12c-.21,0-.42-.11-.53-.3l-2.42-4.21c-.17-.29-.07-.66.22-.83.29-.17.66-.07.83.22l2.42,4.21c.17.29.07.66-.22.83-.09.06-.2.08-.3.08Z"/>
  <path class="cls-3" d="m85.73,27.66c-4.09,0-7.41-3.32-7.41-7.41,0-3.3,2.21-6.23,5.38-7.13.32-.09.66.1.75.42.09.32-.09.66-.42.75-2.65.75-4.5,3.21-4.5,5.96,0,3.42,2.78,6.2,6.2,6.2,2.12,0,4.06-1.06,5.21-2.84.18-.28.56-.36.84-.18.28.18.36.56.18.84-1.38,2.12-3.71,3.39-6.23,3.39Z"/>
  <path class="cls-3" d="m89.58,24.8c-4.09,0-7.41-3.32-7.41-7.41,0-1.43.41-2.83,1.19-4.02.18-.28.56-.36.84-.18.28.18.36.56.18.84-.65,1-.99,2.16-.99,3.36,0,3.42,2.78,6.2,6.2,6.2.59,0,1.16-.08,1.7-.24.32-.09.66.09.75.41.09.32-.09.66-.42.75-.65.19-1.34.28-2.04.28Z"/>
  <path class="cls-3" d="m67.27,73.78c-.11,0-.23-.03-.33-.1-.28-.19-.36-.56-.17-.84,1.35-2.05.9-4.07.9-4.08v-.02c-.37.52-.84.86-1.34.82-.21-.02-.9-.16-.95-1.3-.1-2.22-.85-3.06-1.65-3.94-.38-.42-.78-.85-1.09-1.43-.6-1.08-.58-2.6-.45-3.72-.73.55-1.83,1.46-3.34,2.89-1.89,1.79-.9,3.8.29,5.71.45.72.69,1.12.53,1.55-.08.21-.24.37-.46.44-.66.21-1.56-.32-2.31-.95,0,.34.04.66.09.97.06.33-.16.64-.49.71s-.64-.16-.71-.49c-.14-.78-.15-1.65-.02-2.58l.17-1.23.87.89c.34.35.72.68,1.07.95-.96-1.6-2.4-4.43.15-6.85,3.24-3.07,4.68-3.83,4.74-3.86l1.2-.62-.33,1.31c-.2.79-.58,3.09.08,4.29.25.45.58.81.93,1.2.86.95,1.83,2.02,1.96,4.64.2-.24.46-.68.58-1.26l.37-1.81.78,1.67s.35.76.54,1.75c.05.24.53,2.59-1.07,5.02-.11.18-.31.28-.51.28Z"/>
  <path class="cls-3" d="m60.04,71.86c1.8-2.86,2.41-5.14,2.41-5.14,0,0,.3,4.47,1.39,5.62"/>
  <path class="cls-3" d="m40.72,28.08c.78,0,.78-1.21,0-1.21s-.78,1.21,0,1.21Z"/>
  <path class="cls-3" d="m22.66,38.88c.78,0,.78-1.21,0-1.21s-.78,1.21,0,1.21Z"/>
  <path class="cls-3" d="m26,25.53c.78,0,.78-1.21,0-1.21s-.78,1.21,0,1.21Z"/>
  <path class="cls-3" d="m66.83,28.28c.78,0,.78-1.21,0-1.21s-.78,1.21,0,1.21Z"/>
  <path class="cls-3" d="m65.65,22.19c.78,0,.78-1.21,0-1.21s-.78,1.21,0,1.21Z"/>
  <path class="cls-3" d="m97.46,30.83c.78,0,.78-1.21,0-1.21s-.78,1.21,0,1.21Z"/>
  <path class="cls-3" d="m103.15,43.2c.78,0,.78-1.21,0-1.21s-.78,1.21,0,1.21Z"/>
  <path class="cls-3" d="m115.52,32.79c.78,0,.78-1.21,0-1.21s-.78,1.21,0,1.21Z"/>
  <path class="cls-3" d="m96.48,20.03c.78,0,.78-1.21,0-1.21s-.78,1.21,0,1.21Z"/>
  <path class="cls-3" d="m7.34,42.22c.78,0,.78-1.21,0-1.21s-.78,1.21,0,1.21Z"/>
  <path class="cls-3" d="m62.45,54.98c.78,0,.78-1.21,0-1.21s-.78,1.21,0,1.21Z"/>
  <path class="cls-3" d="m65.36,51.26c.78,0,.78-1.21,0-1.21s-.78,1.21,0,1.21Z"/>
  <path class="cls-3" d="m62.72,47.19c.47,0,.47-.73,0-.73s-.47.73,0,.73Z"/>
</svg>