<?xml version="1.0" encoding="UTF-8"?>
<svg id="Layer_1" data-name="Layer 1" xmlns="http://www.w3.org/2000/svg" xmlns:xlink="http://www.w3.org/1999/xlink" viewBox="0 0 128 95.09">
  <defs>
    <style>
      .cls-1 {
        clip-path: url(#clippath);
      }

      .cls-2 {
        fill: none;
      }

      .cls-2, .cls-3 {
        stroke-width: 0px;
      }

      .cls-3 {
        fill: #0bafa5;
      }
    </style>
    <clipPath id="clippath">
      <rect class="cls-2" x="11.38" y="8.48" width="105.25" height="78.12"/>
    </clipPath>
  </defs>
  <g class="cls-1">
    <path class="cls-3" d="m116.56,63.18s0,0,0,0h0v-8.02c0-1.93-.79-3.67-2.06-4.94-.98-.98-2.24-1.67-3.64-1.93l-4.27-14.33c.79-.23,1.31-1.01,1.19-1.85-.38-2.74-1.74-5.17-3.71-6.94l-.1-.1c-2-1.75-4.62-2.81-7.47-2.81h-18.03v-12.1c0-.93-.76-1.69-1.69-1.69H13.15c-.93,0-1.69.76-1.69,1.69v69.95c0,.93.76,1.69,1.69,1.69h8.93c.41.68.9,1.3,1.46,1.85,1.79,1.79,4.26,2.9,6.99,2.9s5.2-1.11,6.99-2.9c.45-.45.85-.94,1.21-1.46.36.53.76,1.02,1.21,1.46,1.79,1.79,4.26,2.9,6.99,2.9s5.2-1.11,6.99-2.9c.56-.56,1.05-1.18,1.46-1.85h33.68c.41.68.9,1.3,1.46,1.85,1.79,1.79,4.26,2.9,6.99,2.9s5.2-1.11,6.99-2.9c.56-.56,1.04-1.18,1.46-1.85h8.93c.93,0,1.69-.76,1.69-1.69v-6.89h0v-10.05h0Zm-10.62,8.37c-.3-.49-.64-.95-1.02-1.38v-5.3h8.26v6.68h-7.24Zm-2.85-37.52l4.21,14.14h-20.08v-14.13h15.87Zm-6.6-8.38c2,0,3.85.75,5.26,1.98l.09.07c.9.81,1.62,1.82,2.09,2.96h-18.4c-.93,0-1.69.76-1.69,1.69v17.51c0,.93.76,1.69,1.69,1.69h24.03c1,0,1.9.4,2.55,1.06h0c.65.66,1.06,1.57,1.06,2.56v6.33h-9.95c-.93,0-1.69.76-1.69,1.69v4.49c-.82-.37-1.69-.63-2.61-.77,0,0-.01,0-.02,0-.2-.03-.41-.05-.62-.07-.05,0-.1,0-.15-.01-.22-.01-.44-.02-.66-.02s-.44.01-.65.02c-.05,0-.1,0-.15.01-.21.02-.41.04-.61.07,0,0-.01,0-.02,0-.23.03-.46.08-.69.13-1.88.41-3.55,1.35-4.86,2.66-.56.56-1.05,1.18-1.46,1.85h-10.58V25.65h18.03Zm-75.94-4.47c0,.78-.32,1.5-.84,2.01l-.07.07c-.51.47-1.19.76-1.95.76s-1.5-.32-2.01-.83h0c-.51-.52-.83-1.23-.83-2.02v-2.28h5.71v2.29Zm-5.71,5.53c.86.45,1.83.7,2.86.7,1.66,0,3.17-.66,4.29-1.73l.11-.1c.05-.05.1-.1.14-.15.04.05.09.1.14.14h0c1.13,1.14,2.69,1.84,4.4,1.84s3.17-.66,4.29-1.73l.11-.1c.05-.05.1-.1.14-.15.04.05.09.1.14.14h0c1.13,1.14,2.69,1.84,4.4,1.84s3.17-.66,4.29-1.73l.11-.1c.05-.05.1-.1.14-.15.05.05.09.1.14.14h0c1.13,1.14,2.69,1.84,4.4,1.84s3.17-.66,4.29-1.73l.11-.1c.05-.05.1-.1.14-.15.04.05.09.1.14.14h0c1.13,1.14,2.69,1.84,4.4,1.84s3.17-.66,4.29-1.73l.11-.1c.05-.05.1-.1.14-.15.04.05.09.1.14.14h0c1.13,1.14,2.69,1.84,4.4,1.84s3.17-.66,4.29-1.73l.11-.1s.1-.1.14-.15c.05.05.09.1.14.14h0c1.13,1.14,2.69,1.84,4.4,1.84,1.03,0,2-.25,2.86-.7v21.46h-2.26v-8.99c0-.93-.76-1.69-1.69-1.69h-1.34v-.85c0-.93-.76-1.69-1.69-1.69s-1.69.76-1.69,1.69v.85h-1.34c-.93,0-1.69.76-1.69,1.69v8.99h-1.66v-8.99c0-.93-.76-1.69-1.69-1.69h-1.34v-.85c0-.93-.76-1.69-1.69-1.69s-1.69.76-1.69,1.69v.85h-1.34c-.93,0-1.69.76-1.69,1.69v8.99h-12.09v-6.69c0-.93-.76-1.69-1.69-1.69h-18.72c-.93,0-1.69.76-1.69,1.69v6.69h-3.29v-21.47Zm9.09-7.82h5.71v2.29c0,.78-.32,1.5-.84,2.01l-.07.07c-.51.47-1.19.76-1.95.76s-1.5-.32-2.02-.83h0c-.52-.52-.83-1.23-.83-2.02v-2.29h0Zm14.8,2.29c0,.78-.32,1.5-.84,2.01l-.07.07c-.51.47-1.19.76-1.95.76s-1.5-.32-2.01-.83h0c-.51-.52-.83-1.23-.83-2.02v-2.28h5.71v2.29Zm3.38-2.29h5.71v2.29c0,.78-.32,1.5-.84,2.01l-.07.07c-.51.47-1.19.76-1.95.76s-1.5-.32-2.02-.83h0c-.52-.52-.83-1.23-.83-2.02v-2.29h0Zm14.8,2.29c0,.78-.32,1.5-.84,2.01l-.07.07c-.51.47-1.19.76-1.95.76s-1.5-.32-2.01-.83h0c-.51-.52-.83-1.23-.83-2.02v-2.28h5.71v2.29Zm3.38-2.29h5.71v2.29c0,.78-.32,1.5-.84,2.01l-.07.07c-.51.47-1.19.76-1.95.76s-1.5-.32-2.02-.83h0c-.51-.52-.83-1.23-.83-2.02v-2.29ZM14.84,51.54h60.25v3.38H14.84v-3.38Zm22.01-3.38h-15.34v-5h15.34v5Zm18.83-7.29h2.67v7.3h-2.67v-7.3Zm11.09,0h2.67v7.3h-2.67v-7.3Zm8.31-19.69c0,.78-.32,1.5-.84,2.01l-.07.07c-.51.47-1.19.76-1.95.76s-1.5-.32-2.02-.83h0c-.51-.52-.83-1.23-.83-2.02v-2.29h5.71v2.29h0Zm-19.7,50.37c-.78-1.38-1.85-2.55-3.12-3.41-1.55-1.06-3.38-1.67-5.35-1.67s-3.81.61-5.36,1.67c-1.12.77-2.09,1.77-2.84,2.95-.75-1.18-1.72-2.18-2.84-2.95-1.55-1.06-3.38-1.67-5.36-1.67s-3.81.61-5.35,1.67c-1.27.87-2.34,2.03-3.12,3.41h-7.21v-13.24h60.25v13.24h-19.7Zm19.7-59.69v3.65H14.84v-3.65h60.25ZM20.8,78.44h-5.96v-3.51h5.96s0,.04-.01.06c-.02.11-.03.21-.05.32,0,.06-.02.11-.02.17-.01.09-.02.18-.03.28,0,.08-.01.17-.02.25,0,.07-.01.14-.01.21,0,.16-.01.32-.01.47s0,.32.01.47c0,.07.01.14.01.21,0,.08.01.16.02.25,0,.09.02.18.03.27,0,.06.01.12.02.17.02.1.03.21.05.32,0,.02,0,.04.01.07Zm9.73,4.75c-1.8,0-3.42-.73-4.6-1.91-.96-.96-1.62-2.21-1.83-3.61,0,0,0-.01,0-.02-.02-.1-.03-.2-.04-.3,0-.04,0-.08-.01-.12,0-.07-.01-.14-.02-.21,0-.12-.01-.23-.01-.35s0-.23.01-.35c0-.07.01-.14.02-.21,0-.04,0-.08.01-.12.01-.1.02-.2.04-.3,0,0,0-.01,0-.02.22-1.4.88-2.65,1.83-3.61,1.18-1.18,2.8-1.91,4.6-1.91s3.42.73,4.6,1.91c.96.96,1.62,2.21,1.83,3.61,0,0,0,.01,0,.02.02.1.03.2.04.3,0,.04,0,.08.01.12,0,.07.01.14.02.21,0,.12.01.23.01.35s0,.23-.01.34c0,.07-.01.14-.02.22,0,.04,0,.08-.01.11-.01.1-.02.2-.04.3,0,0,0,.01,0,.02-.22,1.4-.88,2.65-1.83,3.61-1.17,1.17-2.8,1.9-4.6,1.9Zm16.39,0c-1.8,0-3.42-.73-4.6-1.91-.96-.96-1.62-2.21-1.83-3.61,0,0,0,0,0-.01-.02-.1-.03-.2-.04-.31,0-.03,0-.07,0-.1,0-.07-.01-.15-.02-.22,0-.11-.01-.23-.01-.34s0-.23.01-.34c0-.08.01-.15.02-.23,0-.03,0-.07,0-.1.01-.1.02-.2.04-.31,0,0,0,0,0-.01.22-1.4.88-2.65,1.83-3.61,1.18-1.18,2.8-1.91,4.6-1.91s3.42.73,4.6,1.91c.95.95,1.62,2.21,1.83,3.6,0,.01,0,.02,0,.03.01.1.03.19.04.29,0,.04,0,.09.01.13,0,.07.01.13.02.2,0,.12.01.23.01.35s0,.23-.01.35c0,.07-.01.14-.02.2,0,.04,0,.08-.01.13-.01.1-.02.2-.04.29,0,0,0,.02,0,.02-.21,1.4-.87,2.65-1.83,3.6-1.18,1.17-2.81,1.9-4.6,1.9Zm40.84-4.75h-31.12s0-.04.01-.06c.02-.11.03-.21.05-.32,0-.06.02-.11.02-.17.01-.09.02-.18.03-.28,0-.08.01-.16.02-.25,0-.07.01-.14.01-.21,0-.16.01-.32.01-.47s0-.32-.01-.47c0-.07-.01-.14-.01-.21,0-.08-.01-.16-.02-.25,0-.09-.02-.18-.03-.28,0-.06-.01-.11-.02-.17-.02-.1-.03-.21-.05-.32,0-.02,0-.04-.01-.06h31.12s0,.04-.01.06c-.02.1-.03.21-.05.32,0,.06-.02.12-.02.17-.01.09-.02.18-.03.27,0,.08-.01.16-.02.25,0,.07-.01.14-.01.21,0,.16-.01.32-.01.47s0,.32.01.47c0,.07.01.14.01.21,0,.08.01.16.02.25,0,.09.02.18.03.27,0,.06.01.11.02.17.02.1.03.21.05.32,0,.02,0,.04,0,.06Zm9.73,4.75c-1.8,0-3.42-.73-4.6-1.91-.96-.96-1.62-2.21-1.83-3.61,0,0,0,0,0-.01-.02-.1-.03-.2-.04-.31,0-.03,0-.07,0-.1,0-.07-.01-.15-.02-.22,0-.11-.01-.23-.01-.34s0-.23.01-.34c0-.08.01-.15.02-.23,0-.03,0-.07,0-.1.01-.1.02-.2.04-.31,0,0,0,0,0-.01.21-1.4.87-2.65,1.83-3.61.8-.8,1.81-1.39,2.93-1.69.03,0,.06-.02.09-.02.08-.02.16-.04.25-.06.11-.02.23-.05.34-.06.04,0,.09-.01.14-.02.1-.01.2-.02.3-.03.04,0,.09,0,.13-.01.14,0,.28-.02.43-.02s.28,0,.43.02c.04,0,.08,0,.13.01.1,0,.2.02.3.03.04,0,.09.01.13.02.11.02.23.04.34.06.08.02.16.04.24.06.03,0,.07.02.1.03,1.12.3,2.13.89,2.93,1.69.96.96,1.62,2.21,1.83,3.61,0,0,0,.01,0,.02.02.1.03.2.04.3,0,.04,0,.08.01.12,0,.07.01.14.02.21,0,.11.01.23.01.35s0,.23-.01.35c0,.07-.01.14-.02.21,0,.04,0,.08-.01.12-.01.1-.02.2-.04.3,0,0,0,.01,0,.02-.22,1.4-.88,2.65-1.83,3.61-1.18,1.17-2.8,1.9-4.6,1.9Zm9.73-4.75s0-.04.01-.06c.02-.11.03-.21.05-.32,0-.06.02-.11.02-.17.01-.09.02-.18.03-.28,0-.08.01-.16.02-.25,0-.07.01-.14.01-.21,0-.16.01-.32.01-.47s0-.32-.01-.47c0-.07-.01-.14-.01-.21,0-.08-.01-.16-.02-.25,0-.09-.02-.18-.03-.28,0-.06-.01-.11-.02-.17-.02-.1-.03-.21-.05-.32,0-.02,0-.04-.01-.06h5.96v3.51h-5.96Z"/>
  </g>
</svg>