<?xml version="1.0" encoding="UTF-8"?>
<svg id="Layer_1" data-name="Layer 1" xmlns="http://www.w3.org/2000/svg" xmlns:xlink="http://www.w3.org/1999/xlink" viewBox="0 0 128 107.07">
  <defs>
    <style>
      .cls-1 {
        clip-path: url(#clippath);
      }

      .cls-2 {
        fill: none;
      }

      .cls-2, .cls-3, .cls-4 {
        stroke-width: 0px;
      }

      .cls-3 {
        fill: #0bafa5;
      }

      .cls-4 {
        fill: #fdfdfd;
      }
    </style>
    <clipPath id="clippath">
      <rect class="cls-2" x="16.47" y="68.76" width="13.25" height="33.01"/>
    </clipPath>
  </defs>
  <path class="cls-3" d="m41.25,39.58c-1.42,2.01-2.76,4.09-4.31,5.99-1,1.18-2.14,2.21-3.43,3.07-1.81,1.23-3.52.37-3.57-1.83-.08-3.43,0-6.87.13-10.31.07-1.73.14-1.6-1.59-1.9-2.86-.47-5.68-1.09-8.47-1.88-1.81-.54-3.64-1.57-3.76-3.8-.11-2.17,1.69-3.18,3.32-3.87,3.15-1.34,6.4-2.46,9.66-3.49,1.04-.33,1.36-.74,1.48-1.75.43-3.67.95-7.33,1.45-10.99.08-.57.22-1.12.43-1.66.78-2.14,2.81-2.52,4.14-.67,1.72,2.38,3.27,4.9,4.91,7.35.46.7,1.07,1.32,1.43,2.06.66,1.34,1.54,1.34,2.8.87,3.26-1.21,6.57-2.29,9.86-3.42.25-.08.5-.16.76-.24.97-.3,1.96-.47,2.69.41.77.93.64,2.05.01,2.97-1.38,2.04-2.79,4.07-4.32,6-1.31,1.66-2.76,3.21-4.22,4.73-.69.72-.74,1.21-.08,1.99,2.51,3.02,4.14,6.53,5.68,10.1.23.53.38,1.08.44,1.65.12,1.37-.67,2.34-2.02,2.13-1.82-.28-3.6-.76-5.32-1.42-2.11-.84-4.13-1.96-6.18-2.96-1.11-.92-1.58-.71-1.9.88Z"/>
  <path class="cls-3" d="m16.64,70.58c-.7,1.11-1.39,2.22-2.11,3.32-.3.44-.55.95-.96,1.24-.42.32-.88.45-1.4.38-.27-.07-.5-.75-.54-1.18-.14-1.53-.22-3.07-.28-4.61-.05-1.13-.43-1.71-1.71-1.79-1.76-.14-3.49-.41-5.21-.81-.53-.11-1.25-.56-1.38-1-.13-.44.3-1.21.7-1.51,1.68-1.28,3.44-2.45,5.29-3.49,1.19-.64,1.36-1.4,1.21-2.55-.2-1.52-.33-3.06-.42-4.59-.05-.93-.05-1.96,1.01-2.37,1.06-.41,1.72.35,2.31,1.1,1.09,1.37,2.18,2.75,3.34,4.22,1.25-.67,2.52-1.35,3.8-2.02.43-.22.87-.54,1.32-.59.67-.06,1.62-.16,1.96.21.38.42.48,1.44.25,2.02-.8,1.96-1.69,3.87-2.68,5.73-.4.76-.5,1.3.06,2.01,1.19,1.53,2.34,3.09,3.41,4.71.3.47.3,1.17.43,1.76-.57.03-1.17.2-1.72.08-1.51-.32-2.98-.77-4.48-1.13-.25,0-.48.03-.72.11l-1.09-.91c-.12.55-.25,1.11-.38,1.68Z"/>
  <path class="cls-3" d="m41.25,39.58c.33-1.58.8-1.81,1.9-.88.3,2.65.49,5.32.91,7.96,1.44,9.53,2.94,19.05,4.42,28.57,1.09,7,2.18,14.01,3.27,21.01.11.68.3,1.49-.6,1.56-.37.03-1.09-.72-1.18-1.21-.75-4.11-1.43-8.24-2.05-12.37-1.31-8.7-2.57-17.41-3.86-26.12-.92-6.18-1.85-12.36-2.79-18.53Z"/>
  <path class="cls-3" d="m67.38,77.16c-.6.47-1.07.97-1.64,1.26-.42.21-1.1.33-1.43.12-.28-.17-.21-.88-.3-1.36,0-.04.02-.08.04-.13.65-2.29.64-2.27-1.38-3.67-.37-.26-.79-.84-.73-1.21s.7-.6,1.09-.88c.04-.03.08-.04.13-.03,2.47.43,3.15-1.07,3.35-3.1.01-.31.1-.61.25-.88.36-.48.74-.94,1.14-1.38.33.51.81.97.94,1.53.23,1.12.4,2.26.52,3.4,1,0,1.93-.06,2.84.03.41.04,1.05.32,1.13.6.05.25.04.49-.03.74-.06.24-.17.46-.33.66-.65.66-1.37,1.23-2.16,1.72-.71.47-.94.95-.73,1.85.17.72.23,1.96-.17,2.24-1,.69-1.44-.53-2.03-1.1-.14-.12-.27-.23-.49-.42Z"/>
  <g class="cls-1">
    <path class="cls-3" d="m16.64,70.58c.13-.56.26-1.13.38-1.69l1.09.91c3.77,10.04,7.55,20.08,11.32,30.12.17.32.25.65.26,1.01-.04.33-.26.82-.51.91-.18.02-.36,0-.54-.07-.17-.07-.32-.17-.44-.32-.38-.69-.7-1.41-.95-2.17-2.91-8.02-5.82-16.04-8.72-24.06-.57-1.57-1.27-3.09-1.91-4.63Z"/>
  </g>
  <path class="cls-3" d="m7.66,30.24c.65-.36,1.08-.71,1.57-.84.42-.12,1.11-.18,1.32.06.28.3.22.93.26,1.43,0,.15-.13.32-.23.47-.82,1.18-1.32,2.34-.11,3.62.12.2.18.42.19.65,0,.23-.04.45-.15.66-.21.28-.83.33-1.28.35-.35-.05-.68-.15-.99-.3-.48.6-.87,1.27-1.41,1.74-.79.68-1.55.38-1.68-.66-.05-.74-.06-1.49-.02-2.23-.46-.15-.79-.24-1.11-.37-1.12-.46-1.36-1.49-.35-2.08,1.08-.63,1.14-1.36.88-2.39-.17-.64-.25-1.29-.21-1.96.03-.45.34-.91.53-1.33.49.25,1.13.39,1.45.78.53.69.87,1.52,1.35,2.41Z"/>
  <path class="cls-3" d="m71.67,8.71c1.78-.06,2.14.52,1.54,2.14-.13.44-.13.89,0,1.33.11.46.49.86.58,1.32.09.51.18,1.26-.09,1.51-.28.25-1,.09-1.53.04-.17-.03-.33-.1-.46-.21l-2.2,1.23-.85-2.28c-.2,0-.38-.05-.55-.15-.41-.27-1-.6-1.06-.98s.3-1.13.66-1.26c1.54-.56,1.59-1.81,1.63-3.08,0-.22-.05-.49.06-.65.23-.37.49-.85.85-.97.22-.08.72.37.94.69.22.42.38.86.5,1.32Z"/>
  <path class="cls-3" d="m94.49,31.14c-1.6,1.49-3.11,3.09-4.83,4.45-3.08,2.43-6.66,2.97-10.5,2.51-7.3-.87-12.43-4.59-15.28-11.38-.36-.86-.57-1.75-.65-2.67-.11-1.42.83-2.04,2.13-1.45.96.43,1.88.97,2.79,1.51,2.69,1.55,4.87,1.3,7.06-.87.59-.6,1.13-1.23,1.65-1.89,4.19-5.25,9.3-5.19,14.23-.94,1.69,1.45,2.9,3.46,4.37,5.26.41-.47,1.06-1.23,1.72-1.98,2.8-3.16,9.05-4.96,12.8-1.75,1.42,1.21,2.41,2.96,3.53,4.53.66.93,1.04,2.05,1.72,2.95,1.42,1.88,3.5,2.21,5.5.96.78-.49,1.48-1.12,2.27-1.59,1.07-.65,1.96-.1,1.94,1.12-.07,4.5-5.91,12-10.31,12.95-4.86,1.05-9.26-.09-12.72-3.74-2.05-2.16-3.73-4.66-5.58-7.01-.04-.56-.09-1.13-.13-1.69l-1.43.2-.33.58v-.05Zm12.53,6.29c.3-.19.82-.35.91-.65.09-.29-.3-.85-.58-.95-1.15-.4-2.21-.96-3.19-1.68-.98-.72-1.83-1.57-2.55-2.55-.18-.24-.66-.25-1-.37-.13.37-.39.76-.35,1.12.08.41.28.74.6.99,1.57,1.25,3.17,2.46,4.79,3.65.31.25.82.27,1.38.43Zm-25.88-1.98c1.02-.02,2.01-.2,2.97-.55.96-.35,1.83-.85,2.63-1.49.37-.3.43-.98.63-1.49-.54.05-1.21-.08-1.61.18-1.59,1.01-3.22,1.81-5.16,1.67-.63-.05-1.51-.41-1.59.55-.1,1.02.86,1.03,1.6,1.12.17.01.35.01.53,0Zm2.91-15.15c-1,.39-1.98.83-2.94,1.34-.23.13-.14.82-.19,1.26.39.05.79.04,1.18-.02.54-.15,1.05-.65,1.55-.62,1.07.07,2.11.44,3.2.57.48.06,1-.18,1.51-.3-.3-.43-.51-1.07-.91-1.24-1.01-.41-2.09-.62-3.4-.98Zm19.49,5.07c.07-.11.14-.23.21-.34.5.12.99.27,1.47.46.79.36,1.54.85,2.34,1.18.3.12.71-.03,1.07-.06-.04-.39.06-.98-.16-1.16-1.43-1.12-2.97-2.09-4.88-1.93-.4.03-.75.66-1.12,1.02.36.28.71.55,1.07.83Z"/>
  <path class="cls-3" d="m94.81,30.59l1.43-.2c.04.56.09,1.13.13,1.69-.6,3.38-1.16,6.76-1.81,10.13-1.79,9.2-3.62,18.4-5.43,27.6-1.75,8.85-3.48,17.71-5.25,26.55-.17.83-.08,2.22-1.41,1.95-1.26-.26-.6-1.44-.45-2.23,2.96-14.81,5.97-29.61,8.9-44.43,1.27-6.43,2.39-12.9,3.56-19.35.04-.39.05-.78.02-1.17v.03l.3-.57Z"/>
  <path class="cls-3" d="m107.02,37.43c-.57-.16-1.07-.18-1.39-.42-1.62-1.18-3.22-2.4-4.79-3.65-.33-.25-.53-.58-.6-.99-.04-.36.22-.75.35-1.12.34.12.82.13,1,.37.72.98,1.57,1.83,2.54,2.55.98.72,2.04,1.28,3.19,1.68.3.1.66.7.58.95-.07.25-.6.45-.89.64Z"/>
  <path class="cls-3" d="m81.15,35.45c-.18.01-.35.01-.53,0-.74-.09-1.7-.1-1.6-1.12.09-.96.96-.6,1.59-.55,1.95.14,3.57-.66,5.16-1.67.41-.26,1.07-.13,1.61-.18-.2.51-.26,1.21-.63,1.49-.79.64-1.67,1.14-2.63,1.49-.96.35-1.95.53-2.97.55Z"/>
  <path class="cls-3" d="m84.06,20.3c1.31.36,2.39.57,3.39.99.4.17.6.81.91,1.24-.5.11-1.02.35-1.51.3-1.07-.13-2.11-.5-3.2-.57-.5-.03-1.01.47-1.55.63-.39.06-.79.07-1.18.02.05-.43-.04-1.13.19-1.26.96-.51,1.94-.95,2.95-1.35Z"/>
  <path class="cls-3" d="m103.54,25.37c-.36-.28-.71-.55-1.07-.83.37-.36.72-.98,1.12-1.02,1.91-.16,3.45.82,4.88,1.93.22.18.12.76.16,1.16-.36.03-.77.18-1.07.06-.8-.33-1.55-.82-2.34-1.18-.48-.19-.97-.34-1.47-.46-.07.11-.14.23-.21.34Z"/>
  <path class="cls-4" d="m94.81,30.59l-.33.58.33-.58Z"/>
</svg>