<?xml version="1.0" encoding="UTF-8"?>
<svg id="Layer_1" data-name="Layer 1" xmlns="http://www.w3.org/2000/svg" xmlns:xlink="http://www.w3.org/1999/xlink" viewBox="0 0 128 117.55">
  <defs>
    <style>
      .cls-1 {
        clip-path: url(#clippath);
      }

      .cls-2 {
        fill: none;
      }

      .cls-2, .cls-3, .cls-4 {
        stroke-width: 0px;
      }

      .cls-5 {
        clip-path: url(#clippath-1);
      }

      .cls-6 {
        clip-path: url(#clippath-4);
      }

      .cls-7 {
        clip-path: url(#clippath-3);
      }

      .cls-8 {
        clip-path: url(#clippath-2);
      }

      .cls-9 {
        clip-path: url(#clippath-7);
      }

      .cls-10 {
        clip-path: url(#clippath-8);
      }

      .cls-11 {
        clip-path: url(#clippath-6);
      }

      .cls-12 {
        clip-path: url(#clippath-5);
      }

      .cls-13 {
        clip-path: url(#clippath-9);
      }

      .cls-14 {
        clip-path: url(#clippath-60);
      }

      .cls-15 {
        clip-path: url(#clippath-69);
      }

      .cls-16 {
        clip-path: url(#clippath-20);
      }

      .cls-17 {
        clip-path: url(#clippath-21);
      }

      .cls-18 {
        clip-path: url(#clippath-24);
      }

      .cls-19 {
        clip-path: url(#clippath-23);
      }

      .cls-20 {
        clip-path: url(#clippath-22);
      }

      .cls-21 {
        clip-path: url(#clippath-25);
      }

      .cls-22 {
        clip-path: url(#clippath-44);
      }

      .cls-23 {
        clip-path: url(#clippath-45);
      }

      .cls-24 {
        clip-path: url(#clippath-40);
      }

      .cls-25 {
        clip-path: url(#clippath-42);
      }

      .cls-26 {
        clip-path: url(#clippath-41);
      }

      .cls-27 {
        clip-path: url(#clippath-47);
      }

      .cls-28 {
        clip-path: url(#clippath-43);
      }

      .cls-29 {
        clip-path: url(#clippath-46);
      }

      .cls-30 {
        clip-path: url(#clippath-48);
      }

      .cls-31 {
        clip-path: url(#clippath-49);
      }

      .cls-32 {
        clip-path: url(#clippath-84);
      }

      .cls-33 {
        clip-path: url(#clippath-88);
      }

      .cls-34 {
        clip-path: url(#clippath-86);
      }

      .cls-35 {
        clip-path: url(#clippath-81);
      }

      .cls-36 {
        clip-path: url(#clippath-83);
      }

      .cls-37 {
        clip-path: url(#clippath-85);
      }

      .cls-38 {
        clip-path: url(#clippath-80);
      }

      .cls-39 {
        clip-path: url(#clippath-87);
      }

      .cls-40 {
        clip-path: url(#clippath-82);
      }

      .cls-41 {
        clip-path: url(#clippath-98);
      }

      .cls-42 {
        clip-path: url(#clippath-89);
      }

      .cls-43 {
        clip-path: url(#clippath-27);
      }

      .cls-44 {
        clip-path: url(#clippath-28);
      }

      .cls-45 {
        clip-path: url(#clippath-26);
      }

      .cls-46 {
        clip-path: url(#clippath-29);
      }

      .cls-47 {
        clip-path: url(#clippath-34);
      }

      .cls-48 {
        clip-path: url(#clippath-35);
      }

      .cls-49 {
        clip-path: url(#clippath-36);
      }

      .cls-50 {
        clip-path: url(#clippath-37);
      }

      .cls-51 {
        clip-path: url(#clippath-39);
      }

      .cls-52 {
        clip-path: url(#clippath-33);
      }

      .cls-53 {
        clip-path: url(#clippath-32);
      }

      .cls-54 {
        clip-path: url(#clippath-30);
      }

      .cls-55 {
        clip-path: url(#clippath-38);
      }

      .cls-56 {
        clip-path: url(#clippath-31);
      }

      .cls-57 {
        clip-path: url(#clippath-95);
      }

      .cls-58 {
        clip-path: url(#clippath-99);
      }

      .cls-59 {
        clip-path: url(#clippath-93);
      }

      .cls-60 {
        clip-path: url(#clippath-94);
      }

      .cls-61 {
        clip-path: url(#clippath-91);
      }

      .cls-62 {
        clip-path: url(#clippath-96);
      }

      .cls-63 {
        clip-path: url(#clippath-90);
      }

      .cls-64 {
        clip-path: url(#clippath-92);
      }

      .cls-65 {
        clip-path: url(#clippath-97);
      }

      .cls-66 {
        clip-path: url(#clippath-53);
      }

      .cls-67 {
        clip-path: url(#clippath-54);
      }

      .cls-68 {
        clip-path: url(#clippath-50);
      }

      .cls-69 {
        clip-path: url(#clippath-51);
      }

      .cls-70 {
        clip-path: url(#clippath-52);
      }

      .cls-71 {
        clip-path: url(#clippath-55);
      }

      .cls-72 {
        clip-path: url(#clippath-56);
      }

      .cls-73 {
        clip-path: url(#clippath-57);
      }

      .cls-74 {
        clip-path: url(#clippath-58);
      }

      .cls-75 {
        clip-path: url(#clippath-79);
      }

      .cls-76 {
        clip-path: url(#clippath-61);
      }

      .cls-77 {
        clip-path: url(#clippath-64);
      }

      .cls-78 {
        clip-path: url(#clippath-62);
      }

      .cls-79 {
        clip-path: url(#clippath-68);
      }

      .cls-80 {
        clip-path: url(#clippath-67);
      }

      .cls-81 {
        clip-path: url(#clippath-73);
      }

      .cls-82 {
        clip-path: url(#clippath-59);
      }

      .cls-83 {
        clip-path: url(#clippath-65);
      }

      .cls-84 {
        clip-path: url(#clippath-63);
      }

      .cls-85 {
        clip-path: url(#clippath-66);
      }

      .cls-86 {
        clip-path: url(#clippath-70);
      }

      .cls-87 {
        clip-path: url(#clippath-75);
      }

      .cls-88 {
        clip-path: url(#clippath-72);
      }

      .cls-89 {
        clip-path: url(#clippath-78);
      }

      .cls-90 {
        clip-path: url(#clippath-71);
      }

      .cls-91 {
        clip-path: url(#clippath-77);
      }

      .cls-92 {
        clip-path: url(#clippath-74);
      }

      .cls-93 {
        clip-path: url(#clippath-76);
      }

      .cls-94 {
        clip-path: url(#clippath-14);
      }

      .cls-95 {
        clip-path: url(#clippath-13);
      }

      .cls-96 {
        clip-path: url(#clippath-12);
      }

      .cls-97 {
        clip-path: url(#clippath-10);
      }

      .cls-98 {
        clip-path: url(#clippath-15);
      }

      .cls-99 {
        clip-path: url(#clippath-17);
      }

      .cls-100 {
        clip-path: url(#clippath-16);
      }

      .cls-101 {
        clip-path: url(#clippath-19);
      }

      .cls-102 {
        clip-path: url(#clippath-11);
      }

      .cls-103 {
        clip-path: url(#clippath-18);
      }

      .cls-3 {
        fill: #0bafa5;
      }

      .cls-4 {
        fill: #fff;
      }

      .cls-104 {
        clip-path: url(#clippath-144);
      }

      .cls-105 {
        clip-path: url(#clippath-153);
      }

      .cls-106 {
        clip-path: url(#clippath-146);
      }

      .cls-107 {
        clip-path: url(#clippath-142);
      }

      .cls-108 {
        clip-path: url(#clippath-148);
      }

      .cls-109 {
        clip-path: url(#clippath-141);
      }

      .cls-110 {
        clip-path: url(#clippath-145);
      }

      .cls-111 {
        clip-path: url(#clippath-143);
      }

      .cls-112 {
        clip-path: url(#clippath-147);
      }

      .cls-113 {
        clip-path: url(#clippath-149);
      }

      .cls-114 {
        clip-path: url(#clippath-140);
      }

      .cls-115 {
        clip-path: url(#clippath-151);
      }

      .cls-116 {
        clip-path: url(#clippath-152);
      }

      .cls-117 {
        clip-path: url(#clippath-150);
      }

      .cls-118 {
        clip-path: url(#clippath-113);
      }

      .cls-119 {
        clip-path: url(#clippath-112);
      }

      .cls-120 {
        clip-path: url(#clippath-111);
      }

      .cls-121 {
        clip-path: url(#clippath-110);
      }

      .cls-122 {
        clip-path: url(#clippath-115);
      }

      .cls-123 {
        clip-path: url(#clippath-114);
      }

      .cls-124 {
        clip-path: url(#clippath-116);
      }

      .cls-125 {
        clip-path: url(#clippath-117);
      }

      .cls-126 {
        clip-path: url(#clippath-118);
      }

      .cls-127 {
        clip-path: url(#clippath-119);
      }

      .cls-128 {
        clip-path: url(#clippath-105);
      }

      .cls-129 {
        clip-path: url(#clippath-100);
      }

      .cls-130 {
        clip-path: url(#clippath-102);
      }

      .cls-131 {
        clip-path: url(#clippath-103);
      }

      .cls-132 {
        clip-path: url(#clippath-107);
      }

      .cls-133 {
        clip-path: url(#clippath-109);
      }

      .cls-134 {
        clip-path: url(#clippath-104);
      }

      .cls-135 {
        clip-path: url(#clippath-101);
      }

      .cls-136 {
        clip-path: url(#clippath-108);
      }

      .cls-137 {
        clip-path: url(#clippath-106);
      }

      .cls-138 {
        clip-path: url(#clippath-136);
      }

      .cls-139 {
        clip-path: url(#clippath-138);
      }

      .cls-140 {
        clip-path: url(#clippath-135);
      }

      .cls-141 {
        clip-path: url(#clippath-132);
      }

      .cls-142 {
        clip-path: url(#clippath-137);
      }

      .cls-143 {
        clip-path: url(#clippath-130);
      }

      .cls-144 {
        clip-path: url(#clippath-133);
      }

      .cls-145 {
        clip-path: url(#clippath-134);
      }

      .cls-146 {
        clip-path: url(#clippath-139);
      }

      .cls-147 {
        clip-path: url(#clippath-131);
      }

      .cls-148 {
        clip-path: url(#clippath-129);
      }

      .cls-149 {
        clip-path: url(#clippath-122);
      }

      .cls-150 {
        clip-path: url(#clippath-126);
      }

      .cls-151 {
        clip-path: url(#clippath-125);
      }

      .cls-152 {
        clip-path: url(#clippath-120);
      }

      .cls-153 {
        clip-path: url(#clippath-121);
      }

      .cls-154 {
        clip-path: url(#clippath-123);
      }

      .cls-155 {
        clip-path: url(#clippath-124);
      }

      .cls-156 {
        clip-path: url(#clippath-127);
      }

      .cls-157 {
        clip-path: url(#clippath-128);
      }
    </style>
    <clipPath id="clippath">
      <rect class="cls-2" x="50.54" y="72.57" width="35.34" height="33.56"/>
    </clipPath>
    <clipPath id="clippath-1">
      <rect class="cls-2" x="9.71" y="11.43" width="31.91" height="31.98"/>
    </clipPath>
    <clipPath id="clippath-2">
      <rect class="cls-2" x="10.39" y="14.44" width="4.45" height="28.28"/>
    </clipPath>
    <clipPath id="clippath-3">
      <path class="cls-2" d="m32.88,13.95c7.38,4.01,10.11,13.25,6.1,20.63-4.01,7.38-13.25,10.11-20.63,6.1-7.38-4.01-10.11-13.25-6.1-20.63,4.01-7.38,13.25-10.11,20.63-6.1Z"/>
    </clipPath>
    <clipPath id="clippath-4">
      <rect class="cls-2" x="10.39" y="14.24" width="4.45" height="28.48"/>
    </clipPath>
    <clipPath id="clippath-5">
      <path class="cls-2" d="m32.88,13.95c7.38,4.01,10.11,13.25,6.1,20.63-4.01,7.38-13.25,10.11-20.63,6.1-7.38-4.01-10.11-13.25-6.1-20.63,4.01-7.38,13.25-10.11,20.63-6.1Z"/>
    </clipPath>
    <clipPath id="clippath-6">
      <rect class="cls-2" x="10.39" y="13.9" width="6.18" height="28.82"/>
    </clipPath>
    <clipPath id="clippath-7">
      <path class="cls-2" d="m32.88,13.95c7.38,4.01,10.11,13.25,6.1,20.63-4.01,7.38-13.25,10.11-20.63,6.1-7.38-4.01-10.11-13.25-6.1-20.63,4.01-7.38,13.25-10.11,20.63-6.1Z"/>
    </clipPath>
    <clipPath id="clippath-8">
      <rect class="cls-2" x="10.39" y="13.55" width="6.52" height="29.16"/>
    </clipPath>
    <clipPath id="clippath-9">
      <path class="cls-2" d="m32.88,13.95c7.38,4.01,10.11,13.25,6.1,20.63-4.01,7.38-13.25,10.11-20.63,6.1-7.38-4.01-10.11-13.25-6.1-20.63,4.01-7.38,13.25-10.11,20.63-6.1Z"/>
    </clipPath>
    <clipPath id="clippath-10">
      <rect class="cls-2" x="10.39" y="13.25" width="8.03" height="29.47"/>
    </clipPath>
    <clipPath id="clippath-11">
      <path class="cls-2" d="m32.88,13.95c7.38,4.01,10.11,13.25,6.1,20.63-4.01,7.38-13.25,10.11-20.63,6.1-7.38-4.01-10.11-13.25-6.1-20.63,4.01-7.38,13.25-10.11,20.63-6.1Z"/>
    </clipPath>
    <clipPath id="clippath-12">
      <rect class="cls-2" x="10.39" y="12.95" width="8.33" height="29.77"/>
    </clipPath>
    <clipPath id="clippath-13">
      <path class="cls-2" d="m32.88,13.95c7.38,4.01,10.11,13.25,6.1,20.63-4.01,7.38-13.25,10.11-20.63,6.1-7.38-4.01-10.11-13.25-6.1-20.63,4.01-7.38,13.25-10.11,20.63-6.1Z"/>
    </clipPath>
    <clipPath id="clippath-14">
      <rect class="cls-2" x="10.39" y="12.65" width="9.95" height="30.07"/>
    </clipPath>
    <clipPath id="clippath-15">
      <path class="cls-2" d="m32.88,13.95c7.38,4.01,10.11,13.25,6.1,20.63-4.01,7.38-13.25,10.11-20.63,6.1-7.38-4.01-10.11-13.25-6.1-20.63,4.01-7.38,13.25-10.11,20.63-6.1Z"/>
    </clipPath>
    <clipPath id="clippath-16">
      <rect class="cls-2" x="10.39" y="12.52" width="10.29" height="30.19"/>
    </clipPath>
    <clipPath id="clippath-17">
      <path class="cls-2" d="m32.88,13.95c7.38,4.01,10.11,13.25,6.1,20.63-4.01,7.38-13.25,10.11-20.63,6.1-7.38-4.01-10.11-13.25-6.1-20.63,4.01-7.38,13.25-10.11,20.63-6.1Z"/>
    </clipPath>
    <clipPath id="clippath-18">
      <rect class="cls-2" x="11.77" y="12.18" width="10.54" height="30.54"/>
    </clipPath>
    <clipPath id="clippath-19">
      <path class="cls-2" d="m32.88,13.95c7.38,4.01,10.11,13.25,6.1,20.63-4.01,7.38-13.25,10.11-20.63,6.1-7.38-4.01-10.11-13.25-6.1-20.63,4.01-7.38,13.25-10.11,20.63-6.1Z"/>
    </clipPath>
    <clipPath id="clippath-20">
      <rect class="cls-2" x="11.56" y="12.05" width="11.04" height="30.67"/>
    </clipPath>
    <clipPath id="clippath-21">
      <path class="cls-2" d="m32.88,13.95c7.38,4.01,10.11,13.25,6.1,20.63-4.01,7.38-13.25,10.11-20.63,6.1-7.38-4.01-10.11-13.25-6.1-20.63,4.01-7.38,13.25-10.11,20.63-6.1Z"/>
    </clipPath>
    <clipPath id="clippath-22">
      <rect class="cls-2" x="13.65" y="12.05" width="10.74" height="30.67"/>
    </clipPath>
    <clipPath id="clippath-23">
      <path class="cls-2" d="m32.88,13.95c7.38,4.01,10.11,13.25,6.1,20.63-4.01,7.38-13.25,10.11-20.63,6.1-7.38-4.01-10.11-13.25-6.1-20.63,4.01-7.38,13.25-10.11,20.63-6.1Z"/>
    </clipPath>
    <clipPath id="clippath-24">
      <rect class="cls-2" x="13.48" y="12.05" width="10.91" height="30.67"/>
    </clipPath>
    <clipPath id="clippath-25">
      <path class="cls-2" d="m32.88,13.95c7.38,4.01,10.11,13.25,6.1,20.63-4.01,7.38-13.25,10.11-20.63,6.1-7.38-4.01-10.11-13.25-6.1-20.63,4.01-7.38,13.25-10.11,20.63-6.1Z"/>
    </clipPath>
    <clipPath id="clippath-26">
      <rect class="cls-2" x="15.54" y="12.05" width="10.64" height="30.67"/>
    </clipPath>
    <clipPath id="clippath-27">
      <path class="cls-2" d="m32.88,13.95c7.38,4.01,10.11,13.25,6.1,20.63-4.01,7.38-13.25,10.11-20.63,6.1-7.38-4.01-10.11-13.25-6.1-20.63,4.01-7.38,13.25-10.11,20.63-6.1Z"/>
    </clipPath>
    <clipPath id="clippath-28">
      <rect class="cls-2" x="15.2" y="12.05" width="11.28" height="30.67"/>
    </clipPath>
    <clipPath id="clippath-29">
      <path class="cls-2" d="m32.88,13.95c7.38,4.01,10.11,13.25,6.1,20.63-4.01,7.38-13.25,10.11-20.63,6.1-7.38-4.01-10.11-13.25-6.1-20.63,4.01-7.38,13.25-10.11,20.63-6.1Z"/>
    </clipPath>
    <clipPath id="clippath-30">
      <rect class="cls-2" x="17.53" y="12.05" width="10.44" height="30.67"/>
    </clipPath>
    <clipPath id="clippath-31">
      <path class="cls-2" d="m32.88,13.95c7.38,4.01,10.11,13.25,6.1,20.63-4.01,7.38-13.25,10.11-20.63,6.1-7.38-4.01-10.11-13.25-6.1-20.63,4.01-7.38,13.25-10.11,20.63-6.1Z"/>
    </clipPath>
    <clipPath id="clippath-32">
      <rect class="cls-2" x="17.26" y="12.05" width="10.98" height="30.67"/>
    </clipPath>
    <clipPath id="clippath-33">
      <path class="cls-2" d="m32.88,13.95c7.38,4.01,10.11,13.25,6.1,20.63-4.01,7.38-13.25,10.11-20.63,6.1-7.38-4.01-10.11-13.25-6.1-20.63,4.01-7.38,13.25-10.11,20.63-6.1Z"/>
    </clipPath>
    <clipPath id="clippath-34">
      <rect class="cls-2" x="19.32" y="12.05" width="10.63" height="30.67"/>
    </clipPath>
    <clipPath id="clippath-35">
      <path class="cls-2" d="m32.88,13.95c7.38,4.01,10.11,13.25,6.1,20.63-4.01,7.38-13.25,10.11-20.63,6.1-7.38-4.01-10.11-13.25-6.1-20.63,4.01-7.38,13.25-10.11,20.63-6.1Z"/>
    </clipPath>
    <clipPath id="clippath-36">
      <rect class="cls-2" x="19.02" y="12.05" width="11.27" height="30.67"/>
    </clipPath>
    <clipPath id="clippath-37">
      <path class="cls-2" d="m32.88,13.95c7.38,4.01,10.11,13.25,6.1,20.63-4.01,7.38-13.25,10.11-20.63,6.1-7.38-4.01-10.11-13.25-6.1-20.63,4.01-7.38,13.25-10.11,20.63-6.1Z"/>
    </clipPath>
    <clipPath id="clippath-38">
      <rect class="cls-2" x="21.37" y="12.05" width="10.48" height="30.67"/>
    </clipPath>
    <clipPath id="clippath-39">
      <path class="cls-2" d="m32.88,13.95c7.38,4.01,10.11,13.25,6.1,20.63-4.01,7.38-13.25,10.11-20.63,6.1-7.38-4.01-10.11-13.25-6.1-20.63,4.01-7.38,13.25-10.11,20.63-6.1Z"/>
    </clipPath>
    <clipPath id="clippath-40">
      <rect class="cls-2" x="21.11" y="12.05" width="10.9" height="30.67"/>
    </clipPath>
    <clipPath id="clippath-41">
      <path class="cls-2" d="m32.88,13.95c7.38,4.01,10.11,13.25,6.1,20.63-4.01,7.38-13.25,10.11-20.63,6.1-7.38-4.01-10.11-13.25-6.1-20.63,4.01-7.38,13.25-10.11,20.63-6.1Z"/>
    </clipPath>
    <clipPath id="clippath-42">
      <rect class="cls-2" x="23.2" y="12.05" width="10.53" height="30.67"/>
    </clipPath>
    <clipPath id="clippath-43">
      <path class="cls-2" d="m32.88,13.95c7.38,4.01,10.11,13.25,6.1,20.63-4.01,7.38-13.25,10.11-20.63,6.1-7.38-4.01-10.11-13.25-6.1-20.63,4.01-7.38,13.25-10.11,20.63-6.1Z"/>
    </clipPath>
    <clipPath id="clippath-44">
      <rect class="cls-2" x="22.9" y="12.05" width="11.04" height="30.67"/>
    </clipPath>
    <clipPath id="clippath-45">
      <path class="cls-2" d="m32.88,13.95c7.38,4.01,10.11,13.25,6.1,20.63-4.01,7.38-13.25,10.11-20.63,6.1-7.38-4.01-10.11-13.25-6.1-20.63,4.01-7.38,13.25-10.11,20.63-6.1Z"/>
    </clipPath>
    <clipPath id="clippath-46">
      <rect class="cls-2" x="25.15" y="12.05" width="10.58" height="30.67"/>
    </clipPath>
    <clipPath id="clippath-47">
      <path class="cls-2" d="m32.88,13.95c7.38,4.01,10.11,13.25,6.1,20.63-4.01,7.38-13.25,10.11-20.63,6.1-7.38-4.01-10.11-13.25-6.1-20.63,4.01-7.38,13.25-10.11,20.63-6.1Z"/>
    </clipPath>
    <clipPath id="clippath-48">
      <rect class="cls-2" x="24.8" y="12.05" width="11.22" height="30.67"/>
    </clipPath>
    <clipPath id="clippath-49">
      <path class="cls-2" d="m32.88,13.95c7.38,4.01,10.11,13.25,6.1,20.63-4.01,7.38-13.25,10.11-20.63,6.1-7.38-4.01-10.11-13.25-6.1-20.63,4.01-7.38,13.25-10.11,20.63-6.1Z"/>
    </clipPath>
    <clipPath id="clippath-50">
      <rect class="cls-2" x="27.08" y="12.05" width="10.44" height="30.67"/>
    </clipPath>
    <clipPath id="clippath-51">
      <path class="cls-2" d="m32.88,13.95c7.38,4.01,10.11,13.25,6.1,20.63-4.01,7.38-13.25,10.11-20.63,6.1-7.38-4.01-10.11-13.25-6.1-20.63,4.01-7.38,13.25-10.11,20.63-6.1Z"/>
    </clipPath>
    <clipPath id="clippath-52">
      <rect class="cls-2" x="26.86" y="12.05" width="10.95" height="30.67"/>
    </clipPath>
    <clipPath id="clippath-53">
      <path class="cls-2" d="m32.88,13.95c7.38,4.01,10.11,13.25,6.1,20.63-4.01,7.38-13.25,10.11-20.63,6.1-7.38-4.01-10.11-13.25-6.1-20.63,4.01-7.38,13.25-10.11,20.63-6.1Z"/>
    </clipPath>
    <clipPath id="clippath-54">
      <rect class="cls-2" x="28.92" y="12.05" width="10.64" height="30.32"/>
    </clipPath>
    <clipPath id="clippath-55">
      <path class="cls-2" d="m32.88,13.95c7.38,4.01,10.11,13.25,6.1,20.63-4.01,7.38-13.25,10.11-20.63,6.1-7.38-4.01-10.11-13.25-6.1-20.63,4.01-7.38,13.25-10.11,20.63-6.1Z"/>
    </clipPath>
    <clipPath id="clippath-56">
      <rect class="cls-2" x="28.58" y="12.05" width="11.32" height="30.67"/>
    </clipPath>
    <clipPath id="clippath-57">
      <path class="cls-2" d="m32.88,13.95c7.38,4.01,10.11,13.25,6.1,20.63-4.01,7.38-13.25,10.11-20.63,6.1-7.38-4.01-10.11-13.25-6.1-20.63,4.01-7.38,13.25-10.11,20.63-6.1Z"/>
    </clipPath>
    <clipPath id="clippath-58">
      <rect class="cls-2" x="30.66" y="12.05" width="10.27" height="29.83"/>
    </clipPath>
    <clipPath id="clippath-59">
      <path class="cls-2" d="m32.88,13.95c7.38,4.01,10.11,13.25,6.1,20.63-4.01,7.38-13.25,10.11-20.63,6.1-7.38-4.01-10.11-13.25-6.1-20.63,4.01-7.38,13.25-10.11,20.63-6.1Z"/>
    </clipPath>
    <clipPath id="clippath-60">
      <rect class="cls-2" x="30.66" y="12.05" width="10.27" height="29.98"/>
    </clipPath>
    <clipPath id="clippath-61">
      <path class="cls-2" d="m32.88,13.95c7.38,4.01,10.11,13.25,6.1,20.63-4.01,7.38-13.25,10.11-20.63,6.1-7.38-4.01-10.11-13.25-6.1-20.63,4.01-7.38,13.25-10.11,20.63-6.1Z"/>
    </clipPath>
    <clipPath id="clippath-62">
      <rect class="cls-2" x="32.75" y="12.05" width="8.19" height="29.24"/>
    </clipPath>
    <clipPath id="clippath-63">
      <path class="cls-2" d="m32.88,13.95c7.38,4.01,10.11,13.25,6.1,20.63-4.01,7.38-13.25,10.11-20.63,6.1-7.38-4.01-10.11-13.25-6.1-20.63,4.01-7.38,13.25-10.11,20.63-6.1Z"/>
    </clipPath>
    <clipPath id="clippath-64">
      <rect class="cls-2" x="32.45" y="12.05" width="8.48" height="29.54"/>
    </clipPath>
    <clipPath id="clippath-65">
      <path class="cls-2" d="m32.88,13.95c7.38,4.01,10.11,13.25,6.1,20.63-4.01,7.38-13.25,10.11-20.63,6.1-7.38-4.01-10.11-13.25-6.1-20.63,4.01-7.38,13.25-10.11,20.63-6.1Z"/>
    </clipPath>
    <clipPath id="clippath-66">
      <rect class="cls-2" x="34.53" y="12.05" width="6.4" height="28.64"/>
    </clipPath>
    <clipPath id="clippath-67">
      <path class="cls-2" d="m32.88,13.95c7.38,4.01,10.11,13.25,6.1,20.63-4.01,7.38-13.25,10.11-20.63,6.1-7.38-4.01-10.11-13.25-6.1-20.63,4.01-7.38,13.25-10.11,20.63-6.1Z"/>
    </clipPath>
    <clipPath id="clippath-68">
      <rect class="cls-2" x="34.41" y="12.05" width="6.52" height="28.94"/>
    </clipPath>
    <clipPath id="clippath-69">
      <path class="cls-2" d="m32.88,13.95c7.38,4.01,10.11,13.25,6.1,20.63-4.01,7.38-13.25,10.11-20.63,6.1-7.38-4.01-10.11-13.25-6.1-20.63,4.01-7.38,13.25-10.11,20.63-6.1Z"/>
    </clipPath>
    <clipPath id="clippath-70">
      <rect class="cls-2" x="36.62" y="12.05" width="4.31" height="28.26"/>
    </clipPath>
    <clipPath id="clippath-71">
      <path class="cls-2" d="m32.88,13.95c7.38,4.01,10.11,13.25,6.1,20.63-4.01,7.38-13.25,10.11-20.63,6.1-7.38-4.01-10.11-13.25-6.1-20.63,4.01-7.38,13.25-10.11,20.63-6.1Z"/>
    </clipPath>
    <clipPath id="clippath-72">
      <rect class="cls-2" x="36.33" y="12.05" width="4.61" height="28.34"/>
    </clipPath>
    <clipPath id="clippath-73">
      <path class="cls-2" d="m32.88,13.95c7.38,4.01,10.11,13.25,6.1,20.63-4.01,7.38-13.25,10.11-20.63,6.1-7.38-4.01-10.11-13.25-6.1-20.63,4.01-7.38,13.25-10.11,20.63-6.1Z"/>
    </clipPath>
    <clipPath id="clippath-74">
      <rect class="cls-2" x="10.39" y="12.05" width="26.83" height="3.22"/>
    </clipPath>
    <clipPath id="clippath-75">
      <path class="cls-2" d="m32.88,13.95c7.38,4.01,10.11,13.25,6.1,20.63-4.01,7.38-13.25,10.11-20.63,6.1-7.38-4.01-10.11-13.25-6.1-20.63,4.01-7.38,13.25-10.11,20.63-6.1Z"/>
    </clipPath>
    <clipPath id="clippath-76">
      <rect class="cls-2" x="10.39" y="12.05" width="27.11" height="3.28"/>
    </clipPath>
    <clipPath id="clippath-77">
      <path class="cls-2" d="m32.88,13.95c7.38,4.01,10.11,13.25,6.1,20.63-4.01,7.38-13.25,10.11-20.63,6.1-7.38-4.01-10.11-13.25-6.1-20.63,4.01-7.38,13.25-10.11,20.63-6.1Z"/>
    </clipPath>
    <clipPath id="clippath-78">
      <rect class="cls-2" x="10.39" y="12.05" width="27.42" height="4.93"/>
    </clipPath>
    <clipPath id="clippath-79">
      <path class="cls-2" d="m32.88,13.95c7.38,4.01,10.11,13.25,6.1,20.63-4.01,7.38-13.25,10.11-20.63,6.1-7.38-4.01-10.11-13.25-6.1-20.63,4.01-7.38,13.25-10.11,20.63-6.1Z"/>
    </clipPath>
    <clipPath id="clippath-80">
      <rect class="cls-2" x="10.39" y="12.05" width="27.72" height="5.07"/>
    </clipPath>
    <clipPath id="clippath-81">
      <path class="cls-2" d="m32.88,13.95c7.38,4.01,10.11,13.25,6.1,20.63-4.01,7.38-13.25,10.11-20.63,6.1-7.38-4.01-10.11-13.25-6.1-20.63,4.01-7.38,13.25-10.11,20.63-6.1Z"/>
    </clipPath>
    <clipPath id="clippath-82">
      <rect class="cls-2" x="10.39" y="12.05" width="28.02" height="6.65"/>
    </clipPath>
    <clipPath id="clippath-83">
      <path class="cls-2" d="m32.88,13.95c7.38,4.01,10.11,13.25,6.1,20.63-4.01,7.38-13.25,10.11-20.63,6.1-7.38-4.01-10.11-13.25-6.1-20.63,4.01-7.38,13.25-10.11,20.63-6.1Z"/>
    </clipPath>
    <clipPath id="clippath-84">
      <rect class="cls-2" x="10.39" y="12.05" width="28.14" height="6.86"/>
    </clipPath>
    <clipPath id="clippath-85">
      <path class="cls-2" d="m32.88,13.95c7.38,4.01,10.11,13.25,6.1,20.63-4.01,7.38-13.25,10.11-20.63,6.1-7.38-4.01-10.11-13.25-6.1-20.63,4.01-7.38,13.25-10.11,20.63-6.1Z"/>
    </clipPath>
    <clipPath id="clippath-86">
      <rect class="cls-2" x="10.39" y="12.05" width="28.48" height="8.65"/>
    </clipPath>
    <clipPath id="clippath-87">
      <path class="cls-2" d="m32.88,13.95c7.38,4.01,10.11,13.25,6.1,20.63-4.01,7.38-13.25,10.11-20.63,6.1-7.38-4.01-10.11-13.25-6.1-20.63,4.01-7.38,13.25-10.11,20.63-6.1Z"/>
    </clipPath>
    <clipPath id="clippath-88">
      <rect class="cls-2" x="10.39" y="12.05" width="28.82" height="8.71"/>
    </clipPath>
    <clipPath id="clippath-89">
      <path class="cls-2" d="m32.88,13.95c7.38,4.01,10.11,13.25,6.1,20.63-4.01,7.38-13.25,10.11-20.63,6.1-7.38-4.01-10.11-13.25-6.1-20.63,4.01-7.38,13.25-10.11,20.63-6.1Z"/>
    </clipPath>
    <clipPath id="clippath-90">
      <rect class="cls-2" x="10.39" y="12.35" width="29.16" height="10.12"/>
    </clipPath>
    <clipPath id="clippath-91">
      <path class="cls-2" d="m32.88,13.95c7.38,4.01,10.11,13.25,6.1,20.63-4.01,7.38-13.25,10.11-20.63,6.1-7.38-4.01-10.11-13.25-6.1-20.63,4.01-7.38,13.25-10.11,20.63-6.1Z"/>
    </clipPath>
    <clipPath id="clippath-92">
      <rect class="cls-2" x="10.39" y="12.18" width="29.21" height="10.61"/>
    </clipPath>
    <clipPath id="clippath-93">
      <path class="cls-2" d="m32.88,13.95c7.38,4.01,10.11,13.25,6.1,20.63-4.01,7.38-13.25,10.11-20.63,6.1-7.38-4.01-10.11-13.25-6.1-20.63,4.01-7.38,13.25-10.11,20.63-6.1Z"/>
    </clipPath>
    <clipPath id="clippath-94">
      <rect class="cls-2" x="10.39" y="14.24" width="29.51" height="9.95"/>
    </clipPath>
    <clipPath id="clippath-95">
      <path class="cls-2" d="m32.88,13.95c7.38,4.01,10.11,13.25,6.1,20.63-4.01,7.38-13.25,10.11-20.63,6.1-7.38-4.01-10.11-13.25-6.1-20.63,4.01-7.38,13.25-10.11,20.63-6.1Z"/>
    </clipPath>
    <clipPath id="clippath-96">
      <rect class="cls-2" x="10.39" y="13.9" width="29.81" height="10.64"/>
    </clipPath>
    <clipPath id="clippath-97">
      <path class="cls-2" d="m32.88,13.95c7.38,4.01,10.11,13.25,6.1,20.63-4.01,7.38-13.25,10.11-20.63,6.1-7.38-4.01-10.11-13.25-6.1-20.63,4.01-7.38,13.25-10.11,20.63-6.1Z"/>
    </clipPath>
    <clipPath id="clippath-98">
      <rect class="cls-2" x="10.39" y="15.96" width="30.11" height="10.12"/>
    </clipPath>
    <clipPath id="clippath-99">
      <path class="cls-2" d="m32.88,13.95c7.38,4.01,10.11,13.25,6.1,20.63-4.01,7.38-13.25,10.11-20.63,6.1-7.38-4.01-10.11-13.25-6.1-20.63,4.01-7.38,13.25-10.11,20.63-6.1Z"/>
    </clipPath>
    <clipPath id="clippath-100">
      <rect class="cls-2" x="10.39" y="15.63" width="30.41" height="10.62"/>
    </clipPath>
    <clipPath id="clippath-101">
      <path class="cls-2" d="m32.88,13.95c7.38,4.01,10.11,13.25,6.1,20.63-4.01,7.38-13.25,10.11-20.63,6.1-7.38-4.01-10.11-13.25-6.1-20.63,4.01-7.38,13.25-10.11,20.63-6.1Z"/>
    </clipPath>
    <clipPath id="clippath-102">
      <rect class="cls-2" x="10.39" y="17.72" width="30.54" height="10.14"/>
    </clipPath>
    <clipPath id="clippath-103">
      <path class="cls-2" d="m32.88,13.95c7.38,4.01,10.11,13.25,6.1,20.63-4.01,7.38-13.25,10.11-20.63,6.1-7.38-4.01-10.11-13.25-6.1-20.63,4.01-7.38,13.25-10.11,20.63-6.1Z"/>
    </clipPath>
    <clipPath id="clippath-104">
      <rect class="cls-2" x="10.39" y="17.42" width="30.54" height="10.54"/>
    </clipPath>
    <clipPath id="clippath-105">
      <path class="cls-2" d="m32.88,13.95c7.38,4.01,10.11,13.25,6.1,20.63-4.01,7.38-13.25,10.11-20.63,6.1-7.38-4.01-10.11-13.25-6.1-20.63,4.01-7.38,13.25-10.11,20.63-6.1Z"/>
    </clipPath>
    <clipPath id="clippath-106">
      <rect class="cls-2" x="10.39" y="19.51" width="30.54" height="10.14"/>
    </clipPath>
    <clipPath id="clippath-107">
      <path class="cls-2" d="m32.88,13.95c7.38,4.01,10.11,13.25,6.1,20.63-4.01,7.38-13.25,10.11-20.63,6.1-7.38-4.01-10.11-13.25-6.1-20.63,4.01-7.38,13.25-10.11,20.63-6.1Z"/>
    </clipPath>
    <clipPath id="clippath-108">
      <rect class="cls-2" x="10.39" y="19.39" width="30.54" height="10.57"/>
    </clipPath>
    <clipPath id="clippath-109">
      <path class="cls-2" d="m32.88,13.95c7.38,4.01,10.11,13.25,6.1,20.63-4.01,7.38-13.25,10.11-20.63,6.1-7.38-4.01-10.11-13.25-6.1-20.63,4.01-7.38,13.25-10.11,20.63-6.1Z"/>
    </clipPath>
    <clipPath id="clippath-110">
      <rect class="cls-2" x="10.39" y="21.45" width="30.54" height="9.95"/>
    </clipPath>
    <clipPath id="clippath-111">
      <path class="cls-2" d="m32.88,13.95c7.38,4.01,10.11,13.25,6.1,20.63-4.01,7.38-13.25,10.11-20.63,6.1-7.38-4.01-10.11-13.25-6.1-20.63,4.01-7.38,13.25-10.11,20.63-6.1Z"/>
    </clipPath>
    <clipPath id="clippath-112">
      <rect class="cls-2" x="10.39" y="21.1" width="30.54" height="10.64"/>
    </clipPath>
    <clipPath id="clippath-113">
      <path class="cls-2" d="m32.88,13.95c7.38,4.01,10.11,13.25,6.1,20.63-4.01,7.38-13.25,10.11-20.63,6.1-7.38-4.01-10.11-13.25-6.1-20.63,4.01-7.38,13.25-10.11,20.63-6.1Z"/>
    </clipPath>
    <clipPath id="clippath-114">
      <rect class="cls-2" x="10.39" y="23.16" width="30.54" height="10.07"/>
    </clipPath>
    <clipPath id="clippath-115">
      <path class="cls-2" d="m32.88,13.95c7.38,4.01,10.11,13.25,6.1,20.63-4.01,7.38-13.25,10.11-20.63,6.1-7.38-4.01-10.11-13.25-6.1-20.63,4.01-7.38,13.25-10.11,20.63-6.1Z"/>
    </clipPath>
    <clipPath id="clippath-116">
      <rect class="cls-2" x="10.39" y="22.82" width="30.54" height="10.64"/>
    </clipPath>
    <clipPath id="clippath-117">
      <path class="cls-2" d="m32.88,13.95c7.38,4.01,10.11,13.25,6.1,20.63-4.01,7.38-13.25,10.11-20.63,6.1-7.38-4.01-10.11-13.25-6.1-20.63,4.01-7.38,13.25-10.11,20.63-6.1Z"/>
    </clipPath>
    <clipPath id="clippath-118">
      <rect class="cls-2" x="10.39" y="24.88" width="30.54" height="10.14"/>
    </clipPath>
    <clipPath id="clippath-119">
      <path class="cls-2" d="m32.88,13.95c7.38,4.01,10.11,13.25,6.1,20.63-4.01,7.38-13.25,10.11-20.63,6.1-7.38-4.01-10.11-13.25-6.1-20.63,4.01-7.38,13.25-10.11,20.63-6.1Z"/>
    </clipPath>
    <clipPath id="clippath-120">
      <rect class="cls-2" x="10.39" y="24.88" width="30.54" height="10.45"/>
    </clipPath>
    <clipPath id="clippath-121">
      <path class="cls-2" d="m32.88,13.95c7.38,4.01,10.11,13.25,6.1,20.63-4.01,7.38-13.25,10.11-20.63,6.1-7.38-4.01-10.11-13.25-6.1-20.63,4.01-7.38,13.25-10.11,20.63-6.1Z"/>
    </clipPath>
    <clipPath id="clippath-122">
      <rect class="cls-2" x="10.39" y="26.67" width="30.54" height="10.14"/>
    </clipPath>
    <clipPath id="clippath-123">
      <path class="cls-2" d="m32.88,13.95c7.38,4.01,10.11,13.25,6.1,20.63-4.01,7.38-13.25,10.11-20.63,6.1-7.38-4.01-10.11-13.25-6.1-20.63,4.01-7.38,13.25-10.11,20.63-6.1Z"/>
    </clipPath>
    <clipPath id="clippath-124">
      <rect class="cls-2" x="10.39" y="26.67" width="30.54" height="10.44"/>
    </clipPath>
    <clipPath id="clippath-125">
      <path class="cls-2" d="m32.88,13.95c7.38,4.01,10.11,13.25,6.1,20.63-4.01,7.38-13.25,10.11-20.63,6.1-7.38-4.01-10.11-13.25-6.1-20.63,4.01-7.38,13.25-10.11,20.63-6.1Z"/>
    </clipPath>
    <clipPath id="clippath-126">
      <rect class="cls-2" x="10.74" y="28.65" width="30.19" height="9.95"/>
    </clipPath>
    <clipPath id="clippath-127">
      <path class="cls-2" d="m32.88,13.95c7.38,4.01,10.11,13.25,6.1,20.63-4.01,7.38-13.25,10.11-20.63,6.1-7.38-4.01-10.11-13.25-6.1-20.63,4.01-7.38,13.25-10.11,20.63-6.1Z"/>
    </clipPath>
    <clipPath id="clippath-128">
      <rect class="cls-2" x="10.39" y="28.46" width="30.54" height="10.44"/>
    </clipPath>
    <clipPath id="clippath-129">
      <path class="cls-2" d="m32.88,13.95c7.38,4.01,10.11,13.25,6.1,20.63-4.01,7.38-13.25,10.11-20.63,6.1-7.38-4.01-10.11-13.25-6.1-20.63,4.01-7.38,13.25-10.11,20.63-6.1Z"/>
    </clipPath>
    <clipPath id="clippath-130">
      <rect class="cls-2" x="11.26" y="30.37" width="29.67" height="10.03"/>
    </clipPath>
    <clipPath id="clippath-131">
      <path class="cls-2" d="m32.88,13.95c7.38,4.01,10.11,13.25,6.1,20.63-4.01,7.38-13.25,10.11-20.63,6.1-7.38-4.01-10.11-13.25-6.1-20.63,4.01-7.38,13.25-10.11,20.63-6.1Z"/>
    </clipPath>
    <clipPath id="clippath-132">
      <rect class="cls-2" x="11.08" y="30.25" width="29.85" height="10.41"/>
    </clipPath>
    <clipPath id="clippath-133">
      <path class="cls-2" d="m32.88,13.95c7.38,4.01,10.11,13.25,6.1,20.63-4.01,7.38-13.25,10.11-20.63,6.1-7.38-4.01-10.11-13.25-6.1-20.63,4.01-7.38,13.25-10.11,20.63-6.1Z"/>
    </clipPath>
    <clipPath id="clippath-134">
      <rect class="cls-2" x="11.86" y="32.34" width="29.07" height="10.04"/>
    </clipPath>
    <clipPath id="clippath-135">
      <path class="cls-2" d="m32.88,13.95c7.38,4.01,10.11,13.25,6.1,20.63-4.01,7.38-13.25,10.11-20.63,6.1-7.38-4.01-10.11-13.25-6.1-20.63,4.01-7.38,13.25-10.11,20.63-6.1Z"/>
    </clipPath>
    <clipPath id="clippath-136">
      <rect class="cls-2" x="11.56" y="32.08" width="29.37" height="10.4"/>
    </clipPath>
    <clipPath id="clippath-137">
      <path class="cls-2" d="m32.88,13.95c7.38,4.01,10.11,13.25,6.1,20.63-4.01,7.38-13.25,10.11-20.63,6.1-7.38-4.01-10.11-13.25-6.1-20.63,4.01-7.38,13.25-10.11,20.63-6.1Z"/>
    </clipPath>
    <clipPath id="clippath-138">
      <rect class="cls-2" x="12.16" y="34.14" width="28.77" height="8.58"/>
    </clipPath>
    <clipPath id="clippath-139">
      <path class="cls-2" d="m32.88,13.95c7.38,4.01,10.11,13.25,6.1,20.63-4.01,7.38-13.25,10.11-20.63,6.1-7.38-4.01-10.11-13.25-6.1-20.63,4.01-7.38,13.25-10.11,20.63-6.1Z"/>
    </clipPath>
    <clipPath id="clippath-140">
      <rect class="cls-2" x="12.16" y="33.83" width="28.77" height="8.89"/>
    </clipPath>
    <clipPath id="clippath-141">
      <path class="cls-2" d="m32.88,13.95c7.38,4.01,10.11,13.25,6.1,20.63-4.01,7.38-13.25,10.11-20.63,6.1-7.38-4.01-10.11-13.25-6.1-20.63,4.01-7.38,13.25-10.11,20.63-6.1Z"/>
    </clipPath>
    <clipPath id="clippath-142">
      <rect class="cls-2" x="12.79" y="35.92" width="28.14" height="6.8"/>
    </clipPath>
    <clipPath id="clippath-143">
      <path class="cls-2" d="m32.88,13.95c7.38,4.01,10.11,13.25,6.1,20.63-4.01,7.38-13.25,10.11-20.63,6.1-7.38-4.01-10.11-13.25-6.1-20.63,4.01-7.38,13.25-10.11,20.63-6.1Z"/>
    </clipPath>
    <clipPath id="clippath-144">
      <rect class="cls-2" x="12.46" y="35.62" width="28.47" height="7.1"/>
    </clipPath>
    <clipPath id="clippath-145">
      <path class="cls-2" d="m32.88,13.95c7.38,4.01,10.11,13.25,6.1,20.63-4.01,7.38-13.25,10.11-20.63,6.1-7.38-4.01-10.11-13.25-6.1-20.63,4.01-7.38,13.25-10.11,20.63-6.1Z"/>
    </clipPath>
    <clipPath id="clippath-146">
      <rect class="cls-2" x="13.48" y="37.71" width="27.45" height="5.01"/>
    </clipPath>
    <clipPath id="clippath-147">
      <path class="cls-2" d="m32.88,13.95c7.38,4.01,10.11,13.25,6.1,20.63-4.01,7.38-13.25,10.11-20.63,6.1-7.38-4.01-10.11-13.25-6.1-20.63,4.01-7.38,13.25-10.11,20.63-6.1Z"/>
    </clipPath>
    <clipPath id="clippath-148">
      <rect class="cls-2" x="13.14" y="37.41" width="27.79" height="5.31"/>
    </clipPath>
    <clipPath id="clippath-149">
      <path class="cls-2" d="m32.88,13.95c7.38,4.01,10.11,13.25,6.1,20.63-4.01,7.38-13.25,10.11-20.63,6.1-7.38-4.01-10.11-13.25-6.1-20.63,4.01-7.38,13.25-10.11,20.63-6.1Z"/>
    </clipPath>
    <clipPath id="clippath-150">
      <rect class="cls-2" x="13.95" y="39.5" width="26.98" height="3.22"/>
    </clipPath>
    <clipPath id="clippath-151">
      <path class="cls-2" d="m32.88,13.95c7.38,4.01,10.11,13.25,6.1,20.63-4.01,7.38-13.25,10.11-20.63,6.1-7.38-4.01-10.11-13.25-6.1-20.63,4.01-7.38,13.25-10.11,20.63-6.1Z"/>
    </clipPath>
    <clipPath id="clippath-152">
      <rect class="cls-2" x="13.65" y="39.29" width="27.28" height="3.43"/>
    </clipPath>
    <clipPath id="clippath-153">
      <path class="cls-2" d="m32.88,13.95c7.38,4.01,10.11,13.25,6.1,20.63-4.01,7.38-13.25,10.11-20.63,6.1-7.38-4.01-10.11-13.25-6.1-20.63,4.01-7.38,13.25-10.11,20.63-6.1Z"/>
    </clipPath>
  </defs>
  <path class="cls-4" d="m51.84,105.14l5.6-31.37,27.21,3.21-4.83,28.16h-27.98"/>
  <g class="cls-1">
    <path class="cls-3" d="m56.7,72.78l-.3,1.66-5.26,29.49-.38,2.1h29.8l.25-1.49,4.55-26.49.32-1.86-1.87-.22-25.44-3-1.67-.2Zm1.46,1.97l25.44,3-4.55,26.49h-26.16l5.26-29.49"/>
  </g>
  <path class="cls-3" d="m73.1,89.22c1.51,2.98,2.02,8.34,1.89,15.02h3.01l4.57-26.69-24.38-2.88c5.37,5.08,12.42,9.86,14.92,14.54"/>
  <path class="cls-4" d="m60.61,79.81c-3.18-2.37-6.19-6.86-7.91-10.72-1.86-4.21-1.07-10.22-.35-15.55.54-3.97,1.75-7.65,3.46-10.87,4.63-8.71,34.51-4.56,36.53,4.88.74,3.47-2.02,17.04-3.27,21.53-2.77,9.93-4.89,10.7-10.95,12.99"/>
  <path class="cls-3" d="m60.61,79.81s-.38-.29-1.08-.84c-.35-.28-.74-.67-1.22-1.11-.24-.22-.47-.49-.72-.76-.25-.28-.53-.56-.79-.89-.26-.33-.54-.67-.83-1.03-.27-.37-.56-.77-.85-1.18-.31-.4-.57-.86-.87-1.32-.31-.46-.57-.95-.87-1.46-.3-.5-.56-1.05-.85-1.61-.07-.15-.14-.26-.21-.44-.06-.14-.12-.29-.18-.44-.13-.28-.23-.61-.34-.94-.41-1.29-.63-2.69-.72-4.14-.19-2.91.1-6.05.49-9.3.05-.41.09-.8.16-1.24.06-.41.12-.82.18-1.24.08-.42.16-.85.24-1.28.09-.43.2-.85.29-1.28.42-1.71,1-3.41,1.73-5.09l.28-.63.3-.62.31-.62.02-.04s0,0,.04-.07l.04-.07.08-.15c.06-.1.11-.19.2-.31l.24-.34.25-.3c.17-.2.35-.38.53-.56.38-.35.78-.66,1.2-.93,1.7-1.09,3.59-1.68,5.5-2.05,1.91-.37,3.85-.52,5.79-.54,1.94-.02,3.88.11,5.81.34,1.93.25,3.84.61,5.71,1.11,1.87.49,3.72,1.11,5.48,1.91,1.76.8,3.46,1.78,4.9,3.16.72.68,1.36,1.49,1.81,2.41.11.24.22.47.29.72.05.12.09.25.12.38l.05.19.02.09v.05c.04.13.02.06.03.1l.08.67c.02.23.02.5.02.75v.38c0,.12,0,.23,0,.35-.01.23-.02.46-.03.69-.02.46-.07.9-.11,1.35-.09.89-.2,1.76-.33,2.61-.26,1.71-.55,3.38-.87,4.99-.63,3.23-1.33,6.25-2.09,9.02-.8,2.76-1.62,5.28-2.73,7.38-.26.53-.58,1.01-.87,1.49-.17.22-.33.44-.49.66-.16.22-.35.4-.52.6-.71.75-1.48,1.32-2.22,1.73-.18.11-.37.19-.54.29-.18.09-.35.18-.52.25-.34.14-.66.29-.97.4-.61.24-1.12.42-1.55.56-.85.29-1.3.44-1.3.44,0,0,.44-.19,1.26-.53.41-.18.92-.4,1.5-.67.58-.28,1.24-.61,1.93-1.05.69-.44,1.38-1.03,2.01-1.77.15-.19.32-.37.46-.59.14-.21.29-.43.43-.65.26-.46.53-.93.76-1.46.25-.51.45-1.07.67-1.63.2-.58.41-1.17.59-1.78.18-.62.38-1.24.55-1.91.09-.33.18-.66.27-1,.08-.34.17-.67.25-1.01.32-1.38.62-2.83.91-4.34.29-1.51.58-3.07.85-4.67.27-1.61.51-3.26.72-4.95.1-.84.19-1.7.27-2.56.03-.43.07-.86.08-1.29l.02-.64c0-.11,0-.22,0-.32v-.29c-.02-.2-.01-.38-.03-.6l-.09-.67s-.01-.09,0,.02l-.03-.1-.04-.14c-.02-.09-.05-.18-.09-.27-.06-.18-.15-.35-.23-.53-.36-.69-.88-1.34-1.5-1.91-.62-.57-1.33-1.09-2.08-1.54-.75-.46-1.55-.87-2.38-1.24-3.31-1.47-6.99-2.35-10.69-2.82-3.69-.47-7.48-.53-11.03.12-.89.17-1.75.39-2.58.67s-1.62.63-2.33,1.07c-.35.22-.68.47-.98.73-.14.14-.29.27-.42.42l-.19.22-.15.21c-.1.12-.25.4-.32.52l-.3.59-.3.58-.27.59c-.72,1.58-1.29,3.2-1.75,4.82-.1.4-.22.81-.31,1.21-.09.4-.18.8-.26,1.2-.07.41-.14.82-.22,1.23-.07.38-.12.81-.18,1.2-.47,3.22-.87,6.27-.8,9.07.03,1.4.2,2.73.52,3.94.08.29.15.59.27.89.05.15.11.3.16.44.04.12.12.27.18.41.25.55.48,1.1.75,1.61.26.51.5,1.01.78,1.47.13.23.27.46.39.69.06.11.13.23.19.34.07.11.14.21.2.32.27.42.53.82.77,1.21.27.37.52.73.76,1.06.23.35.49.64.72.93.24.28.44.56.66.8.44.46.8.88,1.13,1.19.67.6,1.02.91,1.02.91"/>
  <path class="cls-3" d="m89.98,54.27c-.59-.17-23.66-7.06-35.21-5.22-.46,1.53-.81,3.12-1.03,4.77-.29,2.11-.58,4.34-.69,6.51,6.1-1.76,9.07-4.78,16.61,2.84,4.65,4.71,11.51,3.7,17.92,4.33.76-2.94,1.79-8.73,2.41-13.23"/>
  <path class="cls-4" d="m25.61,42.88c-2.57,0-5.14-.65-7.42-1.89-7.54-4.1-10.34-13.56-6.24-21.1,2.72-5.02,7.97-8.13,13.68-8.13,2.57,0,5.14.66,7.42,1.89,7.54,4.1,10.33,13.56,6.24,21.1-2.73,5.02-7.97,8.13-13.68,8.13"/>
  <g class="cls-5">
    <path class="cls-3" d="m25.63,11.42h0c-5.84,0-11.2,3.18-13.98,8.31-4.19,7.7-1.32,17.38,6.38,21.57,2.33,1.26,4.95,1.93,7.58,1.93,5.84,0,11.2-3.18,13.98-8.31,4.19-7.7,1.33-17.38-6.38-21.57-2.33-1.26-4.95-1.93-7.58-1.93Zm0,.69c2.46,0,4.95.6,7.25,1.85,7.38,4.01,10.11,13.25,6.1,20.63-2.76,5.07-7.98,7.95-13.38,7.95-2.45,0-4.94-.6-7.25-1.85-7.38-4.01-10.11-13.25-6.1-20.63,2.76-5.07,7.98-7.95,13.38-7.95"/>
  </g>
  <g class="cls-8">
    <g class="cls-7">
      <path class="cls-4" d="m4.19,14.54l10.4,35.16"/>
    </g>
  </g>
  <g class="cls-6">
    <g class="cls-12">
      <path class="cls-3" d="m3.97,14.6l10.4,35.16c.03.12.16.19.28.16.12-.04.19-.16.16-.29L4.4,14.47c-.03-.12-.16-.19-.28-.15s-.19.16-.16.29"/>
    </g>
  </g>
  <g class="cls-11">
    <g class="cls-9">
      <path class="cls-4" d="m6.09,13.97l10.4,35.16"/>
    </g>
  </g>
  <g class="cls-10">
    <g class="cls-13">
      <path class="cls-3" d="m5.87,14.04l10.4,35.16c.04.12.16.19.29.15.12-.04.19-.16.16-.29L6.32,13.91c-.04-.12-.16-.19-.29-.16-.12.04-.19.16-.16.29"/>
    </g>
  </g>
  <g class="cls-97">
    <g class="cls-102">
      <path class="cls-4" d="m8.01,13.41l10.4,35.16"/>
    </g>
  </g>
  <g class="cls-96">
    <g class="cls-95">
      <path class="cls-3" d="m7.79,13.48l10.4,35.16c.04.12.16.19.29.16s.19-.16.15-.29L8.23,13.35c-.03-.12-.16-.19-.28-.16-.12.04-.19.16-.16.29"/>
    </g>
  </g>
  <g class="cls-94">
    <g class="cls-98">
      <path class="cls-4" d="m9.91,12.85l10.4,35.16"/>
    </g>
  </g>
  <g class="cls-100">
    <g class="cls-99">
      <path class="cls-3" d="m9.69,12.91l10.4,35.16c.03.12.16.19.29.16.12-.04.19-.16.15-.29L10.14,12.78c-.03-.12-.16-.19-.28-.16-.12.04-.19.16-.16.29"/>
    </g>
  </g>
  <g class="cls-103">
    <g class="cls-101">
      <path class="cls-4" d="m11.83,12.28l10.4,35.16"/>
    </g>
  </g>
  <g class="cls-16">
    <g class="cls-17">
      <path class="cls-3" d="m11.6,12.35l10.4,35.16c.04.12.16.19.29.15.12-.04.19-.16.15-.29L12.05,12.21c-.04-.12-.16-.19-.29-.15-.12.04-.19.16-.16.29"/>
    </g>
  </g>
  <g class="cls-20">
    <g class="cls-19">
      <path class="cls-4" d="m13.74,11.72l10.4,35.16"/>
    </g>
  </g>
  <g class="cls-18">
    <g class="cls-21">
      <path class="cls-3" d="m13.51,11.78l10.4,35.16c.03.12.16.19.28.16.12-.04.19-.16.15-.29L13.95,11.65c-.03-.12-.16-.19-.28-.16-.12.04-.19.16-.16.29"/>
    </g>
  </g>
  <g class="cls-45">
    <g class="cls-43">
      <path class="cls-4" d="m15.65,11.15l10.4,35.16"/>
    </g>
  </g>
  <g class="cls-44">
    <g class="cls-46">
      <path class="cls-3" d="m15.42,11.22l10.4,35.16c.04.12.16.19.29.16.12-.04.19-.16.15-.29L15.87,11.09c-.04-.12-.16-.19-.29-.16s-.19.16-.16.29"/>
    </g>
  </g>
  <g class="cls-54">
    <g class="cls-56">
      <path class="cls-4" d="m17.56,10.59l10.4,35.16"/>
    </g>
  </g>
  <g class="cls-53">
    <g class="cls-52">
      <path class="cls-3" d="m17.33,10.65l10.4,35.16c.03.12.16.19.28.16.12-.04.19-.16.16-.29L17.77,10.52c-.03-.12-.16-.19-.28-.16-.12.04-.19.16-.16.29"/>
    </g>
  </g>
  <g class="cls-47">
    <g class="cls-48">
      <path class="cls-4" d="m19.46,10.02l10.4,35.16"/>
    </g>
  </g>
  <g class="cls-49">
    <g class="cls-50">
      <path class="cls-3" d="m19.24,10.09l10.4,35.16c.04.12.16.19.29.15.12-.03.19-.16.16-.28L19.68,9.96c-.04-.12-.16-.19-.29-.16-.12.04-.19.16-.15.29"/>
    </g>
  </g>
  <g class="cls-55">
    <g class="cls-51">
      <path class="cls-4" d="m21.37,9.46l10.4,35.16"/>
    </g>
  </g>
  <g class="cls-24">
    <g class="cls-26">
      <path class="cls-3" d="m21.15,9.52l10.4,35.16c.04.12.16.19.29.15.12-.04.19-.16.16-.29L21.59,9.39c-.04-.12-.16-.19-.29-.16-.12.04-.19.16-.15.29"/>
    </g>
  </g>
  <g class="cls-25">
    <g class="cls-28">
      <path class="cls-4" d="m23.28,8.89l10.4,35.16"/>
    </g>
  </g>
  <g class="cls-22">
    <g class="cls-23">
      <path class="cls-3" d="m23.06,8.96l10.4,35.16c.04.12.16.19.29.16.12-.04.19-.16.16-.29L23.51,8.83c-.04-.12-.16-.19-.29-.16s-.19.16-.16.29"/>
    </g>
  </g>
  <g class="cls-29">
    <g class="cls-27">
      <path class="cls-4" d="m25.19,8.33l10.4,35.16"/>
    </g>
  </g>
  <g class="cls-30">
    <g class="cls-31">
      <path class="cls-3" d="m24.97,8.39l10.4,35.16c.04.12.16.19.29.16s.19-.16.16-.29L25.42,8.26c-.04-.12-.16-.19-.29-.16-.12.04-.19.16-.16.29"/>
    </g>
  </g>
  <g class="cls-68">
    <g class="cls-69">
      <path class="cls-4" d="m27.1,7.76l10.4,35.16"/>
    </g>
  </g>
  <g class="cls-70">
    <g class="cls-66">
      <path class="cls-3" d="m26.88,7.83l10.4,35.16c.04.12.16.19.29.15.12-.03.19-.16.16-.28L27.32,7.7c-.03-.12-.16-.19-.28-.15-.12.04-.19.16-.16.29"/>
    </g>
  </g>
  <g class="cls-67">
    <g class="cls-71">
      <path class="cls-4" d="m29.01,7.2l10.4,35.16"/>
    </g>
  </g>
  <g class="cls-72">
    <g class="cls-73">
      <path class="cls-3" d="m28.79,7.26l10.4,35.16c.04.12.16.19.29.16.12-.04.19-.16.16-.29L29.23,7.13c-.03-.12-.16-.19-.28-.16-.12.04-.19.16-.16.29"/>
    </g>
  </g>
  <g class="cls-74">
    <g class="cls-82">
      <path class="cls-4" d="m30.92,6.63l10.4,35.16"/>
    </g>
  </g>
  <g class="cls-14">
    <g class="cls-76">
      <path class="cls-3" d="m30.7,6.7l10.4,35.16c.04.12.16.19.29.16.12-.04.19-.16.15-.29L31.14,6.57c-.04-.12-.16-.19-.29-.16-.12.04-.19.16-.16.29"/>
    </g>
  </g>
  <g class="cls-78">
    <g class="cls-84">
      <path class="cls-4" d="m32.83,6.07l10.4,35.16"/>
    </g>
  </g>
  <g class="cls-77">
    <g class="cls-83">
      <path class="cls-3" d="m32.61,6.13l10.4,35.16c.04.12.16.19.29.16s.19-.16.15-.29L33.05,6c-.04-.12-.16-.19-.29-.16-.12.04-.19.16-.15.29"/>
    </g>
  </g>
  <g class="cls-85">
    <g class="cls-80">
      <path class="cls-4" d="m34.74,5.5l10.4,35.16"/>
    </g>
  </g>
  <g class="cls-79">
    <g class="cls-15">
      <path class="cls-3" d="m34.52,5.57l10.4,35.16c.04.12.16.19.29.15s.19-.16.16-.29L34.96,5.44c-.03-.12-.16-.19-.28-.15-.12.04-.19.16-.16.29"/>
    </g>
  </g>
  <g class="cls-86">
    <g class="cls-90">
      <path class="cls-4" d="m36.65,4.94l10.4,35.16"/>
    </g>
  </g>
  <g class="cls-88">
    <g class="cls-81">
      <path class="cls-3" d="m36.43,5l10.4,35.16c.03.12.16.19.28.15.12-.04.19-.16.16-.29L36.87,4.87c-.04-.12-.16-.19-.29-.16-.12.04-.19.16-.15.29"/>
    </g>
  </g>
  <g class="cls-92">
    <g class="cls-87">
      <path class="cls-4" d="m37.19,5.21L3.88,15.06"/>
    </g>
  </g>
  <g class="cls-93">
    <g class="cls-91">
      <path class="cls-3" d="m37.13,4.99L3.82,14.84c-.12.04-.19.16-.15.29.04.12.16.19.29.16L37.26,5.43c.12-.04.19-.16.15-.29-.03-.12-.16-.19-.28-.15"/>
    </g>
  </g>
  <g class="cls-89">
    <g class="cls-75">
      <path class="cls-4" d="m37.73,7.02L4.42,16.87"/>
    </g>
  </g>
  <g class="cls-38">
    <g class="cls-35">
      <path class="cls-3" d="m37.66,6.8L4.35,16.65c-.12.04-.19.16-.16.29.04.12.16.19.29.16L37.79,7.24c.12-.03.19-.16.15-.29s-.16-.19-.29-.15"/>
    </g>
  </g>
  <g class="cls-40">
    <g class="cls-36">
      <path class="cls-4" d="m38.26,8.83L4.95,18.68"/>
    </g>
  </g>
  <g class="cls-32">
    <g class="cls-37">
      <path class="cls-3" d="m38.19,8.61L4.89,18.46c-.12.04-.19.16-.16.29.04.12.16.19.29.16l33.31-9.85c.12-.04.19-.16.15-.29-.04-.12-.16-.19-.29-.16"/>
    </g>
  </g>
  <g class="cls-34">
    <g class="cls-39">
      <path class="cls-4" d="m38.8,10.64L5.49,20.49"/>
    </g>
  </g>
  <g class="cls-33">
    <g class="cls-42">
      <path class="cls-3" d="m38.73,10.42L5.42,20.27c-.12.04-.19.16-.16.29.03.12.16.19.28.15l33.31-9.85c.12-.04.19-.16.15-.29s-.16-.19-.29-.15"/>
    </g>
  </g>
  <g class="cls-63">
    <g class="cls-61">
      <path class="cls-4" d="m39.33,12.44L6.02,22.3"/>
    </g>
  </g>
  <g class="cls-64">
    <g class="cls-59">
      <path class="cls-3" d="m39.27,12.22L5.96,22.08c-.12.04-.19.16-.16.29.03.12.16.19.28.16l33.31-9.85c.12-.04.19-.16.15-.29-.03-.12-.16-.19-.28-.16"/>
    </g>
  </g>
  <g class="cls-60">
    <g class="cls-57">
      <path class="cls-4" d="m39.86,14.26L6.56,24.1"/>
    </g>
  </g>
  <g class="cls-62">
    <g class="cls-65">
      <path class="cls-3" d="m39.8,14.03L6.49,23.88c-.12.04-.19.16-.16.29s.16.19.29.16l33.31-9.85c.12-.04.19-.16.16-.29-.04-.12-.16-.19-.29-.16"/>
    </g>
  </g>
  <g class="cls-41">
    <g class="cls-58">
      <path class="cls-4" d="m40.4,16.06L7.09,25.91"/>
    </g>
  </g>
  <g class="cls-129">
    <g class="cls-135">
      <path class="cls-3" d="m40.34,15.84L7.03,25.69c-.12.04-.19.16-.16.29s.16.19.29.15l33.31-9.85c.12-.04.19-.16.16-.29-.03-.12-.16-.19-.29-.16"/>
    </g>
  </g>
  <g class="cls-130">
    <g class="cls-131">
      <path class="cls-4" d="m40.93,17.87L7.63,27.72"/>
    </g>
  </g>
  <g class="cls-134">
    <g class="cls-128">
      <path class="cls-3" d="m40.87,17.65L7.56,27.5c-.12.04-.19.16-.16.29.03.12.16.19.28.16l33.31-9.85c.12-.04.19-.16.16-.29-.03-.12-.16-.19-.28-.15"/>
    </g>
  </g>
  <g class="cls-137">
    <g class="cls-132">
      <path class="cls-4" d="m41.47,19.68L8.16,29.53"/>
    </g>
  </g>
  <g class="cls-136">
    <g class="cls-133">
      <path class="cls-3" d="m41.4,19.46L8.1,29.31c-.12.04-.19.16-.16.29.03.12.16.19.29.15l33.31-9.85c.12-.04.19-.16.16-.29-.04-.12-.16-.19-.29-.15"/>
    </g>
  </g>
  <g class="cls-121">
    <g class="cls-120">
      <path class="cls-4" d="m42.01,21.49L8.7,31.34"/>
    </g>
  </g>
  <g class="cls-119">
    <g class="cls-118">
      <path class="cls-3" d="m41.94,21.27L8.63,31.12c-.12.04-.19.16-.16.29.04.12.16.19.29.16l33.31-9.85c.12-.03.19-.16.16-.29s-.16-.19-.29-.16"/>
    </g>
  </g>
  <g class="cls-123">
    <g class="cls-122">
      <path class="cls-4" d="m42.54,23.3l-33.31,9.85"/>
    </g>
  </g>
  <g class="cls-124">
    <g class="cls-125">
      <path class="cls-3" d="m42.47,23.08l-33.31,9.85c-.12.04-.19.16-.15.29s.16.19.29.16l33.31-9.85c.12-.04.19-.16.16-.29-.04-.12-.16-.19-.29-.15"/>
    </g>
  </g>
  <g class="cls-126">
    <g class="cls-127">
      <path class="cls-4" d="m43.08,25.11l-33.31,9.85"/>
    </g>
  </g>
  <g class="cls-152">
    <g class="cls-153">
      <path class="cls-3" d="m43.01,24.89l-33.31,9.85c-.12.04-.19.16-.15.29s.16.19.29.15l33.31-9.85c.12-.04.19-.16.16-.29s-.16-.19-.29-.16"/>
    </g>
  </g>
  <g class="cls-149">
    <g class="cls-154">
      <path class="cls-4" d="m43.61,26.92l-33.31,9.85"/>
    </g>
  </g>
  <g class="cls-155">
    <g class="cls-151">
      <path class="cls-3" d="m43.54,26.7l-33.31,9.85c-.12.04-.19.16-.15.29.04.12.16.19.29.16l33.31-9.85c.12-.04.19-.16.15-.29s-.16-.19-.29-.16"/>
    </g>
  </g>
  <g class="cls-150">
    <g class="cls-156">
      <path class="cls-4" d="m44.15,28.73l-33.31,9.85"/>
    </g>
  </g>
  <g class="cls-157">
    <g class="cls-148">
      <path class="cls-3" d="m44.08,28.51l-33.31,9.85c-.12.04-.19.16-.15.29.04.12.16.19.29.15l33.31-9.85c.12-.04.19-.16.15-.29s-.16-.19-.29-.16"/>
    </g>
  </g>
  <g class="cls-143">
    <g class="cls-147">
      <path class="cls-4" d="m44.68,30.54l-33.31,9.85"/>
    </g>
  </g>
  <g class="cls-141">
    <g class="cls-144">
      <path class="cls-3" d="m44.61,30.32l-33.31,9.85c-.12.04-.19.16-.16.29.04.12.16.19.29.16l33.31-9.85c.12-.04.19-.16.15-.29-.04-.12-.16-.19-.29-.16"/>
    </g>
  </g>
  <g class="cls-145">
    <g class="cls-140">
      <path class="cls-4" d="m45.22,32.35l-33.31,9.85"/>
    </g>
  </g>
  <g class="cls-138">
    <g class="cls-142">
      <path class="cls-3" d="m45.15,32.12l-33.31,9.85c-.12.04-.19.16-.16.29.04.12.16.19.29.16l33.31-9.85c.12-.04.19-.16.15-.29-.04-.12-.16-.19-.29-.16"/>
    </g>
  </g>
  <g class="cls-139">
    <g class="cls-146">
      <path class="cls-4" d="m45.75,34.15l-33.31,9.85"/>
    </g>
  </g>
  <g class="cls-114">
    <g class="cls-109">
      <path class="cls-3" d="m45.68,33.93l-33.31,9.85c-.12.04-.19.16-.16.29.03.12.16.19.28.15l33.31-9.85c.12-.03.19-.16.16-.29-.04-.12-.16-.19-.29-.15"/>
    </g>
  </g>
  <g class="cls-107">
    <g class="cls-111">
      <path class="cls-4" d="m46.29,35.96l-33.31,9.85"/>
    </g>
  </g>
  <g class="cls-104">
    <g class="cls-110">
      <path class="cls-3" d="m46.22,35.74l-33.31,9.85c-.12.03-.19.16-.16.28.04.12.16.19.29.16l33.31-9.85c.12-.04.19-.16.16-.29-.04-.12-.16-.19-.29-.16"/>
    </g>
  </g>
  <g class="cls-106">
    <g class="cls-112">
      <path class="cls-4" d="m46.82,37.77l-33.31,9.85"/>
    </g>
  </g>
  <g class="cls-108">
    <g class="cls-113">
      <path class="cls-3" d="m46.76,37.55l-33.31,9.85c-.12.04-.19.16-.16.29s.16.19.29.16l33.31-9.85c.12-.04.19-.16.16-.29-.03-.12-.16-.19-.28-.15"/>
    </g>
  </g>
  <g class="cls-117">
    <g class="cls-115">
      <path class="cls-4" d="m47.36,39.58l-33.31,9.85"/>
    </g>
  </g>
  <g class="cls-116">
    <g class="cls-105">
      <path class="cls-3" d="m47.29,39.36l-33.31,9.85c-.12.04-.19.16-.16.29.03.12.16.19.28.16l33.31-9.85c.12-.03.19-.16.16-.28-.04-.12-.16-.19-.29-.16"/>
    </g>
  </g>
  <path class="cls-3" d="m115.45,78.99c-.05,0-.1-.01-.15-.03l-22.28-9.31c-.1-.04-.18-.13-.22-.23-.04-.11-.03-.22.03-.32l4.4-8.09c.05-.1.15-.17.26-.2.03,0,.06-.01.09-.01.08,0,.16.02.22.07l19.93,13.63c.17.12.22.34.12.52l-2.05,3.77c-.07.13-.21.21-.35.21"/>
  <path class="cls-3" d="m97.57,60.39c-.06,0-.12,0-.19.02-.22.05-.4.2-.51.39l-4.4,8.09c-.11.2-.13.43-.05.64s.24.38.44.47l22.28,9.31c.1.04.21.06.31.06.28,0,.56-.15.7-.42l2.05-3.77c.19-.36.09-.8-.25-1.04l-19.93-13.63c-.13-.09-.29-.14-.45-.14Zm0,.8l19.93,13.63-2.05,3.77-22.28-9.31,4.4-8.09"/>
  <path class="cls-4" d="m31.6,41.58l9.23-16.99,65.92,41.51-4.47,8.22L31.6,41.58"/>
  <path class="cls-3" d="m40.69,24.03l-.41.75-8.83,16.24-.41.75.77.36,69.96,32.41.68.31.36-.66,4.11-7.56.36-.66-.63-.4L41.41,24.48l-.72-.45Zm.29,1.12l65.25,41.08-4.11,7.57L32.16,41.39l8.83-16.24"/>
  <path class="cls-3" d="m105.49,67.6l-2.63,4.84L33.75,38.47l5.65-10.39,66.1,39.52"/>
  <path class="cls-4" d="m62.35,46.3l-.83,1.53-16.52-7.84,1.79-3.29,15.56,9.59"/>
  <path class="cls-4" d="m18.8,43.32c-.4,0-.78-.11-1.11-.33-.95-.62-1.23-1.9-.61-2.86,5.41-8.5,10.29-17.47,14.48-26.64.34-.74,1.08-1.22,1.9-1.22.29,0,.57.06.84.18.5.22.88.63,1.08,1.15.2.53.18,1.1-.06,1.61-4.27,9.34-9.23,18.47-14.75,27.14-.39.61-1.05.97-1.76.97"/>
  <path class="cls-3" d="m33.45,11.92c-.95,0-1.82.56-2.21,1.42-4.19,9.16-9.05,18.1-14.46,26.59-.71,1.12-.39,2.62.72,3.34.39.25.84.38,1.3.38.83,0,1.6-.42,2.05-1.13,5.53-8.68,10.5-17.82,14.77-27.18.27-.6.3-1.27.07-1.88-.23-.6-.68-1.08-1.26-1.34-.31-.14-.64-.21-.98-.21Zm0,.69c.23,0,.47.05.7.15.87.39,1.25,1.42.85,2.3-4.28,9.36-9.2,18.41-14.73,27.1-.34.53-.9.81-1.47.81-.32,0-.64-.09-.92-.27-.8-.52-1.02-1.59-.51-2.39,5.44-8.55,10.29-17.46,14.5-26.68.29-.64.92-1.02,1.58-1.02"/>
  <path class="cls-3" d="m33.69,14.47c-4.25,9.3-9.14,18.3-14.63,26.92-.31.49-.86.71-1.39.63.1.15.24.29.4.39.64.41,1.5.22,1.92-.43,5.52-8.67,10.43-17.71,14.7-27.05.32-.7.02-1.53-.68-1.84-.17-.08-.36-.12-.54-.12.36.4.47.99.23,1.51"/>
  <path class="cls-4" d="m32.05,43.33c-.27,0-.54-.08-.76-.23-.65-.42-.84-1.31-.42-1.96,3.38-5.31,6.42-10.9,9.03-16.62.23-.51.75-.84,1.3-.84.2,0,.4.04.58.12.34.15.61.43.74.79.14.36.12.75-.04,1.11-2.67,5.84-5.77,11.55-9.22,16.97-.27.42-.72.67-1.21.67"/>
  <path class="cls-3" d="m41.2,23.33c-.69,0-1.33.41-1.62,1.04-2.61,5.71-5.64,11.29-9.01,16.58-.52.82-.29,1.91.53,2.44.28.18.61.28.95.28.61,0,1.17-.31,1.5-.83,3.46-5.43,6.57-11.15,9.24-17.01.2-.44.22-.93.05-1.38-.17-.44-.5-.79-.92-.98-.23-.1-.47-.15-.72-.15Zm0,.69c.15,0,.29.03.44.09.54.24.78.89.53,1.44-2.67,5.85-5.75,11.5-9.2,16.92-.21.33-.56.51-.92.51-.2,0-.4-.05-.58-.17-.5-.32-.64-.99-.32-1.49,3.4-5.34,6.43-10.91,9.06-16.66.18-.4.58-.64.99-.64"/>
  <path class="cls-3" d="m41.35,25.18c-2.65,5.81-5.71,11.43-9.14,16.82-.19.3-.54.45-.87.39.06.1.15.18.25.25.4.26.94.14,1.2-.27,3.45-5.41,6.52-11.06,9.19-16.9.2-.44.01-.96-.42-1.15-.11-.05-.22-.07-.34-.08.22.25.29.62.14.94"/>
  <path class="cls-4" d="m60.09,56.05c-.27,0-.54-.03-.78-.08-2.01-.42-2.9-2.75-3.69-6.39-1.55-7.2-2-9.99-1.81-13.44.23-4.15,1.96-6.82,4.63-7.13.56-.07,1.1-.1,1.61-.1,4.57,0,6.47,2.72,6.71,5.26.36,3.73.06,6.5-.39,10.7-.19,1.71-.4,3.65-.6,6.03-.31,3.51-3.56,5.15-5.66,5.15h0"/>
  <path class="cls-3" d="m60.05,28.02c-.54,0-1.12.04-1.71.11-3.14.37-5.17,3.35-5.42,7.97-.19,3.55.26,6.39,1.83,13.67.7,3.27,1.62,6.51,4.38,7.08.31.06.63.09.97.09,2.9,0,6.23-2.28,6.56-5.97.21-2.37.42-4.3.6-6.01.46-4.25.76-7.05.4-10.88-.28-2.94-2.43-6.07-7.6-6.07Zm0,1.79c4.48,0,5.66,2.74,5.82,4.45.49,5.11-.27,8.26-1,16.56-.25,2.9-2.93,4.33-4.77,4.33-.21,0-.42-.02-.6-.06-1.46-.3-2.24-2.19-2.99-5.7-1.55-7.22-1.97-9.91-1.79-13.2.1-1.82.71-5.93,3.84-6.29.54-.06,1.04-.09,1.5-.09"/>
  <path class="cls-3" d="m55.69,40.29c.11,1.42.37,3.2.84,5.93.4,2.38.87,3.67,1.84,3.92,1.2.3,3.45-.54,3.74-2.71.36-2.7,1.07-10.2.25-9.77-3.88,2.03-4.6,2.38-6.67,2.63"/>
  <path class="cls-4" d="m68.91,54.94c-.35,0-.71-.03-1.06-.1-3.09-.58-3.2-3.66-3.32-7.22-.25-7.26-.19-10.06.61-13.41.46-1.9,1.93-6.32,5.65-6.32.07,0,.14,0,.22,0,3.24.16,5.05,1.48,5.99,2.55.96,1.1,1.47,2.48,1.36,3.7-.31,3.71-1.11,6.38-2.31,10.42-.49,1.65-1.05,3.52-1.69,5.82-.78,2.81-2.87,4.56-5.45,4.56"/>
  <path class="cls-3" d="m70.79,26.98c-3.07,0-5.45,2.55-6.52,7.01-.83,3.46-.89,6.3-.64,13.66.06,1.78.12,3.46.54,4.82.56,1.83,1.75,2.92,3.51,3.25.41.08.82.11,1.22.11,3.01,0,5.43-2,6.32-5.22.63-2.29,1.19-4.15,1.68-5.8,1.22-4.09,2.03-6.8,2.35-10.6.12-1.46-.47-3.09-1.58-4.36-1.06-1.21-3.06-2.68-6.62-2.86-.09,0-.18,0-.26,0Zm0,1.79c.06,0,.12,0,.18,0,4.91.24,6.67,3.4,6.51,5.28-.43,5.07-1.76,8.05-3.98,16.08-.75,2.72-2.65,3.91-4.59,3.91-.3,0-.6-.03-.89-.08-2.35-.44-2.47-2.83-2.59-6.37-.25-7.28-.18-9.98.59-13.18.42-1.73,1.72-5.64,4.78-5.64"/>
  <path class="cls-3" d="m65.84,40.41c-.04,1.32,0,2.97.07,5.29.08,2.45.35,5.2,1.97,5.51,1.53.29,3.2-.48,3.8-2.65.29-1.05.82-5.06,1.44-7.71.67-2.84-2.95,3.81-7.28-.44"/>
  <path class="cls-4" d="m78.73,57.76c-.6,0-1.35-.09-2.43-.29-3.71-.7-3.31-4.58-3.05-7.15.73-7.19,1.16-9.95,2.43-13.18.67-1.7,2.58-5.67,5.93-5.67.26,0,.52.03.78.07,3.31.61,4.93,2.14,5.71,3.32.76,1.15,1.05,2.48.79,3.64-.81,3.63-1.97,6.18-3.73,10.05-.71,1.58-1.53,3.37-2.47,5.56-.91,2.11-1.56,3.64-3.96,3.64"/>
  <path class="cls-3" d="m81.61,30.58c-3.9,0-6.03,4.36-6.76,6.24-1.3,3.32-1.74,6.12-2.48,13.41-.2,1.98-.26,3.57.14,4.91.51,1.75,1.77,2.85,3.63,3.2,1.15.22,1.92.31,2.59.31,2.99,0,3.86-2.03,4.78-4.18.94-2.19,1.75-3.97,2.46-5.54,1.78-3.92,2.95-6.51,3.78-10.22.31-1.39-.02-2.97-.91-4.33-.88-1.32-2.68-3.04-6.3-3.71-.31-.06-.63-.09-.94-.09Zm0,1.79c.2,0,.41.02.62.06,4.87.9,6.2,4.05,5.79,5.88-1.11,4.96-2.84,7.76-6.15,15.46-.96,2.24-1.42,3.1-3.14,3.1-.59,0-1.32-.1-2.26-.27-2.54-.48-2.68-2.67-2.32-6.17.74-7.21,1.17-9.86,2.37-12.94.62-1.58,2.32-5.1,5.09-5.1"/>
  <path class="cls-3" d="m75,50.86c-.27,2.58-.16,4.2,1.71,4.55,2.75.51,3.03.13,3.98-2.08.55-1.27,1.99-4.55,2.99-6.83.43-.98-4.47.92-7.91-1.69-.27,1.46-.49,3.3-.77,6.05"/>
  <path class="cls-4" d="m88.12,59.42c-.63,0-1.23-.14-1.77-.27-.17-.04-.33-.08-.49-.11-1.3-.26-2.79-1.31-2.43-4.81.48-4.68,3.61-15.31,6.97-15.31.19,0,.38.03.56.1,2.82,1.01,5.63,3.57,5.17,5.62-.66,2.94-1.6,5.02-3.03,8.16-.58,1.28-1.24,2.73-2.01,4.52-.6,1.4-1.6,2.11-2.98,2.11h0"/>
  <path class="cls-3" d="m90.41,38.18c-1.09,0-2.11.69-3.1,2.12-.7,1-1.39,2.35-2.06,4.02-1.26,3.15-2.23,6.92-2.53,9.83-.44,4.25,1.7,5.33,3.01,5.6.14.03.3.07.46.11.54.13,1.22.29,1.94.29,1.67,0,2.93-.88,3.65-2.56.77-1.78,1.42-3.23,2-4.51,1.44-3.18,2.4-5.28,3.07-8.3.57-2.54-2.48-5.33-5.63-6.46-.26-.09-.53-.14-.81-.14Zm0,1.45c.11,0,.21.02.32.06,2.75.99,5.04,3.29,4.7,4.78-.91,4.03-2.31,6.3-4.99,12.55-.57,1.33-1.43,1.68-2.31,1.68-.74,0-1.5-.25-2.11-.37-1.19-.24-2.14-1.18-1.85-4.03.57-5.6,3.83-14.66,6.25-14.66"/>
  <path class="cls-3" d="m85.23,54.01c-.23,2.2.51,2.93,1.43,3.11,1.03.21,2.61.88,3.42-1.01.46-1.08,1.64-3.78,2.41-5.51.06-.15-3.02,1.97-6.15-1.69-.54,1.75-.95,3.59-1.11,5.1"/>
  <path class="cls-4" d="m55.21,73.24c-1.34-1.55-2.75-3.52-4.03-5.97-4.3-8.23-3.67-17.97.67-20.55,3.97-2.36,11.59.11,15.98-1.47,1.67-.59,4.12.32,4.07,3.21-.16,8.61-9.54,8.87-12.18,8.69,0,0,14.56,2.21,12.2,10.4"/>
  <path class="cls-3" d="m55.21,73.24c-1.01-1.02-1.94-2.13-2.79-3.3-.42-.59-.82-1.19-1.19-1.81-.38-.61-.74-1.25-1.05-1.91-.64-1.31-1.17-2.67-1.58-4.08-.42-1.4-.71-2.84-.87-4.3-.16-1.46-.19-2.95-.04-4.43.16-1.48.5-2.97,1.17-4.37.34-.7.77-1.37,1.32-1.97.28-.3.58-.57.92-.81.08-.06.17-.12.26-.17l.08-.05.04-.03h.03s.12-.08.12-.08l.24-.13.29-.14c.76-.35,1.51-.53,2.27-.65.76-.12,1.51-.18,2.24-.2,1.48-.04,2.93.03,4.35.09,1.42.05,2.83.12,4.19.02.68-.05,1.34-.15,1.95-.32l.49-.15c.07-.02.21-.06.33-.09.11-.02.22-.05.34-.06.45-.06.9-.04,1.34.05.88.17,1.72.68,2.26,1.44.55.75.76,1.65.76,2.48v.31s-.02.27-.02.27c-.01.18-.03.39-.05.58-.04.38-.11.76-.19,1.14-.17.76-.43,1.5-.81,2.2-.75,1.39-1.93,2.51-3.26,3.25-1.33.76-2.79,1.18-4.25,1.4-1.46.22-2.93.28-4.4.13l.08-.76c.39.07.75.15,1.13.23.37.09.74.18,1.11.28.74.2,1.46.42,2.18.68,1.44.51,2.84,1.13,4.14,1.94.64.41,1.27.87,1.82,1.4.55.53,1.05,1.13,1.41,1.81.36.68.59,1.43.64,2.19.02.38,0,.76-.04,1.14-.05.38-.14.74-.25,1.1.09-.37.16-.74.2-1.11.03-.37.03-.75-.02-1.12-.08-.74-.34-1.46-.72-2.09-.77-1.27-1.98-2.22-3.25-2.96-1.29-.74-2.69-1.29-4.11-1.74-.71-.22-1.43-.42-2.16-.59-.36-.08-.73-.16-1.09-.23-.36-.07-.74-.14-1.09-.19-.21-.03-.36-.22-.33-.43.03-.19.2-.33.39-.33h.02c1.39.03,2.8-.09,4.16-.38,1.35-.29,2.66-.76,3.8-1.46,1.14-.7,2.07-1.67,2.63-2.83.58-1.15.81-2.5.79-3.81-.02-.6-.18-1.15-.5-1.56-.31-.41-.78-.68-1.3-.78-.26-.05-.53-.06-.79-.02-.07,0-.13.02-.19.04-.05.01-.09.02-.19.05l-.54.17c-.76.22-1.53.33-2.27.4-1.5.12-2.96.08-4.4,0-1.43-.07-2.85-.15-4.23-.12-.69.02-1.37.06-2.03.16-.65.1-1.3.26-1.86.5l-.2.08-.24.12-.12.06h-.03s.04,0,.01,0h-.01s-.05.04-.05.04c-.06.04-.13.08-.19.12-.25.17-.48.37-.7.59-.43.45-.8.98-1.09,1.57-.6,1.17-.93,2.51-1.12,3.86-.18,1.36-.21,2.76-.1,4.14.11,1.39.34,2.77.67,4.14.33,1.36.78,2.7,1.33,4,.56,1.29,1.19,2.57,1.89,3.8.35.62.72,1.23,1.12,1.82.38.6.8,1.18,1.23,1.76"/>
  <path class="cls-3" d="m70.39,48.18s-4.2,4.13-8.15,4.94c-2.1.43-2.27,2.54-2.27,2.54,0,0,4.3.27,7.52-1.93,2.21-1.51,2.77-3.72,2.9-5.55"/>
  <path class="cls-3" d="m72.28,73.86l5.9,8.3-13.13-1.61c-5.66-2.65-9.03-8.25-10.84-11.87.38.29,4.96,5.22,18.08,5.18"/>
</svg>