<?xml version="1.0" encoding="UTF-8"?>
<svg id="Layer_1" data-name="Layer 1" xmlns="http://www.w3.org/2000/svg" xmlns:xlink="http://www.w3.org/1999/xlink" viewBox="0 0 87.23 128">
  <defs>
    <style>
      .cls-1 {
        clip-path: url(#clippath);
      }

      .cls-2 {
        fill: none;
      }

      .cls-2, .cls-3 {
        stroke-width: 0px;
      }

      .cls-4 {
        clip-path: url(#clippath-1);
      }

      .cls-5 {
        clip-path: url(#clippath-4);
      }

      .cls-6 {
        clip-path: url(#clippath-3);
      }

      .cls-7 {
        clip-path: url(#clippath-2);
      }

      .cls-8 {
        clip-path: url(#clippath-7);
      }

      .cls-9 {
        clip-path: url(#clippath-8);
      }

      .cls-10 {
        clip-path: url(#clippath-6);
      }

      .cls-11 {
        clip-path: url(#clippath-5);
      }

      .cls-12 {
        clip-path: url(#clippath-9);
      }

      .cls-13 {
        clip-path: url(#clippath-20);
      }

      .cls-14 {
        clip-path: url(#clippath-21);
      }

      .cls-15 {
        clip-path: url(#clippath-24);
      }

      .cls-16 {
        clip-path: url(#clippath-23);
      }

      .cls-17 {
        clip-path: url(#clippath-22);
      }

      .cls-18 {
        clip-path: url(#clippath-25);
      }

      .cls-19 {
        clip-path: url(#clippath-27);
      }

      .cls-20 {
        clip-path: url(#clippath-28);
      }

      .cls-21 {
        clip-path: url(#clippath-26);
      }

      .cls-22 {
        clip-path: url(#clippath-29);
      }

      .cls-23 {
        clip-path: url(#clippath-34);
      }

      .cls-24 {
        clip-path: url(#clippath-35);
      }

      .cls-25 {
        clip-path: url(#clippath-36);
      }

      .cls-26 {
        clip-path: url(#clippath-37);
      }

      .cls-27 {
        clip-path: url(#clippath-33);
      }

      .cls-28 {
        clip-path: url(#clippath-32);
      }

      .cls-29 {
        clip-path: url(#clippath-30);
      }

      .cls-30 {
        clip-path: url(#clippath-38);
      }

      .cls-31 {
        clip-path: url(#clippath-31);
      }

      .cls-32 {
        clip-path: url(#clippath-14);
      }

      .cls-33 {
        clip-path: url(#clippath-13);
      }

      .cls-34 {
        clip-path: url(#clippath-12);
      }

      .cls-35 {
        clip-path: url(#clippath-10);
      }

      .cls-36 {
        clip-path: url(#clippath-15);
      }

      .cls-37 {
        clip-path: url(#clippath-17);
      }

      .cls-38 {
        clip-path: url(#clippath-16);
      }

      .cls-39 {
        clip-path: url(#clippath-19);
      }

      .cls-40 {
        clip-path: url(#clippath-11);
      }

      .cls-41 {
        clip-path: url(#clippath-18);
      }

      .cls-3 {
        fill: #0bafa5;
      }
    </style>
    <clipPath id="clippath">
      <rect class="cls-2" x="7.37" y="4.64" width="72.49" height="118.71"/>
    </clipPath>
    <clipPath id="clippath-1">
      <rect class="cls-2" x="-16.39" y="17.43" width="106.37" height="106.11" transform="translate(-42.71 71.52) rotate(-63.18)"/>
    </clipPath>
    <clipPath id="clippath-2">
      <rect class="cls-2" x="-16.39" y="17.43" width="106.37" height="106.11" transform="translate(-42.71 71.52) rotate(-63.18)"/>
    </clipPath>
    <clipPath id="clippath-3">
      <rect class="cls-2" x="32.58" y="94.29" width="32.22" height="20.31"/>
    </clipPath>
    <clipPath id="clippath-4">
      <rect class="cls-2" x="-16.39" y="17.43" width="106.37" height="106.11" transform="translate(-42.71 71.52) rotate(-63.18)"/>
    </clipPath>
    <clipPath id="clippath-5">
      <rect class="cls-2" x="-16.39" y="17.43" width="106.37" height="106.11" transform="translate(-42.71 71.52) rotate(-63.18)"/>
    </clipPath>
    <clipPath id="clippath-6">
      <rect class="cls-2" x="56.39" y="33.36" width="9.46" height="4.2"/>
    </clipPath>
    <clipPath id="clippath-7">
      <rect class="cls-2" x="42.39" y="1.28" width="31.52" height="44.65" transform="translate(-3.93 32.78) rotate(-30.5)"/>
    </clipPath>
    <clipPath id="clippath-8">
      <rect class="cls-2" x="42.39" y="1.28" width="31.52" height="44.65" transform="translate(-3.93 32.78) rotate(-30.5)"/>
    </clipPath>
    <clipPath id="clippath-9">
      <rect class="cls-2" x="57.45" y="42.46" width="3.5" height="4.9"/>
    </clipPath>
    <clipPath id="clippath-10">
      <rect class="cls-2" x="42.39" y="1.28" width="31.52" height="44.65" transform="translate(-3.93 32.78) rotate(-30.5)"/>
    </clipPath>
    <clipPath id="clippath-11">
      <rect class="cls-2" x="42.39" y="1.28" width="31.52" height="44.65" transform="translate(-3.93 32.78) rotate(-30.5)"/>
    </clipPath>
    <clipPath id="clippath-12">
      <rect class="cls-2" x="55.69" y="33.36" width="7.35" height="16.11"/>
    </clipPath>
    <clipPath id="clippath-13">
      <rect class="cls-2" x="42.39" y="1.28" width="31.52" height="44.65" transform="translate(-3.93 32.78) rotate(-30.5)"/>
    </clipPath>
    <clipPath id="clippath-14">
      <rect class="cls-2" x="42.39" y="1.28" width="31.52" height="44.65" transform="translate(-3.93 32.78) rotate(-30.5)"/>
    </clipPath>
    <clipPath id="clippath-15">
      <rect class="cls-2" x="58.85" y="9.2" width="9.46" height="3.85"/>
    </clipPath>
    <clipPath id="clippath-16">
      <rect class="cls-2" x="42.39" y="1.28" width="31.52" height="44.65" transform="translate(-3.93 32.78) rotate(-30.5)"/>
    </clipPath>
    <clipPath id="clippath-17">
      <rect class="cls-2" x="42.39" y="1.28" width="31.52" height="44.65" transform="translate(-3.93 32.78) rotate(-30.5)"/>
    </clipPath>
    <clipPath id="clippath-18">
      <rect class="cls-2" x="67.95" y="20.4" width="2.8" height="2.8"/>
    </clipPath>
    <clipPath id="clippath-19">
      <rect class="cls-2" x="42.39" y="1.28" width="31.52" height="44.65" transform="translate(-3.93 32.78) rotate(-30.5)"/>
    </clipPath>
    <clipPath id="clippath-20">
      <rect class="cls-2" x="42.39" y="1.28" width="31.52" height="44.65" transform="translate(-3.93 32.78) rotate(-30.5)"/>
    </clipPath>
    <clipPath id="clippath-21">
      <rect class="cls-2" x="66.55" y="9.2" width="5.95" height="15.76"/>
    </clipPath>
    <clipPath id="clippath-22">
      <rect class="cls-2" x="42.39" y="1.28" width="31.52" height="44.65" transform="translate(-3.93 32.78) rotate(-30.5)"/>
    </clipPath>
    <clipPath id="clippath-23">
      <rect class="cls-2" x="42.39" y="1.28" width="31.52" height="44.65" transform="translate(-3.93 32.78) rotate(-30.5)"/>
    </clipPath>
    <clipPath id="clippath-24">
      <rect class="cls-2" x="57.45" y="21.45" width="3.15" height="3.15"/>
    </clipPath>
    <clipPath id="clippath-25">
      <rect class="cls-2" x="42.39" y="1.28" width="31.52" height="44.65" transform="translate(-3.93 32.78) rotate(-30.5)"/>
    </clipPath>
    <clipPath id="clippath-26">
      <rect class="cls-2" x="42.39" y="1.28" width="31.52" height="44.65" transform="translate(-3.93 32.78) rotate(-30.5)"/>
    </clipPath>
    <clipPath id="clippath-27">
      <rect class="cls-2" x="55.69" y="12" width="7" height="14.36"/>
    </clipPath>
    <clipPath id="clippath-28">
      <rect class="cls-2" x="42.39" y="1.28" width="31.52" height="44.65" transform="translate(-3.93 32.78) rotate(-30.5)"/>
    </clipPath>
    <clipPath id="clippath-29">
      <rect class="cls-2" x="42.39" y="1.28" width="31.52" height="44.65" transform="translate(-3.93 32.78) rotate(-30.5)"/>
    </clipPath>
    <clipPath id="clippath-30">
      <rect class="cls-2" x="35.03" y="10.25" width="11.56" height="2.8"/>
    </clipPath>
    <clipPath id="clippath-31">
      <rect class="cls-2" x="42.39" y="1.28" width="31.52" height="44.65" transform="translate(-3.93 32.78) rotate(-30.5)"/>
    </clipPath>
    <clipPath id="clippath-32">
      <rect class="cls-2" x="42.39" y="1.28" width="31.52" height="44.65" transform="translate(-3.93 32.78) rotate(-30.5)"/>
    </clipPath>
    <clipPath id="clippath-33">
      <rect class="cls-2" x="40.64" y="18.3" width="3.15" height="5.25"/>
    </clipPath>
    <clipPath id="clippath-34">
      <rect class="cls-2" x="42.39" y="1.28" width="31.52" height="44.65" transform="translate(-3.93 32.78) rotate(-30.5)"/>
    </clipPath>
    <clipPath id="clippath-35">
      <rect class="cls-2" x="42.39" y="1.28" width="31.52" height="44.65" transform="translate(-3.93 32.78) rotate(-30.5)"/>
    </clipPath>
    <clipPath id="clippath-36">
      <rect class="cls-2" x="35.03" y="10.95" width="10.86" height="14.36"/>
    </clipPath>
    <clipPath id="clippath-37">
      <rect class="cls-2" x="42.39" y="1.28" width="31.52" height="44.65" transform="translate(-3.93 32.78) rotate(-30.5)"/>
    </clipPath>
    <clipPath id="clippath-38">
      <rect class="cls-2" x="42.39" y="1.28" width="31.52" height="44.65" transform="translate(-3.93 32.78) rotate(-30.5)"/>
    </clipPath>
  </defs>
  <g class="cls-1">
    <g class="cls-4">
      <g class="cls-7">
        <path class="cls-3" d="m23.15,4.94l-14.14,4.68c-1.06.35-1.63,1.49-1.29,2.55l1.64,5.06c1.63,5.03,4.25,7.47,5.43,9.21l8.61,26.61c-.39.21-7.27,1.59-11,8.98-2.96,5.86-2.34,13.03,1.59,18.25.72.96.78,2.27.15,3.26-3.99,6.31-5.1,14.02-3.05,21.16,4.06,14.11,19.08,21.9,33.13,17.24l17.46-5.78c13.48-4.46,21.27-19.26,16.46-33.23-2.29-6.65-7.04-11.95-13.39-14.94-2.97-1.39-5.07-3.93-5.77-6.95-2.31-9.98-12.62-15.4-22.04-12.49l-8.6-26.59c-.06-2.13.62-5.66-1.01-10.7l-1.63-5.04c-.35-1.07-1.5-1.65-2.56-1.3Zm.58,35.97l5.87-1.94,3.52,10.86-5.87,1.94-3.51-10.86Zm9.27,36.2l4.82,2.39c.99.49,2.19.1,2.69-.88l2.49-4.81c.87-1.68,2.94-2.37,4.62-1.54,1.68.83,2.27,2.85,1.43,4.45-.17.33-4.61,8.88-6.56,12.65-3.81-1.88-12.4-6.14-12.68-6.27-.79-.39-1.38-1.06-1.65-1.89-.92-2.81,2.15-5.43,4.84-4.09Zm4.83-2.12c-3.1-1.52-3.09-1.55-3.66-1.77l-5.69-17.59,5.87-1.94,5.62,17.35c-.53.74-.6,1.04-2.14,3.95Zm17.21-13.03c.98,4.24,3.89,7.77,7.99,9.7,5.35,2.52,9.35,6.99,11.28,12.59,3.93,11.43-2.15,24.18-13.91,28.07l-17.46,5.78c-11.88,3.93-24.55-2.63-27.97-14.52-1.75-6.07-.78-12.58,2.58-17.88,1.52-2.41,1.39-5.56-.34-7.86-5.42-7.21-2.16-17.78,6.49-20.64l.93-.31,5.18,16.01c-2.17.5-4.05,1.92-5.07,3.95-1.85,3.65-.4,8.06,3.26,9.87.36.18,14.33,7.09,14.46,7.15.99.49,2.19.1,2.7-.88.08-.16,7.48-14.42,7.51-14.49.89-1.76,1.05-3.75.44-5.62-1.31-4.01-5.75-6.06-9.75-4.5l-5.17-15.98c7.21-2.2,15.08,1.92,16.84,9.54Zm-26.7-26.84l-5.87,1.94-3.33-10.29,5.87-1.94,3.33,10.29Zm-4.86-22.6c1.31,4.04.8,7.06.84,8.27l-7,2.32c-.69-1.02-2.83-3.12-4.13-7.13l-1.02-3.15,10.3-3.41,1,3.1Z"/>
      </g>
    </g>
  </g>
  <g class="cls-6">
    <g class="cls-5">
      <g class="cls-11">
        <path class="cls-3" d="m37.56,100.49c-3.69,1.22-5.72,5.23-4.52,8.93l.05.14c1.2,3.72,5.19,5.74,8.9,4.51l17.62-5.84c3.68-1.22,5.72-5.21,4.52-8.93l-.05-.14c-1.21-3.72-5.19-5.74-8.9-4.51l-17.63,5.84Zm22.67-.08l.05.14c.51,1.59-.36,3.31-1.94,3.84l-17.63,5.84c-.76.25-1.57.19-2.29-.17-1.24-.63-1.51-1.84-1.53-1.89-.51-1.59.36-3.31,1.94-3.84l17.62-5.84c.76-.25,1.57-.19,2.29.17s1.24.98,1.49,1.74Z"/>
      </g>
    </g>
  </g>
  <g class="cls-10">
    <g class="cls-8">
      <g class="cls-9">
        <path class="cls-3" d="m65.56,35.06c-.03.14-.08.27-.14.4-.19.37-.44.69-.76.95-.28.22-.59.41-.92.56-.33.15-.67.26-1.03.32-.35.07-.71.09-1.07.06-.36-.02-.71-.09-1.06-.2-.79-.24-1.49-.62-2.11-1.16-.4-.34-.75-.73-1.06-1.15-.3-.42-.56-.86-.78-1.32,0,0,.63.15,1.51.44.88.3,2.02.71,3.09,1.02,1,.3,2.01.41,3.05.33.31-.03.63-.09.93-.17l.34-.1Z"/>
      </g>
    </g>
  </g>
  <g class="cls-12">
    <g class="cls-35">
      <g class="cls-40">
        <path class="cls-3" d="m60.74,43.98c-.01.31-.11.59-.29.85-.46.64-1,1.19-1.64,1.65-.2.12-.3.24-.45.33l-.22.13s-.09.05-.14.08c-.05.05-.11.07-.18.04-.05-.03-.08-.08-.09-.15t-.02-.12c.01-.1.03-.2.05-.3.11-.44.27-.85.48-1.26.36-.7.82-1.32,1.39-1.87.23-.22.47-.43.73-.63.05.09.11.18.17.28.14.3.21.62.2.96Z"/>
      </g>
    </g>
  </g>
  <g class="cls-34">
    <g class="cls-33">
      <g class="cls-32">
        <path class="cls-3" d="m62.57,42.4c-.24-.49-.5-.84-.71-1.2-.21-.36-.42-.72-.63-1.07-.81-1.38-1.66-2.57-2.33-3.52-.13-.22-.28-.4-.44-.63-1.05-1.46-1.74-2.34-1.85-2.46.31,1.11.69,2.19,1.11,3.26.41,1.05.94,2.35,1.63,3.85.25.53.51,1.09.79,1.68-.31.11-.62.24-.92.39-.66.36-1.24.81-1.75,1.36-.51.55-.92,1.17-1.22,1.85-.07.16-.13.33-.19.49-.07.23-.11.46-.12.69-.01.25.02.5.1.74.08.24.2.45.37.65.13.14.28.25.45.35.17.1.34.17.53.22s.37.07.56.07c.19,0,.38-.03.56-.09.22-.06.34-.11.48-.16l.37-.22c.23-.11.45-.24.66-.39.93-.57,1.71-1.31,2.34-2.21.36-.57.56-1.18.6-1.85.03-.64-.1-1.24-.37-1.81Zm-2.12,2.43c-.46.64-1,1.19-1.65,1.65-.2.12-.3.24-.45.33l-.22.13s-.09.05-.14.08c-.05.05-.11.07-.18.04-.05-.03-.08-.08-.09-.15t-.02-.12c.01-.1.03-.2.05-.3.11-.44.27-.85.48-1.26.36-.7.82-1.32,1.39-1.87.23-.22.47-.43.73-.63.05.09.11.18.17.28.14.3.21.62.2.96-.02.31-.12.6-.31.85h.02Z"/>
      </g>
    </g>
  </g>
  <g class="cls-36">
    <g class="cls-38">
      <g class="cls-37">
        <path class="cls-3" d="m68.16,9.46l-.39.07-1.05.22c-.87.2-2.02.46-3.29.84-1.27.37-2.38.78-3.23,1.06l-1,.38-.33.16s.11.06.32.16c.32.14.64.24.98.31,1.3.28,2.58.23,3.85-.16,1.2-.37,2.26-.99,3.16-1.86.26-.27.5-.56.71-.86l.26-.32Z"/>
      </g>
    </g>
  </g>
  <g class="cls-41">
    <g class="cls-39">
      <g class="cls-13">
        <path class="cls-3" d="m70.39,20.74c.06.59-.04,1.15-.31,1.67-.09.2-.22.36-.39.49-.17.13-.36.22-.57.27-.18.02-.36,0-.54-.07-.17-.07-.32-.18-.43-.33-.08-.16-.12-.34-.1-.52.02-.18.09-.35.2-.49.24-.3.53-.53.87-.71.34-.18.7-.29,1.08-.32.06,0,.12,0,.18,0Z"/>
      </g>
    </g>
  </g>
  <g class="cls-14">
    <g class="cls-17">
      <g class="cls-16">
        <path class="cls-3" d="m69.8,12.45c-.46-.97-.87-1.72-1.16-2.22s-.46-.78-.46-.78c.03.05.19,1.13.59,3.03.2.97.45,2.17.75,3.59.15.7.3,1.46.46,2.29s.33,1.45.38,2.15l-.11-.02c-.37-.06-.74-.08-1.11-.05-.56.04-1.07.23-1.51.59-.28.22-.5.5-.66.82-.19.4-.24.82-.15,1.26.09.5.34.91.73,1.24.39.32.84.52,1.34.59.27.03.53.03.79,0,.27-.05.53-.13.78-.26.47-.25.86-.59,1.17-1.03.29-.43.5-.9.63-1.41.13-.51.18-1.02.13-1.54-.08-.87-.25-1.72-.5-2.56-.21-.76-.46-1.5-.68-2.17-.4-1.19-.87-2.36-1.41-3.5Zm.6,8.34c.06.59-.04,1.15-.31,1.67-.09.19-.22.36-.39.49-.17.13-.36.22-.56.27-.19.02-.36,0-.54-.07-.17-.07-.32-.18-.43-.33-.08-.16-.12-.34-.1-.52.02-.18.09-.35.2-.49.24-.3.53-.54.87-.72s.7-.28,1.08-.32c.06-.01.12-.02.18-.03v.03Z"/>
      </g>
    </g>
  </g>
  <g class="cls-15">
    <g class="cls-18">
      <g class="cls-21">
        <path class="cls-3" d="m60.54,21.79c.02.14.02.27.02.41,0,.24-.05.46-.17.67-.18.27-.41.5-.69.67-.3.22-.72.5-1.02.67-.2.15-.43.23-.67.26-.08,0-.15,0-.22-.02-.04,0-.07-.02-.1-.05-.05-.04-.08-.09-.09-.15.01-.14.05-.27.12-.39.17-.31.38-.58.64-.81.46-.44.99-.78,1.57-1.02.2-.09.4-.17.61-.23Z"/>
      </g>
    </g>
  </g>
  <g class="cls-19">
    <g class="cls-20">
      <g class="cls-22">
        <path class="cls-3" d="m60.42,15.33c-.89-1.95-1.57-3.12-1.57-3.12,0,0,.17,1.24.56,3.28.19,1.01.42,2.23.68,3.6l.4,2.15.03.15c-.19,0-.39,0-.58.01-.75.06-1.45.27-2.1.63-.46.24-.87.56-1.21.95-.22.25-.38.54-.49.86-.06.19-.1.39-.09.59,0,.2.03.4.1.58.07.19.16.36.28.52.12.16.27.29.44.4.28.18.58.3.92.35.61.07,1.2-.04,1.75-.32.44-.22.87-.47,1.27-.75.54-.33.98-.77,1.32-1.3.29-.5.44-1.03.43-1.61,0-.45-.06-.9-.17-1.34-.19-.78-.39-1.46-.62-2.14-.41-1.36-.9-2.54-1.34-3.52Zm.15,6.87c0,.24-.05.46-.17.67-.18.27-.41.5-.69.67-.3.22-.72.5-1.02.67-.2.15-.43.23-.67.26-.08,0-.15,0-.22-.02-.04,0-.07-.02-.1-.05-.05-.04-.08-.09-.09-.15.01-.14.05-.27.12-.39.17-.31.38-.58.64-.81.46-.44.99-.78,1.57-1.02.19-.08.38-.16.58-.22.02.13.04.26.05.4Z"/>
      </g>
    </g>
  </g>
  <g class="cls-29">
    <g class="cls-31">
      <g class="cls-28">
        <path class="cls-3" d="m35.25,11.26c.09.13.19.25.3.36.31.32.68.57,1.08.76.69.27,1.4.44,2.13.51s1.47.02,2.19-.13c1.6-.3,2.84-.65,3.79-.72.4-.02.8-.01,1.19.03l.45.05c-.08-.11-.17-.22-.27-.32-.3-.29-.63-.53-1.01-.7-.61-.27-1.26-.43-1.93-.48-.86-.06-1.71-.01-2.56.14-1.5.27-2.75.61-3.72.67-.4.03-.81,0-1.21-.06-.29-.05-.44-.11-.44-.11Z"/>
      </g>
    </g>
  </g>
  <g class="cls-27">
    <g class="cls-23">
      <g class="cls-24">
        <path class="cls-3" d="m43.75,20.45c.05.67-.11,1.28-.49,1.83-.12.24-.29.44-.5.61s-.44.29-.7.36c-.23,0-.45-.05-.64-.17s-.34-.29-.44-.5c-.28-.46-.38-.96-.31-1.5.21-.91.62-1.72,1.23-2.43l.26-.33.34.31c.3.22.56.49.77.8.21.31.37.65.47,1.01Z"/>
      </g>
    </g>
  </g>
  <g class="cls-25">
    <g class="cls-26">
      <g class="cls-30">
        <path class="cls-3" d="m45.02,18.47c-.33-.42-.7-.79-1.11-1.12-.72-.57-1.37-1.08-2.02-1.56-1.29-.95-2.46-1.78-3.45-2.44-1.88-1.27-3.12-1.98-3.19-2.09.07.12.84,1.07,2.31,2.62.78.83,1.77,1.82,2.97,2.96.45.43.93.88,1.45,1.35l-.28.21c-.33.24-.65.5-.94.79-.43.41-.76.88-1.01,1.42-.17.37-.27.75-.29,1.15s.02.8.14,1.18c.15.47.39.87.72,1.23.4.44.9.7,1.49.78.62.09,1.2-.03,1.74-.35.49-.28.91-.65,1.25-1.11.33-.44.59-.92.77-1.45.21-.6.28-1.21.21-1.84-.09-.65-.34-1.22-.75-1.73Zm-1.27,1.98c.05.67-.11,1.28-.49,1.83-.12.24-.29.44-.5.61s-.44.29-.7.36c-.23,0-.45-.05-.64-.17s-.34-.29-.44-.5c-.28-.46-.38-.96-.31-1.5.21-.91.62-1.72,1.23-2.43l.26-.33.34.31c.3.22.56.49.77.8.21.31.37.65.47,1.01Z"/>
      </g>
    </g>
  </g>
</svg>